%TF.GenerationSoftware,KiCad,Pcbnew,(5.1.4)-1*%
%TF.CreationDate,2021-02-10T09:57:32+00:00*%
%TF.ProjectId,WLED Module,574c4544-204d-46f6-9475-6c652e6b6963,rev?*%
%TF.SameCoordinates,Original*%
%TF.FileFunction,Copper,L1,Top*%
%TF.FilePolarity,Positive*%
%FSLAX46Y46*%
G04 Gerber Fmt 4.6, Leading zero omitted, Abs format (unit mm)*
G04 Created by KiCad (PCBNEW (5.1.4)-1) date 2021-02-10 09:57:32*
%MOMM*%
%LPD*%
G04 APERTURE LIST*
%ADD10C,0.050000*%
%ADD11C,1.700000*%
%ADD12C,0.100000*%
%ADD13R,0.650000X1.525000*%
%ADD14C,1.275000*%
%ADD15R,1.275000X1.275000*%
%ADD16C,5.600000*%
%ADD17C,2.700000*%
%ADD18C,2.780000*%
%ADD19O,1.700000X1.700000*%
%ADD20R,1.700000X1.700000*%
%ADD21C,1.150000*%
%ADD22C,0.500000*%
%ADD23C,0.950000*%
%ADD24R,5.000000X5.000000*%
%ADD25R,0.900000X2.000000*%
%ADD26R,2.000000X0.900000*%
%ADD27R,3.800000X2.000000*%
%ADD28R,1.500000X2.000000*%
%ADD29C,0.800000*%
%ADD30C,0.635000*%
%ADD31C,0.250000*%
%ADD32C,0.254000*%
G04 APERTURE END LIST*
D10*
X254254000Y-130048000D02*
X259334000Y-130048000D01*
X172466000Y-83312000D02*
X259334000Y-83312000D01*
X259334000Y-83312000D02*
X259334000Y-130048000D01*
X183642000Y-91440000D02*
X182880000Y-91440000D01*
X183642000Y-121920000D02*
X183642000Y-91440000D01*
X182880000Y-121920000D02*
X183642000Y-121920000D01*
X254254000Y-130048000D02*
X172720000Y-130048000D01*
X172466000Y-91440000D02*
X172466000Y-83312000D01*
X182880000Y-91440000D02*
X172466000Y-91440000D01*
X172720000Y-121920000D02*
X182880000Y-121920000D01*
X172720000Y-130048000D02*
X172720000Y-121920000D01*
D11*
X214440000Y-104780000D03*
X214440000Y-102240000D03*
X214440000Y-99700000D03*
X211900000Y-104780000D03*
X211900000Y-102240000D03*
D12*
G36*
X212524504Y-98851204D02*
G01*
X212548773Y-98854804D01*
X212572571Y-98860765D01*
X212595671Y-98869030D01*
X212617849Y-98879520D01*
X212638893Y-98892133D01*
X212658598Y-98906747D01*
X212676777Y-98923223D01*
X212693253Y-98941402D01*
X212707867Y-98961107D01*
X212720480Y-98982151D01*
X212730970Y-99004329D01*
X212739235Y-99027429D01*
X212745196Y-99051227D01*
X212748796Y-99075496D01*
X212750000Y-99100000D01*
X212750000Y-100300000D01*
X212748796Y-100324504D01*
X212745196Y-100348773D01*
X212739235Y-100372571D01*
X212730970Y-100395671D01*
X212720480Y-100417849D01*
X212707867Y-100438893D01*
X212693253Y-100458598D01*
X212676777Y-100476777D01*
X212658598Y-100493253D01*
X212638893Y-100507867D01*
X212617849Y-100520480D01*
X212595671Y-100530970D01*
X212572571Y-100539235D01*
X212548773Y-100545196D01*
X212524504Y-100548796D01*
X212500000Y-100550000D01*
X211300000Y-100550000D01*
X211275496Y-100548796D01*
X211251227Y-100545196D01*
X211227429Y-100539235D01*
X211204329Y-100530970D01*
X211182151Y-100520480D01*
X211161107Y-100507867D01*
X211141402Y-100493253D01*
X211123223Y-100476777D01*
X211106747Y-100458598D01*
X211092133Y-100438893D01*
X211079520Y-100417849D01*
X211069030Y-100395671D01*
X211060765Y-100372571D01*
X211054804Y-100348773D01*
X211051204Y-100324504D01*
X211050000Y-100300000D01*
X211050000Y-99100000D01*
X211051204Y-99075496D01*
X211054804Y-99051227D01*
X211060765Y-99027429D01*
X211069030Y-99004329D01*
X211079520Y-98982151D01*
X211092133Y-98961107D01*
X211106747Y-98941402D01*
X211123223Y-98923223D01*
X211141402Y-98906747D01*
X211161107Y-98892133D01*
X211182151Y-98879520D01*
X211204329Y-98869030D01*
X211227429Y-98860765D01*
X211251227Y-98854804D01*
X211275496Y-98851204D01*
X211300000Y-98850000D01*
X212500000Y-98850000D01*
X212524504Y-98851204D01*
X212524504Y-98851204D01*
G37*
D11*
X211900000Y-99700000D03*
D13*
X195068000Y-86686000D03*
X196338000Y-86686000D03*
X197608000Y-86686000D03*
X198878000Y-86686000D03*
X200148000Y-86686000D03*
X201418000Y-86686000D03*
X202688000Y-86686000D03*
X202688000Y-92110000D03*
X201418000Y-92110000D03*
X200148000Y-92110000D03*
X198878000Y-92110000D03*
X197608000Y-92110000D03*
X196338000Y-92110000D03*
X195068000Y-92110000D03*
D14*
X243276000Y-93980000D03*
D15*
X239776000Y-93980000D03*
D16*
X254508000Y-126238000D03*
X254508000Y-87630000D03*
X187706000Y-126238000D03*
X187706000Y-87630000D03*
D17*
X243840000Y-105514000D03*
D12*
G36*
X244964503Y-108125204D02*
G01*
X244988772Y-108128804D01*
X245012570Y-108134765D01*
X245035670Y-108143030D01*
X245057849Y-108153520D01*
X245078892Y-108166133D01*
X245098598Y-108180748D01*
X245116776Y-108197224D01*
X245133252Y-108215402D01*
X245147867Y-108235108D01*
X245160480Y-108256151D01*
X245170970Y-108278330D01*
X245179235Y-108301430D01*
X245185196Y-108325228D01*
X245188796Y-108349497D01*
X245190000Y-108374001D01*
X245190000Y-110573999D01*
X245188796Y-110598503D01*
X245185196Y-110622772D01*
X245179235Y-110646570D01*
X245170970Y-110669670D01*
X245160480Y-110691849D01*
X245147867Y-110712892D01*
X245133252Y-110732598D01*
X245116776Y-110750776D01*
X245098598Y-110767252D01*
X245078892Y-110781867D01*
X245057849Y-110794480D01*
X245035670Y-110804970D01*
X245012570Y-110813235D01*
X244988772Y-110819196D01*
X244964503Y-110822796D01*
X244939999Y-110824000D01*
X242740001Y-110824000D01*
X242715497Y-110822796D01*
X242691228Y-110819196D01*
X242667430Y-110813235D01*
X242644330Y-110804970D01*
X242622151Y-110794480D01*
X242601108Y-110781867D01*
X242581402Y-110767252D01*
X242563224Y-110750776D01*
X242546748Y-110732598D01*
X242532133Y-110712892D01*
X242519520Y-110691849D01*
X242509030Y-110669670D01*
X242500765Y-110646570D01*
X242494804Y-110622772D01*
X242491204Y-110598503D01*
X242490000Y-110573999D01*
X242490000Y-108374001D01*
X242491204Y-108349497D01*
X242494804Y-108325228D01*
X242500765Y-108301430D01*
X242509030Y-108278330D01*
X242519520Y-108256151D01*
X242532133Y-108235108D01*
X242546748Y-108215402D01*
X242563224Y-108197224D01*
X242581402Y-108180748D01*
X242601108Y-108166133D01*
X242622151Y-108153520D01*
X242644330Y-108143030D01*
X242667430Y-108134765D01*
X242691228Y-108128804D01*
X242715497Y-108125204D01*
X242740001Y-108124000D01*
X244939999Y-108124000D01*
X244964503Y-108125204D01*
X244964503Y-108125204D01*
G37*
D17*
X243840000Y-109474000D03*
D18*
X247918000Y-119732000D03*
X247918000Y-116332000D03*
X237998000Y-119732000D03*
X237998000Y-116332000D03*
D19*
X231902000Y-87630000D03*
X229362000Y-87630000D03*
D20*
X226822000Y-87630000D03*
D12*
G36*
X193060505Y-86053204D02*
G01*
X193084773Y-86056804D01*
X193108572Y-86062765D01*
X193131671Y-86071030D01*
X193153850Y-86081520D01*
X193174893Y-86094132D01*
X193194599Y-86108747D01*
X193212777Y-86125223D01*
X193229253Y-86143401D01*
X193243868Y-86163107D01*
X193256480Y-86184150D01*
X193266970Y-86206329D01*
X193275235Y-86229428D01*
X193281196Y-86253227D01*
X193284796Y-86277495D01*
X193286000Y-86301999D01*
X193286000Y-86952001D01*
X193284796Y-86976505D01*
X193281196Y-87000773D01*
X193275235Y-87024572D01*
X193266970Y-87047671D01*
X193256480Y-87069850D01*
X193243868Y-87090893D01*
X193229253Y-87110599D01*
X193212777Y-87128777D01*
X193194599Y-87145253D01*
X193174893Y-87159868D01*
X193153850Y-87172480D01*
X193131671Y-87182970D01*
X193108572Y-87191235D01*
X193084773Y-87197196D01*
X193060505Y-87200796D01*
X193036001Y-87202000D01*
X192135999Y-87202000D01*
X192111495Y-87200796D01*
X192087227Y-87197196D01*
X192063428Y-87191235D01*
X192040329Y-87182970D01*
X192018150Y-87172480D01*
X191997107Y-87159868D01*
X191977401Y-87145253D01*
X191959223Y-87128777D01*
X191942747Y-87110599D01*
X191928132Y-87090893D01*
X191915520Y-87069850D01*
X191905030Y-87047671D01*
X191896765Y-87024572D01*
X191890804Y-87000773D01*
X191887204Y-86976505D01*
X191886000Y-86952001D01*
X191886000Y-86301999D01*
X191887204Y-86277495D01*
X191890804Y-86253227D01*
X191896765Y-86229428D01*
X191905030Y-86206329D01*
X191915520Y-86184150D01*
X191928132Y-86163107D01*
X191942747Y-86143401D01*
X191959223Y-86125223D01*
X191977401Y-86108747D01*
X191997107Y-86094132D01*
X192018150Y-86081520D01*
X192040329Y-86071030D01*
X192063428Y-86062765D01*
X192087227Y-86056804D01*
X192111495Y-86053204D01*
X192135999Y-86052000D01*
X193036001Y-86052000D01*
X193060505Y-86053204D01*
X193060505Y-86053204D01*
G37*
D21*
X192586000Y-86627000D03*
D12*
G36*
X193060505Y-88103204D02*
G01*
X193084773Y-88106804D01*
X193108572Y-88112765D01*
X193131671Y-88121030D01*
X193153850Y-88131520D01*
X193174893Y-88144132D01*
X193194599Y-88158747D01*
X193212777Y-88175223D01*
X193229253Y-88193401D01*
X193243868Y-88213107D01*
X193256480Y-88234150D01*
X193266970Y-88256329D01*
X193275235Y-88279428D01*
X193281196Y-88303227D01*
X193284796Y-88327495D01*
X193286000Y-88351999D01*
X193286000Y-89002001D01*
X193284796Y-89026505D01*
X193281196Y-89050773D01*
X193275235Y-89074572D01*
X193266970Y-89097671D01*
X193256480Y-89119850D01*
X193243868Y-89140893D01*
X193229253Y-89160599D01*
X193212777Y-89178777D01*
X193194599Y-89195253D01*
X193174893Y-89209868D01*
X193153850Y-89222480D01*
X193131671Y-89232970D01*
X193108572Y-89241235D01*
X193084773Y-89247196D01*
X193060505Y-89250796D01*
X193036001Y-89252000D01*
X192135999Y-89252000D01*
X192111495Y-89250796D01*
X192087227Y-89247196D01*
X192063428Y-89241235D01*
X192040329Y-89232970D01*
X192018150Y-89222480D01*
X191997107Y-89209868D01*
X191977401Y-89195253D01*
X191959223Y-89178777D01*
X191942747Y-89160599D01*
X191928132Y-89140893D01*
X191915520Y-89119850D01*
X191905030Y-89097671D01*
X191896765Y-89074572D01*
X191890804Y-89050773D01*
X191887204Y-89026505D01*
X191886000Y-89002001D01*
X191886000Y-88351999D01*
X191887204Y-88327495D01*
X191890804Y-88303227D01*
X191896765Y-88279428D01*
X191905030Y-88256329D01*
X191915520Y-88234150D01*
X191928132Y-88213107D01*
X191942747Y-88193401D01*
X191959223Y-88175223D01*
X191977401Y-88158747D01*
X191997107Y-88144132D01*
X192018150Y-88131520D01*
X192040329Y-88121030D01*
X192063428Y-88112765D01*
X192087227Y-88106804D01*
X192111495Y-88103204D01*
X192135999Y-88102000D01*
X193036001Y-88102000D01*
X193060505Y-88103204D01*
X193060505Y-88103204D01*
G37*
D21*
X192586000Y-88677000D03*
D12*
G36*
X223116505Y-119981204D02*
G01*
X223140773Y-119984804D01*
X223164572Y-119990765D01*
X223187671Y-119999030D01*
X223209850Y-120009520D01*
X223230893Y-120022132D01*
X223250599Y-120036747D01*
X223268777Y-120053223D01*
X223285253Y-120071401D01*
X223299868Y-120091107D01*
X223312480Y-120112150D01*
X223322970Y-120134329D01*
X223331235Y-120157428D01*
X223337196Y-120181227D01*
X223340796Y-120205495D01*
X223342000Y-120229999D01*
X223342000Y-120880001D01*
X223340796Y-120904505D01*
X223337196Y-120928773D01*
X223331235Y-120952572D01*
X223322970Y-120975671D01*
X223312480Y-120997850D01*
X223299868Y-121018893D01*
X223285253Y-121038599D01*
X223268777Y-121056777D01*
X223250599Y-121073253D01*
X223230893Y-121087868D01*
X223209850Y-121100480D01*
X223187671Y-121110970D01*
X223164572Y-121119235D01*
X223140773Y-121125196D01*
X223116505Y-121128796D01*
X223092001Y-121130000D01*
X222191999Y-121130000D01*
X222167495Y-121128796D01*
X222143227Y-121125196D01*
X222119428Y-121119235D01*
X222096329Y-121110970D01*
X222074150Y-121100480D01*
X222053107Y-121087868D01*
X222033401Y-121073253D01*
X222015223Y-121056777D01*
X221998747Y-121038599D01*
X221984132Y-121018893D01*
X221971520Y-120997850D01*
X221961030Y-120975671D01*
X221952765Y-120952572D01*
X221946804Y-120928773D01*
X221943204Y-120904505D01*
X221942000Y-120880001D01*
X221942000Y-120229999D01*
X221943204Y-120205495D01*
X221946804Y-120181227D01*
X221952765Y-120157428D01*
X221961030Y-120134329D01*
X221971520Y-120112150D01*
X221984132Y-120091107D01*
X221998747Y-120071401D01*
X222015223Y-120053223D01*
X222033401Y-120036747D01*
X222053107Y-120022132D01*
X222074150Y-120009520D01*
X222096329Y-119999030D01*
X222119428Y-119990765D01*
X222143227Y-119984804D01*
X222167495Y-119981204D01*
X222191999Y-119980000D01*
X223092001Y-119980000D01*
X223116505Y-119981204D01*
X223116505Y-119981204D01*
G37*
D21*
X222642000Y-120555000D03*
D12*
G36*
X223116505Y-122031204D02*
G01*
X223140773Y-122034804D01*
X223164572Y-122040765D01*
X223187671Y-122049030D01*
X223209850Y-122059520D01*
X223230893Y-122072132D01*
X223250599Y-122086747D01*
X223268777Y-122103223D01*
X223285253Y-122121401D01*
X223299868Y-122141107D01*
X223312480Y-122162150D01*
X223322970Y-122184329D01*
X223331235Y-122207428D01*
X223337196Y-122231227D01*
X223340796Y-122255495D01*
X223342000Y-122279999D01*
X223342000Y-122930001D01*
X223340796Y-122954505D01*
X223337196Y-122978773D01*
X223331235Y-123002572D01*
X223322970Y-123025671D01*
X223312480Y-123047850D01*
X223299868Y-123068893D01*
X223285253Y-123088599D01*
X223268777Y-123106777D01*
X223250599Y-123123253D01*
X223230893Y-123137868D01*
X223209850Y-123150480D01*
X223187671Y-123160970D01*
X223164572Y-123169235D01*
X223140773Y-123175196D01*
X223116505Y-123178796D01*
X223092001Y-123180000D01*
X222191999Y-123180000D01*
X222167495Y-123178796D01*
X222143227Y-123175196D01*
X222119428Y-123169235D01*
X222096329Y-123160970D01*
X222074150Y-123150480D01*
X222053107Y-123137868D01*
X222033401Y-123123253D01*
X222015223Y-123106777D01*
X221998747Y-123088599D01*
X221984132Y-123068893D01*
X221971520Y-123047850D01*
X221961030Y-123025671D01*
X221952765Y-123002572D01*
X221946804Y-122978773D01*
X221943204Y-122954505D01*
X221942000Y-122930001D01*
X221942000Y-122279999D01*
X221943204Y-122255495D01*
X221946804Y-122231227D01*
X221952765Y-122207428D01*
X221961030Y-122184329D01*
X221971520Y-122162150D01*
X221984132Y-122141107D01*
X221998747Y-122121401D01*
X222015223Y-122103223D01*
X222033401Y-122086747D01*
X222053107Y-122072132D01*
X222074150Y-122059520D01*
X222096329Y-122049030D01*
X222119428Y-122040765D01*
X222143227Y-122034804D01*
X222167495Y-122031204D01*
X222191999Y-122030000D01*
X223092001Y-122030000D01*
X223116505Y-122031204D01*
X223116505Y-122031204D01*
G37*
D21*
X222642000Y-122605000D03*
D12*
G36*
X212194505Y-119745204D02*
G01*
X212218773Y-119748804D01*
X212242572Y-119754765D01*
X212265671Y-119763030D01*
X212287850Y-119773520D01*
X212308893Y-119786132D01*
X212328599Y-119800747D01*
X212346777Y-119817223D01*
X212363253Y-119835401D01*
X212377868Y-119855107D01*
X212390480Y-119876150D01*
X212400970Y-119898329D01*
X212409235Y-119921428D01*
X212415196Y-119945227D01*
X212418796Y-119969495D01*
X212420000Y-119993999D01*
X212420000Y-120644001D01*
X212418796Y-120668505D01*
X212415196Y-120692773D01*
X212409235Y-120716572D01*
X212400970Y-120739671D01*
X212390480Y-120761850D01*
X212377868Y-120782893D01*
X212363253Y-120802599D01*
X212346777Y-120820777D01*
X212328599Y-120837253D01*
X212308893Y-120851868D01*
X212287850Y-120864480D01*
X212265671Y-120874970D01*
X212242572Y-120883235D01*
X212218773Y-120889196D01*
X212194505Y-120892796D01*
X212170001Y-120894000D01*
X211269999Y-120894000D01*
X211245495Y-120892796D01*
X211221227Y-120889196D01*
X211197428Y-120883235D01*
X211174329Y-120874970D01*
X211152150Y-120864480D01*
X211131107Y-120851868D01*
X211111401Y-120837253D01*
X211093223Y-120820777D01*
X211076747Y-120802599D01*
X211062132Y-120782893D01*
X211049520Y-120761850D01*
X211039030Y-120739671D01*
X211030765Y-120716572D01*
X211024804Y-120692773D01*
X211021204Y-120668505D01*
X211020000Y-120644001D01*
X211020000Y-119993999D01*
X211021204Y-119969495D01*
X211024804Y-119945227D01*
X211030765Y-119921428D01*
X211039030Y-119898329D01*
X211049520Y-119876150D01*
X211062132Y-119855107D01*
X211076747Y-119835401D01*
X211093223Y-119817223D01*
X211111401Y-119800747D01*
X211131107Y-119786132D01*
X211152150Y-119773520D01*
X211174329Y-119763030D01*
X211197428Y-119754765D01*
X211221227Y-119748804D01*
X211245495Y-119745204D01*
X211269999Y-119744000D01*
X212170001Y-119744000D01*
X212194505Y-119745204D01*
X212194505Y-119745204D01*
G37*
D21*
X211720000Y-120319000D03*
D12*
G36*
X212194505Y-117695204D02*
G01*
X212218773Y-117698804D01*
X212242572Y-117704765D01*
X212265671Y-117713030D01*
X212287850Y-117723520D01*
X212308893Y-117736132D01*
X212328599Y-117750747D01*
X212346777Y-117767223D01*
X212363253Y-117785401D01*
X212377868Y-117805107D01*
X212390480Y-117826150D01*
X212400970Y-117848329D01*
X212409235Y-117871428D01*
X212415196Y-117895227D01*
X212418796Y-117919495D01*
X212420000Y-117943999D01*
X212420000Y-118594001D01*
X212418796Y-118618505D01*
X212415196Y-118642773D01*
X212409235Y-118666572D01*
X212400970Y-118689671D01*
X212390480Y-118711850D01*
X212377868Y-118732893D01*
X212363253Y-118752599D01*
X212346777Y-118770777D01*
X212328599Y-118787253D01*
X212308893Y-118801868D01*
X212287850Y-118814480D01*
X212265671Y-118824970D01*
X212242572Y-118833235D01*
X212218773Y-118839196D01*
X212194505Y-118842796D01*
X212170001Y-118844000D01*
X211269999Y-118844000D01*
X211245495Y-118842796D01*
X211221227Y-118839196D01*
X211197428Y-118833235D01*
X211174329Y-118824970D01*
X211152150Y-118814480D01*
X211131107Y-118801868D01*
X211111401Y-118787253D01*
X211093223Y-118770777D01*
X211076747Y-118752599D01*
X211062132Y-118732893D01*
X211049520Y-118711850D01*
X211039030Y-118689671D01*
X211030765Y-118666572D01*
X211024804Y-118642773D01*
X211021204Y-118618505D01*
X211020000Y-118594001D01*
X211020000Y-117943999D01*
X211021204Y-117919495D01*
X211024804Y-117895227D01*
X211030765Y-117871428D01*
X211039030Y-117848329D01*
X211049520Y-117826150D01*
X211062132Y-117805107D01*
X211076747Y-117785401D01*
X211093223Y-117767223D01*
X211111401Y-117750747D01*
X211131107Y-117736132D01*
X211152150Y-117723520D01*
X211174329Y-117713030D01*
X211197428Y-117704765D01*
X211221227Y-117698804D01*
X211245495Y-117695204D01*
X211269999Y-117694000D01*
X212170001Y-117694000D01*
X212194505Y-117695204D01*
X212194505Y-117695204D01*
G37*
D21*
X211720000Y-118269000D03*
D12*
G36*
X187218505Y-118217204D02*
G01*
X187242773Y-118220804D01*
X187266572Y-118226765D01*
X187289671Y-118235030D01*
X187311850Y-118245520D01*
X187332893Y-118258132D01*
X187352599Y-118272747D01*
X187370777Y-118289223D01*
X187387253Y-118307401D01*
X187401868Y-118327107D01*
X187414480Y-118348150D01*
X187424970Y-118370329D01*
X187433235Y-118393428D01*
X187439196Y-118417227D01*
X187442796Y-118441495D01*
X187444000Y-118465999D01*
X187444000Y-119366001D01*
X187442796Y-119390505D01*
X187439196Y-119414773D01*
X187433235Y-119438572D01*
X187424970Y-119461671D01*
X187414480Y-119483850D01*
X187401868Y-119504893D01*
X187387253Y-119524599D01*
X187370777Y-119542777D01*
X187352599Y-119559253D01*
X187332893Y-119573868D01*
X187311850Y-119586480D01*
X187289671Y-119596970D01*
X187266572Y-119605235D01*
X187242773Y-119611196D01*
X187218505Y-119614796D01*
X187194001Y-119616000D01*
X186543999Y-119616000D01*
X186519495Y-119614796D01*
X186495227Y-119611196D01*
X186471428Y-119605235D01*
X186448329Y-119596970D01*
X186426150Y-119586480D01*
X186405107Y-119573868D01*
X186385401Y-119559253D01*
X186367223Y-119542777D01*
X186350747Y-119524599D01*
X186336132Y-119504893D01*
X186323520Y-119483850D01*
X186313030Y-119461671D01*
X186304765Y-119438572D01*
X186298804Y-119414773D01*
X186295204Y-119390505D01*
X186294000Y-119366001D01*
X186294000Y-118465999D01*
X186295204Y-118441495D01*
X186298804Y-118417227D01*
X186304765Y-118393428D01*
X186313030Y-118370329D01*
X186323520Y-118348150D01*
X186336132Y-118327107D01*
X186350747Y-118307401D01*
X186367223Y-118289223D01*
X186385401Y-118272747D01*
X186405107Y-118258132D01*
X186426150Y-118245520D01*
X186448329Y-118235030D01*
X186471428Y-118226765D01*
X186495227Y-118220804D01*
X186519495Y-118217204D01*
X186543999Y-118216000D01*
X187194001Y-118216000D01*
X187218505Y-118217204D01*
X187218505Y-118217204D01*
G37*
D21*
X186869000Y-118916000D03*
D12*
G36*
X185168505Y-118217204D02*
G01*
X185192773Y-118220804D01*
X185216572Y-118226765D01*
X185239671Y-118235030D01*
X185261850Y-118245520D01*
X185282893Y-118258132D01*
X185302599Y-118272747D01*
X185320777Y-118289223D01*
X185337253Y-118307401D01*
X185351868Y-118327107D01*
X185364480Y-118348150D01*
X185374970Y-118370329D01*
X185383235Y-118393428D01*
X185389196Y-118417227D01*
X185392796Y-118441495D01*
X185394000Y-118465999D01*
X185394000Y-119366001D01*
X185392796Y-119390505D01*
X185389196Y-119414773D01*
X185383235Y-119438572D01*
X185374970Y-119461671D01*
X185364480Y-119483850D01*
X185351868Y-119504893D01*
X185337253Y-119524599D01*
X185320777Y-119542777D01*
X185302599Y-119559253D01*
X185282893Y-119573868D01*
X185261850Y-119586480D01*
X185239671Y-119596970D01*
X185216572Y-119605235D01*
X185192773Y-119611196D01*
X185168505Y-119614796D01*
X185144001Y-119616000D01*
X184493999Y-119616000D01*
X184469495Y-119614796D01*
X184445227Y-119611196D01*
X184421428Y-119605235D01*
X184398329Y-119596970D01*
X184376150Y-119586480D01*
X184355107Y-119573868D01*
X184335401Y-119559253D01*
X184317223Y-119542777D01*
X184300747Y-119524599D01*
X184286132Y-119504893D01*
X184273520Y-119483850D01*
X184263030Y-119461671D01*
X184254765Y-119438572D01*
X184248804Y-119414773D01*
X184245204Y-119390505D01*
X184244000Y-119366001D01*
X184244000Y-118465999D01*
X184245204Y-118441495D01*
X184248804Y-118417227D01*
X184254765Y-118393428D01*
X184263030Y-118370329D01*
X184273520Y-118348150D01*
X184286132Y-118327107D01*
X184300747Y-118307401D01*
X184317223Y-118289223D01*
X184335401Y-118272747D01*
X184355107Y-118258132D01*
X184376150Y-118245520D01*
X184398329Y-118235030D01*
X184421428Y-118226765D01*
X184445227Y-118220804D01*
X184469495Y-118217204D01*
X184493999Y-118216000D01*
X185144001Y-118216000D01*
X185168505Y-118217204D01*
X185168505Y-118217204D01*
G37*
D21*
X184819000Y-118916000D03*
D12*
G36*
X191224505Y-117351204D02*
G01*
X191248773Y-117354804D01*
X191272572Y-117360765D01*
X191295671Y-117369030D01*
X191317850Y-117379520D01*
X191338893Y-117392132D01*
X191358599Y-117406747D01*
X191376777Y-117423223D01*
X191393253Y-117441401D01*
X191407868Y-117461107D01*
X191420480Y-117482150D01*
X191430970Y-117504329D01*
X191439235Y-117527428D01*
X191445196Y-117551227D01*
X191448796Y-117575495D01*
X191450000Y-117599999D01*
X191450000Y-118250001D01*
X191448796Y-118274505D01*
X191445196Y-118298773D01*
X191439235Y-118322572D01*
X191430970Y-118345671D01*
X191420480Y-118367850D01*
X191407868Y-118388893D01*
X191393253Y-118408599D01*
X191376777Y-118426777D01*
X191358599Y-118443253D01*
X191338893Y-118457868D01*
X191317850Y-118470480D01*
X191295671Y-118480970D01*
X191272572Y-118489235D01*
X191248773Y-118495196D01*
X191224505Y-118498796D01*
X191200001Y-118500000D01*
X190299999Y-118500000D01*
X190275495Y-118498796D01*
X190251227Y-118495196D01*
X190227428Y-118489235D01*
X190204329Y-118480970D01*
X190182150Y-118470480D01*
X190161107Y-118457868D01*
X190141401Y-118443253D01*
X190123223Y-118426777D01*
X190106747Y-118408599D01*
X190092132Y-118388893D01*
X190079520Y-118367850D01*
X190069030Y-118345671D01*
X190060765Y-118322572D01*
X190054804Y-118298773D01*
X190051204Y-118274505D01*
X190050000Y-118250001D01*
X190050000Y-117599999D01*
X190051204Y-117575495D01*
X190054804Y-117551227D01*
X190060765Y-117527428D01*
X190069030Y-117504329D01*
X190079520Y-117482150D01*
X190092132Y-117461107D01*
X190106747Y-117441401D01*
X190123223Y-117423223D01*
X190141401Y-117406747D01*
X190161107Y-117392132D01*
X190182150Y-117379520D01*
X190204329Y-117369030D01*
X190227428Y-117360765D01*
X190251227Y-117354804D01*
X190275495Y-117351204D01*
X190299999Y-117350000D01*
X191200001Y-117350000D01*
X191224505Y-117351204D01*
X191224505Y-117351204D01*
G37*
D21*
X190750000Y-117925000D03*
D12*
G36*
X191224505Y-119401204D02*
G01*
X191248773Y-119404804D01*
X191272572Y-119410765D01*
X191295671Y-119419030D01*
X191317850Y-119429520D01*
X191338893Y-119442132D01*
X191358599Y-119456747D01*
X191376777Y-119473223D01*
X191393253Y-119491401D01*
X191407868Y-119511107D01*
X191420480Y-119532150D01*
X191430970Y-119554329D01*
X191439235Y-119577428D01*
X191445196Y-119601227D01*
X191448796Y-119625495D01*
X191450000Y-119649999D01*
X191450000Y-120300001D01*
X191448796Y-120324505D01*
X191445196Y-120348773D01*
X191439235Y-120372572D01*
X191430970Y-120395671D01*
X191420480Y-120417850D01*
X191407868Y-120438893D01*
X191393253Y-120458599D01*
X191376777Y-120476777D01*
X191358599Y-120493253D01*
X191338893Y-120507868D01*
X191317850Y-120520480D01*
X191295671Y-120530970D01*
X191272572Y-120539235D01*
X191248773Y-120545196D01*
X191224505Y-120548796D01*
X191200001Y-120550000D01*
X190299999Y-120550000D01*
X190275495Y-120548796D01*
X190251227Y-120545196D01*
X190227428Y-120539235D01*
X190204329Y-120530970D01*
X190182150Y-120520480D01*
X190161107Y-120507868D01*
X190141401Y-120493253D01*
X190123223Y-120476777D01*
X190106747Y-120458599D01*
X190092132Y-120438893D01*
X190079520Y-120417850D01*
X190069030Y-120395671D01*
X190060765Y-120372572D01*
X190054804Y-120348773D01*
X190051204Y-120324505D01*
X190050000Y-120300001D01*
X190050000Y-119649999D01*
X190051204Y-119625495D01*
X190054804Y-119601227D01*
X190060765Y-119577428D01*
X190069030Y-119554329D01*
X190079520Y-119532150D01*
X190092132Y-119511107D01*
X190106747Y-119491401D01*
X190123223Y-119473223D01*
X190141401Y-119456747D01*
X190161107Y-119442132D01*
X190182150Y-119429520D01*
X190204329Y-119419030D01*
X190227428Y-119410765D01*
X190251227Y-119404804D01*
X190275495Y-119401204D01*
X190299999Y-119400000D01*
X191200001Y-119400000D01*
X191224505Y-119401204D01*
X191224505Y-119401204D01*
G37*
D21*
X190750000Y-119975000D03*
D22*
X201550000Y-94950000D03*
D12*
G36*
X201050000Y-94200000D02*
G01*
X201550000Y-94200000D01*
X201550000Y-94200602D01*
X201574534Y-94200602D01*
X201623365Y-94205412D01*
X201671490Y-94214984D01*
X201718445Y-94229228D01*
X201763778Y-94248005D01*
X201807051Y-94271136D01*
X201847850Y-94298396D01*
X201885779Y-94329524D01*
X201920476Y-94364221D01*
X201951604Y-94402150D01*
X201978864Y-94442949D01*
X202001995Y-94486222D01*
X202020772Y-94531555D01*
X202035016Y-94578510D01*
X202044588Y-94626635D01*
X202049398Y-94675466D01*
X202049398Y-94700000D01*
X202050000Y-94700000D01*
X202050000Y-95200000D01*
X202049398Y-95200000D01*
X202049398Y-95224534D01*
X202044588Y-95273365D01*
X202035016Y-95321490D01*
X202020772Y-95368445D01*
X202001995Y-95413778D01*
X201978864Y-95457051D01*
X201951604Y-95497850D01*
X201920476Y-95535779D01*
X201885779Y-95570476D01*
X201847850Y-95601604D01*
X201807051Y-95628864D01*
X201763778Y-95651995D01*
X201718445Y-95670772D01*
X201671490Y-95685016D01*
X201623365Y-95694588D01*
X201574534Y-95699398D01*
X201550000Y-95699398D01*
X201550000Y-95700000D01*
X201050000Y-95700000D01*
X201050000Y-94200000D01*
X201050000Y-94200000D01*
G37*
D22*
X200250000Y-94950000D03*
D12*
G36*
X200250000Y-95699398D02*
G01*
X200225466Y-95699398D01*
X200176635Y-95694588D01*
X200128510Y-95685016D01*
X200081555Y-95670772D01*
X200036222Y-95651995D01*
X199992949Y-95628864D01*
X199952150Y-95601604D01*
X199914221Y-95570476D01*
X199879524Y-95535779D01*
X199848396Y-95497850D01*
X199821136Y-95457051D01*
X199798005Y-95413778D01*
X199779228Y-95368445D01*
X199764984Y-95321490D01*
X199755412Y-95273365D01*
X199750602Y-95224534D01*
X199750602Y-95200000D01*
X199750000Y-95200000D01*
X199750000Y-94700000D01*
X199750602Y-94700000D01*
X199750602Y-94675466D01*
X199755412Y-94626635D01*
X199764984Y-94578510D01*
X199779228Y-94531555D01*
X199798005Y-94486222D01*
X199821136Y-94442949D01*
X199848396Y-94402150D01*
X199879524Y-94364221D01*
X199914221Y-94329524D01*
X199952150Y-94298396D01*
X199992949Y-94271136D01*
X200036222Y-94248005D01*
X200081555Y-94229228D01*
X200128510Y-94214984D01*
X200176635Y-94205412D01*
X200225466Y-94200602D01*
X200250000Y-94200602D01*
X200250000Y-94200000D01*
X200750000Y-94200000D01*
X200750000Y-95700000D01*
X200250000Y-95700000D01*
X200250000Y-95699398D01*
X200250000Y-95699398D01*
G37*
G36*
X222835779Y-91526144D02*
G01*
X222858834Y-91529563D01*
X222881443Y-91535227D01*
X222903387Y-91543079D01*
X222924457Y-91553044D01*
X222944448Y-91565026D01*
X222963168Y-91578910D01*
X222980438Y-91594562D01*
X222996090Y-91611832D01*
X223009974Y-91630552D01*
X223021956Y-91650543D01*
X223031921Y-91671613D01*
X223039773Y-91693557D01*
X223045437Y-91716166D01*
X223048856Y-91739221D01*
X223050000Y-91762500D01*
X223050000Y-92237500D01*
X223048856Y-92260779D01*
X223045437Y-92283834D01*
X223039773Y-92306443D01*
X223031921Y-92328387D01*
X223021956Y-92349457D01*
X223009974Y-92369448D01*
X222996090Y-92388168D01*
X222980438Y-92405438D01*
X222963168Y-92421090D01*
X222944448Y-92434974D01*
X222924457Y-92446956D01*
X222903387Y-92456921D01*
X222881443Y-92464773D01*
X222858834Y-92470437D01*
X222835779Y-92473856D01*
X222812500Y-92475000D01*
X222237500Y-92475000D01*
X222214221Y-92473856D01*
X222191166Y-92470437D01*
X222168557Y-92464773D01*
X222146613Y-92456921D01*
X222125543Y-92446956D01*
X222105552Y-92434974D01*
X222086832Y-92421090D01*
X222069562Y-92405438D01*
X222053910Y-92388168D01*
X222040026Y-92369448D01*
X222028044Y-92349457D01*
X222018079Y-92328387D01*
X222010227Y-92306443D01*
X222004563Y-92283834D01*
X222001144Y-92260779D01*
X222000000Y-92237500D01*
X222000000Y-91762500D01*
X222001144Y-91739221D01*
X222004563Y-91716166D01*
X222010227Y-91693557D01*
X222018079Y-91671613D01*
X222028044Y-91650543D01*
X222040026Y-91630552D01*
X222053910Y-91611832D01*
X222069562Y-91594562D01*
X222086832Y-91578910D01*
X222105552Y-91565026D01*
X222125543Y-91553044D01*
X222146613Y-91543079D01*
X222168557Y-91535227D01*
X222191166Y-91529563D01*
X222214221Y-91526144D01*
X222237500Y-91525000D01*
X222812500Y-91525000D01*
X222835779Y-91526144D01*
X222835779Y-91526144D01*
G37*
D23*
X222525000Y-92000000D03*
D12*
G36*
X221085779Y-91526144D02*
G01*
X221108834Y-91529563D01*
X221131443Y-91535227D01*
X221153387Y-91543079D01*
X221174457Y-91553044D01*
X221194448Y-91565026D01*
X221213168Y-91578910D01*
X221230438Y-91594562D01*
X221246090Y-91611832D01*
X221259974Y-91630552D01*
X221271956Y-91650543D01*
X221281921Y-91671613D01*
X221289773Y-91693557D01*
X221295437Y-91716166D01*
X221298856Y-91739221D01*
X221300000Y-91762500D01*
X221300000Y-92237500D01*
X221298856Y-92260779D01*
X221295437Y-92283834D01*
X221289773Y-92306443D01*
X221281921Y-92328387D01*
X221271956Y-92349457D01*
X221259974Y-92369448D01*
X221246090Y-92388168D01*
X221230438Y-92405438D01*
X221213168Y-92421090D01*
X221194448Y-92434974D01*
X221174457Y-92446956D01*
X221153387Y-92456921D01*
X221131443Y-92464773D01*
X221108834Y-92470437D01*
X221085779Y-92473856D01*
X221062500Y-92475000D01*
X220487500Y-92475000D01*
X220464221Y-92473856D01*
X220441166Y-92470437D01*
X220418557Y-92464773D01*
X220396613Y-92456921D01*
X220375543Y-92446956D01*
X220355552Y-92434974D01*
X220336832Y-92421090D01*
X220319562Y-92405438D01*
X220303910Y-92388168D01*
X220290026Y-92369448D01*
X220278044Y-92349457D01*
X220268079Y-92328387D01*
X220260227Y-92306443D01*
X220254563Y-92283834D01*
X220251144Y-92260779D01*
X220250000Y-92237500D01*
X220250000Y-91762500D01*
X220251144Y-91739221D01*
X220254563Y-91716166D01*
X220260227Y-91693557D01*
X220268079Y-91671613D01*
X220278044Y-91650543D01*
X220290026Y-91630552D01*
X220303910Y-91611832D01*
X220319562Y-91594562D01*
X220336832Y-91578910D01*
X220355552Y-91565026D01*
X220375543Y-91553044D01*
X220396613Y-91543079D01*
X220418557Y-91535227D01*
X220441166Y-91529563D01*
X220464221Y-91526144D01*
X220487500Y-91525000D01*
X221062500Y-91525000D01*
X221085779Y-91526144D01*
X221085779Y-91526144D01*
G37*
D23*
X220775000Y-92000000D03*
D12*
G36*
X193574505Y-119401204D02*
G01*
X193598773Y-119404804D01*
X193622572Y-119410765D01*
X193645671Y-119419030D01*
X193667850Y-119429520D01*
X193688893Y-119442132D01*
X193708599Y-119456747D01*
X193726777Y-119473223D01*
X193743253Y-119491401D01*
X193757868Y-119511107D01*
X193770480Y-119532150D01*
X193780970Y-119554329D01*
X193789235Y-119577428D01*
X193795196Y-119601227D01*
X193798796Y-119625495D01*
X193800000Y-119649999D01*
X193800000Y-120300001D01*
X193798796Y-120324505D01*
X193795196Y-120348773D01*
X193789235Y-120372572D01*
X193780970Y-120395671D01*
X193770480Y-120417850D01*
X193757868Y-120438893D01*
X193743253Y-120458599D01*
X193726777Y-120476777D01*
X193708599Y-120493253D01*
X193688893Y-120507868D01*
X193667850Y-120520480D01*
X193645671Y-120530970D01*
X193622572Y-120539235D01*
X193598773Y-120545196D01*
X193574505Y-120548796D01*
X193550001Y-120550000D01*
X192649999Y-120550000D01*
X192625495Y-120548796D01*
X192601227Y-120545196D01*
X192577428Y-120539235D01*
X192554329Y-120530970D01*
X192532150Y-120520480D01*
X192511107Y-120507868D01*
X192491401Y-120493253D01*
X192473223Y-120476777D01*
X192456747Y-120458599D01*
X192442132Y-120438893D01*
X192429520Y-120417850D01*
X192419030Y-120395671D01*
X192410765Y-120372572D01*
X192404804Y-120348773D01*
X192401204Y-120324505D01*
X192400000Y-120300001D01*
X192400000Y-119649999D01*
X192401204Y-119625495D01*
X192404804Y-119601227D01*
X192410765Y-119577428D01*
X192419030Y-119554329D01*
X192429520Y-119532150D01*
X192442132Y-119511107D01*
X192456747Y-119491401D01*
X192473223Y-119473223D01*
X192491401Y-119456747D01*
X192511107Y-119442132D01*
X192532150Y-119429520D01*
X192554329Y-119419030D01*
X192577428Y-119410765D01*
X192601227Y-119404804D01*
X192625495Y-119401204D01*
X192649999Y-119400000D01*
X193550001Y-119400000D01*
X193574505Y-119401204D01*
X193574505Y-119401204D01*
G37*
D21*
X193100000Y-119975000D03*
D12*
G36*
X193574505Y-117351204D02*
G01*
X193598773Y-117354804D01*
X193622572Y-117360765D01*
X193645671Y-117369030D01*
X193667850Y-117379520D01*
X193688893Y-117392132D01*
X193708599Y-117406747D01*
X193726777Y-117423223D01*
X193743253Y-117441401D01*
X193757868Y-117461107D01*
X193770480Y-117482150D01*
X193780970Y-117504329D01*
X193789235Y-117527428D01*
X193795196Y-117551227D01*
X193798796Y-117575495D01*
X193800000Y-117599999D01*
X193800000Y-118250001D01*
X193798796Y-118274505D01*
X193795196Y-118298773D01*
X193789235Y-118322572D01*
X193780970Y-118345671D01*
X193770480Y-118367850D01*
X193757868Y-118388893D01*
X193743253Y-118408599D01*
X193726777Y-118426777D01*
X193708599Y-118443253D01*
X193688893Y-118457868D01*
X193667850Y-118470480D01*
X193645671Y-118480970D01*
X193622572Y-118489235D01*
X193598773Y-118495196D01*
X193574505Y-118498796D01*
X193550001Y-118500000D01*
X192649999Y-118500000D01*
X192625495Y-118498796D01*
X192601227Y-118495196D01*
X192577428Y-118489235D01*
X192554329Y-118480970D01*
X192532150Y-118470480D01*
X192511107Y-118457868D01*
X192491401Y-118443253D01*
X192473223Y-118426777D01*
X192456747Y-118408599D01*
X192442132Y-118388893D01*
X192429520Y-118367850D01*
X192419030Y-118345671D01*
X192410765Y-118322572D01*
X192404804Y-118298773D01*
X192401204Y-118274505D01*
X192400000Y-118250001D01*
X192400000Y-117599999D01*
X192401204Y-117575495D01*
X192404804Y-117551227D01*
X192410765Y-117527428D01*
X192419030Y-117504329D01*
X192429520Y-117482150D01*
X192442132Y-117461107D01*
X192456747Y-117441401D01*
X192473223Y-117423223D01*
X192491401Y-117406747D01*
X192511107Y-117392132D01*
X192532150Y-117379520D01*
X192554329Y-117369030D01*
X192577428Y-117360765D01*
X192601227Y-117354804D01*
X192625495Y-117351204D01*
X192649999Y-117350000D01*
X193550001Y-117350000D01*
X193574505Y-117351204D01*
X193574505Y-117351204D01*
G37*
D21*
X193100000Y-117925000D03*
D24*
X192285000Y-107426000D03*
D25*
X184785000Y-114926000D03*
X186055000Y-114926000D03*
X187325000Y-114926000D03*
X188595000Y-114926000D03*
X189865000Y-114926000D03*
X191135000Y-114926000D03*
X192405000Y-114926000D03*
X193675000Y-114926000D03*
X194945000Y-114926000D03*
X196215000Y-114926000D03*
X197485000Y-114926000D03*
X198755000Y-114926000D03*
X200025000Y-114926000D03*
X201295000Y-114926000D03*
D26*
X202295000Y-112141000D03*
X202295000Y-110871000D03*
X202295000Y-109601000D03*
X202295000Y-108331000D03*
X202295000Y-107061000D03*
X202295000Y-105791000D03*
X202295000Y-104521000D03*
X202295000Y-103251000D03*
X202295000Y-101981000D03*
X202295000Y-100711000D03*
D25*
X201295000Y-97926000D03*
X200025000Y-97926000D03*
X198755000Y-97926000D03*
X197485000Y-97926000D03*
X196215000Y-97926000D03*
X194945000Y-97926000D03*
X193675000Y-97926000D03*
X192405000Y-97926000D03*
X191135000Y-97926000D03*
X189865000Y-97926000D03*
X188595000Y-97926000D03*
X187325000Y-97926000D03*
X186055000Y-97926000D03*
X184785000Y-97926000D03*
D27*
X217562000Y-113858000D03*
D28*
X217562000Y-120158000D03*
X219862000Y-120158000D03*
X215262000Y-120158000D03*
D20*
X231648000Y-125730000D03*
D19*
X229108000Y-125730000D03*
D29*
X204724000Y-112014000D03*
X184785000Y-117475000D03*
X184912000Y-94996000D03*
X188750000Y-119850000D03*
X188350000Y-108400000D03*
X197800000Y-94300000D03*
X204950000Y-91950000D03*
X192200000Y-91400000D03*
X215250000Y-123200000D03*
X222650000Y-124700000D03*
X188600000Y-100450000D03*
X189900000Y-103450000D03*
X217350000Y-100000000D03*
D30*
X222642000Y-120555000D02*
X219862000Y-120555000D01*
X196338000Y-89353500D02*
X196338000Y-92110000D01*
X195068000Y-88083500D02*
X196338000Y-89353500D01*
X195068000Y-86686000D02*
X195068000Y-88083500D01*
X229022000Y-84750000D02*
X231902000Y-87630000D01*
X202604998Y-84750000D02*
X202850000Y-84750000D01*
X201418000Y-85936998D02*
X202604998Y-84750000D01*
X202850000Y-84750000D02*
X229022000Y-84750000D01*
X201418000Y-86686000D02*
X201418000Y-85936998D01*
X195009000Y-86627000D02*
X195068000Y-86686000D01*
X192586000Y-86627000D02*
X195009000Y-86627000D01*
X195068000Y-85936998D02*
X196254998Y-84750000D01*
X195068000Y-86686000D02*
X195068000Y-85936998D01*
X198146500Y-84750000D02*
X199000000Y-84750000D01*
X197608000Y-85288500D02*
X198146500Y-84750000D01*
X197608000Y-86686000D02*
X197608000Y-85288500D01*
X199000000Y-84750000D02*
X202850000Y-84750000D01*
X197608000Y-84958000D02*
X197400000Y-84750000D01*
X197608000Y-85288500D02*
X197608000Y-84958000D01*
X196254998Y-84750000D02*
X197400000Y-84750000D01*
X197400000Y-84750000D02*
X199000000Y-84750000D01*
X237175000Y-120555000D02*
X237998000Y-119732000D01*
X222642000Y-120555000D02*
X237175000Y-120555000D01*
X215262000Y-120158000D02*
X211720000Y-120158000D01*
X202295000Y-112141000D02*
X204597000Y-112141000D01*
X204597000Y-112141000D02*
X204724000Y-112014000D01*
X184785000Y-97926000D02*
X184785000Y-95123000D01*
X184785000Y-95123000D02*
X184912000Y-94996000D01*
X184785000Y-114926000D02*
X184785000Y-117475000D01*
X184785000Y-118882000D02*
X184819000Y-118916000D01*
X184785000Y-117475000D02*
X184785000Y-118882000D01*
X190625000Y-119850000D02*
X190750000Y-119975000D01*
X188750000Y-119850000D02*
X190625000Y-119850000D01*
X189324000Y-107426000D02*
X188350000Y-108400000D01*
X192285000Y-107426000D02*
X189324000Y-107426000D01*
X192659000Y-88750000D02*
X192586000Y-88677000D01*
X202778000Y-92200000D02*
X202688000Y-92110000D01*
X192425000Y-88838000D02*
X192586000Y-88677000D01*
X198878000Y-93222000D02*
X198878000Y-92110000D01*
X197800000Y-94300000D02*
X198878000Y-93222000D01*
X202848000Y-91950000D02*
X202688000Y-92110000D01*
X204950000Y-91950000D02*
X202848000Y-91950000D01*
X192586000Y-91014000D02*
X192200000Y-91400000D01*
X192586000Y-88677000D02*
X192586000Y-91014000D01*
X222650000Y-122613000D02*
X222642000Y-122605000D01*
X222650000Y-124700000D02*
X222650000Y-122613000D01*
X215250000Y-120170000D02*
X215262000Y-120158000D01*
X215250000Y-123200000D02*
X215250000Y-120170000D01*
X217562000Y-120158000D02*
X217562000Y-113858000D01*
X216131000Y-113858000D02*
X211720000Y-118269000D01*
X217562000Y-113858000D02*
X216131000Y-113858000D01*
X186871999Y-118913001D02*
X186869000Y-118916000D01*
X186869000Y-118916000D02*
X186869000Y-118569000D01*
X218225000Y-113195000D02*
X217562000Y-113858000D01*
X187130000Y-118655000D02*
X186869000Y-118916000D01*
X186869000Y-118916000D02*
X186679426Y-118916000D01*
X186055000Y-118102000D02*
X186869000Y-118916000D01*
X186055000Y-114926000D02*
X186055000Y-118102000D01*
X209214000Y-119975000D02*
X193100000Y-119975000D01*
X210920000Y-118269000D02*
X209214000Y-119975000D01*
X211720000Y-118269000D02*
X210920000Y-118269000D01*
X193100000Y-119975000D02*
X191275000Y-121800000D01*
X186869000Y-119716000D02*
X186869000Y-118916000D01*
X188953000Y-121800000D02*
X186869000Y-119716000D01*
X191275000Y-121800000D02*
X188953000Y-121800000D01*
X217562000Y-102822000D02*
X217562000Y-113858000D01*
X214440000Y-99700000D02*
X217562000Y-102822000D01*
D31*
X190524000Y-117925000D02*
X190750000Y-117925000D01*
X190750000Y-117925000D02*
X193100000Y-117925000D01*
X189074000Y-117925000D02*
X190750000Y-117925000D01*
X187325000Y-116176000D02*
X189074000Y-117925000D01*
X187325000Y-114926000D02*
X187325000Y-116176000D01*
X193100000Y-117925000D02*
X207025000Y-117925000D01*
X213264999Y-101064999D02*
X211900000Y-99700000D01*
X213264999Y-111685001D02*
X213264999Y-101064999D01*
X207025000Y-117925000D02*
X213264999Y-111685001D01*
X188595000Y-100445000D02*
X188600000Y-100450000D01*
X188595000Y-97926000D02*
X188595000Y-100445000D01*
X189865000Y-97926000D02*
X189865000Y-103415000D01*
X189865000Y-103415000D02*
X189900000Y-103450000D01*
X224992000Y-92000000D02*
X222525000Y-92000000D01*
X229362000Y-87630000D02*
X224992000Y-92000000D01*
X201431000Y-97790000D02*
X201295000Y-97926000D01*
X201295000Y-97926000D02*
X215276000Y-97926000D01*
X215276000Y-97926000D02*
X217350000Y-100000000D01*
X201550000Y-94950000D02*
X201550000Y-92110000D01*
X220775000Y-92000000D02*
X208650000Y-92000000D01*
X205700000Y-94950000D02*
X201550000Y-94950000D01*
X208650000Y-92000000D02*
X205700000Y-94950000D01*
X200148000Y-92110000D02*
X200148000Y-94950000D01*
X198755000Y-96445000D02*
X198755000Y-97926000D01*
X200250000Y-94950000D02*
X198755000Y-96445000D01*
D32*
G36*
X241173000Y-129388000D02*
G01*
X230759000Y-129388000D01*
X230759000Y-127214231D01*
X230798000Y-127218072D01*
X231362250Y-127215000D01*
X231521000Y-127056250D01*
X231521000Y-125857000D01*
X231775000Y-125857000D01*
X231775000Y-127056250D01*
X231933750Y-127215000D01*
X232498000Y-127218072D01*
X232622482Y-127205812D01*
X232742180Y-127169502D01*
X232852494Y-127110537D01*
X232949185Y-127031185D01*
X233028537Y-126934494D01*
X233087502Y-126824180D01*
X233123812Y-126704482D01*
X233136072Y-126580000D01*
X233133000Y-126015750D01*
X232974250Y-125857000D01*
X231775000Y-125857000D01*
X231521000Y-125857000D01*
X231501000Y-125857000D01*
X231501000Y-125603000D01*
X231521000Y-125603000D01*
X231521000Y-124403750D01*
X231775000Y-124403750D01*
X231775000Y-125603000D01*
X232974250Y-125603000D01*
X233133000Y-125444250D01*
X233136072Y-124880000D01*
X233123812Y-124755518D01*
X233087502Y-124635820D01*
X233028537Y-124525506D01*
X232949185Y-124428815D01*
X232852494Y-124349463D01*
X232742180Y-124290498D01*
X232622482Y-124254188D01*
X232498000Y-124241928D01*
X231933750Y-124245000D01*
X231775000Y-124403750D01*
X231521000Y-124403750D01*
X231362250Y-124245000D01*
X230798000Y-124241928D01*
X230759000Y-124245769D01*
X230759000Y-121145325D01*
X236764280Y-121145325D01*
X236907052Y-121449625D01*
X237263107Y-121629455D01*
X237647402Y-121736366D01*
X238045171Y-121766251D01*
X238441128Y-121717961D01*
X238820055Y-121593352D01*
X239088948Y-121449625D01*
X239231720Y-121145325D01*
X237998000Y-119911605D01*
X236764280Y-121145325D01*
X230759000Y-121145325D01*
X230759000Y-119779171D01*
X235963749Y-119779171D01*
X236012039Y-120175128D01*
X236136648Y-120554055D01*
X236280375Y-120822948D01*
X236584675Y-120965720D01*
X237818395Y-119732000D01*
X238177605Y-119732000D01*
X239411325Y-120965720D01*
X239715625Y-120822948D01*
X239895455Y-120466893D01*
X240002366Y-120082598D01*
X240032251Y-119684829D01*
X239983961Y-119288872D01*
X239859352Y-118909945D01*
X239715625Y-118641052D01*
X239411325Y-118498280D01*
X238177605Y-119732000D01*
X237818395Y-119732000D01*
X236584675Y-118498280D01*
X236280375Y-118641052D01*
X236100545Y-118997107D01*
X235993634Y-119381402D01*
X235963749Y-119779171D01*
X230759000Y-119779171D01*
X230759000Y-117745325D01*
X236764280Y-117745325D01*
X236898783Y-118032000D01*
X236764280Y-118318675D01*
X237998000Y-119552395D01*
X239231720Y-118318675D01*
X239097217Y-118032000D01*
X239231720Y-117745325D01*
X237998000Y-116511605D01*
X236764280Y-117745325D01*
X230759000Y-117745325D01*
X230759000Y-116379171D01*
X235963749Y-116379171D01*
X236012039Y-116775128D01*
X236136648Y-117154055D01*
X236280375Y-117422948D01*
X236584675Y-117565720D01*
X237818395Y-116332000D01*
X238177605Y-116332000D01*
X239411325Y-117565720D01*
X239715625Y-117422948D01*
X239895455Y-117066893D01*
X240002366Y-116682598D01*
X240032251Y-116284829D01*
X239983961Y-115888872D01*
X239859352Y-115509945D01*
X239715625Y-115241052D01*
X239411325Y-115098280D01*
X238177605Y-116332000D01*
X237818395Y-116332000D01*
X236584675Y-115098280D01*
X236280375Y-115241052D01*
X236100545Y-115597107D01*
X235993634Y-115981402D01*
X235963749Y-116379171D01*
X230759000Y-116379171D01*
X230759000Y-114918675D01*
X236764280Y-114918675D01*
X237998000Y-116152395D01*
X239231720Y-114918675D01*
X239088948Y-114614375D01*
X238732893Y-114434545D01*
X238348598Y-114327634D01*
X237950829Y-114297749D01*
X237554872Y-114346039D01*
X237175945Y-114470648D01*
X236907052Y-114614375D01*
X236764280Y-114918675D01*
X230759000Y-114918675D01*
X230759000Y-94617500D01*
X238500428Y-94617500D01*
X238512688Y-94741982D01*
X238548998Y-94861680D01*
X238607963Y-94971994D01*
X238687315Y-95068685D01*
X238784006Y-95148037D01*
X238894320Y-95207002D01*
X239014018Y-95243312D01*
X239138500Y-95255572D01*
X239490250Y-95252500D01*
X239649000Y-95093750D01*
X239649000Y-94107000D01*
X239903000Y-94107000D01*
X239903000Y-95093750D01*
X240061750Y-95252500D01*
X240413500Y-95255572D01*
X240537982Y-95243312D01*
X240657680Y-95207002D01*
X240767994Y-95148037D01*
X240864685Y-95068685D01*
X240944037Y-94971994D01*
X241003002Y-94861680D01*
X241039312Y-94741982D01*
X241051572Y-94617500D01*
X241048500Y-94265750D01*
X240889750Y-94107000D01*
X239903000Y-94107000D01*
X239649000Y-94107000D01*
X238662250Y-94107000D01*
X238503500Y-94265750D01*
X238500428Y-94617500D01*
X230759000Y-94617500D01*
X230759000Y-93342500D01*
X238500428Y-93342500D01*
X238503500Y-93694250D01*
X238662250Y-93853000D01*
X239649000Y-93853000D01*
X239649000Y-92866250D01*
X239903000Y-92866250D01*
X239903000Y-93853000D01*
X240889750Y-93853000D01*
X241048500Y-93694250D01*
X241051572Y-93342500D01*
X241039312Y-93218018D01*
X241003002Y-93098320D01*
X240944037Y-92988006D01*
X240864685Y-92891315D01*
X240767994Y-92811963D01*
X240657680Y-92752998D01*
X240537982Y-92716688D01*
X240413500Y-92704428D01*
X240061750Y-92707500D01*
X239903000Y-92866250D01*
X239649000Y-92866250D01*
X239490250Y-92707500D01*
X239138500Y-92704428D01*
X239014018Y-92716688D01*
X238894320Y-92752998D01*
X238784006Y-92811963D01*
X238687315Y-92891315D01*
X238607963Y-92988006D01*
X238548998Y-93098320D01*
X238512688Y-93218018D01*
X238500428Y-93342500D01*
X230759000Y-93342500D01*
X230759000Y-88569242D01*
X230901731Y-88727588D01*
X231135080Y-88901641D01*
X231397901Y-89026825D01*
X231545110Y-89071476D01*
X231775000Y-88950155D01*
X231775000Y-87757000D01*
X232029000Y-87757000D01*
X232029000Y-88950155D01*
X232258890Y-89071476D01*
X232406099Y-89026825D01*
X232668920Y-88901641D01*
X232902269Y-88727588D01*
X233097178Y-88511355D01*
X233246157Y-88261252D01*
X233343481Y-87986891D01*
X233222814Y-87757000D01*
X232029000Y-87757000D01*
X231775000Y-87757000D01*
X231755000Y-87757000D01*
X231755000Y-87503000D01*
X231775000Y-87503000D01*
X231775000Y-86309845D01*
X232029000Y-86309845D01*
X232029000Y-87503000D01*
X233222814Y-87503000D01*
X233343481Y-87273109D01*
X233246157Y-86998748D01*
X233097178Y-86748645D01*
X232902269Y-86532412D01*
X232668920Y-86358359D01*
X232406099Y-86233175D01*
X232258890Y-86188524D01*
X232029000Y-86309845D01*
X231775000Y-86309845D01*
X231545110Y-86188524D01*
X231397901Y-86233175D01*
X231135080Y-86358359D01*
X230901731Y-86532412D01*
X230759000Y-86690758D01*
X230759000Y-83972000D01*
X241173000Y-83972000D01*
X241173000Y-129388000D01*
X241173000Y-129388000D01*
G37*
X241173000Y-129388000D02*
X230759000Y-129388000D01*
X230759000Y-127214231D01*
X230798000Y-127218072D01*
X231362250Y-127215000D01*
X231521000Y-127056250D01*
X231521000Y-125857000D01*
X231775000Y-125857000D01*
X231775000Y-127056250D01*
X231933750Y-127215000D01*
X232498000Y-127218072D01*
X232622482Y-127205812D01*
X232742180Y-127169502D01*
X232852494Y-127110537D01*
X232949185Y-127031185D01*
X233028537Y-126934494D01*
X233087502Y-126824180D01*
X233123812Y-126704482D01*
X233136072Y-126580000D01*
X233133000Y-126015750D01*
X232974250Y-125857000D01*
X231775000Y-125857000D01*
X231521000Y-125857000D01*
X231501000Y-125857000D01*
X231501000Y-125603000D01*
X231521000Y-125603000D01*
X231521000Y-124403750D01*
X231775000Y-124403750D01*
X231775000Y-125603000D01*
X232974250Y-125603000D01*
X233133000Y-125444250D01*
X233136072Y-124880000D01*
X233123812Y-124755518D01*
X233087502Y-124635820D01*
X233028537Y-124525506D01*
X232949185Y-124428815D01*
X232852494Y-124349463D01*
X232742180Y-124290498D01*
X232622482Y-124254188D01*
X232498000Y-124241928D01*
X231933750Y-124245000D01*
X231775000Y-124403750D01*
X231521000Y-124403750D01*
X231362250Y-124245000D01*
X230798000Y-124241928D01*
X230759000Y-124245769D01*
X230759000Y-121145325D01*
X236764280Y-121145325D01*
X236907052Y-121449625D01*
X237263107Y-121629455D01*
X237647402Y-121736366D01*
X238045171Y-121766251D01*
X238441128Y-121717961D01*
X238820055Y-121593352D01*
X239088948Y-121449625D01*
X239231720Y-121145325D01*
X237998000Y-119911605D01*
X236764280Y-121145325D01*
X230759000Y-121145325D01*
X230759000Y-119779171D01*
X235963749Y-119779171D01*
X236012039Y-120175128D01*
X236136648Y-120554055D01*
X236280375Y-120822948D01*
X236584675Y-120965720D01*
X237818395Y-119732000D01*
X238177605Y-119732000D01*
X239411325Y-120965720D01*
X239715625Y-120822948D01*
X239895455Y-120466893D01*
X240002366Y-120082598D01*
X240032251Y-119684829D01*
X239983961Y-119288872D01*
X239859352Y-118909945D01*
X239715625Y-118641052D01*
X239411325Y-118498280D01*
X238177605Y-119732000D01*
X237818395Y-119732000D01*
X236584675Y-118498280D01*
X236280375Y-118641052D01*
X236100545Y-118997107D01*
X235993634Y-119381402D01*
X235963749Y-119779171D01*
X230759000Y-119779171D01*
X230759000Y-117745325D01*
X236764280Y-117745325D01*
X236898783Y-118032000D01*
X236764280Y-118318675D01*
X237998000Y-119552395D01*
X239231720Y-118318675D01*
X239097217Y-118032000D01*
X239231720Y-117745325D01*
X237998000Y-116511605D01*
X236764280Y-117745325D01*
X230759000Y-117745325D01*
X230759000Y-116379171D01*
X235963749Y-116379171D01*
X236012039Y-116775128D01*
X236136648Y-117154055D01*
X236280375Y-117422948D01*
X236584675Y-117565720D01*
X237818395Y-116332000D01*
X238177605Y-116332000D01*
X239411325Y-117565720D01*
X239715625Y-117422948D01*
X239895455Y-117066893D01*
X240002366Y-116682598D01*
X240032251Y-116284829D01*
X239983961Y-115888872D01*
X239859352Y-115509945D01*
X239715625Y-115241052D01*
X239411325Y-115098280D01*
X238177605Y-116332000D01*
X237818395Y-116332000D01*
X236584675Y-115098280D01*
X236280375Y-115241052D01*
X236100545Y-115597107D01*
X235993634Y-115981402D01*
X235963749Y-116379171D01*
X230759000Y-116379171D01*
X230759000Y-114918675D01*
X236764280Y-114918675D01*
X237998000Y-116152395D01*
X239231720Y-114918675D01*
X239088948Y-114614375D01*
X238732893Y-114434545D01*
X238348598Y-114327634D01*
X237950829Y-114297749D01*
X237554872Y-114346039D01*
X237175945Y-114470648D01*
X236907052Y-114614375D01*
X236764280Y-114918675D01*
X230759000Y-114918675D01*
X230759000Y-94617500D01*
X238500428Y-94617500D01*
X238512688Y-94741982D01*
X238548998Y-94861680D01*
X238607963Y-94971994D01*
X238687315Y-95068685D01*
X238784006Y-95148037D01*
X238894320Y-95207002D01*
X239014018Y-95243312D01*
X239138500Y-95255572D01*
X239490250Y-95252500D01*
X239649000Y-95093750D01*
X239649000Y-94107000D01*
X239903000Y-94107000D01*
X239903000Y-95093750D01*
X240061750Y-95252500D01*
X240413500Y-95255572D01*
X240537982Y-95243312D01*
X240657680Y-95207002D01*
X240767994Y-95148037D01*
X240864685Y-95068685D01*
X240944037Y-94971994D01*
X241003002Y-94861680D01*
X241039312Y-94741982D01*
X241051572Y-94617500D01*
X241048500Y-94265750D01*
X240889750Y-94107000D01*
X239903000Y-94107000D01*
X239649000Y-94107000D01*
X238662250Y-94107000D01*
X238503500Y-94265750D01*
X238500428Y-94617500D01*
X230759000Y-94617500D01*
X230759000Y-93342500D01*
X238500428Y-93342500D01*
X238503500Y-93694250D01*
X238662250Y-93853000D01*
X239649000Y-93853000D01*
X239649000Y-92866250D01*
X239903000Y-92866250D01*
X239903000Y-93853000D01*
X240889750Y-93853000D01*
X241048500Y-93694250D01*
X241051572Y-93342500D01*
X241039312Y-93218018D01*
X241003002Y-93098320D01*
X240944037Y-92988006D01*
X240864685Y-92891315D01*
X240767994Y-92811963D01*
X240657680Y-92752998D01*
X240537982Y-92716688D01*
X240413500Y-92704428D01*
X240061750Y-92707500D01*
X239903000Y-92866250D01*
X239649000Y-92866250D01*
X239490250Y-92707500D01*
X239138500Y-92704428D01*
X239014018Y-92716688D01*
X238894320Y-92752998D01*
X238784006Y-92811963D01*
X238687315Y-92891315D01*
X238607963Y-92988006D01*
X238548998Y-93098320D01*
X238512688Y-93218018D01*
X238500428Y-93342500D01*
X230759000Y-93342500D01*
X230759000Y-88569242D01*
X230901731Y-88727588D01*
X231135080Y-88901641D01*
X231397901Y-89026825D01*
X231545110Y-89071476D01*
X231775000Y-88950155D01*
X231775000Y-87757000D01*
X232029000Y-87757000D01*
X232029000Y-88950155D01*
X232258890Y-89071476D01*
X232406099Y-89026825D01*
X232668920Y-88901641D01*
X232902269Y-88727588D01*
X233097178Y-88511355D01*
X233246157Y-88261252D01*
X233343481Y-87986891D01*
X233222814Y-87757000D01*
X232029000Y-87757000D01*
X231775000Y-87757000D01*
X231755000Y-87757000D01*
X231755000Y-87503000D01*
X231775000Y-87503000D01*
X231775000Y-86309845D01*
X232029000Y-86309845D01*
X232029000Y-87503000D01*
X233222814Y-87503000D01*
X233343481Y-87273109D01*
X233246157Y-86998748D01*
X233097178Y-86748645D01*
X232902269Y-86532412D01*
X232668920Y-86358359D01*
X232406099Y-86233175D01*
X232258890Y-86188524D01*
X232029000Y-86309845D01*
X231775000Y-86309845D01*
X231545110Y-86188524D01*
X231397901Y-86233175D01*
X231135080Y-86358359D01*
X230901731Y-86532412D01*
X230759000Y-86690758D01*
X230759000Y-83972000D01*
X241173000Y-83972000D01*
X241173000Y-129388000D01*
G36*
X258674001Y-129388000D02*
G01*
X255879313Y-129388000D01*
X256135082Y-129282057D01*
X256697685Y-128906138D01*
X257176138Y-128427685D01*
X257552057Y-127865082D01*
X257810994Y-127239952D01*
X257943000Y-126576318D01*
X257943000Y-125899682D01*
X257810994Y-125236048D01*
X257552057Y-124610918D01*
X257176138Y-124048315D01*
X256697685Y-123569862D01*
X256135082Y-123193943D01*
X255509952Y-122935006D01*
X254846318Y-122803000D01*
X254169682Y-122803000D01*
X253506048Y-122935006D01*
X252880918Y-123193943D01*
X252318315Y-123569862D01*
X251839862Y-124048315D01*
X251463943Y-124610918D01*
X251205006Y-125236048D01*
X251073000Y-125899682D01*
X251073000Y-126576318D01*
X251205006Y-127239952D01*
X251463943Y-127865082D01*
X251839862Y-128427685D01*
X252318315Y-128906138D01*
X252880918Y-129282057D01*
X253136687Y-129388000D01*
X241935000Y-129388000D01*
X241935000Y-121145325D01*
X246684280Y-121145325D01*
X246827052Y-121449625D01*
X247183107Y-121629455D01*
X247567402Y-121736366D01*
X247965171Y-121766251D01*
X248361128Y-121717961D01*
X248740055Y-121593352D01*
X249008948Y-121449625D01*
X249151720Y-121145325D01*
X247918000Y-119911605D01*
X246684280Y-121145325D01*
X241935000Y-121145325D01*
X241935000Y-119779171D01*
X245883749Y-119779171D01*
X245932039Y-120175128D01*
X246056648Y-120554055D01*
X246200375Y-120822948D01*
X246504675Y-120965720D01*
X247738395Y-119732000D01*
X248097605Y-119732000D01*
X249331325Y-120965720D01*
X249635625Y-120822948D01*
X249815455Y-120466893D01*
X249922366Y-120082598D01*
X249952251Y-119684829D01*
X249903961Y-119288872D01*
X249779352Y-118909945D01*
X249635625Y-118641052D01*
X249331325Y-118498280D01*
X248097605Y-119732000D01*
X247738395Y-119732000D01*
X246504675Y-118498280D01*
X246200375Y-118641052D01*
X246020545Y-118997107D01*
X245913634Y-119381402D01*
X245883749Y-119779171D01*
X241935000Y-119779171D01*
X241935000Y-117745325D01*
X246684280Y-117745325D01*
X246818783Y-118032000D01*
X246684280Y-118318675D01*
X247918000Y-119552395D01*
X249151720Y-118318675D01*
X249017217Y-118032000D01*
X249151720Y-117745325D01*
X247918000Y-116511605D01*
X246684280Y-117745325D01*
X241935000Y-117745325D01*
X241935000Y-116379171D01*
X245883749Y-116379171D01*
X245932039Y-116775128D01*
X246056648Y-117154055D01*
X246200375Y-117422948D01*
X246504675Y-117565720D01*
X247738395Y-116332000D01*
X248097605Y-116332000D01*
X249331325Y-117565720D01*
X249635625Y-117422948D01*
X249815455Y-117066893D01*
X249922366Y-116682598D01*
X249952251Y-116284829D01*
X249903961Y-115888872D01*
X249779352Y-115509945D01*
X249635625Y-115241052D01*
X249331325Y-115098280D01*
X248097605Y-116332000D01*
X247738395Y-116332000D01*
X246504675Y-115098280D01*
X246200375Y-115241052D01*
X246020545Y-115597107D01*
X245913634Y-115981402D01*
X245883749Y-116379171D01*
X241935000Y-116379171D01*
X241935000Y-114918675D01*
X246684280Y-114918675D01*
X247918000Y-116152395D01*
X249151720Y-114918675D01*
X249008948Y-114614375D01*
X248652893Y-114434545D01*
X248268598Y-114327634D01*
X247870829Y-114297749D01*
X247474872Y-114346039D01*
X247095945Y-114470648D01*
X246827052Y-114614375D01*
X246684280Y-114918675D01*
X241935000Y-114918675D01*
X241935000Y-111132728D01*
X241959463Y-111178494D01*
X242038815Y-111275185D01*
X242135506Y-111354537D01*
X242245820Y-111413502D01*
X242365518Y-111449812D01*
X242490000Y-111462072D01*
X243554250Y-111459000D01*
X243713000Y-111300250D01*
X243713000Y-109601000D01*
X243967000Y-109601000D01*
X243967000Y-111300250D01*
X244125750Y-111459000D01*
X245190000Y-111462072D01*
X245314482Y-111449812D01*
X245434180Y-111413502D01*
X245544494Y-111354537D01*
X245641185Y-111275185D01*
X245720537Y-111178494D01*
X245779502Y-111068180D01*
X245815812Y-110948482D01*
X245828072Y-110824000D01*
X245825000Y-109759750D01*
X245666250Y-109601000D01*
X243967000Y-109601000D01*
X243713000Y-109601000D01*
X243693000Y-109601000D01*
X243693000Y-109347000D01*
X243713000Y-109347000D01*
X243713000Y-109327000D01*
X243967000Y-109327000D01*
X243967000Y-109347000D01*
X245666250Y-109347000D01*
X245825000Y-109188250D01*
X245828072Y-108124000D01*
X245815812Y-107999518D01*
X245779502Y-107879820D01*
X245720537Y-107769506D01*
X245641185Y-107672815D01*
X245544494Y-107593463D01*
X245498728Y-107569000D01*
X258674001Y-107569000D01*
X258674001Y-129388000D01*
X258674001Y-129388000D01*
G37*
X258674001Y-129388000D02*
X255879313Y-129388000D01*
X256135082Y-129282057D01*
X256697685Y-128906138D01*
X257176138Y-128427685D01*
X257552057Y-127865082D01*
X257810994Y-127239952D01*
X257943000Y-126576318D01*
X257943000Y-125899682D01*
X257810994Y-125236048D01*
X257552057Y-124610918D01*
X257176138Y-124048315D01*
X256697685Y-123569862D01*
X256135082Y-123193943D01*
X255509952Y-122935006D01*
X254846318Y-122803000D01*
X254169682Y-122803000D01*
X253506048Y-122935006D01*
X252880918Y-123193943D01*
X252318315Y-123569862D01*
X251839862Y-124048315D01*
X251463943Y-124610918D01*
X251205006Y-125236048D01*
X251073000Y-125899682D01*
X251073000Y-126576318D01*
X251205006Y-127239952D01*
X251463943Y-127865082D01*
X251839862Y-128427685D01*
X252318315Y-128906138D01*
X252880918Y-129282057D01*
X253136687Y-129388000D01*
X241935000Y-129388000D01*
X241935000Y-121145325D01*
X246684280Y-121145325D01*
X246827052Y-121449625D01*
X247183107Y-121629455D01*
X247567402Y-121736366D01*
X247965171Y-121766251D01*
X248361128Y-121717961D01*
X248740055Y-121593352D01*
X249008948Y-121449625D01*
X249151720Y-121145325D01*
X247918000Y-119911605D01*
X246684280Y-121145325D01*
X241935000Y-121145325D01*
X241935000Y-119779171D01*
X245883749Y-119779171D01*
X245932039Y-120175128D01*
X246056648Y-120554055D01*
X246200375Y-120822948D01*
X246504675Y-120965720D01*
X247738395Y-119732000D01*
X248097605Y-119732000D01*
X249331325Y-120965720D01*
X249635625Y-120822948D01*
X249815455Y-120466893D01*
X249922366Y-120082598D01*
X249952251Y-119684829D01*
X249903961Y-119288872D01*
X249779352Y-118909945D01*
X249635625Y-118641052D01*
X249331325Y-118498280D01*
X248097605Y-119732000D01*
X247738395Y-119732000D01*
X246504675Y-118498280D01*
X246200375Y-118641052D01*
X246020545Y-118997107D01*
X245913634Y-119381402D01*
X245883749Y-119779171D01*
X241935000Y-119779171D01*
X241935000Y-117745325D01*
X246684280Y-117745325D01*
X246818783Y-118032000D01*
X246684280Y-118318675D01*
X247918000Y-119552395D01*
X249151720Y-118318675D01*
X249017217Y-118032000D01*
X249151720Y-117745325D01*
X247918000Y-116511605D01*
X246684280Y-117745325D01*
X241935000Y-117745325D01*
X241935000Y-116379171D01*
X245883749Y-116379171D01*
X245932039Y-116775128D01*
X246056648Y-117154055D01*
X246200375Y-117422948D01*
X246504675Y-117565720D01*
X247738395Y-116332000D01*
X248097605Y-116332000D01*
X249331325Y-117565720D01*
X249635625Y-117422948D01*
X249815455Y-117066893D01*
X249922366Y-116682598D01*
X249952251Y-116284829D01*
X249903961Y-115888872D01*
X249779352Y-115509945D01*
X249635625Y-115241052D01*
X249331325Y-115098280D01*
X248097605Y-116332000D01*
X247738395Y-116332000D01*
X246504675Y-115098280D01*
X246200375Y-115241052D01*
X246020545Y-115597107D01*
X245913634Y-115981402D01*
X245883749Y-116379171D01*
X241935000Y-116379171D01*
X241935000Y-114918675D01*
X246684280Y-114918675D01*
X247918000Y-116152395D01*
X249151720Y-114918675D01*
X249008948Y-114614375D01*
X248652893Y-114434545D01*
X248268598Y-114327634D01*
X247870829Y-114297749D01*
X247474872Y-114346039D01*
X247095945Y-114470648D01*
X246827052Y-114614375D01*
X246684280Y-114918675D01*
X241935000Y-114918675D01*
X241935000Y-111132728D01*
X241959463Y-111178494D01*
X242038815Y-111275185D01*
X242135506Y-111354537D01*
X242245820Y-111413502D01*
X242365518Y-111449812D01*
X242490000Y-111462072D01*
X243554250Y-111459000D01*
X243713000Y-111300250D01*
X243713000Y-109601000D01*
X243967000Y-109601000D01*
X243967000Y-111300250D01*
X244125750Y-111459000D01*
X245190000Y-111462072D01*
X245314482Y-111449812D01*
X245434180Y-111413502D01*
X245544494Y-111354537D01*
X245641185Y-111275185D01*
X245720537Y-111178494D01*
X245779502Y-111068180D01*
X245815812Y-110948482D01*
X245828072Y-110824000D01*
X245825000Y-109759750D01*
X245666250Y-109601000D01*
X243967000Y-109601000D01*
X243713000Y-109601000D01*
X243693000Y-109601000D01*
X243693000Y-109347000D01*
X243713000Y-109347000D01*
X243713000Y-109327000D01*
X243967000Y-109327000D01*
X243967000Y-109347000D01*
X245666250Y-109347000D01*
X245825000Y-109188250D01*
X245828072Y-108124000D01*
X245815812Y-107999518D01*
X245779502Y-107879820D01*
X245720537Y-107769506D01*
X245641185Y-107672815D01*
X245544494Y-107593463D01*
X245498728Y-107569000D01*
X258674001Y-107569000D01*
X258674001Y-129388000D01*
M02*
