M48
INCH
T1C0.0157
T2C0.0335
T3C0.0394
T4C0.0669
T5C0.0701
T6C0.1260
%
G90
G05
T1
X7.275Y-4.625
X7.28Y-3.74
X7.97Y-4.79
X8.0586Y-4.01
X8.06Y-4.41
X8.52Y-4.24
X8.84Y-4.52
T2
X9.44Y-3.7
X9.5778Y-3.7
T3
X9.02Y-4.95
X9.12Y-4.95
X8.93Y-3.45
X9.03Y-3.45
X9.13Y-3.45
X8.41Y-3.45
X8.41Y-3.55
X8.41Y-3.65
X8.41Y-3.75
X8.41Y-3.85
X8.41Y-3.95
T4
X9.6Y-4.1541
X9.6Y-4.31
T5
X9.37Y-4.58
X9.37Y-4.7139
X9.7606Y-4.58
X9.7606Y-4.7139
T6
X10.02Y-4.97
X10.02Y-3.45
X7.39Y-4.97
X7.39Y-3.45
T0
M30
