%TF.GenerationSoftware,KiCad,Pcbnew,(5.1.4)-1*%
%TF.CreationDate,2020-11-25T14:42:45+00:00*%
%TF.ProjectId,WLED Module,574c4544-204d-46f6-9475-6c652e6b6963,rev?*%
%TF.SameCoordinates,Original*%
%TF.FileFunction,Legend,Top*%
%TF.FilePolarity,Positive*%
%FSLAX46Y46*%
G04 Gerber Fmt 4.6, Leading zero omitted, Abs format (unit mm)*
G04 Created by KiCad (PCBNEW (5.1.4)-1) date 2020-11-25 14:42:45*
%MOMM*%
%LPD*%
G04 APERTURE LIST*
%ADD10C,0.150000*%
%ADD11C,0.050000*%
%ADD12C,0.120000*%
%ADD13C,0.010000*%
%ADD14C,0.200000*%
%ADD15C,0.254000*%
G04 APERTURE END LIST*
D10*
X241371428Y-109854952D02*
X241371428Y-109093047D01*
X241752380Y-109474000D02*
X240990476Y-109474000D01*
X241371428Y-105536952D02*
X241371428Y-104775047D01*
D11*
X254254000Y-130048000D02*
X259334000Y-130048000D01*
X172466000Y-83312000D02*
X259334000Y-83312000D01*
X259334000Y-83312000D02*
X259334000Y-130048000D01*
X183642000Y-91440000D02*
X182880000Y-91440000D01*
D10*
X190731142Y-91892476D02*
X190635904Y-91844857D01*
X190445428Y-91844857D01*
X190350190Y-91892476D01*
X190254952Y-91987714D01*
X190207333Y-92082952D01*
X190207333Y-92273428D01*
X190254952Y-92368666D01*
X190350190Y-92463904D01*
X190445428Y-92511523D01*
X190635904Y-92511523D01*
X190731142Y-92463904D01*
X190540666Y-91511523D02*
X190302571Y-91559142D01*
X190064476Y-91702000D01*
X189921619Y-91940095D01*
X189874000Y-92178190D01*
X189921619Y-92416285D01*
X190064476Y-92654380D01*
X190302571Y-92797238D01*
X190540666Y-92844857D01*
X190778761Y-92797238D01*
X191016857Y-92654380D01*
X191159714Y-92416285D01*
X191207333Y-92178190D01*
X191159714Y-91940095D01*
X191016857Y-91702000D01*
X190778761Y-91559142D01*
X190540666Y-91511523D01*
X191588285Y-91749619D02*
X191635904Y-91702000D01*
X191731142Y-91654380D01*
X191969238Y-91654380D01*
X192064476Y-91702000D01*
X192112095Y-91749619D01*
X192159714Y-91844857D01*
X192159714Y-91940095D01*
X192112095Y-92082952D01*
X191540666Y-92654380D01*
X192159714Y-92654380D01*
X192778761Y-91654380D02*
X192874000Y-91654380D01*
X192969238Y-91702000D01*
X193016857Y-91749619D01*
X193064476Y-91844857D01*
X193112095Y-92035333D01*
X193112095Y-92273428D01*
X193064476Y-92463904D01*
X193016857Y-92559142D01*
X192969238Y-92606761D01*
X192874000Y-92654380D01*
X192778761Y-92654380D01*
X192683523Y-92606761D01*
X192635904Y-92559142D01*
X192588285Y-92463904D01*
X192540666Y-92273428D01*
X192540666Y-92035333D01*
X192588285Y-91844857D01*
X192635904Y-91749619D01*
X192683523Y-91702000D01*
X192778761Y-91654380D01*
X193493047Y-91749619D02*
X193540666Y-91702000D01*
X193635904Y-91654380D01*
X193874000Y-91654380D01*
X193969238Y-91702000D01*
X194016857Y-91749619D01*
X194064476Y-91844857D01*
X194064476Y-91940095D01*
X194016857Y-92082952D01*
X193445428Y-92654380D01*
X194064476Y-92654380D01*
X194683523Y-91654380D02*
X194778761Y-91654380D01*
X194874000Y-91702000D01*
X194921619Y-91749619D01*
X194969238Y-91844857D01*
X195016857Y-92035333D01*
X195016857Y-92273428D01*
X194969238Y-92463904D01*
X194921619Y-92559142D01*
X194874000Y-92606761D01*
X194778761Y-92654380D01*
X194683523Y-92654380D01*
X194588285Y-92606761D01*
X194540666Y-92559142D01*
X194493047Y-92463904D01*
X194445428Y-92273428D01*
X194445428Y-92035333D01*
X194493047Y-91844857D01*
X194540666Y-91749619D01*
X194588285Y-91702000D01*
X194683523Y-91654380D01*
X196207333Y-92654380D02*
X196207333Y-91987714D01*
X196207333Y-92082952D02*
X196254952Y-92035333D01*
X196350190Y-91987714D01*
X196493047Y-91987714D01*
X196588285Y-92035333D01*
X196635904Y-92130571D01*
X196635904Y-92654380D01*
X196635904Y-92130571D02*
X196683523Y-92035333D01*
X196778761Y-91987714D01*
X196921619Y-91987714D01*
X197016857Y-92035333D01*
X197064476Y-92130571D01*
X197064476Y-92654380D01*
X197969238Y-92654380D02*
X197969238Y-92130571D01*
X197921619Y-92035333D01*
X197826380Y-91987714D01*
X197635904Y-91987714D01*
X197540666Y-92035333D01*
X197969238Y-92606761D02*
X197874000Y-92654380D01*
X197635904Y-92654380D01*
X197540666Y-92606761D01*
X197493047Y-92511523D01*
X197493047Y-92416285D01*
X197540666Y-92321047D01*
X197635904Y-92273428D01*
X197874000Y-92273428D01*
X197969238Y-92225809D01*
X198445428Y-92654380D02*
X198445428Y-91987714D01*
X198445428Y-92178190D02*
X198493047Y-92082952D01*
X198540666Y-92035333D01*
X198635904Y-91987714D01*
X198731142Y-91987714D01*
X199064476Y-92654380D02*
X199064476Y-91654380D01*
X199159714Y-92273428D02*
X199445428Y-92654380D01*
X199445428Y-91987714D02*
X199064476Y-92368666D01*
X199874000Y-91987714D02*
X199874000Y-92654380D01*
X199874000Y-92082952D02*
X199921619Y-92035333D01*
X200016857Y-91987714D01*
X200159714Y-91987714D01*
X200254952Y-92035333D01*
X200302571Y-92130571D01*
X200302571Y-92654380D01*
X200921619Y-92654380D02*
X200826380Y-92606761D01*
X200778761Y-92559142D01*
X200731142Y-92463904D01*
X200731142Y-92178190D01*
X200778761Y-92082952D01*
X200826380Y-92035333D01*
X200921619Y-91987714D01*
X201064476Y-91987714D01*
X201159714Y-92035333D01*
X201207333Y-92082952D01*
X201254952Y-92178190D01*
X201254952Y-92463904D01*
X201207333Y-92559142D01*
X201159714Y-92606761D01*
X201064476Y-92654380D01*
X200921619Y-92654380D01*
X201540666Y-91987714D02*
X201921619Y-91987714D01*
X201683523Y-91654380D02*
X201683523Y-92511523D01*
X201731142Y-92606761D01*
X201826380Y-92654380D01*
X201921619Y-92654380D01*
X202683523Y-91987714D02*
X202683523Y-92797238D01*
X202635904Y-92892476D01*
X202588285Y-92940095D01*
X202493047Y-92987714D01*
X202350190Y-92987714D01*
X202254952Y-92940095D01*
X202683523Y-92606761D02*
X202588285Y-92654380D01*
X202397809Y-92654380D01*
X202302571Y-92606761D01*
X202254952Y-92559142D01*
X202207333Y-92463904D01*
X202207333Y-92178190D01*
X202254952Y-92082952D01*
X202302571Y-92035333D01*
X202397809Y-91987714D01*
X202588285Y-91987714D01*
X202683523Y-92035333D01*
X203540666Y-92606761D02*
X203445428Y-92654380D01*
X203254952Y-92654380D01*
X203159714Y-92606761D01*
X203112095Y-92511523D01*
X203112095Y-92130571D01*
X203159714Y-92035333D01*
X203254952Y-91987714D01*
X203445428Y-91987714D01*
X203540666Y-92035333D01*
X203588285Y-92130571D01*
X203588285Y-92225809D01*
X203112095Y-92321047D01*
X204159714Y-92654380D02*
X204064476Y-92606761D01*
X204016857Y-92559142D01*
X203969238Y-92463904D01*
X203969238Y-92178190D01*
X204016857Y-92082952D01*
X204064476Y-92035333D01*
X204159714Y-91987714D01*
X204302571Y-91987714D01*
X204397809Y-92035333D01*
X204445428Y-92082952D01*
X204493047Y-92178190D01*
X204493047Y-92463904D01*
X204445428Y-92559142D01*
X204397809Y-92606761D01*
X204302571Y-92654380D01*
X204159714Y-92654380D01*
X204921619Y-92654380D02*
X204921619Y-91987714D01*
X204921619Y-92178190D02*
X204969238Y-92082952D01*
X205016857Y-92035333D01*
X205112095Y-91987714D01*
X205207333Y-91987714D01*
X205969238Y-91987714D02*
X205969238Y-92797238D01*
X205921619Y-92892476D01*
X205874000Y-92940095D01*
X205778761Y-92987714D01*
X205635904Y-92987714D01*
X205540666Y-92940095D01*
X205969238Y-92606761D02*
X205874000Y-92654380D01*
X205683523Y-92654380D01*
X205588285Y-92606761D01*
X205540666Y-92559142D01*
X205493047Y-92463904D01*
X205493047Y-92178190D01*
X205540666Y-92082952D01*
X205588285Y-92035333D01*
X205683523Y-91987714D01*
X205874000Y-91987714D01*
X205969238Y-92035333D01*
X206826380Y-92606761D02*
X206731142Y-92654380D01*
X206540666Y-92654380D01*
X206445428Y-92606761D01*
X206397809Y-92511523D01*
X206397809Y-92130571D01*
X206445428Y-92035333D01*
X206540666Y-91987714D01*
X206731142Y-91987714D01*
X206826380Y-92035333D01*
X206874000Y-92130571D01*
X206874000Y-92225809D01*
X206397809Y-92321047D01*
X191635904Y-89622380D02*
X191874000Y-90622380D01*
X192064476Y-89908095D01*
X192254952Y-90622380D01*
X192493047Y-89622380D01*
X193350190Y-90622380D02*
X192874000Y-90622380D01*
X192874000Y-89622380D01*
X193683523Y-90098571D02*
X194016857Y-90098571D01*
X194159714Y-90622380D02*
X193683523Y-90622380D01*
X193683523Y-89622380D01*
X194159714Y-89622380D01*
X194588285Y-90622380D02*
X194588285Y-89622380D01*
X194826380Y-89622380D01*
X194969238Y-89670000D01*
X195064476Y-89765238D01*
X195112095Y-89860476D01*
X195159714Y-90050952D01*
X195159714Y-90193809D01*
X195112095Y-90384285D01*
X195064476Y-90479523D01*
X194969238Y-90574761D01*
X194826380Y-90622380D01*
X194588285Y-90622380D01*
X196350190Y-90622380D02*
X196350190Y-89622380D01*
X196683523Y-90336666D01*
X197016857Y-89622380D01*
X197016857Y-90622380D01*
X197635904Y-90622380D02*
X197540666Y-90574761D01*
X197493047Y-90527142D01*
X197445428Y-90431904D01*
X197445428Y-90146190D01*
X197493047Y-90050952D01*
X197540666Y-90003333D01*
X197635904Y-89955714D01*
X197778761Y-89955714D01*
X197874000Y-90003333D01*
X197921619Y-90050952D01*
X197969238Y-90146190D01*
X197969238Y-90431904D01*
X197921619Y-90527142D01*
X197874000Y-90574761D01*
X197778761Y-90622380D01*
X197635904Y-90622380D01*
X198826380Y-90622380D02*
X198826380Y-89622380D01*
X198826380Y-90574761D02*
X198731142Y-90622380D01*
X198540666Y-90622380D01*
X198445428Y-90574761D01*
X198397809Y-90527142D01*
X198350190Y-90431904D01*
X198350190Y-90146190D01*
X198397809Y-90050952D01*
X198445428Y-90003333D01*
X198540666Y-89955714D01*
X198731142Y-89955714D01*
X198826380Y-90003333D01*
X199731142Y-89955714D02*
X199731142Y-90622380D01*
X199302571Y-89955714D02*
X199302571Y-90479523D01*
X199350190Y-90574761D01*
X199445428Y-90622380D01*
X199588285Y-90622380D01*
X199683523Y-90574761D01*
X199731142Y-90527142D01*
X200350190Y-90622380D02*
X200254952Y-90574761D01*
X200207333Y-90479523D01*
X200207333Y-89622380D01*
X201112095Y-90574761D02*
X201016857Y-90622380D01*
X200826380Y-90622380D01*
X200731142Y-90574761D01*
X200683523Y-90479523D01*
X200683523Y-90098571D01*
X200731142Y-90003333D01*
X200826380Y-89955714D01*
X201016857Y-89955714D01*
X201112095Y-90003333D01*
X201159714Y-90098571D01*
X201159714Y-90193809D01*
X200683523Y-90289047D01*
X202254952Y-89955714D02*
X202493047Y-90622380D01*
X202731142Y-89955714D01*
X203635904Y-90622380D02*
X203064476Y-90622380D01*
X203350190Y-90622380D02*
X203350190Y-89622380D01*
X203254952Y-89765238D01*
X203159714Y-89860476D01*
X203064476Y-89908095D01*
X204064476Y-90527142D02*
X204112095Y-90574761D01*
X204064476Y-90622380D01*
X204016857Y-90574761D01*
X204064476Y-90527142D01*
X204064476Y-90622380D01*
X204731142Y-89622380D02*
X204826380Y-89622380D01*
X204921619Y-89670000D01*
X204969238Y-89717619D01*
X205016857Y-89812857D01*
X205064476Y-90003333D01*
X205064476Y-90241428D01*
X205016857Y-90431904D01*
X204969238Y-90527142D01*
X204921619Y-90574761D01*
X204826380Y-90622380D01*
X204731142Y-90622380D01*
X204635904Y-90574761D01*
X204588285Y-90527142D01*
X204540666Y-90431904D01*
X204493047Y-90241428D01*
X204493047Y-90003333D01*
X204540666Y-89812857D01*
X204588285Y-89717619D01*
X204635904Y-89670000D01*
X204731142Y-89622380D01*
X231719428Y-123459714D02*
X231719428Y-122697809D01*
X232100380Y-123078761D02*
X231338476Y-123078761D01*
X231100380Y-121745428D02*
X231100380Y-122221619D01*
X231576571Y-122269238D01*
X231528952Y-122221619D01*
X231481333Y-122126380D01*
X231481333Y-121888285D01*
X231528952Y-121793047D01*
X231576571Y-121745428D01*
X231671809Y-121697809D01*
X231909904Y-121697809D01*
X232005142Y-121745428D01*
X232052761Y-121793047D01*
X232100380Y-121888285D01*
X232100380Y-122126380D01*
X232052761Y-122221619D01*
X232005142Y-122269238D01*
X231100380Y-121412095D02*
X232100380Y-121078761D01*
X231100380Y-120745428D01*
X228608000Y-122935904D02*
X228560380Y-123031142D01*
X228560380Y-123174000D01*
X228608000Y-123316857D01*
X228703238Y-123412095D01*
X228798476Y-123459714D01*
X228988952Y-123507333D01*
X229131809Y-123507333D01*
X229322285Y-123459714D01*
X229417523Y-123412095D01*
X229512761Y-123316857D01*
X229560380Y-123174000D01*
X229560380Y-123078761D01*
X229512761Y-122935904D01*
X229465142Y-122888285D01*
X229131809Y-122888285D01*
X229131809Y-123078761D01*
X229560380Y-122459714D02*
X228560380Y-122459714D01*
X229560380Y-121888285D01*
X228560380Y-121888285D01*
X229560380Y-121412095D02*
X228560380Y-121412095D01*
X228560380Y-121174000D01*
X228608000Y-121031142D01*
X228703238Y-120935904D01*
X228798476Y-120888285D01*
X228988952Y-120840666D01*
X229131809Y-120840666D01*
X229322285Y-120888285D01*
X229417523Y-120935904D01*
X229512761Y-121031142D01*
X229560380Y-121174000D01*
X229560380Y-121412095D01*
X231354380Y-90757428D02*
X231354380Y-91233618D01*
X231830571Y-91281237D01*
X231782952Y-91233618D01*
X231735333Y-91138380D01*
X231735333Y-90900285D01*
X231782952Y-90805047D01*
X231830571Y-90757428D01*
X231925809Y-90709809D01*
X232163904Y-90709809D01*
X232259142Y-90757428D01*
X232306761Y-90805047D01*
X232354380Y-90900285D01*
X232354380Y-91138380D01*
X232306761Y-91233618D01*
X232259142Y-91281237D01*
X231354380Y-90424094D02*
X232354380Y-90090761D01*
X231354380Y-89757428D01*
X229814380Y-92043142D02*
X228814380Y-92043142D01*
X228814380Y-91805047D01*
X228862000Y-91662190D01*
X228957238Y-91566952D01*
X229052476Y-91519333D01*
X229242952Y-91471714D01*
X229385809Y-91471714D01*
X229576285Y-91519333D01*
X229671523Y-91566952D01*
X229766761Y-91662190D01*
X229814380Y-91805047D01*
X229814380Y-92043142D01*
X229528666Y-91090761D02*
X229528666Y-90614571D01*
X229814380Y-91185999D02*
X228814380Y-90852666D01*
X229814380Y-90519333D01*
X228814380Y-90328856D02*
X228814380Y-89757428D01*
X229814380Y-90043142D02*
X228814380Y-90043142D01*
X226322000Y-91947904D02*
X226274380Y-92043142D01*
X226274380Y-92186000D01*
X226322000Y-92328857D01*
X226417238Y-92424095D01*
X226512476Y-92471714D01*
X226702952Y-92519333D01*
X226845809Y-92519333D01*
X227036285Y-92471714D01*
X227131523Y-92424095D01*
X227226761Y-92328857D01*
X227274380Y-92186000D01*
X227274380Y-92090761D01*
X227226761Y-91947904D01*
X227179142Y-91900285D01*
X226845809Y-91900285D01*
X226845809Y-92090761D01*
X227274380Y-91471714D02*
X226274380Y-91471714D01*
X227274380Y-90900285D01*
X226274380Y-90900285D01*
X227274380Y-90424095D02*
X226274380Y-90424095D01*
X226274380Y-90186000D01*
X226322000Y-90043142D01*
X226417238Y-89947904D01*
X226512476Y-89900285D01*
X226702952Y-89852666D01*
X226845809Y-89852666D01*
X227036285Y-89900285D01*
X227131523Y-89947904D01*
X227226761Y-90043142D01*
X227274380Y-90186000D01*
X227274380Y-90424095D01*
X224456666Y-93432380D02*
X224456666Y-94146666D01*
X224409047Y-94289523D01*
X224313809Y-94384761D01*
X224170952Y-94432380D01*
X224075714Y-94432380D01*
X224885238Y-93527619D02*
X224932857Y-93480000D01*
X225028095Y-93432380D01*
X225266190Y-93432380D01*
X225361428Y-93480000D01*
X225409047Y-93527619D01*
X225456666Y-93622857D01*
X225456666Y-93718095D01*
X225409047Y-93860952D01*
X224837619Y-94432380D01*
X225456666Y-94432380D01*
X224456666Y-96734380D02*
X224456666Y-97448666D01*
X224409047Y-97591523D01*
X224313809Y-97686761D01*
X224170952Y-97734380D01*
X224075714Y-97734380D01*
X225409047Y-96734380D02*
X224932857Y-96734380D01*
X224885238Y-97210571D01*
X224932857Y-97162952D01*
X225028095Y-97115333D01*
X225266190Y-97115333D01*
X225361428Y-97162952D01*
X225409047Y-97210571D01*
X225456666Y-97305809D01*
X225456666Y-97543904D01*
X225409047Y-97639142D01*
X225361428Y-97686761D01*
X225266190Y-97734380D01*
X225028095Y-97734380D01*
X224932857Y-97686761D01*
X224885238Y-97639142D01*
D12*
X223520000Y-96266000D02*
X223520000Y-98044000D01*
X223520000Y-92964000D02*
X223520000Y-94996000D01*
D10*
X215677904Y-99782380D02*
X216296952Y-99782380D01*
X215963619Y-100163333D01*
X216106476Y-100163333D01*
X216201714Y-100210952D01*
X216249333Y-100258571D01*
X216296952Y-100353809D01*
X216296952Y-100591904D01*
X216249333Y-100687142D01*
X216201714Y-100734761D01*
X216106476Y-100782380D01*
X215820761Y-100782380D01*
X215725523Y-100734761D01*
X215677904Y-100687142D01*
X216582666Y-99782380D02*
X216916000Y-100782380D01*
X217249333Y-99782380D01*
X217487428Y-99782380D02*
X218106476Y-99782380D01*
X217773142Y-100163333D01*
X217916000Y-100163333D01*
X218011238Y-100210952D01*
X218058857Y-100258571D01*
X218106476Y-100353809D01*
X218106476Y-100591904D01*
X218058857Y-100687142D01*
X218011238Y-100734761D01*
X217916000Y-100782380D01*
X217630285Y-100782380D01*
X217535047Y-100734761D01*
X217487428Y-100687142D01*
X216344571Y-98242380D02*
X216011238Y-97766190D01*
X215773143Y-98242380D02*
X215773143Y-97242380D01*
X216154095Y-97242380D01*
X216249333Y-97290000D01*
X216296952Y-97337619D01*
X216344571Y-97432857D01*
X216344571Y-97575714D01*
X216296952Y-97670952D01*
X216249333Y-97718571D01*
X216154095Y-97766190D01*
X215773143Y-97766190D01*
X216630286Y-97242380D02*
X217201714Y-97242380D01*
X216916000Y-98242380D02*
X216916000Y-97242380D01*
X217487429Y-98194761D02*
X217630286Y-98242380D01*
X217868381Y-98242380D01*
X217963619Y-98194761D01*
X218011238Y-98147142D01*
X218058857Y-98051904D01*
X218058857Y-97956666D01*
X218011238Y-97861428D01*
X217963619Y-97813809D01*
X217868381Y-97766190D01*
X217677905Y-97718571D01*
X217582667Y-97670952D01*
X217535048Y-97623333D01*
X217487429Y-97528095D01*
X217487429Y-97432857D01*
X217535048Y-97337619D01*
X217582667Y-97290000D01*
X217677905Y-97242380D01*
X217916000Y-97242380D01*
X218058857Y-97290000D01*
X215773142Y-95702380D02*
X215773142Y-94702380D01*
X216011238Y-94702380D01*
X216154095Y-94750000D01*
X216249333Y-94845238D01*
X216296952Y-94940476D01*
X216344571Y-95130952D01*
X216344571Y-95273809D01*
X216296952Y-95464285D01*
X216249333Y-95559523D01*
X216154095Y-95654761D01*
X216011238Y-95702380D01*
X215773142Y-95702380D01*
X216630285Y-94702380D02*
X217201714Y-94702380D01*
X216916000Y-95702380D02*
X216916000Y-94702380D01*
X218106476Y-95702380D02*
X217773142Y-95226190D01*
X217535047Y-95702380D02*
X217535047Y-94702380D01*
X217916000Y-94702380D01*
X218011238Y-94750000D01*
X218058857Y-94797619D01*
X218106476Y-94892857D01*
X218106476Y-95035714D01*
X218058857Y-95130952D01*
X218011238Y-95178571D01*
X217916000Y-95226190D01*
X217535047Y-95226190D01*
X216344571Y-93162380D02*
X216011238Y-92686190D01*
X215773142Y-93162380D02*
X215773142Y-92162380D01*
X216154095Y-92162380D01*
X216249333Y-92210000D01*
X216296952Y-92257619D01*
X216344571Y-92352857D01*
X216344571Y-92495714D01*
X216296952Y-92590952D01*
X216249333Y-92638571D01*
X216154095Y-92686190D01*
X215773142Y-92686190D01*
X216677904Y-92162380D02*
X217344571Y-93162380D01*
X217344571Y-92162380D02*
X216677904Y-93162380D01*
X215630286Y-89622380D02*
X216201714Y-89622380D01*
X215916000Y-90622380D02*
X215916000Y-89622380D01*
X216439810Y-89622380D02*
X217106476Y-90622380D01*
X217106476Y-89622380D02*
X216439810Y-90622380D01*
X216296952Y-87130000D02*
X216201714Y-87082380D01*
X216058857Y-87082380D01*
X215915999Y-87130000D01*
X215820761Y-87225238D01*
X215773142Y-87320476D01*
X215725523Y-87510952D01*
X215725523Y-87653809D01*
X215773142Y-87844285D01*
X215820761Y-87939523D01*
X215915999Y-88034761D01*
X216058857Y-88082380D01*
X216154095Y-88082380D01*
X216296952Y-88034761D01*
X216344571Y-87987142D01*
X216344571Y-87653809D01*
X216154095Y-87653809D01*
X216773142Y-88082380D02*
X216773142Y-87082380D01*
X217344571Y-88082380D01*
X217344571Y-87082380D01*
X217820761Y-88082380D02*
X217820761Y-87082380D01*
X218058857Y-87082380D01*
X218201714Y-87130000D01*
X218296952Y-87225238D01*
X218344571Y-87320476D01*
X218392190Y-87510952D01*
X218392190Y-87653809D01*
X218344571Y-87844285D01*
X218296952Y-87939523D01*
X218201714Y-88034761D01*
X218058857Y-88082380D01*
X217820761Y-88082380D01*
D11*
X183642000Y-121920000D02*
X183642000Y-91440000D01*
X182880000Y-121920000D02*
X183642000Y-121920000D01*
X254254000Y-130048000D02*
X172720000Y-130048000D01*
X172466000Y-91440000D02*
X172466000Y-83312000D01*
X182880000Y-91440000D02*
X172466000Y-91440000D01*
X172720000Y-121920000D02*
X182880000Y-121920000D01*
X172720000Y-130048000D02*
X172720000Y-121920000D01*
D13*
G36*
X205483246Y-86404802D02*
G01*
X205513484Y-86418081D01*
X205567338Y-86459757D01*
X205599133Y-86516242D01*
X205608770Y-86579783D01*
X205596153Y-86642623D01*
X205561187Y-86697009D01*
X205517356Y-86729069D01*
X205509896Y-86732203D01*
X205499640Y-86735093D01*
X205485333Y-86737749D01*
X205465722Y-86740179D01*
X205439551Y-86742395D01*
X205405567Y-86744407D01*
X205362516Y-86746223D01*
X205309143Y-86747853D01*
X205244194Y-86749309D01*
X205166414Y-86750599D01*
X205074551Y-86751734D01*
X204967348Y-86752723D01*
X204843553Y-86753576D01*
X204701911Y-86754303D01*
X204541168Y-86754914D01*
X204360069Y-86755419D01*
X204157360Y-86755828D01*
X203931787Y-86756151D01*
X203682097Y-86756397D01*
X203407033Y-86756576D01*
X203105344Y-86756699D01*
X202775773Y-86756775D01*
X202417067Y-86756813D01*
X202027972Y-86756825D01*
X201993500Y-86756825D01*
X201601767Y-86756815D01*
X201240530Y-86756779D01*
X200908534Y-86756707D01*
X200604526Y-86756589D01*
X200327251Y-86756415D01*
X200075455Y-86756175D01*
X199847884Y-86755859D01*
X199643282Y-86755458D01*
X199460398Y-86754961D01*
X199297975Y-86754359D01*
X199154760Y-86753642D01*
X199029498Y-86752800D01*
X198920936Y-86751823D01*
X198827819Y-86750701D01*
X198748893Y-86749425D01*
X198682903Y-86747984D01*
X198628596Y-86746368D01*
X198584717Y-86744568D01*
X198550012Y-86742574D01*
X198523227Y-86740376D01*
X198503107Y-86737964D01*
X198488399Y-86735328D01*
X198477848Y-86732458D01*
X198470199Y-86729344D01*
X198469643Y-86729069D01*
X198417742Y-86687942D01*
X198388902Y-86633601D01*
X198382946Y-86573769D01*
X198399696Y-86516172D01*
X198438976Y-86468536D01*
X198476106Y-86446741D01*
X198485582Y-86444065D01*
X198501504Y-86441598D01*
X198525092Y-86439332D01*
X198557566Y-86437258D01*
X198600147Y-86435368D01*
X198654056Y-86433654D01*
X198720512Y-86432108D01*
X198800737Y-86430722D01*
X198895951Y-86429488D01*
X199007374Y-86428396D01*
X199136227Y-86427440D01*
X199283729Y-86426611D01*
X199451103Y-86425900D01*
X199639568Y-86425300D01*
X199850344Y-86424803D01*
X200084653Y-86424400D01*
X200343714Y-86424083D01*
X200628748Y-86423843D01*
X200940975Y-86423674D01*
X201281617Y-86423565D01*
X201651893Y-86423511D01*
X201942996Y-86423499D01*
X202370843Y-86423443D01*
X202767560Y-86423271D01*
X203133766Y-86422981D01*
X203470080Y-86422570D01*
X203777123Y-86422034D01*
X204055513Y-86421371D01*
X204305870Y-86420577D01*
X204528813Y-86419649D01*
X204724962Y-86418584D01*
X204894937Y-86417380D01*
X205039356Y-86416032D01*
X205158839Y-86414538D01*
X205254006Y-86412895D01*
X205325476Y-86411100D01*
X205373869Y-86409149D01*
X205399804Y-86407039D01*
X205403958Y-86406175D01*
X205444327Y-86397401D01*
X205483246Y-86404802D01*
X205483246Y-86404802D01*
G37*
X205483246Y-86404802D02*
X205513484Y-86418081D01*
X205567338Y-86459757D01*
X205599133Y-86516242D01*
X205608770Y-86579783D01*
X205596153Y-86642623D01*
X205561187Y-86697009D01*
X205517356Y-86729069D01*
X205509896Y-86732203D01*
X205499640Y-86735093D01*
X205485333Y-86737749D01*
X205465722Y-86740179D01*
X205439551Y-86742395D01*
X205405567Y-86744407D01*
X205362516Y-86746223D01*
X205309143Y-86747853D01*
X205244194Y-86749309D01*
X205166414Y-86750599D01*
X205074551Y-86751734D01*
X204967348Y-86752723D01*
X204843553Y-86753576D01*
X204701911Y-86754303D01*
X204541168Y-86754914D01*
X204360069Y-86755419D01*
X204157360Y-86755828D01*
X203931787Y-86756151D01*
X203682097Y-86756397D01*
X203407033Y-86756576D01*
X203105344Y-86756699D01*
X202775773Y-86756775D01*
X202417067Y-86756813D01*
X202027972Y-86756825D01*
X201993500Y-86756825D01*
X201601767Y-86756815D01*
X201240530Y-86756779D01*
X200908534Y-86756707D01*
X200604526Y-86756589D01*
X200327251Y-86756415D01*
X200075455Y-86756175D01*
X199847884Y-86755859D01*
X199643282Y-86755458D01*
X199460398Y-86754961D01*
X199297975Y-86754359D01*
X199154760Y-86753642D01*
X199029498Y-86752800D01*
X198920936Y-86751823D01*
X198827819Y-86750701D01*
X198748893Y-86749425D01*
X198682903Y-86747984D01*
X198628596Y-86746368D01*
X198584717Y-86744568D01*
X198550012Y-86742574D01*
X198523227Y-86740376D01*
X198503107Y-86737964D01*
X198488399Y-86735328D01*
X198477848Y-86732458D01*
X198470199Y-86729344D01*
X198469643Y-86729069D01*
X198417742Y-86687942D01*
X198388902Y-86633601D01*
X198382946Y-86573769D01*
X198399696Y-86516172D01*
X198438976Y-86468536D01*
X198476106Y-86446741D01*
X198485582Y-86444065D01*
X198501504Y-86441598D01*
X198525092Y-86439332D01*
X198557566Y-86437258D01*
X198600147Y-86435368D01*
X198654056Y-86433654D01*
X198720512Y-86432108D01*
X198800737Y-86430722D01*
X198895951Y-86429488D01*
X199007374Y-86428396D01*
X199136227Y-86427440D01*
X199283729Y-86426611D01*
X199451103Y-86425900D01*
X199639568Y-86425300D01*
X199850344Y-86424803D01*
X200084653Y-86424400D01*
X200343714Y-86424083D01*
X200628748Y-86423843D01*
X200940975Y-86423674D01*
X201281617Y-86423565D01*
X201651893Y-86423511D01*
X201942996Y-86423499D01*
X202370843Y-86423443D01*
X202767560Y-86423271D01*
X203133766Y-86422981D01*
X203470080Y-86422570D01*
X203777123Y-86422034D01*
X204055513Y-86421371D01*
X204305870Y-86420577D01*
X204528813Y-86419649D01*
X204724962Y-86418584D01*
X204894937Y-86417380D01*
X205039356Y-86416032D01*
X205158839Y-86414538D01*
X205254006Y-86412895D01*
X205325476Y-86411100D01*
X205373869Y-86409149D01*
X205399804Y-86407039D01*
X205403958Y-86406175D01*
X205444327Y-86397401D01*
X205483246Y-86404802D01*
G36*
X203215875Y-87099319D02*
G01*
X203084906Y-87098800D01*
X203013120Y-87101110D01*
X202944277Y-87107687D01*
X202891811Y-87117183D01*
X202886468Y-87118690D01*
X202819000Y-87139098D01*
X202819000Y-87931625D01*
X202453875Y-87931625D01*
X202453875Y-86804500D01*
X202819000Y-86804500D01*
X202819000Y-86875937D01*
X202822206Y-86925111D01*
X202833178Y-86944688D01*
X202853942Y-86936298D01*
X202871944Y-86918517D01*
X202919218Y-86881380D01*
X202986376Y-86847133D01*
X203061626Y-86820806D01*
X203132281Y-86807500D01*
X203215875Y-86800568D01*
X203215875Y-87099319D01*
X203215875Y-87099319D01*
G37*
X203215875Y-87099319D02*
X203084906Y-87098800D01*
X203013120Y-87101110D01*
X202944277Y-87107687D01*
X202891811Y-87117183D01*
X202886468Y-87118690D01*
X202819000Y-87139098D01*
X202819000Y-87931625D01*
X202453875Y-87931625D01*
X202453875Y-86804500D01*
X202819000Y-86804500D01*
X202819000Y-86875937D01*
X202822206Y-86925111D01*
X202833178Y-86944688D01*
X202853942Y-86936298D01*
X202871944Y-86918517D01*
X202919218Y-86881380D01*
X202986376Y-86847133D01*
X203061626Y-86820806D01*
X203132281Y-86807500D01*
X203215875Y-86800568D01*
X203215875Y-87099319D01*
G36*
X197393459Y-86800416D02*
G01*
X197397687Y-87224958D01*
X197556437Y-87014775D01*
X197715187Y-86804591D01*
X197917593Y-86804545D01*
X197993570Y-86805201D01*
X198056539Y-86807025D01*
X198100550Y-86809749D01*
X198119651Y-86813108D01*
X198120000Y-86813646D01*
X198110434Y-86828304D01*
X198083889Y-86863336D01*
X198043592Y-86914628D01*
X197992772Y-86978063D01*
X197942562Y-87039864D01*
X197884135Y-87111425D01*
X197832227Y-87175156D01*
X197790380Y-87226699D01*
X197762133Y-87261692D01*
X197751514Y-87275099D01*
X197755535Y-87294698D01*
X197777609Y-87338706D01*
X197817026Y-87405916D01*
X197873081Y-87495122D01*
X197944826Y-87604759D01*
X198003120Y-87692825D01*
X198055057Y-87771888D01*
X198098202Y-87838188D01*
X198130118Y-87887967D01*
X198148367Y-87917465D01*
X198151750Y-87923941D01*
X198136861Y-87926809D01*
X198096141Y-87929191D01*
X198035506Y-87930864D01*
X197960873Y-87931607D01*
X197946947Y-87931625D01*
X197742145Y-87931625D01*
X197601666Y-87706684D01*
X197554093Y-87630646D01*
X197511911Y-87563483D01*
X197478195Y-87510073D01*
X197456019Y-87475288D01*
X197448979Y-87464590D01*
X197431477Y-87460630D01*
X197413260Y-87478252D01*
X197402970Y-87499813D01*
X197395970Y-87536055D01*
X197391787Y-87591877D01*
X197389943Y-87672179D01*
X197389750Y-87720346D01*
X197389750Y-87931625D01*
X197024625Y-87931625D01*
X197024625Y-86375875D01*
X197389231Y-86375875D01*
X197393459Y-86800416D01*
X197393459Y-86800416D01*
G37*
X197393459Y-86800416D02*
X197397687Y-87224958D01*
X197556437Y-87014775D01*
X197715187Y-86804591D01*
X197917593Y-86804545D01*
X197993570Y-86805201D01*
X198056539Y-86807025D01*
X198100550Y-86809749D01*
X198119651Y-86813108D01*
X198120000Y-86813646D01*
X198110434Y-86828304D01*
X198083889Y-86863336D01*
X198043592Y-86914628D01*
X197992772Y-86978063D01*
X197942562Y-87039864D01*
X197884135Y-87111425D01*
X197832227Y-87175156D01*
X197790380Y-87226699D01*
X197762133Y-87261692D01*
X197751514Y-87275099D01*
X197755535Y-87294698D01*
X197777609Y-87338706D01*
X197817026Y-87405916D01*
X197873081Y-87495122D01*
X197944826Y-87604759D01*
X198003120Y-87692825D01*
X198055057Y-87771888D01*
X198098202Y-87838188D01*
X198130118Y-87887967D01*
X198148367Y-87917465D01*
X198151750Y-87923941D01*
X198136861Y-87926809D01*
X198096141Y-87929191D01*
X198035506Y-87930864D01*
X197960873Y-87931607D01*
X197946947Y-87931625D01*
X197742145Y-87931625D01*
X197601666Y-87706684D01*
X197554093Y-87630646D01*
X197511911Y-87563483D01*
X197478195Y-87510073D01*
X197456019Y-87475288D01*
X197448979Y-87464590D01*
X197431477Y-87460630D01*
X197413260Y-87478252D01*
X197402970Y-87499813D01*
X197395970Y-87536055D01*
X197391787Y-87591877D01*
X197389943Y-87672179D01*
X197389750Y-87720346D01*
X197389750Y-87931625D01*
X197024625Y-87931625D01*
X197024625Y-86375875D01*
X197389231Y-86375875D01*
X197393459Y-86800416D01*
G36*
X196818250Y-87099319D02*
G01*
X196687281Y-87098800D01*
X196615495Y-87101110D01*
X196546652Y-87107687D01*
X196494186Y-87117183D01*
X196488843Y-87118690D01*
X196421375Y-87139098D01*
X196421375Y-87931625D01*
X196056250Y-87931625D01*
X196056250Y-86804500D01*
X196421375Y-86804500D01*
X196421375Y-86875937D01*
X196424581Y-86925111D01*
X196435553Y-86944688D01*
X196456317Y-86936298D01*
X196474319Y-86918517D01*
X196521593Y-86881380D01*
X196588751Y-86847133D01*
X196664001Y-86820806D01*
X196734656Y-86807500D01*
X196818250Y-86800568D01*
X196818250Y-87099319D01*
X196818250Y-87099319D01*
G37*
X196818250Y-87099319D02*
X196687281Y-87098800D01*
X196615495Y-87101110D01*
X196546652Y-87107687D01*
X196494186Y-87117183D01*
X196488843Y-87118690D01*
X196421375Y-87139098D01*
X196421375Y-87931625D01*
X196056250Y-87931625D01*
X196056250Y-86804500D01*
X196421375Y-86804500D01*
X196421375Y-86875937D01*
X196424581Y-86925111D01*
X196435553Y-86944688D01*
X196456317Y-86936298D01*
X196474319Y-86918517D01*
X196521593Y-86881380D01*
X196588751Y-86847133D01*
X196664001Y-86820806D01*
X196734656Y-86807500D01*
X196818250Y-86800568D01*
X196818250Y-87099319D01*
G36*
X194038437Y-86785636D02*
G01*
X194121928Y-86823909D01*
X194193121Y-86889395D01*
X194235289Y-86953340D01*
X194245490Y-86973777D01*
X194253558Y-86995208D01*
X194259794Y-87021569D01*
X194264501Y-87056798D01*
X194267981Y-87104833D01*
X194270537Y-87169612D01*
X194272472Y-87255071D01*
X194274087Y-87365148D01*
X194275371Y-87475218D01*
X194280429Y-87931625D01*
X193929000Y-87931625D01*
X193928911Y-87578406D01*
X193928199Y-87442820D01*
X193925785Y-87335291D01*
X193921132Y-87252145D01*
X193913708Y-87189711D01*
X193902978Y-87144317D01*
X193888409Y-87112290D01*
X193869465Y-87089959D01*
X193856439Y-87080117D01*
X193806162Y-87063363D01*
X193742952Y-87064254D01*
X193679540Y-87081738D01*
X193650582Y-87097123D01*
X193611500Y-87122731D01*
X193611500Y-87931625D01*
X193262250Y-87931625D01*
X193261434Y-87633968D01*
X193260298Y-87487802D01*
X193257522Y-87370086D01*
X193252725Y-87277545D01*
X193245527Y-87206903D01*
X193235548Y-87154885D01*
X193222408Y-87118217D01*
X193205726Y-87093623D01*
X193197879Y-87086352D01*
X193149829Y-87065475D01*
X193087772Y-87062599D01*
X193023455Y-87077161D01*
X192984666Y-87096577D01*
X192944750Y-87122731D01*
X192944750Y-87931625D01*
X192579625Y-87931625D01*
X192579625Y-86804500D01*
X192944750Y-86804500D01*
X192944750Y-86917240D01*
X192996795Y-86877543D01*
X193093809Y-86818289D01*
X193193228Y-86784229D01*
X193290527Y-86775134D01*
X193381178Y-86790777D01*
X193460656Y-86830928D01*
X193524434Y-86895358D01*
X193530703Y-86904534D01*
X193568968Y-86962900D01*
X193635149Y-86908670D01*
X193741004Y-86836094D01*
X193845292Y-86791529D01*
X193945331Y-86774776D01*
X194038437Y-86785636D01*
X194038437Y-86785636D01*
G37*
X194038437Y-86785636D02*
X194121928Y-86823909D01*
X194193121Y-86889395D01*
X194235289Y-86953340D01*
X194245490Y-86973777D01*
X194253558Y-86995208D01*
X194259794Y-87021569D01*
X194264501Y-87056798D01*
X194267981Y-87104833D01*
X194270537Y-87169612D01*
X194272472Y-87255071D01*
X194274087Y-87365148D01*
X194275371Y-87475218D01*
X194280429Y-87931625D01*
X193929000Y-87931625D01*
X193928911Y-87578406D01*
X193928199Y-87442820D01*
X193925785Y-87335291D01*
X193921132Y-87252145D01*
X193913708Y-87189711D01*
X193902978Y-87144317D01*
X193888409Y-87112290D01*
X193869465Y-87089959D01*
X193856439Y-87080117D01*
X193806162Y-87063363D01*
X193742952Y-87064254D01*
X193679540Y-87081738D01*
X193650582Y-87097123D01*
X193611500Y-87122731D01*
X193611500Y-87931625D01*
X193262250Y-87931625D01*
X193261434Y-87633968D01*
X193260298Y-87487802D01*
X193257522Y-87370086D01*
X193252725Y-87277545D01*
X193245527Y-87206903D01*
X193235548Y-87154885D01*
X193222408Y-87118217D01*
X193205726Y-87093623D01*
X193197879Y-87086352D01*
X193149829Y-87065475D01*
X193087772Y-87062599D01*
X193023455Y-87077161D01*
X192984666Y-87096577D01*
X192944750Y-87122731D01*
X192944750Y-87931625D01*
X192579625Y-87931625D01*
X192579625Y-86804500D01*
X192944750Y-86804500D01*
X192944750Y-86917240D01*
X192996795Y-86877543D01*
X193093809Y-86818289D01*
X193193228Y-86784229D01*
X193290527Y-86775134D01*
X193381178Y-86790777D01*
X193460656Y-86830928D01*
X193524434Y-86895358D01*
X193530703Y-86904534D01*
X193568968Y-86962900D01*
X193635149Y-86908670D01*
X193741004Y-86836094D01*
X193845292Y-86791529D01*
X193945331Y-86774776D01*
X194038437Y-86785636D01*
G36*
X205379673Y-86777246D02*
G01*
X205503495Y-86796555D01*
X205603883Y-86834601D01*
X205684591Y-86893719D01*
X205749369Y-86976243D01*
X205775159Y-87023331D01*
X205800155Y-87077848D01*
X205816140Y-87125648D01*
X205825585Y-87177918D01*
X205830964Y-87245840D01*
X205832675Y-87283466D01*
X205838942Y-87439500D01*
X205069095Y-87439500D01*
X205078695Y-87498658D01*
X205106043Y-87576614D01*
X205159371Y-87637096D01*
X205237695Y-87679393D01*
X205340032Y-87702794D01*
X205364734Y-87705262D01*
X205485040Y-87700769D01*
X205608020Y-87670660D01*
X205717380Y-87620523D01*
X205763068Y-87595051D01*
X205792687Y-87585209D01*
X205809445Y-87594536D01*
X205816552Y-87626566D01*
X205817216Y-87684836D01*
X205816001Y-87729218D01*
X205811437Y-87876062D01*
X205700312Y-87913634D01*
X205618562Y-87934130D01*
X205517167Y-87949026D01*
X205407273Y-87957625D01*
X205300029Y-87959226D01*
X205206583Y-87953131D01*
X205168500Y-87946976D01*
X205080481Y-87920083D01*
X204990463Y-87878345D01*
X204909316Y-87827707D01*
X204847909Y-87774109D01*
X204843855Y-87769499D01*
X204777960Y-87669157D01*
X204735114Y-87553157D01*
X204715159Y-87427507D01*
X204717935Y-87298215D01*
X204730934Y-87233125D01*
X205073250Y-87233125D01*
X205486000Y-87233125D01*
X205486000Y-87191867D01*
X205474543Y-87131287D01*
X205444954Y-87072261D01*
X205404400Y-87027682D01*
X205389397Y-87018113D01*
X205319487Y-86997214D01*
X205247605Y-87001109D01*
X205180400Y-87026191D01*
X205124520Y-87068857D01*
X205086615Y-87125503D01*
X205073309Y-87189468D01*
X205073250Y-87233125D01*
X204730934Y-87233125D01*
X204743284Y-87171287D01*
X204791045Y-87052733D01*
X204861060Y-86948560D01*
X204865752Y-86943141D01*
X204945852Y-86874505D01*
X205048418Y-86822367D01*
X205167751Y-86788567D01*
X205298154Y-86774944D01*
X205379673Y-86777246D01*
X205379673Y-86777246D01*
G37*
X205379673Y-86777246D02*
X205503495Y-86796555D01*
X205603883Y-86834601D01*
X205684591Y-86893719D01*
X205749369Y-86976243D01*
X205775159Y-87023331D01*
X205800155Y-87077848D01*
X205816140Y-87125648D01*
X205825585Y-87177918D01*
X205830964Y-87245840D01*
X205832675Y-87283466D01*
X205838942Y-87439500D01*
X205069095Y-87439500D01*
X205078695Y-87498658D01*
X205106043Y-87576614D01*
X205159371Y-87637096D01*
X205237695Y-87679393D01*
X205340032Y-87702794D01*
X205364734Y-87705262D01*
X205485040Y-87700769D01*
X205608020Y-87670660D01*
X205717380Y-87620523D01*
X205763068Y-87595051D01*
X205792687Y-87585209D01*
X205809445Y-87594536D01*
X205816552Y-87626566D01*
X205817216Y-87684836D01*
X205816001Y-87729218D01*
X205811437Y-87876062D01*
X205700312Y-87913634D01*
X205618562Y-87934130D01*
X205517167Y-87949026D01*
X205407273Y-87957625D01*
X205300029Y-87959226D01*
X205206583Y-87953131D01*
X205168500Y-87946976D01*
X205080481Y-87920083D01*
X204990463Y-87878345D01*
X204909316Y-87827707D01*
X204847909Y-87774109D01*
X204843855Y-87769499D01*
X204777960Y-87669157D01*
X204735114Y-87553157D01*
X204715159Y-87427507D01*
X204717935Y-87298215D01*
X204730934Y-87233125D01*
X205073250Y-87233125D01*
X205486000Y-87233125D01*
X205486000Y-87191867D01*
X205474543Y-87131287D01*
X205444954Y-87072261D01*
X205404400Y-87027682D01*
X205389397Y-87018113D01*
X205319487Y-86997214D01*
X205247605Y-87001109D01*
X205180400Y-87026191D01*
X205124520Y-87068857D01*
X205086615Y-87125503D01*
X205073309Y-87189468D01*
X205073250Y-87233125D01*
X204730934Y-87233125D01*
X204743284Y-87171287D01*
X204791045Y-87052733D01*
X204861060Y-86948560D01*
X204865752Y-86943141D01*
X204945852Y-86874505D01*
X205048418Y-86822367D01*
X205167751Y-86788567D01*
X205298154Y-86774944D01*
X205379673Y-86777246D01*
G36*
X201695004Y-86781406D02*
G01*
X201754415Y-86784448D01*
X201799373Y-86791137D01*
X201838517Y-86802797D01*
X201880489Y-86820754D01*
X201883747Y-86822277D01*
X201992432Y-86889319D01*
X202077843Y-86977717D01*
X202140169Y-87087742D01*
X202179598Y-87219665D01*
X202186143Y-87257723D01*
X202194894Y-87403095D01*
X202177662Y-87538327D01*
X202135879Y-87660308D01*
X202070977Y-87765927D01*
X201984390Y-87852072D01*
X201884660Y-87912441D01*
X201831558Y-87933557D01*
X201777310Y-87946815D01*
X201710864Y-87954291D01*
X201645162Y-87957388D01*
X201571107Y-87957920D01*
X201502052Y-87955294D01*
X201448965Y-87950045D01*
X201433659Y-87947085D01*
X201317094Y-87902361D01*
X201217923Y-87833091D01*
X201137885Y-87742349D01*
X201078717Y-87633209D01*
X201042157Y-87508746D01*
X201029943Y-87372035D01*
X201033524Y-87327488D01*
X201392451Y-87327488D01*
X201393144Y-87428070D01*
X201408646Y-87524246D01*
X201418726Y-87558195D01*
X201458082Y-87632639D01*
X201515179Y-87683443D01*
X201586282Y-87707695D01*
X201612500Y-87709375D01*
X201673893Y-87698031D01*
X201725246Y-87673288D01*
X201771267Y-87624966D01*
X201805104Y-87554339D01*
X201826396Y-87468567D01*
X201834781Y-87374814D01*
X201829895Y-87280240D01*
X201811377Y-87192008D01*
X201778865Y-87117279D01*
X201755016Y-87084673D01*
X201727047Y-87056677D01*
X201699578Y-87041671D01*
X201661264Y-87035673D01*
X201612500Y-87034687D01*
X201556345Y-87036197D01*
X201520550Y-87043379D01*
X201493768Y-87060213D01*
X201469983Y-87084673D01*
X201431794Y-87147252D01*
X201405642Y-87231036D01*
X201392451Y-87327488D01*
X201033524Y-87327488D01*
X201039741Y-87250156D01*
X201074255Y-87113912D01*
X201132152Y-86999043D01*
X201213342Y-86905679D01*
X201317732Y-86833951D01*
X201341252Y-86822277D01*
X201383744Y-86803831D01*
X201422805Y-86791774D01*
X201467076Y-86784781D01*
X201525197Y-86781528D01*
X201605809Y-86780690D01*
X201612500Y-86780687D01*
X201695004Y-86781406D01*
X201695004Y-86781406D01*
G37*
X201695004Y-86781406D02*
X201754415Y-86784448D01*
X201799373Y-86791137D01*
X201838517Y-86802797D01*
X201880489Y-86820754D01*
X201883747Y-86822277D01*
X201992432Y-86889319D01*
X202077843Y-86977717D01*
X202140169Y-87087742D01*
X202179598Y-87219665D01*
X202186143Y-87257723D01*
X202194894Y-87403095D01*
X202177662Y-87538327D01*
X202135879Y-87660308D01*
X202070977Y-87765927D01*
X201984390Y-87852072D01*
X201884660Y-87912441D01*
X201831558Y-87933557D01*
X201777310Y-87946815D01*
X201710864Y-87954291D01*
X201645162Y-87957388D01*
X201571107Y-87957920D01*
X201502052Y-87955294D01*
X201448965Y-87950045D01*
X201433659Y-87947085D01*
X201317094Y-87902361D01*
X201217923Y-87833091D01*
X201137885Y-87742349D01*
X201078717Y-87633209D01*
X201042157Y-87508746D01*
X201029943Y-87372035D01*
X201033524Y-87327488D01*
X201392451Y-87327488D01*
X201393144Y-87428070D01*
X201408646Y-87524246D01*
X201418726Y-87558195D01*
X201458082Y-87632639D01*
X201515179Y-87683443D01*
X201586282Y-87707695D01*
X201612500Y-87709375D01*
X201673893Y-87698031D01*
X201725246Y-87673288D01*
X201771267Y-87624966D01*
X201805104Y-87554339D01*
X201826396Y-87468567D01*
X201834781Y-87374814D01*
X201829895Y-87280240D01*
X201811377Y-87192008D01*
X201778865Y-87117279D01*
X201755016Y-87084673D01*
X201727047Y-87056677D01*
X201699578Y-87041671D01*
X201661264Y-87035673D01*
X201612500Y-87034687D01*
X201556345Y-87036197D01*
X201520550Y-87043379D01*
X201493768Y-87060213D01*
X201469983Y-87084673D01*
X201431794Y-87147252D01*
X201405642Y-87231036D01*
X201392451Y-87327488D01*
X201033524Y-87327488D01*
X201039741Y-87250156D01*
X201074255Y-87113912D01*
X201132152Y-86999043D01*
X201213342Y-86905679D01*
X201317732Y-86833951D01*
X201341252Y-86822277D01*
X201383744Y-86803831D01*
X201422805Y-86791774D01*
X201467076Y-86784781D01*
X201525197Y-86781528D01*
X201605809Y-86780690D01*
X201612500Y-86780687D01*
X201695004Y-86781406D01*
G36*
X200331423Y-86777246D02*
G01*
X200455245Y-86796555D01*
X200555633Y-86834601D01*
X200636341Y-86893719D01*
X200701119Y-86976243D01*
X200726909Y-87023331D01*
X200751905Y-87077848D01*
X200767890Y-87125648D01*
X200777335Y-87177918D01*
X200782714Y-87245840D01*
X200784425Y-87283466D01*
X200790692Y-87439500D01*
X200020845Y-87439500D01*
X200030445Y-87498658D01*
X200057793Y-87576614D01*
X200111121Y-87637096D01*
X200189445Y-87679393D01*
X200291782Y-87702794D01*
X200316484Y-87705262D01*
X200436790Y-87700769D01*
X200559770Y-87670660D01*
X200669130Y-87620523D01*
X200714818Y-87595051D01*
X200744437Y-87585209D01*
X200761195Y-87594536D01*
X200768302Y-87626566D01*
X200768966Y-87684836D01*
X200767751Y-87729218D01*
X200763187Y-87876062D01*
X200652062Y-87913634D01*
X200570312Y-87934130D01*
X200468917Y-87949026D01*
X200359023Y-87957625D01*
X200251779Y-87959226D01*
X200158333Y-87953131D01*
X200120250Y-87946976D01*
X200032231Y-87920083D01*
X199942213Y-87878345D01*
X199861066Y-87827707D01*
X199799659Y-87774109D01*
X199795605Y-87769499D01*
X199729710Y-87669157D01*
X199686864Y-87553157D01*
X199666909Y-87427507D01*
X199669685Y-87298215D01*
X199682684Y-87233125D01*
X200025000Y-87233125D01*
X200437750Y-87233125D01*
X200437750Y-87191867D01*
X200426293Y-87131287D01*
X200396704Y-87072261D01*
X200356150Y-87027682D01*
X200341147Y-87018113D01*
X200271237Y-86997214D01*
X200199355Y-87001109D01*
X200132150Y-87026191D01*
X200076270Y-87068857D01*
X200038365Y-87125503D01*
X200025059Y-87189468D01*
X200025000Y-87233125D01*
X199682684Y-87233125D01*
X199695034Y-87171287D01*
X199742795Y-87052733D01*
X199812810Y-86948560D01*
X199817502Y-86943141D01*
X199897602Y-86874505D01*
X200000168Y-86822367D01*
X200119501Y-86788567D01*
X200249904Y-86774944D01*
X200331423Y-86777246D01*
X200331423Y-86777246D01*
G37*
X200331423Y-86777246D02*
X200455245Y-86796555D01*
X200555633Y-86834601D01*
X200636341Y-86893719D01*
X200701119Y-86976243D01*
X200726909Y-87023331D01*
X200751905Y-87077848D01*
X200767890Y-87125648D01*
X200777335Y-87177918D01*
X200782714Y-87245840D01*
X200784425Y-87283466D01*
X200790692Y-87439500D01*
X200020845Y-87439500D01*
X200030445Y-87498658D01*
X200057793Y-87576614D01*
X200111121Y-87637096D01*
X200189445Y-87679393D01*
X200291782Y-87702794D01*
X200316484Y-87705262D01*
X200436790Y-87700769D01*
X200559770Y-87670660D01*
X200669130Y-87620523D01*
X200714818Y-87595051D01*
X200744437Y-87585209D01*
X200761195Y-87594536D01*
X200768302Y-87626566D01*
X200768966Y-87684836D01*
X200767751Y-87729218D01*
X200763187Y-87876062D01*
X200652062Y-87913634D01*
X200570312Y-87934130D01*
X200468917Y-87949026D01*
X200359023Y-87957625D01*
X200251779Y-87959226D01*
X200158333Y-87953131D01*
X200120250Y-87946976D01*
X200032231Y-87920083D01*
X199942213Y-87878345D01*
X199861066Y-87827707D01*
X199799659Y-87774109D01*
X199795605Y-87769499D01*
X199729710Y-87669157D01*
X199686864Y-87553157D01*
X199666909Y-87427507D01*
X199669685Y-87298215D01*
X199682684Y-87233125D01*
X200025000Y-87233125D01*
X200437750Y-87233125D01*
X200437750Y-87191867D01*
X200426293Y-87131287D01*
X200396704Y-87072261D01*
X200356150Y-87027682D01*
X200341147Y-87018113D01*
X200271237Y-86997214D01*
X200199355Y-87001109D01*
X200132150Y-87026191D01*
X200076270Y-87068857D01*
X200038365Y-87125503D01*
X200025059Y-87189468D01*
X200025000Y-87233125D01*
X199682684Y-87233125D01*
X199695034Y-87171287D01*
X199742795Y-87052733D01*
X199812810Y-86948560D01*
X199817502Y-86943141D01*
X199897602Y-86874505D01*
X200000168Y-86822367D01*
X200119501Y-86788567D01*
X200249904Y-86774944D01*
X200331423Y-86777246D01*
G36*
X195284368Y-86784219D02*
G01*
X195407004Y-86809913D01*
X195508958Y-86851025D01*
X195587268Y-86907019D01*
X195623583Y-86950373D01*
X195667312Y-87016410D01*
X195672175Y-87474017D01*
X195677038Y-87931625D01*
X195326000Y-87931625D01*
X195326000Y-87814965D01*
X195290281Y-87848432D01*
X195256017Y-87873656D01*
X195205515Y-87903254D01*
X195167250Y-87922481D01*
X195072819Y-87952920D01*
X194972405Y-87962528D01*
X194878508Y-87950437D01*
X194857687Y-87943983D01*
X194774692Y-87901310D01*
X194708690Y-87836034D01*
X194679154Y-87791681D01*
X194655473Y-87746514D01*
X194642316Y-87704306D01*
X194636923Y-87652583D01*
X194636323Y-87598250D01*
X194637988Y-87581325D01*
X194992625Y-87581325D01*
X195000646Y-87645450D01*
X195027443Y-87688316D01*
X195072000Y-87714825D01*
X195116896Y-87721516D01*
X195175762Y-87716503D01*
X195234101Y-87702141D01*
X195276219Y-87681689D01*
X195297076Y-87663581D01*
X195309990Y-87642027D01*
X195317270Y-87608965D01*
X195321223Y-87556332D01*
X195322703Y-87519301D01*
X195327345Y-87388089D01*
X195275078Y-87396870D01*
X195224167Y-87405190D01*
X195165503Y-87414469D01*
X195154792Y-87416127D01*
X195098981Y-87432598D01*
X195047854Y-87459919D01*
X195039699Y-87466212D01*
X195009677Y-87496794D01*
X194995915Y-87530526D01*
X194992625Y-87581325D01*
X194637988Y-87581325D01*
X194646836Y-87491422D01*
X194678517Y-87406143D01*
X194734238Y-87338012D01*
X194816870Y-87282630D01*
X194853860Y-87264920D01*
X194897471Y-87250614D01*
X194963690Y-87234685D01*
X195043538Y-87218733D01*
X195128037Y-87204356D01*
X195208208Y-87193151D01*
X195275073Y-87186719D01*
X195298218Y-87185809D01*
X195319820Y-87173409D01*
X195325879Y-87143645D01*
X195316666Y-87106682D01*
X195295280Y-87075405D01*
X195236141Y-87037297D01*
X195156416Y-87016904D01*
X195062101Y-87014576D01*
X194959193Y-87030667D01*
X194889437Y-87051562D01*
X194831132Y-87072380D01*
X194781931Y-87089768D01*
X194751818Y-87100200D01*
X194750531Y-87100629D01*
X194737338Y-87102114D01*
X194729115Y-87092245D01*
X194724713Y-87065491D01*
X194722984Y-87016319D01*
X194722750Y-86966797D01*
X194722750Y-86823767D01*
X194821968Y-86805015D01*
X194988890Y-86781233D01*
X195144010Y-86774480D01*
X195284368Y-86784219D01*
X195284368Y-86784219D01*
G37*
X195284368Y-86784219D02*
X195407004Y-86809913D01*
X195508958Y-86851025D01*
X195587268Y-86907019D01*
X195623583Y-86950373D01*
X195667312Y-87016410D01*
X195672175Y-87474017D01*
X195677038Y-87931625D01*
X195326000Y-87931625D01*
X195326000Y-87814965D01*
X195290281Y-87848432D01*
X195256017Y-87873656D01*
X195205515Y-87903254D01*
X195167250Y-87922481D01*
X195072819Y-87952920D01*
X194972405Y-87962528D01*
X194878508Y-87950437D01*
X194857687Y-87943983D01*
X194774692Y-87901310D01*
X194708690Y-87836034D01*
X194679154Y-87791681D01*
X194655473Y-87746514D01*
X194642316Y-87704306D01*
X194636923Y-87652583D01*
X194636323Y-87598250D01*
X194637988Y-87581325D01*
X194992625Y-87581325D01*
X195000646Y-87645450D01*
X195027443Y-87688316D01*
X195072000Y-87714825D01*
X195116896Y-87721516D01*
X195175762Y-87716503D01*
X195234101Y-87702141D01*
X195276219Y-87681689D01*
X195297076Y-87663581D01*
X195309990Y-87642027D01*
X195317270Y-87608965D01*
X195321223Y-87556332D01*
X195322703Y-87519301D01*
X195327345Y-87388089D01*
X195275078Y-87396870D01*
X195224167Y-87405190D01*
X195165503Y-87414469D01*
X195154792Y-87416127D01*
X195098981Y-87432598D01*
X195047854Y-87459919D01*
X195039699Y-87466212D01*
X195009677Y-87496794D01*
X194995915Y-87530526D01*
X194992625Y-87581325D01*
X194637988Y-87581325D01*
X194646836Y-87491422D01*
X194678517Y-87406143D01*
X194734238Y-87338012D01*
X194816870Y-87282630D01*
X194853860Y-87264920D01*
X194897471Y-87250614D01*
X194963690Y-87234685D01*
X195043538Y-87218733D01*
X195128037Y-87204356D01*
X195208208Y-87193151D01*
X195275073Y-87186719D01*
X195298218Y-87185809D01*
X195319820Y-87173409D01*
X195325879Y-87143645D01*
X195316666Y-87106682D01*
X195295280Y-87075405D01*
X195236141Y-87037297D01*
X195156416Y-87016904D01*
X195062101Y-87014576D01*
X194959193Y-87030667D01*
X194889437Y-87051562D01*
X194831132Y-87072380D01*
X194781931Y-87089768D01*
X194751818Y-87100200D01*
X194750531Y-87100629D01*
X194737338Y-87102114D01*
X194729115Y-87092245D01*
X194724713Y-87065491D01*
X194722984Y-87016319D01*
X194722750Y-86966797D01*
X194722750Y-86823767D01*
X194821968Y-86805015D01*
X194988890Y-86781233D01*
X195144010Y-86774480D01*
X195284368Y-86784219D01*
G36*
X203898376Y-86782248D02*
G01*
X204023982Y-86817353D01*
X204092968Y-86848642D01*
X204103223Y-86841517D01*
X204104875Y-86829635D01*
X204109071Y-86818500D01*
X204125115Y-86811160D01*
X204158189Y-86806876D01*
X204213473Y-86804907D01*
X204280703Y-86804500D01*
X204456531Y-86804500D01*
X204450390Y-87387906D01*
X204448634Y-87542072D01*
X204446810Y-87667929D01*
X204444731Y-87768920D01*
X204442212Y-87848487D01*
X204439068Y-87910070D01*
X204435112Y-87957111D01*
X204430160Y-87993052D01*
X204424025Y-88021335D01*
X204416521Y-88045401D01*
X204414638Y-88050552D01*
X204372364Y-88129250D01*
X204309054Y-88205572D01*
X204233798Y-88270480D01*
X204155688Y-88314934D01*
X204144427Y-88319230D01*
X204086787Y-88333194D01*
X204006685Y-88344073D01*
X203913299Y-88351425D01*
X203815807Y-88354813D01*
X203723386Y-88353797D01*
X203645214Y-88347936D01*
X203620904Y-88344302D01*
X203551580Y-88332008D01*
X203507421Y-88320934D01*
X203482798Y-88304562D01*
X203472081Y-88276376D01*
X203469643Y-88229860D01*
X203469875Y-88169447D01*
X203471101Y-88106631D01*
X203474386Y-88057989D01*
X203479137Y-88030598D01*
X203481781Y-88027077D01*
X203501439Y-88031751D01*
X203543404Y-88044022D01*
X203599822Y-88061563D01*
X203620687Y-88068244D01*
X203732828Y-88095300D01*
X203836445Y-88102766D01*
X203927245Y-88091344D01*
X204000936Y-88061735D01*
X204053226Y-88014641D01*
X204064918Y-87995644D01*
X204076195Y-87962831D01*
X204084820Y-87918627D01*
X204089724Y-87873335D01*
X204089842Y-87837254D01*
X204084106Y-87820688D01*
X204083062Y-87820500D01*
X204067062Y-87827587D01*
X204032338Y-87845790D01*
X204003370Y-87861721D01*
X203904374Y-87900883D01*
X203799940Y-87914067D01*
X203695846Y-87903026D01*
X203597869Y-87869508D01*
X203511788Y-87815266D01*
X203443381Y-87742049D01*
X203409707Y-87681853D01*
X203373841Y-87571748D01*
X203351933Y-87447108D01*
X203346247Y-87322917D01*
X203347228Y-87306134D01*
X203709092Y-87306134D01*
X203709968Y-87402730D01*
X203726457Y-87491080D01*
X203743718Y-87535301D01*
X203790766Y-87600734D01*
X203851389Y-87637471D01*
X203925600Y-87645516D01*
X204013407Y-87624872D01*
X204025178Y-87620338D01*
X204089000Y-87594802D01*
X204089000Y-87044570D01*
X204015982Y-87033620D01*
X203922244Y-87033073D01*
X203841652Y-87059766D01*
X203777626Y-87111586D01*
X203733583Y-87186420D01*
X203724573Y-87213774D01*
X203709092Y-87306134D01*
X203347228Y-87306134D01*
X203348832Y-87278714D01*
X203374514Y-87138382D01*
X203421971Y-87018779D01*
X203488702Y-86921347D01*
X203572209Y-86847534D01*
X203669990Y-86798783D01*
X203779546Y-86776539D01*
X203898376Y-86782248D01*
X203898376Y-86782248D01*
G37*
X203898376Y-86782248D02*
X204023982Y-86817353D01*
X204092968Y-86848642D01*
X204103223Y-86841517D01*
X204104875Y-86829635D01*
X204109071Y-86818500D01*
X204125115Y-86811160D01*
X204158189Y-86806876D01*
X204213473Y-86804907D01*
X204280703Y-86804500D01*
X204456531Y-86804500D01*
X204450390Y-87387906D01*
X204448634Y-87542072D01*
X204446810Y-87667929D01*
X204444731Y-87768920D01*
X204442212Y-87848487D01*
X204439068Y-87910070D01*
X204435112Y-87957111D01*
X204430160Y-87993052D01*
X204424025Y-88021335D01*
X204416521Y-88045401D01*
X204414638Y-88050552D01*
X204372364Y-88129250D01*
X204309054Y-88205572D01*
X204233798Y-88270480D01*
X204155688Y-88314934D01*
X204144427Y-88319230D01*
X204086787Y-88333194D01*
X204006685Y-88344073D01*
X203913299Y-88351425D01*
X203815807Y-88354813D01*
X203723386Y-88353797D01*
X203645214Y-88347936D01*
X203620904Y-88344302D01*
X203551580Y-88332008D01*
X203507421Y-88320934D01*
X203482798Y-88304562D01*
X203472081Y-88276376D01*
X203469643Y-88229860D01*
X203469875Y-88169447D01*
X203471101Y-88106631D01*
X203474386Y-88057989D01*
X203479137Y-88030598D01*
X203481781Y-88027077D01*
X203501439Y-88031751D01*
X203543404Y-88044022D01*
X203599822Y-88061563D01*
X203620687Y-88068244D01*
X203732828Y-88095300D01*
X203836445Y-88102766D01*
X203927245Y-88091344D01*
X204000936Y-88061735D01*
X204053226Y-88014641D01*
X204064918Y-87995644D01*
X204076195Y-87962831D01*
X204084820Y-87918627D01*
X204089724Y-87873335D01*
X204089842Y-87837254D01*
X204084106Y-87820688D01*
X204083062Y-87820500D01*
X204067062Y-87827587D01*
X204032338Y-87845790D01*
X204003370Y-87861721D01*
X203904374Y-87900883D01*
X203799940Y-87914067D01*
X203695846Y-87903026D01*
X203597869Y-87869508D01*
X203511788Y-87815266D01*
X203443381Y-87742049D01*
X203409707Y-87681853D01*
X203373841Y-87571748D01*
X203351933Y-87447108D01*
X203346247Y-87322917D01*
X203347228Y-87306134D01*
X203709092Y-87306134D01*
X203709968Y-87402730D01*
X203726457Y-87491080D01*
X203743718Y-87535301D01*
X203790766Y-87600734D01*
X203851389Y-87637471D01*
X203925600Y-87645516D01*
X204013407Y-87624872D01*
X204025178Y-87620338D01*
X204089000Y-87594802D01*
X204089000Y-87044570D01*
X204015982Y-87033620D01*
X203922244Y-87033073D01*
X203841652Y-87059766D01*
X203777626Y-87111586D01*
X203733583Y-87186420D01*
X203724573Y-87213774D01*
X203709092Y-87306134D01*
X203347228Y-87306134D01*
X203348832Y-87278714D01*
X203374514Y-87138382D01*
X203421971Y-87018779D01*
X203488702Y-86921347D01*
X203572209Y-86847534D01*
X203669990Y-86798783D01*
X203779546Y-86776539D01*
X203898376Y-86782248D01*
G36*
X198866001Y-86782248D02*
G01*
X198991607Y-86817353D01*
X199060593Y-86848642D01*
X199070848Y-86841517D01*
X199072500Y-86829635D01*
X199076696Y-86818500D01*
X199092740Y-86811160D01*
X199125814Y-86806876D01*
X199181098Y-86804907D01*
X199248328Y-86804500D01*
X199424156Y-86804500D01*
X199418015Y-87387906D01*
X199416259Y-87542072D01*
X199414435Y-87667929D01*
X199412356Y-87768920D01*
X199409837Y-87848487D01*
X199406693Y-87910070D01*
X199402737Y-87957111D01*
X199397785Y-87993052D01*
X199391650Y-88021335D01*
X199384146Y-88045401D01*
X199382263Y-88050552D01*
X199339989Y-88129250D01*
X199276679Y-88205572D01*
X199201423Y-88270480D01*
X199123313Y-88314934D01*
X199112052Y-88319230D01*
X199054412Y-88333194D01*
X198974310Y-88344073D01*
X198880924Y-88351425D01*
X198783432Y-88354813D01*
X198691011Y-88353797D01*
X198612839Y-88347936D01*
X198588529Y-88344302D01*
X198519205Y-88332008D01*
X198475046Y-88320934D01*
X198450423Y-88304562D01*
X198439706Y-88276376D01*
X198437268Y-88229860D01*
X198437500Y-88169447D01*
X198438726Y-88106631D01*
X198442011Y-88057989D01*
X198446762Y-88030598D01*
X198449406Y-88027077D01*
X198469064Y-88031751D01*
X198511029Y-88044022D01*
X198567447Y-88061563D01*
X198588312Y-88068244D01*
X198700453Y-88095300D01*
X198804070Y-88102766D01*
X198894870Y-88091344D01*
X198968561Y-88061735D01*
X199020851Y-88014641D01*
X199032543Y-87995644D01*
X199043820Y-87962831D01*
X199052445Y-87918627D01*
X199057349Y-87873335D01*
X199057467Y-87837254D01*
X199051731Y-87820688D01*
X199050687Y-87820500D01*
X199034687Y-87827587D01*
X198999963Y-87845790D01*
X198970995Y-87861721D01*
X198871999Y-87900883D01*
X198767565Y-87914067D01*
X198663471Y-87903026D01*
X198565494Y-87869508D01*
X198479413Y-87815266D01*
X198411006Y-87742049D01*
X198377332Y-87681853D01*
X198341466Y-87571748D01*
X198319558Y-87447108D01*
X198313872Y-87322917D01*
X198314853Y-87306134D01*
X198676717Y-87306134D01*
X198677593Y-87402730D01*
X198694082Y-87491080D01*
X198711343Y-87535301D01*
X198758391Y-87600734D01*
X198819014Y-87637471D01*
X198893225Y-87645516D01*
X198981032Y-87624872D01*
X198992803Y-87620338D01*
X199056625Y-87594802D01*
X199056625Y-87044570D01*
X198983607Y-87033620D01*
X198889869Y-87033073D01*
X198809277Y-87059766D01*
X198745251Y-87111586D01*
X198701208Y-87186420D01*
X198692198Y-87213774D01*
X198676717Y-87306134D01*
X198314853Y-87306134D01*
X198316457Y-87278714D01*
X198342139Y-87138382D01*
X198389596Y-87018779D01*
X198456327Y-86921347D01*
X198539834Y-86847534D01*
X198637615Y-86798783D01*
X198747171Y-86776539D01*
X198866001Y-86782248D01*
X198866001Y-86782248D01*
G37*
X198866001Y-86782248D02*
X198991607Y-86817353D01*
X199060593Y-86848642D01*
X199070848Y-86841517D01*
X199072500Y-86829635D01*
X199076696Y-86818500D01*
X199092740Y-86811160D01*
X199125814Y-86806876D01*
X199181098Y-86804907D01*
X199248328Y-86804500D01*
X199424156Y-86804500D01*
X199418015Y-87387906D01*
X199416259Y-87542072D01*
X199414435Y-87667929D01*
X199412356Y-87768920D01*
X199409837Y-87848487D01*
X199406693Y-87910070D01*
X199402737Y-87957111D01*
X199397785Y-87993052D01*
X199391650Y-88021335D01*
X199384146Y-88045401D01*
X199382263Y-88050552D01*
X199339989Y-88129250D01*
X199276679Y-88205572D01*
X199201423Y-88270480D01*
X199123313Y-88314934D01*
X199112052Y-88319230D01*
X199054412Y-88333194D01*
X198974310Y-88344073D01*
X198880924Y-88351425D01*
X198783432Y-88354813D01*
X198691011Y-88353797D01*
X198612839Y-88347936D01*
X198588529Y-88344302D01*
X198519205Y-88332008D01*
X198475046Y-88320934D01*
X198450423Y-88304562D01*
X198439706Y-88276376D01*
X198437268Y-88229860D01*
X198437500Y-88169447D01*
X198438726Y-88106631D01*
X198442011Y-88057989D01*
X198446762Y-88030598D01*
X198449406Y-88027077D01*
X198469064Y-88031751D01*
X198511029Y-88044022D01*
X198567447Y-88061563D01*
X198588312Y-88068244D01*
X198700453Y-88095300D01*
X198804070Y-88102766D01*
X198894870Y-88091344D01*
X198968561Y-88061735D01*
X199020851Y-88014641D01*
X199032543Y-87995644D01*
X199043820Y-87962831D01*
X199052445Y-87918627D01*
X199057349Y-87873335D01*
X199057467Y-87837254D01*
X199051731Y-87820688D01*
X199050687Y-87820500D01*
X199034687Y-87827587D01*
X198999963Y-87845790D01*
X198970995Y-87861721D01*
X198871999Y-87900883D01*
X198767565Y-87914067D01*
X198663471Y-87903026D01*
X198565494Y-87869508D01*
X198479413Y-87815266D01*
X198411006Y-87742049D01*
X198377332Y-87681853D01*
X198341466Y-87571748D01*
X198319558Y-87447108D01*
X198313872Y-87322917D01*
X198314853Y-87306134D01*
X198676717Y-87306134D01*
X198677593Y-87402730D01*
X198694082Y-87491080D01*
X198711343Y-87535301D01*
X198758391Y-87600734D01*
X198819014Y-87637471D01*
X198893225Y-87645516D01*
X198981032Y-87624872D01*
X198992803Y-87620338D01*
X199056625Y-87594802D01*
X199056625Y-87044570D01*
X198983607Y-87033620D01*
X198889869Y-87033073D01*
X198809277Y-87059766D01*
X198745251Y-87111586D01*
X198701208Y-87186420D01*
X198692198Y-87213774D01*
X198676717Y-87306134D01*
X198314853Y-87306134D01*
X198316457Y-87278714D01*
X198342139Y-87138382D01*
X198389596Y-87018779D01*
X198456327Y-86921347D01*
X198539834Y-86847534D01*
X198637615Y-86798783D01*
X198747171Y-86776539D01*
X198866001Y-86782248D01*
D12*
X242230000Y-111084000D02*
X243840000Y-111084000D01*
X242230000Y-109474000D02*
X242230000Y-111084000D01*
X258850000Y-104694000D02*
X257350000Y-104694000D01*
X258850000Y-106334000D02*
X258850000Y-104694000D01*
X257350000Y-106334000D02*
X258850000Y-106334000D01*
X258850000Y-108654000D02*
X257350000Y-108654000D01*
X258850000Y-110294000D02*
X258850000Y-108654000D01*
X257350000Y-110294000D02*
X258850000Y-110294000D01*
X251150000Y-111534000D02*
X247730000Y-111534000D01*
X251150000Y-110484000D02*
X251150000Y-111534000D01*
X257350000Y-110484000D02*
X251150000Y-110484000D01*
X257350000Y-104504000D02*
X257350000Y-110484000D01*
X251150000Y-104504000D02*
X257350000Y-104504000D01*
X251150000Y-103454000D02*
X251150000Y-104504000D01*
X247730000Y-103454000D02*
X251150000Y-103454000D01*
X247730000Y-111534000D02*
X247730000Y-103454000D01*
X241358000Y-116032000D02*
X244558000Y-116032000D01*
X244558000Y-120032000D02*
X241358000Y-120032000D01*
X242208000Y-118032000D02*
X243708000Y-118032000D01*
X251058000Y-114562000D02*
X234858000Y-114562000D01*
X251058000Y-121502000D02*
X251058000Y-114562000D01*
X234858000Y-121502000D02*
X251058000Y-121502000D01*
X234858000Y-114562000D02*
X234858000Y-121502000D01*
X225492000Y-88960000D02*
X225492000Y-87630000D01*
X226822000Y-88960000D02*
X225492000Y-88960000D01*
X228092000Y-88960000D02*
X228092000Y-86300000D01*
X228092000Y-86300000D02*
X233232000Y-86300000D01*
X228092000Y-88960000D02*
X233232000Y-88960000D01*
X233232000Y-88960000D02*
X233232000Y-86300000D01*
X209288748Y-100128000D02*
X209811252Y-100128000D01*
X209288748Y-101548000D02*
X209811252Y-101548000D01*
X209463000Y-96630000D02*
X208053000Y-96630000D01*
X208053000Y-98950000D02*
X210788000Y-98950000D01*
X208053000Y-98960000D02*
X208053000Y-98290000D01*
X208053000Y-97290000D02*
X208053000Y-96630000D01*
X210872000Y-105656748D02*
X210872000Y-106179252D01*
X212292000Y-105656748D02*
X212292000Y-106179252D01*
X208542000Y-111733000D02*
X207882000Y-111733000D01*
X210212000Y-111733000D02*
X209542000Y-111733000D01*
X210202000Y-111733000D02*
X210202000Y-108998000D01*
X207882000Y-110323000D02*
X207882000Y-111733000D01*
D14*
X226898000Y-110497000D02*
X223698000Y-110497000D01*
X223698000Y-110497000D02*
X223698000Y-101847000D01*
X223698000Y-101847000D02*
X226898000Y-101847000D01*
X226898000Y-101847000D02*
X226898000Y-110497000D01*
X228773000Y-110657000D02*
X227248000Y-110657000D01*
D12*
X219254000Y-110736748D02*
X219254000Y-111259252D01*
X220674000Y-110736748D02*
X220674000Y-111259252D01*
D14*
X245526000Y-93980000D02*
G75*
G03X245526000Y-93980000I-4000000J0D01*
G01*
D12*
X220718748Y-114098000D02*
X221241252Y-114098000D01*
X220718748Y-115518000D02*
X221241252Y-115518000D01*
X218432748Y-126440000D02*
X218955252Y-126440000D01*
X218432748Y-125020000D02*
X218955252Y-125020000D01*
X186682748Y-122376000D02*
X187205252Y-122376000D01*
X186682748Y-120956000D02*
X187205252Y-120956000D01*
X198997749Y-120953001D02*
X199520253Y-120953001D01*
X198997749Y-122373001D02*
X199520253Y-122373001D01*
X214944000Y-86300000D02*
X212284000Y-86300000D01*
X214944000Y-99060000D02*
X214944000Y-86300000D01*
X212284000Y-99060000D02*
X212284000Y-86300000D01*
X214944000Y-99060000D02*
X212284000Y-99060000D01*
X214944000Y-100330000D02*
X214944000Y-101660000D01*
X214944000Y-101660000D02*
X213614000Y-101660000D01*
X217440000Y-106234000D02*
G75*
G02X218140000Y-105534000I700000J0D01*
G01*
X218740000Y-105534000D02*
G75*
G02X219440000Y-106234000I0J-700000D01*
G01*
X219440000Y-107634000D02*
G75*
G02X218740000Y-108334000I-700000J0D01*
G01*
X218140000Y-108334000D02*
G75*
G02X217440000Y-107634000I0J700000D01*
G01*
X218740000Y-108334000D02*
X218140000Y-108334000D01*
X219440000Y-106234000D02*
X219440000Y-107634000D01*
X218140000Y-105534000D02*
X218740000Y-105534000D01*
X217440000Y-107634000D02*
X217440000Y-106234000D01*
X217930000Y-101936733D02*
X217930000Y-102279267D01*
X218950000Y-101936733D02*
X218950000Y-102279267D01*
X194247749Y-120953001D02*
X194770253Y-120953001D01*
X194247749Y-122373001D02*
X194770253Y-122373001D01*
X202140000Y-115546000D02*
X202920000Y-115546000D01*
X202920000Y-115546000D02*
X202920000Y-114546000D01*
X202140000Y-97306000D02*
X202920000Y-97306000D01*
X202920000Y-97306000D02*
X202920000Y-98306000D01*
X177175000Y-115546000D02*
X177175000Y-97306000D01*
X177175000Y-97306000D02*
X183595000Y-97306000D01*
X177175000Y-115546000D02*
X183595000Y-115546000D01*
X183595000Y-115546000D02*
X183595000Y-115926000D01*
X214498000Y-116478000D02*
X214498000Y-117738000D01*
X214498000Y-123298000D02*
X214498000Y-122038000D01*
X218258000Y-116478000D02*
X214498000Y-116478000D01*
X220508000Y-123298000D02*
X214498000Y-123298000D01*
X227778000Y-124400000D02*
X227778000Y-127060000D01*
X230378000Y-124400000D02*
X227778000Y-124400000D01*
X230378000Y-127060000D02*
X227778000Y-127060000D01*
X230378000Y-124400000D02*
X230378000Y-127060000D01*
X231648000Y-124400000D02*
X232978000Y-124400000D01*
X232978000Y-124400000D02*
X232978000Y-125730000D01*
D10*
X240742380Y-107827333D02*
X241456666Y-107827333D01*
X241599523Y-107874952D01*
X241694761Y-107970190D01*
X241742380Y-108113047D01*
X241742380Y-108208285D01*
X240742380Y-107446380D02*
X240742380Y-106827333D01*
X241123333Y-107160666D01*
X241123333Y-107017809D01*
X241170952Y-106922571D01*
X241218571Y-106874952D01*
X241313809Y-106827333D01*
X241551904Y-106827333D01*
X241647142Y-106874952D01*
X241694761Y-106922571D01*
X241742380Y-107017809D01*
X241742380Y-107303523D01*
X241694761Y-107398761D01*
X241647142Y-107446380D01*
X242624666Y-113590571D02*
X242291333Y-113590571D01*
X242291333Y-114114380D02*
X242291333Y-113114380D01*
X242767523Y-113114380D01*
X243672285Y-114114380D02*
X243100857Y-114114380D01*
X243386571Y-114114380D02*
X243386571Y-113114380D01*
X243291333Y-113257238D01*
X243196095Y-113352476D01*
X243100857Y-113400095D01*
X223944380Y-87963333D02*
X224658666Y-87963333D01*
X224801523Y-88010952D01*
X224896761Y-88106190D01*
X224944380Y-88249047D01*
X224944380Y-88344285D01*
X224039619Y-87534761D02*
X223992000Y-87487142D01*
X223944380Y-87391904D01*
X223944380Y-87153809D01*
X223992000Y-87058571D01*
X224039619Y-87010952D01*
X224134857Y-86963333D01*
X224230095Y-86963333D01*
X224372952Y-87010952D01*
X224944380Y-87582380D01*
X224944380Y-86963333D01*
X209383333Y-102814380D02*
X209050000Y-102338190D01*
X208811904Y-102814380D02*
X208811904Y-101814380D01*
X209192857Y-101814380D01*
X209288095Y-101862000D01*
X209335714Y-101909619D01*
X209383333Y-102004857D01*
X209383333Y-102147714D01*
X209335714Y-102242952D01*
X209288095Y-102290571D01*
X209192857Y-102338190D01*
X208811904Y-102338190D01*
X210335714Y-102814380D02*
X209764285Y-102814380D01*
X210050000Y-102814380D02*
X210050000Y-101814380D01*
X209954761Y-101957238D01*
X209859523Y-102052476D01*
X209764285Y-102100095D01*
X208946761Y-96305619D02*
X208851523Y-96258000D01*
X208756285Y-96162761D01*
X208613428Y-96019904D01*
X208518190Y-95972285D01*
X208422952Y-95972285D01*
X208470571Y-96210380D02*
X208375333Y-96162761D01*
X208280095Y-96067523D01*
X208232476Y-95877047D01*
X208232476Y-95543714D01*
X208280095Y-95353238D01*
X208375333Y-95258000D01*
X208470571Y-95210380D01*
X208661047Y-95210380D01*
X208756285Y-95258000D01*
X208851523Y-95353238D01*
X208899142Y-95543714D01*
X208899142Y-95877047D01*
X208851523Y-96067523D01*
X208756285Y-96162761D01*
X208661047Y-96210380D01*
X208470571Y-96210380D01*
X209851523Y-96210380D02*
X209280095Y-96210380D01*
X209565809Y-96210380D02*
X209565809Y-95210380D01*
X209470571Y-95353238D01*
X209375333Y-95448476D01*
X209280095Y-95496095D01*
X213684380Y-106084666D02*
X213208190Y-106418000D01*
X213684380Y-106656095D02*
X212684380Y-106656095D01*
X212684380Y-106275142D01*
X212732000Y-106179904D01*
X212779619Y-106132285D01*
X212874857Y-106084666D01*
X213017714Y-106084666D01*
X213112952Y-106132285D01*
X213160571Y-106179904D01*
X213208190Y-106275142D01*
X213208190Y-106656095D01*
X212779619Y-105703714D02*
X212732000Y-105656095D01*
X212684380Y-105560857D01*
X212684380Y-105322761D01*
X212732000Y-105227523D01*
X212779619Y-105179904D01*
X212874857Y-105132285D01*
X212970095Y-105132285D01*
X213112952Y-105179904D01*
X213684380Y-105751333D01*
X213684380Y-105132285D01*
X211589619Y-111093238D02*
X211542000Y-111188476D01*
X211446761Y-111283714D01*
X211303904Y-111426571D01*
X211256285Y-111521809D01*
X211256285Y-111617047D01*
X211494380Y-111569428D02*
X211446761Y-111664666D01*
X211351523Y-111759904D01*
X211161047Y-111807523D01*
X210827714Y-111807523D01*
X210637238Y-111759904D01*
X210542000Y-111664666D01*
X210494380Y-111569428D01*
X210494380Y-111378952D01*
X210542000Y-111283714D01*
X210637238Y-111188476D01*
X210827714Y-111140857D01*
X211161047Y-111140857D01*
X211351523Y-111188476D01*
X211446761Y-111283714D01*
X211494380Y-111378952D01*
X211494380Y-111569428D01*
X210589619Y-110759904D02*
X210542000Y-110712285D01*
X210494380Y-110617047D01*
X210494380Y-110378952D01*
X210542000Y-110283714D01*
X210589619Y-110236095D01*
X210684857Y-110188476D01*
X210780095Y-110188476D01*
X210922952Y-110236095D01*
X211494380Y-110807523D01*
X211494380Y-110188476D01*
D15*
X224058238Y-112842523D02*
X224058238Y-111572523D01*
X225388714Y-112721571D02*
X225328238Y-112782047D01*
X225146809Y-112842523D01*
X225025857Y-112842523D01*
X224844428Y-112782047D01*
X224723476Y-112661095D01*
X224663000Y-112540142D01*
X224602523Y-112298238D01*
X224602523Y-112116809D01*
X224663000Y-111874904D01*
X224723476Y-111753952D01*
X224844428Y-111633000D01*
X225025857Y-111572523D01*
X225146809Y-111572523D01*
X225328238Y-111633000D01*
X225388714Y-111693476D01*
X226598238Y-112842523D02*
X225872523Y-112842523D01*
X226235380Y-112842523D02*
X226235380Y-111572523D01*
X226114428Y-111753952D01*
X225993476Y-111874904D01*
X225872523Y-111935380D01*
D10*
X218797142Y-111164666D02*
X218844761Y-111212285D01*
X218892380Y-111355142D01*
X218892380Y-111450380D01*
X218844761Y-111593238D01*
X218749523Y-111688476D01*
X218654285Y-111736095D01*
X218463809Y-111783714D01*
X218320952Y-111783714D01*
X218130476Y-111736095D01*
X218035238Y-111688476D01*
X217940000Y-111593238D01*
X217892380Y-111450380D01*
X217892380Y-111355142D01*
X217940000Y-111212285D01*
X217987619Y-111164666D01*
X217892380Y-110259904D02*
X217892380Y-110736095D01*
X218368571Y-110783714D01*
X218320952Y-110736095D01*
X218273333Y-110640857D01*
X218273333Y-110402761D01*
X218320952Y-110307523D01*
X218368571Y-110259904D01*
X218463809Y-110212285D01*
X218701904Y-110212285D01*
X218797142Y-110259904D01*
X218844761Y-110307523D01*
X218892380Y-110402761D01*
X218892380Y-110640857D01*
X218844761Y-110736095D01*
X218797142Y-110783714D01*
D15*
X248200333Y-94433571D02*
X248139857Y-94494047D01*
X247958428Y-94554523D01*
X247837476Y-94554523D01*
X247656047Y-94494047D01*
X247535095Y-94373095D01*
X247474619Y-94252142D01*
X247414142Y-94010238D01*
X247414142Y-93828809D01*
X247474619Y-93586904D01*
X247535095Y-93465952D01*
X247656047Y-93345000D01*
X247837476Y-93284523D01*
X247958428Y-93284523D01*
X248139857Y-93345000D01*
X248200333Y-93405476D01*
X249409857Y-94554523D02*
X248684142Y-94554523D01*
X249047000Y-94554523D02*
X249047000Y-93284523D01*
X248926047Y-93465952D01*
X248805095Y-93586904D01*
X248684142Y-93647380D01*
D10*
X220813333Y-113515142D02*
X220765714Y-113562761D01*
X220622857Y-113610380D01*
X220527619Y-113610380D01*
X220384761Y-113562761D01*
X220289523Y-113467523D01*
X220241904Y-113372285D01*
X220194285Y-113181809D01*
X220194285Y-113038952D01*
X220241904Y-112848476D01*
X220289523Y-112753238D01*
X220384761Y-112658000D01*
X220527619Y-112610380D01*
X220622857Y-112610380D01*
X220765714Y-112658000D01*
X220813333Y-112705619D01*
X221194285Y-112705619D02*
X221241904Y-112658000D01*
X221337142Y-112610380D01*
X221575238Y-112610380D01*
X221670476Y-112658000D01*
X221718095Y-112705619D01*
X221765714Y-112800857D01*
X221765714Y-112896095D01*
X221718095Y-113038952D01*
X221146666Y-113610380D01*
X221765714Y-113610380D01*
X218527333Y-127865142D02*
X218479714Y-127912761D01*
X218336857Y-127960380D01*
X218241619Y-127960380D01*
X218098761Y-127912761D01*
X218003523Y-127817523D01*
X217955904Y-127722285D01*
X217908285Y-127531809D01*
X217908285Y-127388952D01*
X217955904Y-127198476D01*
X218003523Y-127103238D01*
X218098761Y-127008000D01*
X218241619Y-126960380D01*
X218336857Y-126960380D01*
X218479714Y-127008000D01*
X218527333Y-127055619D01*
X218860666Y-126960380D02*
X219479714Y-126960380D01*
X219146380Y-127341333D01*
X219289238Y-127341333D01*
X219384476Y-127388952D01*
X219432095Y-127436571D01*
X219479714Y-127531809D01*
X219479714Y-127769904D01*
X219432095Y-127865142D01*
X219384476Y-127912761D01*
X219289238Y-127960380D01*
X219003523Y-127960380D01*
X218908285Y-127912761D01*
X218860666Y-127865142D01*
X186777333Y-120373142D02*
X186729714Y-120420761D01*
X186586857Y-120468380D01*
X186491619Y-120468380D01*
X186348761Y-120420761D01*
X186253523Y-120325523D01*
X186205904Y-120230285D01*
X186158285Y-120039809D01*
X186158285Y-119896952D01*
X186205904Y-119706476D01*
X186253523Y-119611238D01*
X186348761Y-119516000D01*
X186491619Y-119468380D01*
X186586857Y-119468380D01*
X186729714Y-119516000D01*
X186777333Y-119563619D01*
X187634476Y-119801714D02*
X187634476Y-120468380D01*
X187396380Y-119420761D02*
X187158285Y-120135047D01*
X187777333Y-120135047D01*
X199092334Y-120370143D02*
X199044715Y-120417762D01*
X198901858Y-120465381D01*
X198806620Y-120465381D01*
X198663762Y-120417762D01*
X198568524Y-120322524D01*
X198520905Y-120227286D01*
X198473286Y-120036810D01*
X198473286Y-119893953D01*
X198520905Y-119703477D01*
X198568524Y-119608239D01*
X198663762Y-119513001D01*
X198806620Y-119465381D01*
X198901858Y-119465381D01*
X199044715Y-119513001D01*
X199092334Y-119560620D01*
X199949477Y-119465381D02*
X199759001Y-119465381D01*
X199663762Y-119513001D01*
X199616143Y-119560620D01*
X199520905Y-119703477D01*
X199473286Y-119893953D01*
X199473286Y-120274905D01*
X199520905Y-120370143D01*
X199568524Y-120417762D01*
X199663762Y-120465381D01*
X199854239Y-120465381D01*
X199949477Y-120417762D01*
X199997096Y-120370143D01*
X200044715Y-120274905D01*
X200044715Y-120036810D01*
X199997096Y-119941572D01*
X199949477Y-119893953D01*
X199854239Y-119846334D01*
X199663762Y-119846334D01*
X199568524Y-119893953D01*
X199520905Y-119941572D01*
X199473286Y-120036810D01*
X213280666Y-102112380D02*
X213280666Y-102826666D01*
X213233047Y-102969523D01*
X213137809Y-103064761D01*
X212994952Y-103112380D01*
X212899714Y-103112380D01*
X214280666Y-103112380D02*
X213709238Y-103112380D01*
X213994952Y-103112380D02*
X213994952Y-102112380D01*
X213899714Y-102255238D01*
X213804476Y-102350476D01*
X213709238Y-102398095D01*
X216092380Y-107767333D02*
X216806666Y-107767333D01*
X216949523Y-107814952D01*
X217044761Y-107910190D01*
X217092380Y-108053047D01*
X217092380Y-108148285D01*
X217092380Y-107291142D02*
X216092380Y-107291142D01*
X216092380Y-106910190D01*
X216140000Y-106814952D01*
X216187619Y-106767333D01*
X216282857Y-106719714D01*
X216425714Y-106719714D01*
X216520952Y-106767333D01*
X216568571Y-106814952D01*
X216616190Y-106910190D01*
X216616190Y-107291142D01*
X217092380Y-105767333D02*
X217092380Y-106338761D01*
X217092380Y-106053047D02*
X216092380Y-106053047D01*
X216235238Y-106148285D01*
X216330476Y-106243523D01*
X216378095Y-106338761D01*
X220670380Y-102274666D02*
X220194190Y-102608000D01*
X220670380Y-102846095D02*
X219670380Y-102846095D01*
X219670380Y-102465142D01*
X219718000Y-102369904D01*
X219765619Y-102322285D01*
X219860857Y-102274666D01*
X220003714Y-102274666D01*
X220098952Y-102322285D01*
X220146571Y-102369904D01*
X220194190Y-102465142D01*
X220194190Y-102846095D01*
X219670380Y-101941333D02*
X219670380Y-101322285D01*
X220051333Y-101655619D01*
X220051333Y-101512761D01*
X220098952Y-101417523D01*
X220146571Y-101369904D01*
X220241809Y-101322285D01*
X220479904Y-101322285D01*
X220575142Y-101369904D01*
X220622761Y-101417523D01*
X220670380Y-101512761D01*
X220670380Y-101798476D01*
X220622761Y-101893714D01*
X220575142Y-101941333D01*
X194342334Y-120465381D02*
X194009001Y-119989191D01*
X193770905Y-120465381D02*
X193770905Y-119465381D01*
X194151858Y-119465381D01*
X194247096Y-119513001D01*
X194294715Y-119560620D01*
X194342334Y-119655858D01*
X194342334Y-119798715D01*
X194294715Y-119893953D01*
X194247096Y-119941572D01*
X194151858Y-119989191D01*
X193770905Y-119989191D01*
X195199477Y-119798715D02*
X195199477Y-120465381D01*
X194961381Y-119417762D02*
X194723286Y-120132048D01*
X195342334Y-120132048D01*
X200708095Y-116488380D02*
X200708095Y-117297904D01*
X200755714Y-117393142D01*
X200803333Y-117440761D01*
X200898571Y-117488380D01*
X201089047Y-117488380D01*
X201184285Y-117440761D01*
X201231904Y-117393142D01*
X201279523Y-117297904D01*
X201279523Y-116488380D01*
X202279523Y-117488380D02*
X201708095Y-117488380D01*
X201993809Y-117488380D02*
X201993809Y-116488380D01*
X201898571Y-116631238D01*
X201803333Y-116726476D01*
X201708095Y-116774095D01*
X215646095Y-114768380D02*
X215646095Y-115577904D01*
X215693714Y-115673142D01*
X215741333Y-115720761D01*
X215836571Y-115768380D01*
X216027047Y-115768380D01*
X216122285Y-115720761D01*
X216169904Y-115673142D01*
X216217523Y-115577904D01*
X216217523Y-114768380D01*
X216646095Y-114863619D02*
X216693714Y-114816000D01*
X216788952Y-114768380D01*
X217027047Y-114768380D01*
X217122285Y-114816000D01*
X217169904Y-114863619D01*
X217217523Y-114958857D01*
X217217523Y-115054095D01*
X217169904Y-115196952D01*
X216598476Y-115768380D01*
X217217523Y-115768380D01*
X233430380Y-126063333D02*
X234144666Y-126063333D01*
X234287523Y-126110952D01*
X234382761Y-126206190D01*
X234430380Y-126349047D01*
X234430380Y-126444285D01*
X233763714Y-125158571D02*
X234430380Y-125158571D01*
X233382761Y-125396666D02*
X234097047Y-125634761D01*
X234097047Y-125015714D01*
M02*
