%TF.GenerationSoftware,KiCad,Pcbnew,(5.1.4)-1*%
%TF.CreationDate,2020-11-25T14:42:45+00:00*%
%TF.ProjectId,WLED Module,574c4544-204d-46f6-9475-6c652e6b6963,rev?*%
%TF.SameCoordinates,Original*%
%TF.FileFunction,Soldermask,Top*%
%TF.FilePolarity,Negative*%
%FSLAX46Y46*%
G04 Gerber Fmt 4.6, Leading zero omitted, Abs format (unit mm)*
G04 Created by KiCad (PCBNEW (5.1.4)-1) date 2020-11-25 14:42:45*
%MOMM*%
%LPD*%
G04 APERTURE LIST*
%ADD10C,0.050000*%
%ADD11C,0.100000*%
G04 APERTURE END LIST*
D10*
X254254000Y-130048000D02*
X259334000Y-130048000D01*
X172466000Y-83312000D02*
X259334000Y-83312000D01*
X259334000Y-83312000D02*
X259334000Y-130048000D01*
X183642000Y-91440000D02*
X182880000Y-91440000D01*
X183642000Y-121920000D02*
X183642000Y-91440000D01*
X182880000Y-121920000D02*
X183642000Y-121920000D01*
X254254000Y-130048000D02*
X172720000Y-130048000D01*
X172466000Y-91440000D02*
X172466000Y-83312000D01*
X182880000Y-91440000D02*
X172466000Y-91440000D01*
X172720000Y-121920000D02*
X182880000Y-121920000D01*
X172720000Y-130048000D02*
X172720000Y-121920000D01*
D11*
G36*
X255339606Y-123496562D02*
G01*
X255858455Y-123711476D01*
X256325407Y-124023484D01*
X256722516Y-124420593D01*
X257034524Y-124887545D01*
X257249438Y-125406394D01*
X257359000Y-125957201D01*
X257359000Y-126518799D01*
X257249438Y-127069606D01*
X257034524Y-127588455D01*
X256722516Y-128055407D01*
X256325407Y-128452516D01*
X255858455Y-128764524D01*
X255339606Y-128979438D01*
X255064202Y-129034219D01*
X254788800Y-129089000D01*
X254227200Y-129089000D01*
X253951798Y-129034219D01*
X253676394Y-128979438D01*
X253157545Y-128764524D01*
X252690593Y-128452516D01*
X252293484Y-128055407D01*
X251981476Y-127588455D01*
X251766562Y-127069606D01*
X251657000Y-126518799D01*
X251657000Y-125957201D01*
X251766562Y-125406394D01*
X251981476Y-124887545D01*
X252293484Y-124420593D01*
X252690593Y-124023484D01*
X253157545Y-123711476D01*
X253676394Y-123496562D01*
X254227200Y-123387000D01*
X254788800Y-123387000D01*
X255339606Y-123496562D01*
X255339606Y-123496562D01*
G37*
G36*
X188537606Y-123496562D02*
G01*
X189056455Y-123711476D01*
X189523407Y-124023484D01*
X189920516Y-124420593D01*
X190232524Y-124887545D01*
X190447438Y-125406394D01*
X190557000Y-125957201D01*
X190557000Y-126518799D01*
X190447438Y-127069606D01*
X190232524Y-127588455D01*
X189920516Y-128055407D01*
X189523407Y-128452516D01*
X189056455Y-128764524D01*
X188537606Y-128979438D01*
X188262202Y-129034219D01*
X187986800Y-129089000D01*
X187425200Y-129089000D01*
X187149798Y-129034219D01*
X186874394Y-128979438D01*
X186355545Y-128764524D01*
X185888593Y-128452516D01*
X185491484Y-128055407D01*
X185179476Y-127588455D01*
X184964562Y-127069606D01*
X184855000Y-126518799D01*
X184855000Y-125957201D01*
X184964562Y-125406394D01*
X185179476Y-124887545D01*
X185491484Y-124420593D01*
X185888593Y-124023484D01*
X186355545Y-123711476D01*
X186874394Y-123496562D01*
X187425200Y-123387000D01*
X187986800Y-123387000D01*
X188537606Y-123496562D01*
X188537606Y-123496562D01*
G37*
G36*
X232549000Y-126631000D02*
G01*
X230747000Y-126631000D01*
X230747000Y-124829000D01*
X232549000Y-124829000D01*
X232549000Y-126631000D01*
X232549000Y-126631000D01*
G37*
G36*
X229218443Y-124835519D02*
G01*
X229284627Y-124842037D01*
X229454466Y-124893557D01*
X229610991Y-124977222D01*
X229619530Y-124984230D01*
X229748186Y-125089814D01*
X229827665Y-125186661D01*
X229860778Y-125227009D01*
X229944443Y-125383534D01*
X229995963Y-125553373D01*
X230013359Y-125730000D01*
X229995963Y-125906627D01*
X229944443Y-126076466D01*
X229860778Y-126232991D01*
X229837032Y-126261925D01*
X229748186Y-126370186D01*
X229669049Y-126435131D01*
X229610991Y-126482778D01*
X229454466Y-126566443D01*
X229284627Y-126617963D01*
X229218442Y-126624482D01*
X229152260Y-126631000D01*
X229063740Y-126631000D01*
X228997558Y-126624482D01*
X228931373Y-126617963D01*
X228761534Y-126566443D01*
X228605009Y-126482778D01*
X228546951Y-126435131D01*
X228467814Y-126370186D01*
X228378968Y-126261925D01*
X228355222Y-126232991D01*
X228271557Y-126076466D01*
X228220037Y-125906627D01*
X228202641Y-125730000D01*
X228220037Y-125553373D01*
X228271557Y-125383534D01*
X228355222Y-125227009D01*
X228388335Y-125186661D01*
X228467814Y-125089814D01*
X228596470Y-124984230D01*
X228605009Y-124977222D01*
X228761534Y-124893557D01*
X228931373Y-124842037D01*
X228997557Y-124835519D01*
X229063740Y-124829000D01*
X229152260Y-124829000D01*
X229218443Y-124835519D01*
X229218443Y-124835519D01*
G37*
G36*
X218132674Y-124983465D02*
G01*
X218170367Y-124994899D01*
X218205103Y-125013466D01*
X218235548Y-125038452D01*
X218260534Y-125068897D01*
X218279101Y-125103633D01*
X218290535Y-125141326D01*
X218295000Y-125186661D01*
X218295000Y-126273339D01*
X218290535Y-126318674D01*
X218279101Y-126356367D01*
X218260534Y-126391103D01*
X218235548Y-126421548D01*
X218205103Y-126446534D01*
X218170367Y-126465101D01*
X218132674Y-126476535D01*
X218087339Y-126481000D01*
X217250661Y-126481000D01*
X217205326Y-126476535D01*
X217167633Y-126465101D01*
X217132897Y-126446534D01*
X217102452Y-126421548D01*
X217077466Y-126391103D01*
X217058899Y-126356367D01*
X217047465Y-126318674D01*
X217043000Y-126273339D01*
X217043000Y-125186661D01*
X217047465Y-125141326D01*
X217058899Y-125103633D01*
X217077466Y-125068897D01*
X217102452Y-125038452D01*
X217132897Y-125013466D01*
X217167633Y-124994899D01*
X217205326Y-124983465D01*
X217250661Y-124979000D01*
X218087339Y-124979000D01*
X218132674Y-124983465D01*
X218132674Y-124983465D01*
G37*
G36*
X220182674Y-124983465D02*
G01*
X220220367Y-124994899D01*
X220255103Y-125013466D01*
X220285548Y-125038452D01*
X220310534Y-125068897D01*
X220329101Y-125103633D01*
X220340535Y-125141326D01*
X220345000Y-125186661D01*
X220345000Y-126273339D01*
X220340535Y-126318674D01*
X220329101Y-126356367D01*
X220310534Y-126391103D01*
X220285548Y-126421548D01*
X220255103Y-126446534D01*
X220220367Y-126465101D01*
X220182674Y-126476535D01*
X220137339Y-126481000D01*
X219300661Y-126481000D01*
X219255326Y-126476535D01*
X219217633Y-126465101D01*
X219182897Y-126446534D01*
X219152452Y-126421548D01*
X219127466Y-126391103D01*
X219108899Y-126356367D01*
X219097465Y-126318674D01*
X219093000Y-126273339D01*
X219093000Y-125186661D01*
X219097465Y-125141326D01*
X219108899Y-125103633D01*
X219127466Y-125068897D01*
X219152452Y-125038452D01*
X219182897Y-125013466D01*
X219217633Y-124994899D01*
X219255326Y-124983465D01*
X219300661Y-124979000D01*
X220137339Y-124979000D01*
X220182674Y-124983465D01*
X220182674Y-124983465D01*
G37*
G36*
X220609000Y-122989000D02*
G01*
X218507000Y-122989000D01*
X218507000Y-121387000D01*
X220609000Y-121387000D01*
X220609000Y-122989000D01*
X220609000Y-122989000D01*
G37*
G36*
X186382674Y-120919465D02*
G01*
X186420367Y-120930899D01*
X186455103Y-120949466D01*
X186485548Y-120974452D01*
X186510534Y-121004897D01*
X186529101Y-121039633D01*
X186540535Y-121077326D01*
X186545000Y-121122661D01*
X186545000Y-122209339D01*
X186540535Y-122254674D01*
X186529101Y-122292367D01*
X186510534Y-122327103D01*
X186485548Y-122357548D01*
X186455103Y-122382534D01*
X186420367Y-122401101D01*
X186382674Y-122412535D01*
X186337339Y-122417000D01*
X185500661Y-122417000D01*
X185455326Y-122412535D01*
X185417633Y-122401101D01*
X185382897Y-122382534D01*
X185352452Y-122357548D01*
X185327466Y-122327103D01*
X185308899Y-122292367D01*
X185297465Y-122254674D01*
X185293000Y-122209339D01*
X185293000Y-121122661D01*
X185297465Y-121077326D01*
X185308899Y-121039633D01*
X185327466Y-121004897D01*
X185352452Y-120974452D01*
X185382897Y-120949466D01*
X185417633Y-120930899D01*
X185455326Y-120919465D01*
X185500661Y-120915000D01*
X186337339Y-120915000D01*
X186382674Y-120919465D01*
X186382674Y-120919465D01*
G37*
G36*
X188432674Y-120919465D02*
G01*
X188470367Y-120930899D01*
X188505103Y-120949466D01*
X188535548Y-120974452D01*
X188560534Y-121004897D01*
X188579101Y-121039633D01*
X188590535Y-121077326D01*
X188595000Y-121122661D01*
X188595000Y-122209339D01*
X188590535Y-122254674D01*
X188579101Y-122292367D01*
X188560534Y-122327103D01*
X188535548Y-122357548D01*
X188505103Y-122382534D01*
X188470367Y-122401101D01*
X188432674Y-122412535D01*
X188387339Y-122417000D01*
X187550661Y-122417000D01*
X187505326Y-122412535D01*
X187467633Y-122401101D01*
X187432897Y-122382534D01*
X187402452Y-122357548D01*
X187377466Y-122327103D01*
X187358899Y-122292367D01*
X187347465Y-122254674D01*
X187343000Y-122209339D01*
X187343000Y-121122661D01*
X187347465Y-121077326D01*
X187358899Y-121039633D01*
X187377466Y-121004897D01*
X187402452Y-120974452D01*
X187432897Y-120949466D01*
X187467633Y-120930899D01*
X187505326Y-120919465D01*
X187550661Y-120915000D01*
X188387339Y-120915000D01*
X188432674Y-120919465D01*
X188432674Y-120919465D01*
G37*
G36*
X200747675Y-120916466D02*
G01*
X200785368Y-120927900D01*
X200820104Y-120946467D01*
X200850549Y-120971453D01*
X200875535Y-121001898D01*
X200894102Y-121036634D01*
X200905536Y-121074327D01*
X200910001Y-121119662D01*
X200910001Y-122206340D01*
X200905536Y-122251675D01*
X200894102Y-122289368D01*
X200875535Y-122324104D01*
X200850549Y-122354549D01*
X200820104Y-122379535D01*
X200785368Y-122398102D01*
X200747675Y-122409536D01*
X200702340Y-122414001D01*
X199865662Y-122414001D01*
X199820327Y-122409536D01*
X199782634Y-122398102D01*
X199747898Y-122379535D01*
X199717453Y-122354549D01*
X199692467Y-122324104D01*
X199673900Y-122289368D01*
X199662466Y-122251675D01*
X199658001Y-122206340D01*
X199658001Y-121119662D01*
X199662466Y-121074327D01*
X199673900Y-121036634D01*
X199692467Y-121001898D01*
X199717453Y-120971453D01*
X199747898Y-120946467D01*
X199782634Y-120927900D01*
X199820327Y-120916466D01*
X199865662Y-120912001D01*
X200702340Y-120912001D01*
X200747675Y-120916466D01*
X200747675Y-120916466D01*
G37*
G36*
X195997675Y-120916466D02*
G01*
X196035368Y-120927900D01*
X196070104Y-120946467D01*
X196100549Y-120971453D01*
X196125535Y-121001898D01*
X196144102Y-121036634D01*
X196155536Y-121074327D01*
X196160001Y-121119662D01*
X196160001Y-122206340D01*
X196155536Y-122251675D01*
X196144102Y-122289368D01*
X196125535Y-122324104D01*
X196100549Y-122354549D01*
X196070104Y-122379535D01*
X196035368Y-122398102D01*
X195997675Y-122409536D01*
X195952340Y-122414001D01*
X195115662Y-122414001D01*
X195070327Y-122409536D01*
X195032634Y-122398102D01*
X194997898Y-122379535D01*
X194967453Y-122354549D01*
X194942467Y-122324104D01*
X194923900Y-122289368D01*
X194912466Y-122251675D01*
X194908001Y-122206340D01*
X194908001Y-121119662D01*
X194912466Y-121074327D01*
X194923900Y-121036634D01*
X194942467Y-121001898D01*
X194967453Y-120971453D01*
X194997898Y-120946467D01*
X195032634Y-120927900D01*
X195070327Y-120916466D01*
X195115662Y-120912001D01*
X195952340Y-120912001D01*
X195997675Y-120916466D01*
X195997675Y-120916466D01*
G37*
G36*
X193947675Y-120916466D02*
G01*
X193985368Y-120927900D01*
X194020104Y-120946467D01*
X194050549Y-120971453D01*
X194075535Y-121001898D01*
X194094102Y-121036634D01*
X194105536Y-121074327D01*
X194110001Y-121119662D01*
X194110001Y-122206340D01*
X194105536Y-122251675D01*
X194094102Y-122289368D01*
X194075535Y-122324104D01*
X194050549Y-122354549D01*
X194020104Y-122379535D01*
X193985368Y-122398102D01*
X193947675Y-122409536D01*
X193902340Y-122414001D01*
X193065662Y-122414001D01*
X193020327Y-122409536D01*
X192982634Y-122398102D01*
X192947898Y-122379535D01*
X192917453Y-122354549D01*
X192892467Y-122324104D01*
X192873900Y-122289368D01*
X192862466Y-122251675D01*
X192858001Y-122206340D01*
X192858001Y-121119662D01*
X192862466Y-121074327D01*
X192873900Y-121036634D01*
X192892467Y-121001898D01*
X192917453Y-120971453D01*
X192947898Y-120946467D01*
X192982634Y-120927900D01*
X193020327Y-120916466D01*
X193065662Y-120912001D01*
X193902340Y-120912001D01*
X193947675Y-120916466D01*
X193947675Y-120916466D01*
G37*
G36*
X198697675Y-120916466D02*
G01*
X198735368Y-120927900D01*
X198770104Y-120946467D01*
X198800549Y-120971453D01*
X198825535Y-121001898D01*
X198844102Y-121036634D01*
X198855536Y-121074327D01*
X198860001Y-121119662D01*
X198860001Y-122206340D01*
X198855536Y-122251675D01*
X198844102Y-122289368D01*
X198825535Y-122324104D01*
X198800549Y-122354549D01*
X198770104Y-122379535D01*
X198735368Y-122398102D01*
X198697675Y-122409536D01*
X198652340Y-122414001D01*
X197815662Y-122414001D01*
X197770327Y-122409536D01*
X197732634Y-122398102D01*
X197697898Y-122379535D01*
X197667453Y-122354549D01*
X197642467Y-122324104D01*
X197623900Y-122289368D01*
X197612466Y-122251675D01*
X197608001Y-122206340D01*
X197608001Y-121119662D01*
X197612466Y-121074327D01*
X197623900Y-121036634D01*
X197642467Y-121001898D01*
X197667453Y-120971453D01*
X197697898Y-120946467D01*
X197732634Y-120927900D01*
X197770327Y-120916466D01*
X197815662Y-120912001D01*
X198652340Y-120912001D01*
X198697675Y-120916466D01*
X198697675Y-120916466D01*
G37*
G36*
X214309000Y-121839000D02*
G01*
X212207000Y-121839000D01*
X212207000Y-117937000D01*
X214309000Y-117937000D01*
X214309000Y-121839000D01*
X214309000Y-121839000D01*
G37*
G36*
X238279125Y-118318689D02*
G01*
X238418324Y-118346377D01*
X238521224Y-118389000D01*
X238680568Y-118455002D01*
X238916583Y-118612702D01*
X239117298Y-118813417D01*
X239274998Y-119049432D01*
X239383623Y-119311677D01*
X239439000Y-119590073D01*
X239439000Y-119873927D01*
X239383623Y-120152323D01*
X239274998Y-120414568D01*
X239117298Y-120650583D01*
X238916583Y-120851298D01*
X238680568Y-121008998D01*
X238606608Y-121039633D01*
X238418324Y-121117623D01*
X238279125Y-121145312D01*
X238139927Y-121173000D01*
X237856073Y-121173000D01*
X237716875Y-121145312D01*
X237577676Y-121117623D01*
X237389392Y-121039633D01*
X237315432Y-121008998D01*
X237079417Y-120851298D01*
X236878702Y-120650583D01*
X236721002Y-120414568D01*
X236612377Y-120152323D01*
X236557000Y-119873927D01*
X236557000Y-119590073D01*
X236612377Y-119311677D01*
X236721002Y-119049432D01*
X236878702Y-118813417D01*
X237079417Y-118612702D01*
X237315432Y-118455002D01*
X237474776Y-118389000D01*
X237577676Y-118346377D01*
X237716875Y-118318689D01*
X237856073Y-118291000D01*
X238139927Y-118291000D01*
X238279125Y-118318689D01*
X238279125Y-118318689D01*
G37*
G36*
X248199125Y-118318689D02*
G01*
X248338324Y-118346377D01*
X248441224Y-118389000D01*
X248600568Y-118455002D01*
X248836583Y-118612702D01*
X249037298Y-118813417D01*
X249194998Y-119049432D01*
X249303623Y-119311677D01*
X249359000Y-119590073D01*
X249359000Y-119873927D01*
X249303623Y-120152323D01*
X249194998Y-120414568D01*
X249037298Y-120650583D01*
X248836583Y-120851298D01*
X248600568Y-121008998D01*
X248526608Y-121039633D01*
X248338324Y-121117623D01*
X248199125Y-121145312D01*
X248059927Y-121173000D01*
X247776073Y-121173000D01*
X247636875Y-121145312D01*
X247497676Y-121117623D01*
X247309392Y-121039633D01*
X247235432Y-121008998D01*
X246999417Y-120851298D01*
X246798702Y-120650583D01*
X246641002Y-120414568D01*
X246532377Y-120152323D01*
X246477000Y-119873927D01*
X246477000Y-119590073D01*
X246532377Y-119311677D01*
X246641002Y-119049432D01*
X246798702Y-118813417D01*
X246999417Y-118612702D01*
X247235432Y-118455002D01*
X247394776Y-118389000D01*
X247497676Y-118346377D01*
X247636875Y-118318689D01*
X247776073Y-118291000D01*
X248059927Y-118291000D01*
X248199125Y-118318689D01*
X248199125Y-118318689D01*
G37*
G36*
X220609000Y-120689000D02*
G01*
X218507000Y-120689000D01*
X218507000Y-119087000D01*
X220609000Y-119087000D01*
X220609000Y-120689000D01*
X220609000Y-120689000D01*
G37*
G36*
X220609000Y-118389000D02*
G01*
X218507000Y-118389000D01*
X218507000Y-116787000D01*
X220609000Y-116787000D01*
X220609000Y-118389000D01*
X220609000Y-118389000D01*
G37*
G36*
X248199125Y-114918688D02*
G01*
X248338324Y-114946377D01*
X248446949Y-114991371D01*
X248600568Y-115055002D01*
X248836583Y-115212702D01*
X249037298Y-115413417D01*
X249194998Y-115649432D01*
X249258629Y-115803051D01*
X249303623Y-115911676D01*
X249359000Y-116190074D01*
X249359000Y-116473926D01*
X249303623Y-116752324D01*
X249258629Y-116860949D01*
X249194998Y-117014568D01*
X249037298Y-117250583D01*
X248836583Y-117451298D01*
X248600568Y-117608998D01*
X248446949Y-117672629D01*
X248338324Y-117717623D01*
X248199125Y-117745311D01*
X248059927Y-117773000D01*
X247776073Y-117773000D01*
X247636875Y-117745311D01*
X247497676Y-117717623D01*
X247389051Y-117672629D01*
X247235432Y-117608998D01*
X246999417Y-117451298D01*
X246798702Y-117250583D01*
X246641002Y-117014568D01*
X246577371Y-116860949D01*
X246532377Y-116752324D01*
X246477000Y-116473926D01*
X246477000Y-116190074D01*
X246532377Y-115911676D01*
X246577371Y-115803051D01*
X246641002Y-115649432D01*
X246798702Y-115413417D01*
X246999417Y-115212702D01*
X247235432Y-115055002D01*
X247389051Y-114991371D01*
X247497676Y-114946377D01*
X247636875Y-114918688D01*
X247776073Y-114891000D01*
X248059927Y-114891000D01*
X248199125Y-114918688D01*
X248199125Y-114918688D01*
G37*
G36*
X238279125Y-114918688D02*
G01*
X238418324Y-114946377D01*
X238526949Y-114991371D01*
X238680568Y-115055002D01*
X238916583Y-115212702D01*
X239117298Y-115413417D01*
X239274998Y-115649432D01*
X239338629Y-115803051D01*
X239383623Y-115911676D01*
X239439000Y-116190074D01*
X239439000Y-116473926D01*
X239383623Y-116752324D01*
X239338629Y-116860949D01*
X239274998Y-117014568D01*
X239117298Y-117250583D01*
X238916583Y-117451298D01*
X238680568Y-117608998D01*
X238526949Y-117672629D01*
X238418324Y-117717623D01*
X238279125Y-117745311D01*
X238139927Y-117773000D01*
X237856073Y-117773000D01*
X237716875Y-117745311D01*
X237577676Y-117717623D01*
X237469051Y-117672629D01*
X237315432Y-117608998D01*
X237079417Y-117451298D01*
X236878702Y-117250583D01*
X236721002Y-117014568D01*
X236657371Y-116860949D01*
X236612377Y-116752324D01*
X236557000Y-116473926D01*
X236557000Y-116190074D01*
X236612377Y-115911676D01*
X236657371Y-115803051D01*
X236721002Y-115649432D01*
X236878702Y-115413417D01*
X237079417Y-115212702D01*
X237315432Y-115055002D01*
X237469051Y-114991371D01*
X237577676Y-114946377D01*
X237716875Y-114918688D01*
X237856073Y-114891000D01*
X238139927Y-114891000D01*
X238279125Y-114918688D01*
X238279125Y-114918688D01*
G37*
G36*
X197986000Y-115977000D02*
G01*
X196984000Y-115977000D01*
X196984000Y-113875000D01*
X197986000Y-113875000D01*
X197986000Y-115977000D01*
X197986000Y-115977000D01*
G37*
G36*
X195446000Y-115977000D02*
G01*
X194444000Y-115977000D01*
X194444000Y-113875000D01*
X195446000Y-113875000D01*
X195446000Y-115977000D01*
X195446000Y-115977000D01*
G37*
G36*
X194176000Y-115977000D02*
G01*
X193174000Y-115977000D01*
X193174000Y-113875000D01*
X194176000Y-113875000D01*
X194176000Y-115977000D01*
X194176000Y-115977000D01*
G37*
G36*
X192906000Y-115977000D02*
G01*
X191904000Y-115977000D01*
X191904000Y-113875000D01*
X192906000Y-113875000D01*
X192906000Y-115977000D01*
X192906000Y-115977000D01*
G37*
G36*
X191636000Y-115977000D02*
G01*
X190634000Y-115977000D01*
X190634000Y-113875000D01*
X191636000Y-113875000D01*
X191636000Y-115977000D01*
X191636000Y-115977000D01*
G37*
G36*
X190366000Y-115977000D02*
G01*
X189364000Y-115977000D01*
X189364000Y-113875000D01*
X190366000Y-113875000D01*
X190366000Y-115977000D01*
X190366000Y-115977000D01*
G37*
G36*
X189096000Y-115977000D02*
G01*
X188094000Y-115977000D01*
X188094000Y-113875000D01*
X189096000Y-113875000D01*
X189096000Y-115977000D01*
X189096000Y-115977000D01*
G37*
G36*
X186556000Y-115977000D02*
G01*
X185554000Y-115977000D01*
X185554000Y-113875000D01*
X186556000Y-113875000D01*
X186556000Y-115977000D01*
X186556000Y-115977000D01*
G37*
G36*
X185286000Y-115977000D02*
G01*
X184284000Y-115977000D01*
X184284000Y-113875000D01*
X185286000Y-113875000D01*
X185286000Y-115977000D01*
X185286000Y-115977000D01*
G37*
G36*
X199256000Y-115977000D02*
G01*
X198254000Y-115977000D01*
X198254000Y-113875000D01*
X199256000Y-113875000D01*
X199256000Y-115977000D01*
X199256000Y-115977000D01*
G37*
G36*
X201796000Y-115977000D02*
G01*
X200794000Y-115977000D01*
X200794000Y-113875000D01*
X201796000Y-113875000D01*
X201796000Y-115977000D01*
X201796000Y-115977000D01*
G37*
G36*
X200526000Y-115977000D02*
G01*
X199524000Y-115977000D01*
X199524000Y-113875000D01*
X200526000Y-113875000D01*
X200526000Y-115977000D01*
X200526000Y-115977000D01*
G37*
G36*
X196716000Y-115977000D02*
G01*
X195714000Y-115977000D01*
X195714000Y-113875000D01*
X196716000Y-113875000D01*
X196716000Y-115977000D01*
X196716000Y-115977000D01*
G37*
G36*
X187826000Y-115977000D02*
G01*
X186824000Y-115977000D01*
X186824000Y-113875000D01*
X187826000Y-113875000D01*
X187826000Y-115977000D01*
X187826000Y-115977000D01*
G37*
G36*
X222468674Y-114061465D02*
G01*
X222506367Y-114072899D01*
X222541103Y-114091466D01*
X222571548Y-114116452D01*
X222596534Y-114146897D01*
X222615101Y-114181633D01*
X222626535Y-114219326D01*
X222631000Y-114264661D01*
X222631000Y-115351339D01*
X222626535Y-115396674D01*
X222615101Y-115434367D01*
X222596534Y-115469103D01*
X222571548Y-115499548D01*
X222541103Y-115524534D01*
X222506367Y-115543101D01*
X222468674Y-115554535D01*
X222423339Y-115559000D01*
X221586661Y-115559000D01*
X221541326Y-115554535D01*
X221503633Y-115543101D01*
X221468897Y-115524534D01*
X221438452Y-115499548D01*
X221413466Y-115469103D01*
X221394899Y-115434367D01*
X221383465Y-115396674D01*
X221379000Y-115351339D01*
X221379000Y-114264661D01*
X221383465Y-114219326D01*
X221394899Y-114181633D01*
X221413466Y-114146897D01*
X221438452Y-114116452D01*
X221468897Y-114091466D01*
X221503633Y-114072899D01*
X221541326Y-114061465D01*
X221586661Y-114057000D01*
X222423339Y-114057000D01*
X222468674Y-114061465D01*
X222468674Y-114061465D01*
G37*
G36*
X220418674Y-114061465D02*
G01*
X220456367Y-114072899D01*
X220491103Y-114091466D01*
X220521548Y-114116452D01*
X220546534Y-114146897D01*
X220565101Y-114181633D01*
X220576535Y-114219326D01*
X220581000Y-114264661D01*
X220581000Y-115351339D01*
X220576535Y-115396674D01*
X220565101Y-115434367D01*
X220546534Y-115469103D01*
X220521548Y-115499548D01*
X220491103Y-115524534D01*
X220456367Y-115543101D01*
X220418674Y-115554535D01*
X220373339Y-115559000D01*
X219536661Y-115559000D01*
X219491326Y-115554535D01*
X219453633Y-115543101D01*
X219418897Y-115524534D01*
X219388452Y-115499548D01*
X219363466Y-115469103D01*
X219344899Y-115434367D01*
X219333465Y-115396674D01*
X219329000Y-115351339D01*
X219329000Y-114264661D01*
X219333465Y-114219326D01*
X219344899Y-114181633D01*
X219363466Y-114146897D01*
X219388452Y-114116452D01*
X219418897Y-114091466D01*
X219453633Y-114072899D01*
X219491326Y-114061465D01*
X219536661Y-114057000D01*
X220373339Y-114057000D01*
X220418674Y-114061465D01*
X220418674Y-114061465D01*
G37*
G36*
X209318000Y-113129000D02*
G01*
X208766000Y-113129000D01*
X208766000Y-111527000D01*
X209318000Y-111527000D01*
X209318000Y-113129000D01*
X209318000Y-113129000D01*
G37*
G36*
X220552674Y-111401465D02*
G01*
X220590367Y-111412899D01*
X220625103Y-111431466D01*
X220655548Y-111456452D01*
X220680534Y-111486897D01*
X220699101Y-111521633D01*
X220710535Y-111559326D01*
X220715000Y-111604661D01*
X220715000Y-112441339D01*
X220710535Y-112486674D01*
X220699101Y-112524367D01*
X220680534Y-112559103D01*
X220655548Y-112589548D01*
X220625103Y-112614534D01*
X220590367Y-112633101D01*
X220552674Y-112644535D01*
X220507339Y-112649000D01*
X219420661Y-112649000D01*
X219375326Y-112644535D01*
X219337633Y-112633101D01*
X219302897Y-112614534D01*
X219272452Y-112589548D01*
X219247466Y-112559103D01*
X219228899Y-112524367D01*
X219217465Y-112486674D01*
X219213000Y-112441339D01*
X219213000Y-111604661D01*
X219217465Y-111559326D01*
X219228899Y-111521633D01*
X219247466Y-111486897D01*
X219272452Y-111456452D01*
X219302897Y-111431466D01*
X219337633Y-111412899D01*
X219375326Y-111401465D01*
X219420661Y-111397000D01*
X220507339Y-111397000D01*
X220552674Y-111401465D01*
X220552674Y-111401465D01*
G37*
G36*
X203346000Y-112642000D02*
G01*
X201244000Y-112642000D01*
X201244000Y-111640000D01*
X203346000Y-111640000D01*
X203346000Y-112642000D01*
X203346000Y-112642000D01*
G37*
G36*
X203346000Y-111372000D02*
G01*
X201244000Y-111372000D01*
X201244000Y-110370000D01*
X203346000Y-110370000D01*
X203346000Y-111372000D01*
X203346000Y-111372000D01*
G37*
G36*
X245114031Y-108076621D02*
G01*
X245143486Y-108085556D01*
X245170623Y-108100062D01*
X245194414Y-108119586D01*
X245213938Y-108143377D01*
X245228444Y-108170514D01*
X245237379Y-108199969D01*
X245241000Y-108236734D01*
X245241000Y-110711266D01*
X245237379Y-110748031D01*
X245228444Y-110777486D01*
X245213938Y-110804623D01*
X245194414Y-110828414D01*
X245170623Y-110847938D01*
X245143486Y-110862444D01*
X245114031Y-110871379D01*
X245077266Y-110875000D01*
X242602734Y-110875000D01*
X242565969Y-110871379D01*
X242536514Y-110862444D01*
X242509377Y-110847938D01*
X242485586Y-110828414D01*
X242466062Y-110804623D01*
X242451556Y-110777486D01*
X242442621Y-110748031D01*
X242439000Y-110711266D01*
X242439000Y-108236734D01*
X242442621Y-108199969D01*
X242451556Y-108170514D01*
X242466062Y-108143377D01*
X242485586Y-108119586D01*
X242509377Y-108100062D01*
X242536514Y-108085556D01*
X242565969Y-108076621D01*
X242602734Y-108073000D01*
X245077266Y-108073000D01*
X245114031Y-108076621D01*
X245114031Y-108076621D01*
G37*
G36*
X220552674Y-109351465D02*
G01*
X220590367Y-109362899D01*
X220625103Y-109381466D01*
X220655548Y-109406452D01*
X220680534Y-109436897D01*
X220699101Y-109471633D01*
X220710535Y-109509326D01*
X220715000Y-109554661D01*
X220715000Y-110391339D01*
X220710535Y-110436674D01*
X220699101Y-110474367D01*
X220680534Y-110509103D01*
X220655548Y-110539548D01*
X220625103Y-110564534D01*
X220590367Y-110583101D01*
X220552674Y-110594535D01*
X220507339Y-110599000D01*
X219420661Y-110599000D01*
X219375326Y-110594535D01*
X219337633Y-110583101D01*
X219302897Y-110564534D01*
X219272452Y-110539548D01*
X219247466Y-110509103D01*
X219228899Y-110474367D01*
X219217465Y-110436674D01*
X219213000Y-110391339D01*
X219213000Y-109554661D01*
X219217465Y-109509326D01*
X219228899Y-109471633D01*
X219247466Y-109436897D01*
X219272452Y-109406452D01*
X219302897Y-109381466D01*
X219337633Y-109362899D01*
X219375326Y-109351465D01*
X219420661Y-109347000D01*
X220507339Y-109347000D01*
X220552674Y-109351465D01*
X220552674Y-109351465D01*
G37*
G36*
X208668000Y-110469000D02*
G01*
X208116000Y-110469000D01*
X208116000Y-108867000D01*
X208668000Y-108867000D01*
X208668000Y-110469000D01*
X208668000Y-110469000D01*
G37*
G36*
X209968000Y-110469000D02*
G01*
X209416000Y-110469000D01*
X209416000Y-108867000D01*
X209968000Y-108867000D01*
X209968000Y-110469000D01*
X209968000Y-110469000D01*
G37*
G36*
X228823500Y-110358000D02*
G01*
X227196500Y-110358000D01*
X227196500Y-109606000D01*
X228823500Y-109606000D01*
X228823500Y-110358000D01*
X228823500Y-110358000D01*
G37*
G36*
X223399500Y-110358000D02*
G01*
X221772500Y-110358000D01*
X221772500Y-109606000D01*
X223399500Y-109606000D01*
X223399500Y-110358000D01*
X223399500Y-110358000D01*
G37*
G36*
X203346000Y-110102000D02*
G01*
X201244000Y-110102000D01*
X201244000Y-109100000D01*
X203346000Y-109100000D01*
X203346000Y-110102000D01*
X203346000Y-110102000D01*
G37*
G36*
X194836000Y-109977000D02*
G01*
X189734000Y-109977000D01*
X189734000Y-104875000D01*
X194836000Y-104875000D01*
X194836000Y-109977000D01*
X194836000Y-109977000D01*
G37*
G36*
X223399500Y-109088000D02*
G01*
X221772500Y-109088000D01*
X221772500Y-108336000D01*
X223399500Y-108336000D01*
X223399500Y-109088000D01*
X223399500Y-109088000D01*
G37*
G36*
X228823500Y-109088000D02*
G01*
X227196500Y-109088000D01*
X227196500Y-108336000D01*
X228823500Y-108336000D01*
X228823500Y-109088000D01*
X228823500Y-109088000D01*
G37*
G36*
X203346000Y-108832000D02*
G01*
X201244000Y-108832000D01*
X201244000Y-107830000D01*
X203346000Y-107830000D01*
X203346000Y-108832000D01*
X203346000Y-108832000D01*
G37*
G36*
X218702199Y-105733954D02*
G01*
X218714450Y-105734556D01*
X218732869Y-105734556D01*
X218755149Y-105736750D01*
X218839233Y-105753476D01*
X218860660Y-105759976D01*
X218939858Y-105792780D01*
X218945303Y-105795691D01*
X218945309Y-105795693D01*
X218954169Y-105800429D01*
X218954173Y-105800432D01*
X218959614Y-105803340D01*
X219030899Y-105850971D01*
X219048204Y-105865172D01*
X219108828Y-105925796D01*
X219123029Y-105943101D01*
X219170660Y-106014386D01*
X219173568Y-106019827D01*
X219173571Y-106019831D01*
X219178307Y-106028691D01*
X219178309Y-106028697D01*
X219181220Y-106034142D01*
X219214024Y-106113340D01*
X219220524Y-106134767D01*
X219237250Y-106218851D01*
X219239444Y-106241131D01*
X219239444Y-106259550D01*
X219240046Y-106271801D01*
X219241852Y-106290139D01*
X219241852Y-106777860D01*
X219240263Y-106793999D01*
X219237348Y-106803608D01*
X219232610Y-106812472D01*
X219226237Y-106820237D01*
X219213794Y-106830448D01*
X219203425Y-106837378D01*
X219186098Y-106854705D01*
X219172485Y-106875080D01*
X219163109Y-106897720D01*
X219158329Y-106921753D01*
X219158330Y-106946257D01*
X219163112Y-106970290D01*
X219172490Y-106992929D01*
X219186105Y-107013302D01*
X219203432Y-107030629D01*
X219213802Y-107037558D01*
X219226237Y-107047763D01*
X219232610Y-107055528D01*
X219237348Y-107064392D01*
X219240263Y-107074001D01*
X219241852Y-107090140D01*
X219241852Y-107577862D01*
X219240046Y-107596199D01*
X219239444Y-107608450D01*
X219239444Y-107626869D01*
X219237250Y-107649149D01*
X219220524Y-107733233D01*
X219214024Y-107754660D01*
X219181220Y-107833858D01*
X219178309Y-107839303D01*
X219178307Y-107839309D01*
X219173571Y-107848169D01*
X219173568Y-107848173D01*
X219170660Y-107853614D01*
X219123029Y-107924899D01*
X219108828Y-107942204D01*
X219048204Y-108002828D01*
X219030899Y-108017029D01*
X218959614Y-108064660D01*
X218954173Y-108067568D01*
X218954169Y-108067571D01*
X218945309Y-108072307D01*
X218945303Y-108072309D01*
X218939858Y-108075220D01*
X218860660Y-108108024D01*
X218839233Y-108114524D01*
X218755149Y-108131250D01*
X218732869Y-108133444D01*
X218714450Y-108133444D01*
X218702199Y-108134046D01*
X218683862Y-108135852D01*
X218196138Y-108135852D01*
X218177801Y-108134046D01*
X218165550Y-108133444D01*
X218147131Y-108133444D01*
X218124851Y-108131250D01*
X218040767Y-108114524D01*
X218019340Y-108108024D01*
X217940142Y-108075220D01*
X217934697Y-108072309D01*
X217934691Y-108072307D01*
X217925831Y-108067571D01*
X217925827Y-108067568D01*
X217920386Y-108064660D01*
X217849101Y-108017029D01*
X217831796Y-108002828D01*
X217771172Y-107942204D01*
X217756971Y-107924899D01*
X217709340Y-107853614D01*
X217706432Y-107848173D01*
X217706429Y-107848169D01*
X217701693Y-107839309D01*
X217701691Y-107839303D01*
X217698780Y-107833858D01*
X217665976Y-107754660D01*
X217659476Y-107733233D01*
X217642750Y-107649149D01*
X217640556Y-107626869D01*
X217640556Y-107608450D01*
X217639954Y-107596199D01*
X217638148Y-107577862D01*
X217638148Y-107090140D01*
X217639737Y-107074001D01*
X217642652Y-107064392D01*
X217647390Y-107055528D01*
X217653763Y-107047763D01*
X217666206Y-107037552D01*
X217676575Y-107030622D01*
X217693902Y-107013295D01*
X217707515Y-106992920D01*
X217716891Y-106970280D01*
X217721671Y-106946247D01*
X217721670Y-106921743D01*
X217716888Y-106897710D01*
X217707510Y-106875071D01*
X217693895Y-106854698D01*
X217676568Y-106837371D01*
X217666198Y-106830442D01*
X217653763Y-106820237D01*
X217647390Y-106812472D01*
X217642652Y-106803608D01*
X217639737Y-106793999D01*
X217638148Y-106777860D01*
X217638148Y-106290139D01*
X217639954Y-106271801D01*
X217640556Y-106259550D01*
X217640556Y-106241131D01*
X217642750Y-106218851D01*
X217659476Y-106134767D01*
X217665976Y-106113340D01*
X217698780Y-106034142D01*
X217701691Y-106028697D01*
X217701693Y-106028691D01*
X217706429Y-106019831D01*
X217706432Y-106019827D01*
X217709340Y-106014386D01*
X217756971Y-105943101D01*
X217771172Y-105925796D01*
X217831796Y-105865172D01*
X217849101Y-105850971D01*
X217920386Y-105803340D01*
X217925827Y-105800432D01*
X217925831Y-105800429D01*
X217934691Y-105795693D01*
X217934697Y-105795691D01*
X217940142Y-105792780D01*
X218019340Y-105759976D01*
X218040767Y-105753476D01*
X218124851Y-105736750D01*
X218147131Y-105734556D01*
X218165550Y-105734556D01*
X218177801Y-105733954D01*
X218196139Y-105732148D01*
X218683861Y-105732148D01*
X218702199Y-105733954D01*
X218702199Y-105733954D01*
G37*
G36*
X228823500Y-107818000D02*
G01*
X227196500Y-107818000D01*
X227196500Y-107066000D01*
X228823500Y-107066000D01*
X228823500Y-107818000D01*
X228823500Y-107818000D01*
G37*
G36*
X223399500Y-107818000D02*
G01*
X221772500Y-107818000D01*
X221772500Y-107066000D01*
X223399500Y-107066000D01*
X223399500Y-107818000D01*
X223399500Y-107818000D01*
G37*
G36*
X212170674Y-106321465D02*
G01*
X212208367Y-106332899D01*
X212243103Y-106351466D01*
X212273548Y-106376452D01*
X212298534Y-106406897D01*
X212317101Y-106441633D01*
X212328535Y-106479326D01*
X212333000Y-106524661D01*
X212333000Y-107361339D01*
X212328535Y-107406674D01*
X212317101Y-107444367D01*
X212298534Y-107479103D01*
X212273548Y-107509548D01*
X212243103Y-107534534D01*
X212208367Y-107553101D01*
X212170674Y-107564535D01*
X212125339Y-107569000D01*
X211038661Y-107569000D01*
X210993326Y-107564535D01*
X210955633Y-107553101D01*
X210920897Y-107534534D01*
X210890452Y-107509548D01*
X210865466Y-107479103D01*
X210846899Y-107444367D01*
X210835465Y-107406674D01*
X210831000Y-107361339D01*
X210831000Y-106524661D01*
X210835465Y-106479326D01*
X210846899Y-106441633D01*
X210865466Y-106406897D01*
X210890452Y-106376452D01*
X210920897Y-106351466D01*
X210955633Y-106332899D01*
X210993326Y-106321465D01*
X211038661Y-106317000D01*
X212125339Y-106317000D01*
X212170674Y-106321465D01*
X212170674Y-106321465D01*
G37*
G36*
X203346000Y-107562000D02*
G01*
X201244000Y-107562000D01*
X201244000Y-106560000D01*
X203346000Y-106560000D01*
X203346000Y-107562000D01*
X203346000Y-107562000D01*
G37*
G36*
X244158433Y-104148893D02*
G01*
X244248657Y-104166839D01*
X244354267Y-104210585D01*
X244503621Y-104272449D01*
X244547048Y-104301466D01*
X244733086Y-104425772D01*
X244928228Y-104620914D01*
X245030675Y-104774237D01*
X245081551Y-104850379D01*
X245187161Y-105105344D01*
X245215304Y-105246827D01*
X245241000Y-105376014D01*
X245241000Y-105651986D01*
X245187161Y-105922657D01*
X245149165Y-106014386D01*
X245081551Y-106177621D01*
X245039115Y-106241131D01*
X244928228Y-106407086D01*
X244733086Y-106602228D01*
X244579763Y-106704675D01*
X244503621Y-106755551D01*
X244354267Y-106817415D01*
X244248657Y-106861161D01*
X244178680Y-106875080D01*
X243977988Y-106915000D01*
X243702012Y-106915000D01*
X243501320Y-106875080D01*
X243431343Y-106861161D01*
X243325733Y-106817415D01*
X243176379Y-106755551D01*
X243100237Y-106704675D01*
X242946914Y-106602228D01*
X242751772Y-106407086D01*
X242640885Y-106241131D01*
X242598449Y-106177621D01*
X242530835Y-106014386D01*
X242492839Y-105922657D01*
X242439000Y-105651986D01*
X242439000Y-105376014D01*
X242464697Y-105246827D01*
X242492839Y-105105344D01*
X242598449Y-104850379D01*
X242649325Y-104774237D01*
X242751772Y-104620914D01*
X242946914Y-104425772D01*
X243132952Y-104301466D01*
X243176379Y-104272449D01*
X243325733Y-104210585D01*
X243431343Y-104166839D01*
X243521567Y-104148893D01*
X243702012Y-104113000D01*
X243977988Y-104113000D01*
X244158433Y-104148893D01*
X244158433Y-104148893D01*
G37*
G36*
X228823500Y-106548000D02*
G01*
X227196500Y-106548000D01*
X227196500Y-105796000D01*
X228823500Y-105796000D01*
X228823500Y-106548000D01*
X228823500Y-106548000D01*
G37*
G36*
X223399500Y-106548000D02*
G01*
X221772500Y-106548000D01*
X221772500Y-105796000D01*
X223399500Y-105796000D01*
X223399500Y-106548000D01*
X223399500Y-106548000D01*
G37*
G36*
X203346000Y-106292000D02*
G01*
X201244000Y-106292000D01*
X201244000Y-105290000D01*
X203346000Y-105290000D01*
X203346000Y-106292000D01*
X203346000Y-106292000D01*
G37*
G36*
X212170674Y-104271465D02*
G01*
X212208367Y-104282899D01*
X212243103Y-104301466D01*
X212273548Y-104326452D01*
X212298534Y-104356897D01*
X212317101Y-104391633D01*
X212328535Y-104429326D01*
X212333000Y-104474661D01*
X212333000Y-105311339D01*
X212328535Y-105356674D01*
X212317101Y-105394367D01*
X212298534Y-105429103D01*
X212273548Y-105459548D01*
X212243103Y-105484534D01*
X212208367Y-105503101D01*
X212170674Y-105514535D01*
X212125339Y-105519000D01*
X211038661Y-105519000D01*
X210993326Y-105514535D01*
X210955633Y-105503101D01*
X210920897Y-105484534D01*
X210890452Y-105459548D01*
X210865466Y-105429103D01*
X210846899Y-105394367D01*
X210835465Y-105356674D01*
X210831000Y-105311339D01*
X210831000Y-104474661D01*
X210835465Y-104429326D01*
X210846899Y-104391633D01*
X210865466Y-104356897D01*
X210890452Y-104326452D01*
X210920897Y-104301466D01*
X210955633Y-104282899D01*
X210993326Y-104271465D01*
X211038661Y-104267000D01*
X212125339Y-104267000D01*
X212170674Y-104271465D01*
X212170674Y-104271465D01*
G37*
G36*
X228823500Y-105278000D02*
G01*
X227196500Y-105278000D01*
X227196500Y-104526000D01*
X228823500Y-104526000D01*
X228823500Y-105278000D01*
X228823500Y-105278000D01*
G37*
G36*
X223399500Y-105278000D02*
G01*
X221772500Y-105278000D01*
X221772500Y-104526000D01*
X223399500Y-104526000D01*
X223399500Y-105278000D01*
X223399500Y-105278000D01*
G37*
G36*
X203346000Y-105022000D02*
G01*
X201244000Y-105022000D01*
X201244000Y-104020000D01*
X203346000Y-104020000D01*
X203346000Y-105022000D01*
X203346000Y-105022000D01*
G37*
G36*
X228823500Y-104008000D02*
G01*
X227196500Y-104008000D01*
X227196500Y-103256000D01*
X228823500Y-103256000D01*
X228823500Y-104008000D01*
X228823500Y-104008000D01*
G37*
G36*
X223399500Y-104008000D02*
G01*
X221772500Y-104008000D01*
X221772500Y-103256000D01*
X223399500Y-103256000D01*
X223399500Y-104008000D01*
X223399500Y-104008000D01*
G37*
G36*
X203346000Y-103752000D02*
G01*
X201244000Y-103752000D01*
X201244000Y-102750000D01*
X203346000Y-102750000D01*
X203346000Y-103752000D01*
X203346000Y-103752000D01*
G37*
G36*
X218804499Y-102411445D02*
G01*
X218841995Y-102422820D01*
X218876554Y-102441292D01*
X218906847Y-102466153D01*
X218931708Y-102496446D01*
X218950180Y-102531005D01*
X218961555Y-102568501D01*
X218966000Y-102613638D01*
X218966000Y-103352362D01*
X218961555Y-103397499D01*
X218950180Y-103434995D01*
X218931708Y-103469554D01*
X218906847Y-103499847D01*
X218876554Y-103524708D01*
X218841995Y-103543180D01*
X218804499Y-103554555D01*
X218759362Y-103559000D01*
X218120638Y-103559000D01*
X218075501Y-103554555D01*
X218038005Y-103543180D01*
X218003446Y-103524708D01*
X217973153Y-103499847D01*
X217948292Y-103469554D01*
X217929820Y-103434995D01*
X217918445Y-103397499D01*
X217914000Y-103352362D01*
X217914000Y-102613638D01*
X217918445Y-102568501D01*
X217929820Y-102531005D01*
X217948292Y-102496446D01*
X217973153Y-102466153D01*
X218003446Y-102441292D01*
X218038005Y-102422820D01*
X218075501Y-102411445D01*
X218120638Y-102407000D01*
X218759362Y-102407000D01*
X218804499Y-102411445D01*
X218804499Y-102411445D01*
G37*
G36*
X223399500Y-102738000D02*
G01*
X221772500Y-102738000D01*
X221772500Y-101986000D01*
X223399500Y-101986000D01*
X223399500Y-102738000D01*
X223399500Y-102738000D01*
G37*
G36*
X228823500Y-102738000D02*
G01*
X227196500Y-102738000D01*
X227196500Y-101986000D01*
X228823500Y-101986000D01*
X228823500Y-102738000D01*
X228823500Y-102738000D01*
G37*
G36*
X203346000Y-102482000D02*
G01*
X201244000Y-102482000D01*
X201244000Y-101480000D01*
X203346000Y-101480000D01*
X203346000Y-102482000D01*
X203346000Y-102482000D01*
G37*
G36*
X218804499Y-100661445D02*
G01*
X218841995Y-100672820D01*
X218876554Y-100691292D01*
X218906847Y-100716153D01*
X218931708Y-100746446D01*
X218950180Y-100781005D01*
X218961555Y-100818501D01*
X218966000Y-100863638D01*
X218966000Y-101602362D01*
X218961555Y-101647499D01*
X218950180Y-101684995D01*
X218931708Y-101719554D01*
X218906847Y-101749847D01*
X218876554Y-101774708D01*
X218841995Y-101793180D01*
X218804499Y-101804555D01*
X218759362Y-101809000D01*
X218120638Y-101809000D01*
X218075501Y-101804555D01*
X218038005Y-101793180D01*
X218003446Y-101774708D01*
X217973153Y-101749847D01*
X217948292Y-101719554D01*
X217929820Y-101684995D01*
X217918445Y-101647499D01*
X217914000Y-101602362D01*
X217914000Y-100863638D01*
X217918445Y-100818501D01*
X217929820Y-100781005D01*
X217948292Y-100746446D01*
X217973153Y-100716153D01*
X218003446Y-100691292D01*
X218038005Y-100672820D01*
X218075501Y-100661445D01*
X218120638Y-100657000D01*
X218759362Y-100657000D01*
X218804499Y-100661445D01*
X218804499Y-100661445D01*
G37*
G36*
X211038674Y-100091465D02*
G01*
X211076367Y-100102899D01*
X211111103Y-100121466D01*
X211141548Y-100146452D01*
X211166534Y-100176897D01*
X211185101Y-100211633D01*
X211196535Y-100249326D01*
X211201000Y-100294661D01*
X211201000Y-101381339D01*
X211196535Y-101426674D01*
X211185101Y-101464367D01*
X211166534Y-101499103D01*
X211141548Y-101529548D01*
X211111103Y-101554534D01*
X211076367Y-101573101D01*
X211038674Y-101584535D01*
X210993339Y-101589000D01*
X210156661Y-101589000D01*
X210111326Y-101584535D01*
X210073633Y-101573101D01*
X210038897Y-101554534D01*
X210008452Y-101529548D01*
X209983466Y-101499103D01*
X209964899Y-101464367D01*
X209953465Y-101426674D01*
X209949000Y-101381339D01*
X209949000Y-100294661D01*
X209953465Y-100249326D01*
X209964899Y-100211633D01*
X209983466Y-100176897D01*
X210008452Y-100146452D01*
X210038897Y-100121466D01*
X210073633Y-100102899D01*
X210111326Y-100091465D01*
X210156661Y-100087000D01*
X210993339Y-100087000D01*
X211038674Y-100091465D01*
X211038674Y-100091465D01*
G37*
G36*
X208988674Y-100091465D02*
G01*
X209026367Y-100102899D01*
X209061103Y-100121466D01*
X209091548Y-100146452D01*
X209116534Y-100176897D01*
X209135101Y-100211633D01*
X209146535Y-100249326D01*
X209151000Y-100294661D01*
X209151000Y-101381339D01*
X209146535Y-101426674D01*
X209135101Y-101464367D01*
X209116534Y-101499103D01*
X209091548Y-101529548D01*
X209061103Y-101554534D01*
X209026367Y-101573101D01*
X208988674Y-101584535D01*
X208943339Y-101589000D01*
X208106661Y-101589000D01*
X208061326Y-101584535D01*
X208023633Y-101573101D01*
X207988897Y-101554534D01*
X207958452Y-101529548D01*
X207933466Y-101499103D01*
X207914899Y-101464367D01*
X207903465Y-101426674D01*
X207899000Y-101381339D01*
X207899000Y-100294661D01*
X207903465Y-100249326D01*
X207914899Y-100211633D01*
X207933466Y-100176897D01*
X207958452Y-100146452D01*
X207988897Y-100121466D01*
X208023633Y-100102899D01*
X208061326Y-100091465D01*
X208106661Y-100087000D01*
X208943339Y-100087000D01*
X208988674Y-100091465D01*
X208988674Y-100091465D01*
G37*
G36*
X214515000Y-101231000D02*
G01*
X212713000Y-101231000D01*
X212713000Y-99429000D01*
X214515000Y-99429000D01*
X214515000Y-101231000D01*
X214515000Y-101231000D01*
G37*
G36*
X203346000Y-101212000D02*
G01*
X201244000Y-101212000D01*
X201244000Y-100210000D01*
X203346000Y-100210000D01*
X203346000Y-101212000D01*
X203346000Y-101212000D01*
G37*
G36*
X185286000Y-98977000D02*
G01*
X184284000Y-98977000D01*
X184284000Y-96875000D01*
X185286000Y-96875000D01*
X185286000Y-98977000D01*
X185286000Y-98977000D01*
G37*
G36*
X186556000Y-98977000D02*
G01*
X185554000Y-98977000D01*
X185554000Y-96875000D01*
X186556000Y-96875000D01*
X186556000Y-98977000D01*
X186556000Y-98977000D01*
G37*
G36*
X187826000Y-98977000D02*
G01*
X186824000Y-98977000D01*
X186824000Y-96875000D01*
X187826000Y-96875000D01*
X187826000Y-98977000D01*
X187826000Y-98977000D01*
G37*
G36*
X200526000Y-98977000D02*
G01*
X199524000Y-98977000D01*
X199524000Y-96875000D01*
X200526000Y-96875000D01*
X200526000Y-98977000D01*
X200526000Y-98977000D01*
G37*
G36*
X190366000Y-98977000D02*
G01*
X189364000Y-98977000D01*
X189364000Y-96875000D01*
X190366000Y-96875000D01*
X190366000Y-98977000D01*
X190366000Y-98977000D01*
G37*
G36*
X191636000Y-98977000D02*
G01*
X190634000Y-98977000D01*
X190634000Y-96875000D01*
X191636000Y-96875000D01*
X191636000Y-98977000D01*
X191636000Y-98977000D01*
G37*
G36*
X192906000Y-98977000D02*
G01*
X191904000Y-98977000D01*
X191904000Y-96875000D01*
X192906000Y-96875000D01*
X192906000Y-98977000D01*
X192906000Y-98977000D01*
G37*
G36*
X195446000Y-98977000D02*
G01*
X194444000Y-98977000D01*
X194444000Y-96875000D01*
X195446000Y-96875000D01*
X195446000Y-98977000D01*
X195446000Y-98977000D01*
G37*
G36*
X196716000Y-98977000D02*
G01*
X195714000Y-98977000D01*
X195714000Y-96875000D01*
X196716000Y-96875000D01*
X196716000Y-98977000D01*
X196716000Y-98977000D01*
G37*
G36*
X199256000Y-98977000D02*
G01*
X198254000Y-98977000D01*
X198254000Y-96875000D01*
X199256000Y-96875000D01*
X199256000Y-98977000D01*
X199256000Y-98977000D01*
G37*
G36*
X201796000Y-98977000D02*
G01*
X200794000Y-98977000D01*
X200794000Y-96875000D01*
X201796000Y-96875000D01*
X201796000Y-98977000D01*
X201796000Y-98977000D01*
G37*
G36*
X189096000Y-98977000D02*
G01*
X188094000Y-98977000D01*
X188094000Y-96875000D01*
X189096000Y-96875000D01*
X189096000Y-98977000D01*
X189096000Y-98977000D01*
G37*
G36*
X197986000Y-98977000D02*
G01*
X196984000Y-98977000D01*
X196984000Y-96875000D01*
X197986000Y-96875000D01*
X197986000Y-98977000D01*
X197986000Y-98977000D01*
G37*
G36*
X194176000Y-98977000D02*
G01*
X193174000Y-98977000D01*
X193174000Y-96875000D01*
X194176000Y-96875000D01*
X194176000Y-98977000D01*
X194176000Y-98977000D01*
G37*
G36*
X210919000Y-98716000D02*
G01*
X209317000Y-98716000D01*
X209317000Y-98164000D01*
X210919000Y-98164000D01*
X210919000Y-98716000D01*
X210919000Y-98716000D01*
G37*
G36*
X213724442Y-96895518D02*
G01*
X213790627Y-96902037D01*
X213960466Y-96953557D01*
X214116991Y-97037222D01*
X214152729Y-97066552D01*
X214254186Y-97149814D01*
X214337448Y-97251271D01*
X214366778Y-97287009D01*
X214450443Y-97443534D01*
X214501963Y-97613373D01*
X214519359Y-97790000D01*
X214501963Y-97966627D01*
X214450443Y-98136466D01*
X214366778Y-98292991D01*
X214337448Y-98328729D01*
X214254186Y-98430186D01*
X214152729Y-98513448D01*
X214116991Y-98542778D01*
X213960466Y-98626443D01*
X213790627Y-98677963D01*
X213724442Y-98684482D01*
X213658260Y-98691000D01*
X213569740Y-98691000D01*
X213503558Y-98684482D01*
X213437373Y-98677963D01*
X213267534Y-98626443D01*
X213111009Y-98542778D01*
X213075271Y-98513448D01*
X212973814Y-98430186D01*
X212890552Y-98328729D01*
X212861222Y-98292991D01*
X212777557Y-98136466D01*
X212726037Y-97966627D01*
X212708641Y-97790000D01*
X212726037Y-97613373D01*
X212777557Y-97443534D01*
X212861222Y-97287009D01*
X212890552Y-97251271D01*
X212973814Y-97149814D01*
X213075271Y-97066552D01*
X213111009Y-97037222D01*
X213267534Y-96953557D01*
X213437373Y-96902037D01*
X213503558Y-96895518D01*
X213569740Y-96889000D01*
X213658260Y-96889000D01*
X213724442Y-96895518D01*
X213724442Y-96895518D01*
G37*
G36*
X208259000Y-98066000D02*
G01*
X206657000Y-98066000D01*
X206657000Y-97514000D01*
X208259000Y-97514000D01*
X208259000Y-98066000D01*
X208259000Y-98066000D01*
G37*
G36*
X210919000Y-97416000D02*
G01*
X209317000Y-97416000D01*
X209317000Y-96864000D01*
X210919000Y-96864000D01*
X210919000Y-97416000D01*
X210919000Y-97416000D01*
G37*
G36*
X213724442Y-94355518D02*
G01*
X213790627Y-94362037D01*
X213960466Y-94413557D01*
X214116991Y-94497222D01*
X214152729Y-94526552D01*
X214254186Y-94609814D01*
X214337448Y-94711271D01*
X214366778Y-94747009D01*
X214450443Y-94903534D01*
X214501963Y-95073373D01*
X214519359Y-95250000D01*
X214501963Y-95426627D01*
X214450443Y-95596466D01*
X214366778Y-95752991D01*
X214337448Y-95788729D01*
X214254186Y-95890186D01*
X214152729Y-95973448D01*
X214116991Y-96002778D01*
X213960466Y-96086443D01*
X213790627Y-96137963D01*
X213724443Y-96144481D01*
X213658260Y-96151000D01*
X213569740Y-96151000D01*
X213503558Y-96144482D01*
X213437373Y-96137963D01*
X213267534Y-96086443D01*
X213111009Y-96002778D01*
X213075271Y-95973448D01*
X212973814Y-95890186D01*
X212890552Y-95788729D01*
X212861222Y-95752991D01*
X212777557Y-95596466D01*
X212726037Y-95426627D01*
X212708641Y-95250000D01*
X212726037Y-95073373D01*
X212777557Y-94903534D01*
X212861222Y-94747009D01*
X212890552Y-94711271D01*
X212973814Y-94609814D01*
X213075271Y-94526552D01*
X213111009Y-94497222D01*
X213267534Y-94413557D01*
X213437373Y-94362037D01*
X213503557Y-94355519D01*
X213569740Y-94349000D01*
X213658260Y-94349000D01*
X213724442Y-94355518D01*
X213724442Y-94355518D01*
G37*
G36*
X243476825Y-93317958D02*
G01*
X243476827Y-93317959D01*
X243476828Y-93317959D01*
X243539478Y-93343910D01*
X243602130Y-93369861D01*
X243714386Y-93444868D01*
X243714893Y-93445207D01*
X243810793Y-93541107D01*
X243810795Y-93541110D01*
X243886139Y-93653870D01*
X243938042Y-93779175D01*
X243964500Y-93912187D01*
X243964500Y-94047813D01*
X243938042Y-94180825D01*
X243886139Y-94306130D01*
X243848783Y-94362037D01*
X243810793Y-94418893D01*
X243714893Y-94514793D01*
X243714890Y-94514795D01*
X243602130Y-94590139D01*
X243554630Y-94609814D01*
X243476828Y-94642041D01*
X243476827Y-94642041D01*
X243476825Y-94642042D01*
X243343813Y-94668500D01*
X243208187Y-94668500D01*
X243075175Y-94642042D01*
X243075173Y-94642041D01*
X243075172Y-94642041D01*
X242997370Y-94609814D01*
X242949870Y-94590139D01*
X242837110Y-94514795D01*
X242837107Y-94514793D01*
X242741207Y-94418893D01*
X242703217Y-94362037D01*
X242665861Y-94306130D01*
X242613958Y-94180825D01*
X242587500Y-94047813D01*
X242587500Y-93912187D01*
X242613958Y-93779175D01*
X242665861Y-93653870D01*
X242741205Y-93541110D01*
X242741207Y-93541107D01*
X242837107Y-93445207D01*
X242837614Y-93444868D01*
X242949870Y-93369861D01*
X243012523Y-93343909D01*
X243075172Y-93317959D01*
X243075173Y-93317959D01*
X243075175Y-93317958D01*
X243208187Y-93291500D01*
X243343813Y-93291500D01*
X243476825Y-93317958D01*
X243476825Y-93317958D01*
G37*
G36*
X240464500Y-94668500D02*
G01*
X239087500Y-94668500D01*
X239087500Y-93291500D01*
X240464500Y-93291500D01*
X240464500Y-94668500D01*
X240464500Y-94668500D01*
G37*
G36*
X213724442Y-91815518D02*
G01*
X213790627Y-91822037D01*
X213960466Y-91873557D01*
X214116991Y-91957222D01*
X214152729Y-91986552D01*
X214254186Y-92069814D01*
X214337448Y-92171271D01*
X214366778Y-92207009D01*
X214450443Y-92363534D01*
X214501963Y-92533373D01*
X214519359Y-92710000D01*
X214501963Y-92886627D01*
X214450443Y-93056466D01*
X214366778Y-93212991D01*
X214337448Y-93248729D01*
X214254186Y-93350186D01*
X214152729Y-93433448D01*
X214116991Y-93462778D01*
X213960466Y-93546443D01*
X213790627Y-93597963D01*
X213724442Y-93604482D01*
X213658260Y-93611000D01*
X213569740Y-93611000D01*
X213503557Y-93604481D01*
X213437373Y-93597963D01*
X213267534Y-93546443D01*
X213111009Y-93462778D01*
X213075271Y-93433448D01*
X212973814Y-93350186D01*
X212890552Y-93248729D01*
X212861222Y-93212991D01*
X212777557Y-93056466D01*
X212726037Y-92886627D01*
X212708641Y-92710000D01*
X212726037Y-92533373D01*
X212777557Y-92363534D01*
X212861222Y-92207009D01*
X212890552Y-92171271D01*
X212973814Y-92069814D01*
X213075271Y-91986552D01*
X213111009Y-91957222D01*
X213267534Y-91873557D01*
X213437373Y-91822037D01*
X213503558Y-91815518D01*
X213569740Y-91809000D01*
X213658260Y-91809000D01*
X213724442Y-91815518D01*
X213724442Y-91815518D01*
G37*
G36*
X213724443Y-89275519D02*
G01*
X213790627Y-89282037D01*
X213960466Y-89333557D01*
X214116991Y-89417222D01*
X214152729Y-89446552D01*
X214254186Y-89529814D01*
X214337448Y-89631271D01*
X214366778Y-89667009D01*
X214450443Y-89823534D01*
X214501963Y-89993373D01*
X214519359Y-90170000D01*
X214501963Y-90346627D01*
X214450443Y-90516466D01*
X214366778Y-90672991D01*
X214337448Y-90708729D01*
X214254186Y-90810186D01*
X214152729Y-90893448D01*
X214116991Y-90922778D01*
X213960466Y-91006443D01*
X213790627Y-91057963D01*
X213724442Y-91064482D01*
X213658260Y-91071000D01*
X213569740Y-91071000D01*
X213503558Y-91064482D01*
X213437373Y-91057963D01*
X213267534Y-91006443D01*
X213111009Y-90922778D01*
X213075271Y-90893448D01*
X212973814Y-90810186D01*
X212890552Y-90708729D01*
X212861222Y-90672991D01*
X212777557Y-90516466D01*
X212726037Y-90346627D01*
X212708641Y-90170000D01*
X212726037Y-89993373D01*
X212777557Y-89823534D01*
X212861222Y-89667009D01*
X212890552Y-89631271D01*
X212973814Y-89529814D01*
X213075271Y-89446552D01*
X213111009Y-89417222D01*
X213267534Y-89333557D01*
X213437373Y-89282037D01*
X213503557Y-89275519D01*
X213569740Y-89269000D01*
X213658260Y-89269000D01*
X213724443Y-89275519D01*
X213724443Y-89275519D01*
G37*
G36*
X255339606Y-84888562D02*
G01*
X255858455Y-85103476D01*
X256325407Y-85415484D01*
X256722516Y-85812593D01*
X257034524Y-86279545D01*
X257249438Y-86798394D01*
X257359000Y-87349201D01*
X257359000Y-87910799D01*
X257249438Y-88461606D01*
X257034524Y-88980455D01*
X256722516Y-89447407D01*
X256325407Y-89844516D01*
X255858455Y-90156524D01*
X255339606Y-90371438D01*
X255064202Y-90426219D01*
X254788800Y-90481000D01*
X254227200Y-90481000D01*
X253676394Y-90371438D01*
X253157545Y-90156524D01*
X252690593Y-89844516D01*
X252293484Y-89447407D01*
X251981476Y-88980455D01*
X251766562Y-88461606D01*
X251657000Y-87910799D01*
X251657000Y-87349201D01*
X251766562Y-86798394D01*
X251981476Y-86279545D01*
X252293484Y-85812593D01*
X252690593Y-85415484D01*
X253157545Y-85103476D01*
X253676394Y-84888562D01*
X254227200Y-84779000D01*
X254788800Y-84779000D01*
X255339606Y-84888562D01*
X255339606Y-84888562D01*
G37*
G36*
X188537606Y-84888562D02*
G01*
X189056455Y-85103476D01*
X189523407Y-85415484D01*
X189920516Y-85812593D01*
X190232524Y-86279545D01*
X190447438Y-86798394D01*
X190557000Y-87349201D01*
X190557000Y-87910799D01*
X190447438Y-88461606D01*
X190232524Y-88980455D01*
X189920516Y-89447407D01*
X189523407Y-89844516D01*
X189056455Y-90156524D01*
X188537606Y-90371438D01*
X188262202Y-90426219D01*
X187986800Y-90481000D01*
X187425200Y-90481000D01*
X186874394Y-90371438D01*
X186355545Y-90156524D01*
X185888593Y-89844516D01*
X185491484Y-89447407D01*
X185179476Y-88980455D01*
X184964562Y-88461606D01*
X184855000Y-87910799D01*
X184855000Y-87349201D01*
X184964562Y-86798394D01*
X185179476Y-86279545D01*
X185491484Y-85812593D01*
X185888593Y-85415484D01*
X186355545Y-85103476D01*
X186874394Y-84888562D01*
X187425200Y-84779000D01*
X187986800Y-84779000D01*
X188537606Y-84888562D01*
X188537606Y-84888562D01*
G37*
G36*
X213724442Y-86735518D02*
G01*
X213790627Y-86742037D01*
X213960466Y-86793557D01*
X214116991Y-86877222D01*
X214152729Y-86906552D01*
X214254186Y-86989814D01*
X214337448Y-87091271D01*
X214366778Y-87127009D01*
X214450443Y-87283534D01*
X214501963Y-87453373D01*
X214519359Y-87630000D01*
X214501963Y-87806627D01*
X214450443Y-87976466D01*
X214366778Y-88132991D01*
X214337448Y-88168729D01*
X214254186Y-88270186D01*
X214152729Y-88353448D01*
X214116991Y-88382778D01*
X213960466Y-88466443D01*
X213790627Y-88517963D01*
X213724442Y-88524482D01*
X213658260Y-88531000D01*
X213569740Y-88531000D01*
X213503558Y-88524482D01*
X213437373Y-88517963D01*
X213267534Y-88466443D01*
X213111009Y-88382778D01*
X213075271Y-88353448D01*
X212973814Y-88270186D01*
X212890552Y-88168729D01*
X212861222Y-88132991D01*
X212777557Y-87976466D01*
X212726037Y-87806627D01*
X212708641Y-87630000D01*
X212726037Y-87453373D01*
X212777557Y-87283534D01*
X212861222Y-87127009D01*
X212890552Y-87091271D01*
X212973814Y-86989814D01*
X213075271Y-86906552D01*
X213111009Y-86877222D01*
X213267534Y-86793557D01*
X213437373Y-86742037D01*
X213503558Y-86735518D01*
X213569740Y-86729000D01*
X213658260Y-86729000D01*
X213724442Y-86735518D01*
X213724442Y-86735518D01*
G37*
G36*
X227723000Y-88531000D02*
G01*
X225921000Y-88531000D01*
X225921000Y-86729000D01*
X227723000Y-86729000D01*
X227723000Y-88531000D01*
X227723000Y-88531000D01*
G37*
G36*
X229472442Y-86735518D02*
G01*
X229538627Y-86742037D01*
X229708466Y-86793557D01*
X229864991Y-86877222D01*
X229900729Y-86906552D01*
X230002186Y-86989814D01*
X230085448Y-87091271D01*
X230114778Y-87127009D01*
X230198443Y-87283534D01*
X230249963Y-87453373D01*
X230267359Y-87630000D01*
X230249963Y-87806627D01*
X230198443Y-87976466D01*
X230114778Y-88132991D01*
X230085448Y-88168729D01*
X230002186Y-88270186D01*
X229900729Y-88353448D01*
X229864991Y-88382778D01*
X229708466Y-88466443D01*
X229538627Y-88517963D01*
X229472442Y-88524482D01*
X229406260Y-88531000D01*
X229317740Y-88531000D01*
X229251558Y-88524482D01*
X229185373Y-88517963D01*
X229015534Y-88466443D01*
X228859009Y-88382778D01*
X228823271Y-88353448D01*
X228721814Y-88270186D01*
X228638552Y-88168729D01*
X228609222Y-88132991D01*
X228525557Y-87976466D01*
X228474037Y-87806627D01*
X228456641Y-87630000D01*
X228474037Y-87453373D01*
X228525557Y-87283534D01*
X228609222Y-87127009D01*
X228638552Y-87091271D01*
X228721814Y-86989814D01*
X228823271Y-86906552D01*
X228859009Y-86877222D01*
X229015534Y-86793557D01*
X229185373Y-86742037D01*
X229251558Y-86735518D01*
X229317740Y-86729000D01*
X229406260Y-86729000D01*
X229472442Y-86735518D01*
X229472442Y-86735518D01*
G37*
G36*
X232012442Y-86735518D02*
G01*
X232078627Y-86742037D01*
X232248466Y-86793557D01*
X232404991Y-86877222D01*
X232440729Y-86906552D01*
X232542186Y-86989814D01*
X232625448Y-87091271D01*
X232654778Y-87127009D01*
X232738443Y-87283534D01*
X232789963Y-87453373D01*
X232807359Y-87630000D01*
X232789963Y-87806627D01*
X232738443Y-87976466D01*
X232654778Y-88132991D01*
X232625448Y-88168729D01*
X232542186Y-88270186D01*
X232440729Y-88353448D01*
X232404991Y-88382778D01*
X232248466Y-88466443D01*
X232078627Y-88517963D01*
X232012442Y-88524482D01*
X231946260Y-88531000D01*
X231857740Y-88531000D01*
X231791558Y-88524482D01*
X231725373Y-88517963D01*
X231555534Y-88466443D01*
X231399009Y-88382778D01*
X231363271Y-88353448D01*
X231261814Y-88270186D01*
X231178552Y-88168729D01*
X231149222Y-88132991D01*
X231065557Y-87976466D01*
X231014037Y-87806627D01*
X230996641Y-87630000D01*
X231014037Y-87453373D01*
X231065557Y-87283534D01*
X231149222Y-87127009D01*
X231178552Y-87091271D01*
X231261814Y-86989814D01*
X231363271Y-86906552D01*
X231399009Y-86877222D01*
X231555534Y-86793557D01*
X231725373Y-86742037D01*
X231791558Y-86735518D01*
X231857740Y-86729000D01*
X231946260Y-86729000D01*
X232012442Y-86735518D01*
X232012442Y-86735518D01*
G37*
M02*
