G04 #@! TF.GenerationSoftware,KiCad,Pcbnew,(5.1.4)-1*
G04 #@! TF.CreationDate,2020-11-07T20:29:11+00:00*
G04 #@! TF.ProjectId,WLED Module,574c4544-204d-46f6-9475-6c652e6b6963,rev?*
G04 #@! TF.SameCoordinates,Original*
G04 #@! TF.FileFunction,Copper,L2,Bot*
G04 #@! TF.FilePolarity,Positive*
%FSLAX46Y46*%
G04 Gerber Fmt 4.6, Leading zero omitted, Abs format (unit mm)*
G04 Created by KiCad (PCBNEW (5.1.4)-1) date 2020-11-07 20:29:11*
%MOMM*%
%LPD*%
G04 APERTURE LIST*
%ADD10O,1.700000X1.700000*%
%ADD11R,1.700000X1.700000*%
%ADD12R,1.275000X1.275000*%
%ADD13C,1.275000*%
%ADD14C,1.948180*%
%ADD15C,0.800000*%
%ADD16C,0.635000*%
%ADD17C,0.250000*%
%ADD18C,0.254000*%
G04 APERTURE END LIST*
D10*
X226568000Y-125730000D03*
X229108000Y-125730000D03*
D11*
X231648000Y-125730000D03*
D10*
X231902000Y-87630000D03*
X229362000Y-87630000D03*
D11*
X226822000Y-87630000D03*
D12*
X239776000Y-93980000D03*
D13*
X243276000Y-93980000D03*
D11*
X213614000Y-100330000D03*
D10*
X213614000Y-97790000D03*
X213614000Y-95250000D03*
X213614000Y-92710000D03*
X213614000Y-90170000D03*
X213614000Y-87630000D03*
D14*
X246100600Y-104140000D03*
X243301520Y-99341940D03*
X240301780Y-104140000D03*
D11*
X221234000Y-92964000D03*
D10*
X221234000Y-95504000D03*
X221234000Y-98044000D03*
D15*
X224536000Y-114808000D03*
X224827000Y-106680000D03*
X204724000Y-112014000D03*
X195834000Y-123444000D03*
X184785000Y-117475000D03*
X184912000Y-94996000D03*
X204688000Y-101854000D03*
X216408000Y-107696000D03*
D16*
X222498001Y-91596499D02*
X227838000Y-96936498D01*
X219969999Y-91596499D02*
X222498001Y-91596499D01*
X219866499Y-91699999D02*
X219969999Y-91596499D01*
X224536000Y-114808000D02*
X219866499Y-110138499D01*
X219866499Y-110138499D02*
X219866499Y-91699999D01*
X204724000Y-112014000D02*
X193802000Y-122936000D01*
X193802000Y-122936000D02*
X193802000Y-123444000D01*
D17*
X204688000Y-101854000D02*
X210566000Y-101854000D01*
X210566000Y-101854000D02*
X216408000Y-107696000D01*
X229108000Y-124434998D02*
X225552000Y-120878998D01*
X229108000Y-125730000D02*
X229108000Y-124434998D01*
X225552000Y-102362000D02*
X221234000Y-98044000D01*
X225552000Y-120878998D02*
X225552000Y-102362000D01*
D18*
G36*
X253594000Y-129388000D02*
G01*
X173380000Y-129388000D01*
X173380000Y-125509872D01*
X175565000Y-125509872D01*
X175565000Y-125950128D01*
X175650890Y-126381925D01*
X175819369Y-126788669D01*
X176063962Y-127154729D01*
X176375271Y-127466038D01*
X176741331Y-127710631D01*
X177148075Y-127879110D01*
X177579872Y-127965000D01*
X178020128Y-127965000D01*
X178451925Y-127879110D01*
X178858669Y-127710631D01*
X179224729Y-127466038D01*
X179536038Y-127154729D01*
X179780631Y-126788669D01*
X179949110Y-126381925D01*
X180007796Y-126086891D01*
X225126519Y-126086891D01*
X225223843Y-126361252D01*
X225372822Y-126611355D01*
X225567731Y-126827588D01*
X225801080Y-127001641D01*
X226063901Y-127126825D01*
X226211110Y-127171476D01*
X226441000Y-127050155D01*
X226441000Y-125857000D01*
X225247186Y-125857000D01*
X225126519Y-126086891D01*
X180007796Y-126086891D01*
X180035000Y-125950128D01*
X180035000Y-125509872D01*
X180007797Y-125373109D01*
X225126519Y-125373109D01*
X225247186Y-125603000D01*
X226441000Y-125603000D01*
X226441000Y-124409845D01*
X226211110Y-124288524D01*
X226063901Y-124333175D01*
X225801080Y-124458359D01*
X225567731Y-124632412D01*
X225372822Y-124848645D01*
X225223843Y-125098748D01*
X225126519Y-125373109D01*
X180007797Y-125373109D01*
X179949110Y-125078075D01*
X179780631Y-124671331D01*
X179536038Y-124305271D01*
X179224729Y-123993962D01*
X178858669Y-123749369D01*
X178451925Y-123580890D01*
X178020128Y-123495000D01*
X177579872Y-123495000D01*
X177148075Y-123580890D01*
X176741331Y-123749369D01*
X176375271Y-123993962D01*
X176063962Y-124305271D01*
X175819369Y-124671331D01*
X175650890Y-125078075D01*
X175565000Y-125509872D01*
X173380000Y-125509872D01*
X173380000Y-122580000D01*
X183609581Y-122580000D01*
X183642000Y-122583193D01*
X183674419Y-122580000D01*
X183771383Y-122570450D01*
X183895793Y-122532710D01*
X184010450Y-122471425D01*
X184110948Y-122388948D01*
X184193425Y-122288450D01*
X184254710Y-122173793D01*
X184292450Y-122049383D01*
X184305193Y-121920000D01*
X184302000Y-121887581D01*
X184302000Y-101752061D01*
X203653000Y-101752061D01*
X203653000Y-101955939D01*
X203692774Y-102155898D01*
X203770795Y-102344256D01*
X203884063Y-102513774D01*
X204028226Y-102657937D01*
X204197744Y-102771205D01*
X204386102Y-102849226D01*
X204586061Y-102889000D01*
X204789939Y-102889000D01*
X204989898Y-102849226D01*
X205178256Y-102771205D01*
X205347774Y-102657937D01*
X205391711Y-102614000D01*
X210251199Y-102614000D01*
X215373000Y-107735802D01*
X215373000Y-107797939D01*
X215412774Y-107997898D01*
X215490795Y-108186256D01*
X215604063Y-108355774D01*
X215748226Y-108499937D01*
X215917744Y-108613205D01*
X216106102Y-108691226D01*
X216306061Y-108731000D01*
X216509939Y-108731000D01*
X216709898Y-108691226D01*
X216898256Y-108613205D01*
X217067774Y-108499937D01*
X217211937Y-108355774D01*
X217325205Y-108186256D01*
X217403226Y-107997898D01*
X217443000Y-107797939D01*
X217443000Y-107594061D01*
X217403226Y-107394102D01*
X217325205Y-107205744D01*
X217211937Y-107036226D01*
X217067774Y-106892063D01*
X216898256Y-106778795D01*
X216709898Y-106700774D01*
X216509939Y-106661000D01*
X216447802Y-106661000D01*
X211129804Y-101343003D01*
X211106001Y-101313999D01*
X210990276Y-101219026D01*
X210858247Y-101148454D01*
X210714986Y-101104997D01*
X210603333Y-101094000D01*
X210603322Y-101094000D01*
X210566000Y-101090324D01*
X210528678Y-101094000D01*
X205391711Y-101094000D01*
X205347774Y-101050063D01*
X205178256Y-100936795D01*
X204989898Y-100858774D01*
X204789939Y-100819000D01*
X204586061Y-100819000D01*
X204386102Y-100858774D01*
X204197744Y-100936795D01*
X204028226Y-101050063D01*
X203884063Y-101194226D01*
X203770795Y-101363744D01*
X203692774Y-101552102D01*
X203653000Y-101752061D01*
X184302000Y-101752061D01*
X184302000Y-91472418D01*
X184305193Y-91440000D01*
X184292450Y-91310617D01*
X184254710Y-91186207D01*
X184193425Y-91071550D01*
X184110948Y-90971052D01*
X184010450Y-90888575D01*
X183895793Y-90827290D01*
X183771383Y-90789550D01*
X183674419Y-90780000D01*
X183642000Y-90776807D01*
X183609581Y-90780000D01*
X173126000Y-90780000D01*
X173126000Y-90170000D01*
X212121815Y-90170000D01*
X212150487Y-90461111D01*
X212235401Y-90741034D01*
X212373294Y-90999014D01*
X212558866Y-91225134D01*
X212784986Y-91410706D01*
X212839791Y-91440000D01*
X212784986Y-91469294D01*
X212558866Y-91654866D01*
X212373294Y-91880986D01*
X212235401Y-92138966D01*
X212150487Y-92418889D01*
X212121815Y-92710000D01*
X212150487Y-93001111D01*
X212235401Y-93281034D01*
X212373294Y-93539014D01*
X212558866Y-93765134D01*
X212784986Y-93950706D01*
X212839791Y-93980000D01*
X212784986Y-94009294D01*
X212558866Y-94194866D01*
X212373294Y-94420986D01*
X212235401Y-94678966D01*
X212150487Y-94958889D01*
X212121815Y-95250000D01*
X212150487Y-95541111D01*
X212235401Y-95821034D01*
X212373294Y-96079014D01*
X212558866Y-96305134D01*
X212784986Y-96490706D01*
X212839791Y-96520000D01*
X212784986Y-96549294D01*
X212558866Y-96734866D01*
X212373294Y-96960986D01*
X212235401Y-97218966D01*
X212150487Y-97498889D01*
X212121815Y-97790000D01*
X212150487Y-98081111D01*
X212235401Y-98361034D01*
X212373294Y-98619014D01*
X212558866Y-98845134D01*
X212588687Y-98869607D01*
X212519820Y-98890498D01*
X212409506Y-98949463D01*
X212312815Y-99028815D01*
X212233463Y-99125506D01*
X212174498Y-99235820D01*
X212138188Y-99355518D01*
X212125928Y-99480000D01*
X212125928Y-101180000D01*
X212138188Y-101304482D01*
X212174498Y-101424180D01*
X212233463Y-101534494D01*
X212312815Y-101631185D01*
X212409506Y-101710537D01*
X212519820Y-101769502D01*
X212639518Y-101805812D01*
X212764000Y-101818072D01*
X214464000Y-101818072D01*
X214588482Y-101805812D01*
X214708180Y-101769502D01*
X214818494Y-101710537D01*
X214915185Y-101631185D01*
X214994537Y-101534494D01*
X215053502Y-101424180D01*
X215089812Y-101304482D01*
X215102072Y-101180000D01*
X215102072Y-99480000D01*
X215089812Y-99355518D01*
X215053502Y-99235820D01*
X214994537Y-99125506D01*
X214915185Y-99028815D01*
X214818494Y-98949463D01*
X214708180Y-98890498D01*
X214639313Y-98869607D01*
X214669134Y-98845134D01*
X214854706Y-98619014D01*
X214992599Y-98361034D01*
X215077513Y-98081111D01*
X215106185Y-97790000D01*
X215077513Y-97498889D01*
X214992599Y-97218966D01*
X214854706Y-96960986D01*
X214669134Y-96734866D01*
X214443014Y-96549294D01*
X214388209Y-96520000D01*
X214443014Y-96490706D01*
X214669134Y-96305134D01*
X214854706Y-96079014D01*
X214992599Y-95821034D01*
X215077513Y-95541111D01*
X215081168Y-95504000D01*
X219741815Y-95504000D01*
X219770487Y-95795111D01*
X219855401Y-96075034D01*
X219993294Y-96333014D01*
X220178866Y-96559134D01*
X220404986Y-96744706D01*
X220459791Y-96774000D01*
X220404986Y-96803294D01*
X220178866Y-96988866D01*
X219993294Y-97214986D01*
X219855401Y-97472966D01*
X219770487Y-97752889D01*
X219741815Y-98044000D01*
X219770487Y-98335111D01*
X219855401Y-98615034D01*
X219993294Y-98873014D01*
X220178866Y-99099134D01*
X220404986Y-99284706D01*
X220662966Y-99422599D01*
X220942889Y-99507513D01*
X221161050Y-99529000D01*
X221306950Y-99529000D01*
X221525111Y-99507513D01*
X221599996Y-99484797D01*
X224792001Y-102676803D01*
X224792000Y-120841676D01*
X224788324Y-120878998D01*
X224792000Y-120916320D01*
X224792000Y-120916330D01*
X224802997Y-121027983D01*
X224846454Y-121171244D01*
X224917026Y-121303274D01*
X224956871Y-121351824D01*
X225011999Y-121418999D01*
X225041003Y-121442802D01*
X228173809Y-124575610D01*
X228052866Y-124674866D01*
X227867294Y-124900986D01*
X227832799Y-124965523D01*
X227763178Y-124848645D01*
X227568269Y-124632412D01*
X227334920Y-124458359D01*
X227072099Y-124333175D01*
X226924890Y-124288524D01*
X226695000Y-124409845D01*
X226695000Y-125603000D01*
X226715000Y-125603000D01*
X226715000Y-125857000D01*
X226695000Y-125857000D01*
X226695000Y-127050155D01*
X226924890Y-127171476D01*
X227072099Y-127126825D01*
X227334920Y-127001641D01*
X227568269Y-126827588D01*
X227763178Y-126611355D01*
X227832799Y-126494477D01*
X227867294Y-126559014D01*
X228052866Y-126785134D01*
X228278986Y-126970706D01*
X228536966Y-127108599D01*
X228816889Y-127193513D01*
X229035050Y-127215000D01*
X229180950Y-127215000D01*
X229399111Y-127193513D01*
X229679034Y-127108599D01*
X229937014Y-126970706D01*
X230163134Y-126785134D01*
X230187607Y-126755313D01*
X230208498Y-126824180D01*
X230267463Y-126934494D01*
X230346815Y-127031185D01*
X230443506Y-127110537D01*
X230553820Y-127169502D01*
X230673518Y-127205812D01*
X230798000Y-127218072D01*
X232498000Y-127218072D01*
X232622482Y-127205812D01*
X232742180Y-127169502D01*
X232852494Y-127110537D01*
X232949185Y-127031185D01*
X233028537Y-126934494D01*
X233087502Y-126824180D01*
X233123812Y-126704482D01*
X233136072Y-126580000D01*
X233136072Y-125509872D01*
X246939000Y-125509872D01*
X246939000Y-125950128D01*
X247024890Y-126381925D01*
X247193369Y-126788669D01*
X247437962Y-127154729D01*
X247749271Y-127466038D01*
X248115331Y-127710631D01*
X248522075Y-127879110D01*
X248953872Y-127965000D01*
X249394128Y-127965000D01*
X249825925Y-127879110D01*
X250232669Y-127710631D01*
X250598729Y-127466038D01*
X250910038Y-127154729D01*
X251154631Y-126788669D01*
X251323110Y-126381925D01*
X251409000Y-125950128D01*
X251409000Y-125509872D01*
X251323110Y-125078075D01*
X251154631Y-124671331D01*
X250910038Y-124305271D01*
X250598729Y-123993962D01*
X250232669Y-123749369D01*
X249825925Y-123580890D01*
X249394128Y-123495000D01*
X248953872Y-123495000D01*
X248522075Y-123580890D01*
X248115331Y-123749369D01*
X247749271Y-123993962D01*
X247437962Y-124305271D01*
X247193369Y-124671331D01*
X247024890Y-125078075D01*
X246939000Y-125509872D01*
X233136072Y-125509872D01*
X233136072Y-124880000D01*
X233123812Y-124755518D01*
X233087502Y-124635820D01*
X233028537Y-124525506D01*
X232949185Y-124428815D01*
X232852494Y-124349463D01*
X232742180Y-124290498D01*
X232622482Y-124254188D01*
X232498000Y-124241928D01*
X230798000Y-124241928D01*
X230673518Y-124254188D01*
X230553820Y-124290498D01*
X230443506Y-124349463D01*
X230346815Y-124428815D01*
X230267463Y-124525506D01*
X230208498Y-124635820D01*
X230187607Y-124704687D01*
X230163134Y-124674866D01*
X229937014Y-124489294D01*
X229869863Y-124453401D01*
X229871676Y-124434997D01*
X229868000Y-124397674D01*
X229868000Y-124397665D01*
X229857003Y-124286012D01*
X229813546Y-124142751D01*
X229742974Y-124010722D01*
X229729219Y-123993962D01*
X229671799Y-123923994D01*
X229671795Y-123923990D01*
X229648001Y-123894997D01*
X229619008Y-123871203D01*
X226312000Y-120564197D01*
X226312000Y-103981518D01*
X238692690Y-103981518D01*
X238692690Y-104298482D01*
X238754526Y-104609354D01*
X238875823Y-104902190D01*
X239051918Y-105165735D01*
X239276045Y-105389862D01*
X239539590Y-105565957D01*
X239832426Y-105687254D01*
X240143298Y-105749090D01*
X240460262Y-105749090D01*
X240771134Y-105687254D01*
X241063970Y-105565957D01*
X241327515Y-105389862D01*
X241460442Y-105256935D01*
X245163270Y-105256935D01*
X245255905Y-105518688D01*
X245541105Y-105656989D01*
X245847805Y-105736992D01*
X246164220Y-105755624D01*
X246478190Y-105712169D01*
X246777650Y-105608297D01*
X246945295Y-105518688D01*
X247037930Y-105256935D01*
X246100600Y-104319605D01*
X245163270Y-105256935D01*
X241460442Y-105256935D01*
X241551642Y-105165735D01*
X241727737Y-104902190D01*
X241849034Y-104609354D01*
X241910870Y-104298482D01*
X241910870Y-104203620D01*
X244484976Y-104203620D01*
X244528431Y-104517590D01*
X244632303Y-104817050D01*
X244721912Y-104984695D01*
X244983665Y-105077330D01*
X245920995Y-104140000D01*
X246280205Y-104140000D01*
X247217535Y-105077330D01*
X247479288Y-104984695D01*
X247617589Y-104699495D01*
X247697592Y-104392795D01*
X247716224Y-104076380D01*
X247672769Y-103762410D01*
X247568897Y-103462950D01*
X247479288Y-103295305D01*
X247217535Y-103202670D01*
X246280205Y-104140000D01*
X245920995Y-104140000D01*
X244983665Y-103202670D01*
X244721912Y-103295305D01*
X244583611Y-103580505D01*
X244503608Y-103887205D01*
X244484976Y-104203620D01*
X241910870Y-104203620D01*
X241910870Y-103981518D01*
X241849034Y-103670646D01*
X241727737Y-103377810D01*
X241551642Y-103114265D01*
X241460442Y-103023065D01*
X245163270Y-103023065D01*
X246100600Y-103960395D01*
X247037930Y-103023065D01*
X246945295Y-102761312D01*
X246660095Y-102623011D01*
X246353395Y-102543008D01*
X246036980Y-102524376D01*
X245723010Y-102567831D01*
X245423550Y-102671703D01*
X245255905Y-102761312D01*
X245163270Y-103023065D01*
X241460442Y-103023065D01*
X241327515Y-102890138D01*
X241063970Y-102714043D01*
X240771134Y-102592746D01*
X240460262Y-102530910D01*
X240143298Y-102530910D01*
X239832426Y-102592746D01*
X239539590Y-102714043D01*
X239276045Y-102890138D01*
X239051918Y-103114265D01*
X238875823Y-103377810D01*
X238754526Y-103670646D01*
X238692690Y-103981518D01*
X226312000Y-103981518D01*
X226312000Y-102399322D01*
X226315676Y-102361999D01*
X226312000Y-102324676D01*
X226312000Y-102324667D01*
X226301003Y-102213014D01*
X226257546Y-102069753D01*
X226186974Y-101937724D01*
X226092001Y-101821999D01*
X226063003Y-101798201D01*
X224723677Y-100458875D01*
X242364190Y-100458875D01*
X242456825Y-100720628D01*
X242742025Y-100858929D01*
X243048725Y-100938932D01*
X243365140Y-100957564D01*
X243679110Y-100914109D01*
X243978570Y-100810237D01*
X244146215Y-100720628D01*
X244238850Y-100458875D01*
X243301520Y-99521545D01*
X242364190Y-100458875D01*
X224723677Y-100458875D01*
X223670362Y-99405560D01*
X241685896Y-99405560D01*
X241729351Y-99719530D01*
X241833223Y-100018990D01*
X241922832Y-100186635D01*
X242184585Y-100279270D01*
X243121915Y-99341940D01*
X243481125Y-99341940D01*
X244418455Y-100279270D01*
X244680208Y-100186635D01*
X244818509Y-99901435D01*
X244898512Y-99594735D01*
X244917144Y-99278320D01*
X244873689Y-98964350D01*
X244769817Y-98664890D01*
X244680208Y-98497245D01*
X244418455Y-98404610D01*
X243481125Y-99341940D01*
X243121915Y-99341940D01*
X242184585Y-98404610D01*
X241922832Y-98497245D01*
X241784531Y-98782445D01*
X241704528Y-99089145D01*
X241685896Y-99405560D01*
X223670362Y-99405560D01*
X222674797Y-98409996D01*
X222697513Y-98335111D01*
X222708357Y-98225005D01*
X242364190Y-98225005D01*
X243301520Y-99162335D01*
X244238850Y-98225005D01*
X244146215Y-97963252D01*
X243861015Y-97824951D01*
X243554315Y-97744948D01*
X243237900Y-97726316D01*
X242923930Y-97769771D01*
X242624470Y-97873643D01*
X242456825Y-97963252D01*
X242364190Y-98225005D01*
X222708357Y-98225005D01*
X222726185Y-98044000D01*
X222697513Y-97752889D01*
X222612599Y-97472966D01*
X222474706Y-97214986D01*
X222289134Y-96988866D01*
X222063014Y-96803294D01*
X222008209Y-96774000D01*
X222063014Y-96744706D01*
X222289134Y-96559134D01*
X222474706Y-96333014D01*
X222612599Y-96075034D01*
X222697513Y-95795111D01*
X222726185Y-95504000D01*
X222697513Y-95212889D01*
X222612599Y-94932966D01*
X222474706Y-94674986D01*
X222289134Y-94448866D01*
X222259313Y-94424393D01*
X222328180Y-94403502D01*
X222438494Y-94344537D01*
X222535185Y-94265185D01*
X222614537Y-94168494D01*
X222673502Y-94058180D01*
X222709812Y-93938482D01*
X222722072Y-93814000D01*
X222722072Y-93342500D01*
X238500428Y-93342500D01*
X238500428Y-94617500D01*
X238512688Y-94741982D01*
X238548998Y-94861680D01*
X238607963Y-94971994D01*
X238687315Y-95068685D01*
X238784006Y-95148037D01*
X238894320Y-95207002D01*
X239014018Y-95243312D01*
X239138500Y-95255572D01*
X240413500Y-95255572D01*
X240537982Y-95243312D01*
X240657680Y-95207002D01*
X240767994Y-95148037D01*
X240864685Y-95068685D01*
X240944037Y-94971994D01*
X241003002Y-94861680D01*
X241004546Y-94856588D01*
X242579017Y-94856588D01*
X242630886Y-95083988D01*
X242858659Y-95188631D01*
X243102470Y-95246826D01*
X243352949Y-95256338D01*
X243600472Y-95216801D01*
X243835526Y-95129735D01*
X243921114Y-95083988D01*
X243972983Y-94856588D01*
X243276000Y-94159605D01*
X242579017Y-94856588D01*
X241004546Y-94856588D01*
X241039312Y-94741982D01*
X241051572Y-94617500D01*
X241051572Y-94056949D01*
X241999662Y-94056949D01*
X242039199Y-94304472D01*
X242126265Y-94539526D01*
X242172012Y-94625114D01*
X242399412Y-94676983D01*
X243096395Y-93980000D01*
X243455605Y-93980000D01*
X244152588Y-94676983D01*
X244379988Y-94625114D01*
X244484631Y-94397341D01*
X244542826Y-94153530D01*
X244552338Y-93903051D01*
X244512801Y-93655528D01*
X244425735Y-93420474D01*
X244379988Y-93334886D01*
X244152588Y-93283017D01*
X243455605Y-93980000D01*
X243096395Y-93980000D01*
X242399412Y-93283017D01*
X242172012Y-93334886D01*
X242067369Y-93562659D01*
X242009174Y-93806470D01*
X241999662Y-94056949D01*
X241051572Y-94056949D01*
X241051572Y-93342500D01*
X241039312Y-93218018D01*
X241004547Y-93103412D01*
X242579017Y-93103412D01*
X243276000Y-93800395D01*
X243972983Y-93103412D01*
X243921114Y-92876012D01*
X243693341Y-92771369D01*
X243449530Y-92713174D01*
X243199051Y-92703662D01*
X242951528Y-92743199D01*
X242716474Y-92830265D01*
X242630886Y-92876012D01*
X242579017Y-93103412D01*
X241004547Y-93103412D01*
X241003002Y-93098320D01*
X240944037Y-92988006D01*
X240864685Y-92891315D01*
X240767994Y-92811963D01*
X240657680Y-92752998D01*
X240537982Y-92716688D01*
X240413500Y-92704428D01*
X239138500Y-92704428D01*
X239014018Y-92716688D01*
X238894320Y-92752998D01*
X238784006Y-92811963D01*
X238687315Y-92891315D01*
X238607963Y-92988006D01*
X238548998Y-93098320D01*
X238512688Y-93218018D01*
X238500428Y-93342500D01*
X222722072Y-93342500D01*
X222722072Y-92114000D01*
X222709812Y-91989518D01*
X222673502Y-91869820D01*
X222614537Y-91759506D01*
X222535185Y-91662815D01*
X222438494Y-91583463D01*
X222328180Y-91524498D01*
X222208482Y-91488188D01*
X222084000Y-91475928D01*
X220384000Y-91475928D01*
X220259518Y-91488188D01*
X220139820Y-91524498D01*
X220029506Y-91583463D01*
X219932815Y-91662815D01*
X219853463Y-91759506D01*
X219794498Y-91869820D01*
X219758188Y-91989518D01*
X219745928Y-92114000D01*
X219745928Y-93814000D01*
X219758188Y-93938482D01*
X219794498Y-94058180D01*
X219853463Y-94168494D01*
X219932815Y-94265185D01*
X220029506Y-94344537D01*
X220139820Y-94403502D01*
X220208687Y-94424393D01*
X220178866Y-94448866D01*
X219993294Y-94674986D01*
X219855401Y-94932966D01*
X219770487Y-95212889D01*
X219741815Y-95504000D01*
X215081168Y-95504000D01*
X215106185Y-95250000D01*
X215077513Y-94958889D01*
X214992599Y-94678966D01*
X214854706Y-94420986D01*
X214669134Y-94194866D01*
X214443014Y-94009294D01*
X214388209Y-93980000D01*
X214443014Y-93950706D01*
X214669134Y-93765134D01*
X214854706Y-93539014D01*
X214992599Y-93281034D01*
X215077513Y-93001111D01*
X215106185Y-92710000D01*
X215077513Y-92418889D01*
X214992599Y-92138966D01*
X214854706Y-91880986D01*
X214669134Y-91654866D01*
X214443014Y-91469294D01*
X214388209Y-91440000D01*
X214443014Y-91410706D01*
X214669134Y-91225134D01*
X214854706Y-90999014D01*
X214992599Y-90741034D01*
X215077513Y-90461111D01*
X215106185Y-90170000D01*
X215077513Y-89878889D01*
X214992599Y-89598966D01*
X214854706Y-89340986D01*
X214669134Y-89114866D01*
X214443014Y-88929294D01*
X214378477Y-88894799D01*
X214495355Y-88825178D01*
X214711588Y-88630269D01*
X214823672Y-88480000D01*
X225333928Y-88480000D01*
X225346188Y-88604482D01*
X225382498Y-88724180D01*
X225441463Y-88834494D01*
X225520815Y-88931185D01*
X225617506Y-89010537D01*
X225727820Y-89069502D01*
X225847518Y-89105812D01*
X225972000Y-89118072D01*
X226536250Y-89115000D01*
X226695000Y-88956250D01*
X226695000Y-87757000D01*
X225495750Y-87757000D01*
X225337000Y-87915750D01*
X225333928Y-88480000D01*
X214823672Y-88480000D01*
X214885641Y-88396920D01*
X215010825Y-88134099D01*
X215055476Y-87986890D01*
X214934155Y-87757000D01*
X213741000Y-87757000D01*
X213741000Y-87777000D01*
X213487000Y-87777000D01*
X213487000Y-87757000D01*
X212293845Y-87757000D01*
X212172524Y-87986890D01*
X212217175Y-88134099D01*
X212342359Y-88396920D01*
X212516412Y-88630269D01*
X212732645Y-88825178D01*
X212849523Y-88894799D01*
X212784986Y-88929294D01*
X212558866Y-89114866D01*
X212373294Y-89340986D01*
X212235401Y-89598966D01*
X212150487Y-89878889D01*
X212121815Y-90170000D01*
X173126000Y-90170000D01*
X173126000Y-87155872D01*
X175565000Y-87155872D01*
X175565000Y-87596128D01*
X175650890Y-88027925D01*
X175819369Y-88434669D01*
X176063962Y-88800729D01*
X176375271Y-89112038D01*
X176741331Y-89356631D01*
X177148075Y-89525110D01*
X177579872Y-89611000D01*
X178020128Y-89611000D01*
X178451925Y-89525110D01*
X178858669Y-89356631D01*
X179224729Y-89112038D01*
X179536038Y-88800729D01*
X179780631Y-88434669D01*
X179949110Y-88027925D01*
X180035000Y-87596128D01*
X180035000Y-87273110D01*
X212172524Y-87273110D01*
X212293845Y-87503000D01*
X213487000Y-87503000D01*
X213487000Y-86309186D01*
X213741000Y-86309186D01*
X213741000Y-87503000D01*
X214934155Y-87503000D01*
X215055476Y-87273110D01*
X215010825Y-87125901D01*
X214885641Y-86863080D01*
X214823673Y-86780000D01*
X225333928Y-86780000D01*
X225337000Y-87344250D01*
X225495750Y-87503000D01*
X226695000Y-87503000D01*
X226695000Y-86303750D01*
X226949000Y-86303750D01*
X226949000Y-87503000D01*
X226969000Y-87503000D01*
X226969000Y-87757000D01*
X226949000Y-87757000D01*
X226949000Y-88956250D01*
X227107750Y-89115000D01*
X227672000Y-89118072D01*
X227796482Y-89105812D01*
X227916180Y-89069502D01*
X228026494Y-89010537D01*
X228123185Y-88931185D01*
X228202537Y-88834494D01*
X228261502Y-88724180D01*
X228282393Y-88655313D01*
X228306866Y-88685134D01*
X228532986Y-88870706D01*
X228790966Y-89008599D01*
X229070889Y-89093513D01*
X229289050Y-89115000D01*
X229434950Y-89115000D01*
X229653111Y-89093513D01*
X229933034Y-89008599D01*
X230191014Y-88870706D01*
X230417134Y-88685134D01*
X230602706Y-88459014D01*
X230632000Y-88404209D01*
X230661294Y-88459014D01*
X230846866Y-88685134D01*
X231072986Y-88870706D01*
X231330966Y-89008599D01*
X231610889Y-89093513D01*
X231829050Y-89115000D01*
X231974950Y-89115000D01*
X232193111Y-89093513D01*
X232473034Y-89008599D01*
X232731014Y-88870706D01*
X232957134Y-88685134D01*
X233142706Y-88459014D01*
X233280599Y-88201034D01*
X233365513Y-87921111D01*
X233394185Y-87630000D01*
X233365513Y-87338889D01*
X233309996Y-87155872D01*
X246939000Y-87155872D01*
X246939000Y-87596128D01*
X247024890Y-88027925D01*
X247193369Y-88434669D01*
X247437962Y-88800729D01*
X247749271Y-89112038D01*
X248115331Y-89356631D01*
X248522075Y-89525110D01*
X248953872Y-89611000D01*
X249394128Y-89611000D01*
X249825925Y-89525110D01*
X250232669Y-89356631D01*
X250598729Y-89112038D01*
X250910038Y-88800729D01*
X251154631Y-88434669D01*
X251323110Y-88027925D01*
X251409000Y-87596128D01*
X251409000Y-87155872D01*
X251323110Y-86724075D01*
X251154631Y-86317331D01*
X250910038Y-85951271D01*
X250598729Y-85639962D01*
X250232669Y-85395369D01*
X249825925Y-85226890D01*
X249394128Y-85141000D01*
X248953872Y-85141000D01*
X248522075Y-85226890D01*
X248115331Y-85395369D01*
X247749271Y-85639962D01*
X247437962Y-85951271D01*
X247193369Y-86317331D01*
X247024890Y-86724075D01*
X246939000Y-87155872D01*
X233309996Y-87155872D01*
X233280599Y-87058966D01*
X233142706Y-86800986D01*
X232957134Y-86574866D01*
X232731014Y-86389294D01*
X232473034Y-86251401D01*
X232193111Y-86166487D01*
X231974950Y-86145000D01*
X231829050Y-86145000D01*
X231610889Y-86166487D01*
X231330966Y-86251401D01*
X231072986Y-86389294D01*
X230846866Y-86574866D01*
X230661294Y-86800986D01*
X230632000Y-86855791D01*
X230602706Y-86800986D01*
X230417134Y-86574866D01*
X230191014Y-86389294D01*
X229933034Y-86251401D01*
X229653111Y-86166487D01*
X229434950Y-86145000D01*
X229289050Y-86145000D01*
X229070889Y-86166487D01*
X228790966Y-86251401D01*
X228532986Y-86389294D01*
X228306866Y-86574866D01*
X228282393Y-86604687D01*
X228261502Y-86535820D01*
X228202537Y-86425506D01*
X228123185Y-86328815D01*
X228026494Y-86249463D01*
X227916180Y-86190498D01*
X227796482Y-86154188D01*
X227672000Y-86141928D01*
X227107750Y-86145000D01*
X226949000Y-86303750D01*
X226695000Y-86303750D01*
X226536250Y-86145000D01*
X225972000Y-86141928D01*
X225847518Y-86154188D01*
X225727820Y-86190498D01*
X225617506Y-86249463D01*
X225520815Y-86328815D01*
X225441463Y-86425506D01*
X225382498Y-86535820D01*
X225346188Y-86655518D01*
X225333928Y-86780000D01*
X214823673Y-86780000D01*
X214711588Y-86629731D01*
X214495355Y-86434822D01*
X214245252Y-86285843D01*
X213970891Y-86188519D01*
X213741000Y-86309186D01*
X213487000Y-86309186D01*
X213257109Y-86188519D01*
X212982748Y-86285843D01*
X212732645Y-86434822D01*
X212516412Y-86629731D01*
X212342359Y-86863080D01*
X212217175Y-87125901D01*
X212172524Y-87273110D01*
X180035000Y-87273110D01*
X180035000Y-87155872D01*
X179949110Y-86724075D01*
X179780631Y-86317331D01*
X179536038Y-85951271D01*
X179224729Y-85639962D01*
X178858669Y-85395369D01*
X178451925Y-85226890D01*
X178020128Y-85141000D01*
X177579872Y-85141000D01*
X177148075Y-85226890D01*
X176741331Y-85395369D01*
X176375271Y-85639962D01*
X176063962Y-85951271D01*
X175819369Y-86317331D01*
X175650890Y-86724075D01*
X175565000Y-87155872D01*
X173126000Y-87155872D01*
X173126000Y-83972000D01*
X253594001Y-83972000D01*
X253594000Y-129388000D01*
X253594000Y-129388000D01*
G37*
X253594000Y-129388000D02*
X173380000Y-129388000D01*
X173380000Y-125509872D01*
X175565000Y-125509872D01*
X175565000Y-125950128D01*
X175650890Y-126381925D01*
X175819369Y-126788669D01*
X176063962Y-127154729D01*
X176375271Y-127466038D01*
X176741331Y-127710631D01*
X177148075Y-127879110D01*
X177579872Y-127965000D01*
X178020128Y-127965000D01*
X178451925Y-127879110D01*
X178858669Y-127710631D01*
X179224729Y-127466038D01*
X179536038Y-127154729D01*
X179780631Y-126788669D01*
X179949110Y-126381925D01*
X180007796Y-126086891D01*
X225126519Y-126086891D01*
X225223843Y-126361252D01*
X225372822Y-126611355D01*
X225567731Y-126827588D01*
X225801080Y-127001641D01*
X226063901Y-127126825D01*
X226211110Y-127171476D01*
X226441000Y-127050155D01*
X226441000Y-125857000D01*
X225247186Y-125857000D01*
X225126519Y-126086891D01*
X180007796Y-126086891D01*
X180035000Y-125950128D01*
X180035000Y-125509872D01*
X180007797Y-125373109D01*
X225126519Y-125373109D01*
X225247186Y-125603000D01*
X226441000Y-125603000D01*
X226441000Y-124409845D01*
X226211110Y-124288524D01*
X226063901Y-124333175D01*
X225801080Y-124458359D01*
X225567731Y-124632412D01*
X225372822Y-124848645D01*
X225223843Y-125098748D01*
X225126519Y-125373109D01*
X180007797Y-125373109D01*
X179949110Y-125078075D01*
X179780631Y-124671331D01*
X179536038Y-124305271D01*
X179224729Y-123993962D01*
X178858669Y-123749369D01*
X178451925Y-123580890D01*
X178020128Y-123495000D01*
X177579872Y-123495000D01*
X177148075Y-123580890D01*
X176741331Y-123749369D01*
X176375271Y-123993962D01*
X176063962Y-124305271D01*
X175819369Y-124671331D01*
X175650890Y-125078075D01*
X175565000Y-125509872D01*
X173380000Y-125509872D01*
X173380000Y-122580000D01*
X183609581Y-122580000D01*
X183642000Y-122583193D01*
X183674419Y-122580000D01*
X183771383Y-122570450D01*
X183895793Y-122532710D01*
X184010450Y-122471425D01*
X184110948Y-122388948D01*
X184193425Y-122288450D01*
X184254710Y-122173793D01*
X184292450Y-122049383D01*
X184305193Y-121920000D01*
X184302000Y-121887581D01*
X184302000Y-101752061D01*
X203653000Y-101752061D01*
X203653000Y-101955939D01*
X203692774Y-102155898D01*
X203770795Y-102344256D01*
X203884063Y-102513774D01*
X204028226Y-102657937D01*
X204197744Y-102771205D01*
X204386102Y-102849226D01*
X204586061Y-102889000D01*
X204789939Y-102889000D01*
X204989898Y-102849226D01*
X205178256Y-102771205D01*
X205347774Y-102657937D01*
X205391711Y-102614000D01*
X210251199Y-102614000D01*
X215373000Y-107735802D01*
X215373000Y-107797939D01*
X215412774Y-107997898D01*
X215490795Y-108186256D01*
X215604063Y-108355774D01*
X215748226Y-108499937D01*
X215917744Y-108613205D01*
X216106102Y-108691226D01*
X216306061Y-108731000D01*
X216509939Y-108731000D01*
X216709898Y-108691226D01*
X216898256Y-108613205D01*
X217067774Y-108499937D01*
X217211937Y-108355774D01*
X217325205Y-108186256D01*
X217403226Y-107997898D01*
X217443000Y-107797939D01*
X217443000Y-107594061D01*
X217403226Y-107394102D01*
X217325205Y-107205744D01*
X217211937Y-107036226D01*
X217067774Y-106892063D01*
X216898256Y-106778795D01*
X216709898Y-106700774D01*
X216509939Y-106661000D01*
X216447802Y-106661000D01*
X211129804Y-101343003D01*
X211106001Y-101313999D01*
X210990276Y-101219026D01*
X210858247Y-101148454D01*
X210714986Y-101104997D01*
X210603333Y-101094000D01*
X210603322Y-101094000D01*
X210566000Y-101090324D01*
X210528678Y-101094000D01*
X205391711Y-101094000D01*
X205347774Y-101050063D01*
X205178256Y-100936795D01*
X204989898Y-100858774D01*
X204789939Y-100819000D01*
X204586061Y-100819000D01*
X204386102Y-100858774D01*
X204197744Y-100936795D01*
X204028226Y-101050063D01*
X203884063Y-101194226D01*
X203770795Y-101363744D01*
X203692774Y-101552102D01*
X203653000Y-101752061D01*
X184302000Y-101752061D01*
X184302000Y-91472418D01*
X184305193Y-91440000D01*
X184292450Y-91310617D01*
X184254710Y-91186207D01*
X184193425Y-91071550D01*
X184110948Y-90971052D01*
X184010450Y-90888575D01*
X183895793Y-90827290D01*
X183771383Y-90789550D01*
X183674419Y-90780000D01*
X183642000Y-90776807D01*
X183609581Y-90780000D01*
X173126000Y-90780000D01*
X173126000Y-90170000D01*
X212121815Y-90170000D01*
X212150487Y-90461111D01*
X212235401Y-90741034D01*
X212373294Y-90999014D01*
X212558866Y-91225134D01*
X212784986Y-91410706D01*
X212839791Y-91440000D01*
X212784986Y-91469294D01*
X212558866Y-91654866D01*
X212373294Y-91880986D01*
X212235401Y-92138966D01*
X212150487Y-92418889D01*
X212121815Y-92710000D01*
X212150487Y-93001111D01*
X212235401Y-93281034D01*
X212373294Y-93539014D01*
X212558866Y-93765134D01*
X212784986Y-93950706D01*
X212839791Y-93980000D01*
X212784986Y-94009294D01*
X212558866Y-94194866D01*
X212373294Y-94420986D01*
X212235401Y-94678966D01*
X212150487Y-94958889D01*
X212121815Y-95250000D01*
X212150487Y-95541111D01*
X212235401Y-95821034D01*
X212373294Y-96079014D01*
X212558866Y-96305134D01*
X212784986Y-96490706D01*
X212839791Y-96520000D01*
X212784986Y-96549294D01*
X212558866Y-96734866D01*
X212373294Y-96960986D01*
X212235401Y-97218966D01*
X212150487Y-97498889D01*
X212121815Y-97790000D01*
X212150487Y-98081111D01*
X212235401Y-98361034D01*
X212373294Y-98619014D01*
X212558866Y-98845134D01*
X212588687Y-98869607D01*
X212519820Y-98890498D01*
X212409506Y-98949463D01*
X212312815Y-99028815D01*
X212233463Y-99125506D01*
X212174498Y-99235820D01*
X212138188Y-99355518D01*
X212125928Y-99480000D01*
X212125928Y-101180000D01*
X212138188Y-101304482D01*
X212174498Y-101424180D01*
X212233463Y-101534494D01*
X212312815Y-101631185D01*
X212409506Y-101710537D01*
X212519820Y-101769502D01*
X212639518Y-101805812D01*
X212764000Y-101818072D01*
X214464000Y-101818072D01*
X214588482Y-101805812D01*
X214708180Y-101769502D01*
X214818494Y-101710537D01*
X214915185Y-101631185D01*
X214994537Y-101534494D01*
X215053502Y-101424180D01*
X215089812Y-101304482D01*
X215102072Y-101180000D01*
X215102072Y-99480000D01*
X215089812Y-99355518D01*
X215053502Y-99235820D01*
X214994537Y-99125506D01*
X214915185Y-99028815D01*
X214818494Y-98949463D01*
X214708180Y-98890498D01*
X214639313Y-98869607D01*
X214669134Y-98845134D01*
X214854706Y-98619014D01*
X214992599Y-98361034D01*
X215077513Y-98081111D01*
X215106185Y-97790000D01*
X215077513Y-97498889D01*
X214992599Y-97218966D01*
X214854706Y-96960986D01*
X214669134Y-96734866D01*
X214443014Y-96549294D01*
X214388209Y-96520000D01*
X214443014Y-96490706D01*
X214669134Y-96305134D01*
X214854706Y-96079014D01*
X214992599Y-95821034D01*
X215077513Y-95541111D01*
X215081168Y-95504000D01*
X219741815Y-95504000D01*
X219770487Y-95795111D01*
X219855401Y-96075034D01*
X219993294Y-96333014D01*
X220178866Y-96559134D01*
X220404986Y-96744706D01*
X220459791Y-96774000D01*
X220404986Y-96803294D01*
X220178866Y-96988866D01*
X219993294Y-97214986D01*
X219855401Y-97472966D01*
X219770487Y-97752889D01*
X219741815Y-98044000D01*
X219770487Y-98335111D01*
X219855401Y-98615034D01*
X219993294Y-98873014D01*
X220178866Y-99099134D01*
X220404986Y-99284706D01*
X220662966Y-99422599D01*
X220942889Y-99507513D01*
X221161050Y-99529000D01*
X221306950Y-99529000D01*
X221525111Y-99507513D01*
X221599996Y-99484797D01*
X224792001Y-102676803D01*
X224792000Y-120841676D01*
X224788324Y-120878998D01*
X224792000Y-120916320D01*
X224792000Y-120916330D01*
X224802997Y-121027983D01*
X224846454Y-121171244D01*
X224917026Y-121303274D01*
X224956871Y-121351824D01*
X225011999Y-121418999D01*
X225041003Y-121442802D01*
X228173809Y-124575610D01*
X228052866Y-124674866D01*
X227867294Y-124900986D01*
X227832799Y-124965523D01*
X227763178Y-124848645D01*
X227568269Y-124632412D01*
X227334920Y-124458359D01*
X227072099Y-124333175D01*
X226924890Y-124288524D01*
X226695000Y-124409845D01*
X226695000Y-125603000D01*
X226715000Y-125603000D01*
X226715000Y-125857000D01*
X226695000Y-125857000D01*
X226695000Y-127050155D01*
X226924890Y-127171476D01*
X227072099Y-127126825D01*
X227334920Y-127001641D01*
X227568269Y-126827588D01*
X227763178Y-126611355D01*
X227832799Y-126494477D01*
X227867294Y-126559014D01*
X228052866Y-126785134D01*
X228278986Y-126970706D01*
X228536966Y-127108599D01*
X228816889Y-127193513D01*
X229035050Y-127215000D01*
X229180950Y-127215000D01*
X229399111Y-127193513D01*
X229679034Y-127108599D01*
X229937014Y-126970706D01*
X230163134Y-126785134D01*
X230187607Y-126755313D01*
X230208498Y-126824180D01*
X230267463Y-126934494D01*
X230346815Y-127031185D01*
X230443506Y-127110537D01*
X230553820Y-127169502D01*
X230673518Y-127205812D01*
X230798000Y-127218072D01*
X232498000Y-127218072D01*
X232622482Y-127205812D01*
X232742180Y-127169502D01*
X232852494Y-127110537D01*
X232949185Y-127031185D01*
X233028537Y-126934494D01*
X233087502Y-126824180D01*
X233123812Y-126704482D01*
X233136072Y-126580000D01*
X233136072Y-125509872D01*
X246939000Y-125509872D01*
X246939000Y-125950128D01*
X247024890Y-126381925D01*
X247193369Y-126788669D01*
X247437962Y-127154729D01*
X247749271Y-127466038D01*
X248115331Y-127710631D01*
X248522075Y-127879110D01*
X248953872Y-127965000D01*
X249394128Y-127965000D01*
X249825925Y-127879110D01*
X250232669Y-127710631D01*
X250598729Y-127466038D01*
X250910038Y-127154729D01*
X251154631Y-126788669D01*
X251323110Y-126381925D01*
X251409000Y-125950128D01*
X251409000Y-125509872D01*
X251323110Y-125078075D01*
X251154631Y-124671331D01*
X250910038Y-124305271D01*
X250598729Y-123993962D01*
X250232669Y-123749369D01*
X249825925Y-123580890D01*
X249394128Y-123495000D01*
X248953872Y-123495000D01*
X248522075Y-123580890D01*
X248115331Y-123749369D01*
X247749271Y-123993962D01*
X247437962Y-124305271D01*
X247193369Y-124671331D01*
X247024890Y-125078075D01*
X246939000Y-125509872D01*
X233136072Y-125509872D01*
X233136072Y-124880000D01*
X233123812Y-124755518D01*
X233087502Y-124635820D01*
X233028537Y-124525506D01*
X232949185Y-124428815D01*
X232852494Y-124349463D01*
X232742180Y-124290498D01*
X232622482Y-124254188D01*
X232498000Y-124241928D01*
X230798000Y-124241928D01*
X230673518Y-124254188D01*
X230553820Y-124290498D01*
X230443506Y-124349463D01*
X230346815Y-124428815D01*
X230267463Y-124525506D01*
X230208498Y-124635820D01*
X230187607Y-124704687D01*
X230163134Y-124674866D01*
X229937014Y-124489294D01*
X229869863Y-124453401D01*
X229871676Y-124434997D01*
X229868000Y-124397674D01*
X229868000Y-124397665D01*
X229857003Y-124286012D01*
X229813546Y-124142751D01*
X229742974Y-124010722D01*
X229729219Y-123993962D01*
X229671799Y-123923994D01*
X229671795Y-123923990D01*
X229648001Y-123894997D01*
X229619008Y-123871203D01*
X226312000Y-120564197D01*
X226312000Y-103981518D01*
X238692690Y-103981518D01*
X238692690Y-104298482D01*
X238754526Y-104609354D01*
X238875823Y-104902190D01*
X239051918Y-105165735D01*
X239276045Y-105389862D01*
X239539590Y-105565957D01*
X239832426Y-105687254D01*
X240143298Y-105749090D01*
X240460262Y-105749090D01*
X240771134Y-105687254D01*
X241063970Y-105565957D01*
X241327515Y-105389862D01*
X241460442Y-105256935D01*
X245163270Y-105256935D01*
X245255905Y-105518688D01*
X245541105Y-105656989D01*
X245847805Y-105736992D01*
X246164220Y-105755624D01*
X246478190Y-105712169D01*
X246777650Y-105608297D01*
X246945295Y-105518688D01*
X247037930Y-105256935D01*
X246100600Y-104319605D01*
X245163270Y-105256935D01*
X241460442Y-105256935D01*
X241551642Y-105165735D01*
X241727737Y-104902190D01*
X241849034Y-104609354D01*
X241910870Y-104298482D01*
X241910870Y-104203620D01*
X244484976Y-104203620D01*
X244528431Y-104517590D01*
X244632303Y-104817050D01*
X244721912Y-104984695D01*
X244983665Y-105077330D01*
X245920995Y-104140000D01*
X246280205Y-104140000D01*
X247217535Y-105077330D01*
X247479288Y-104984695D01*
X247617589Y-104699495D01*
X247697592Y-104392795D01*
X247716224Y-104076380D01*
X247672769Y-103762410D01*
X247568897Y-103462950D01*
X247479288Y-103295305D01*
X247217535Y-103202670D01*
X246280205Y-104140000D01*
X245920995Y-104140000D01*
X244983665Y-103202670D01*
X244721912Y-103295305D01*
X244583611Y-103580505D01*
X244503608Y-103887205D01*
X244484976Y-104203620D01*
X241910870Y-104203620D01*
X241910870Y-103981518D01*
X241849034Y-103670646D01*
X241727737Y-103377810D01*
X241551642Y-103114265D01*
X241460442Y-103023065D01*
X245163270Y-103023065D01*
X246100600Y-103960395D01*
X247037930Y-103023065D01*
X246945295Y-102761312D01*
X246660095Y-102623011D01*
X246353395Y-102543008D01*
X246036980Y-102524376D01*
X245723010Y-102567831D01*
X245423550Y-102671703D01*
X245255905Y-102761312D01*
X245163270Y-103023065D01*
X241460442Y-103023065D01*
X241327515Y-102890138D01*
X241063970Y-102714043D01*
X240771134Y-102592746D01*
X240460262Y-102530910D01*
X240143298Y-102530910D01*
X239832426Y-102592746D01*
X239539590Y-102714043D01*
X239276045Y-102890138D01*
X239051918Y-103114265D01*
X238875823Y-103377810D01*
X238754526Y-103670646D01*
X238692690Y-103981518D01*
X226312000Y-103981518D01*
X226312000Y-102399322D01*
X226315676Y-102361999D01*
X226312000Y-102324676D01*
X226312000Y-102324667D01*
X226301003Y-102213014D01*
X226257546Y-102069753D01*
X226186974Y-101937724D01*
X226092001Y-101821999D01*
X226063003Y-101798201D01*
X224723677Y-100458875D01*
X242364190Y-100458875D01*
X242456825Y-100720628D01*
X242742025Y-100858929D01*
X243048725Y-100938932D01*
X243365140Y-100957564D01*
X243679110Y-100914109D01*
X243978570Y-100810237D01*
X244146215Y-100720628D01*
X244238850Y-100458875D01*
X243301520Y-99521545D01*
X242364190Y-100458875D01*
X224723677Y-100458875D01*
X223670362Y-99405560D01*
X241685896Y-99405560D01*
X241729351Y-99719530D01*
X241833223Y-100018990D01*
X241922832Y-100186635D01*
X242184585Y-100279270D01*
X243121915Y-99341940D01*
X243481125Y-99341940D01*
X244418455Y-100279270D01*
X244680208Y-100186635D01*
X244818509Y-99901435D01*
X244898512Y-99594735D01*
X244917144Y-99278320D01*
X244873689Y-98964350D01*
X244769817Y-98664890D01*
X244680208Y-98497245D01*
X244418455Y-98404610D01*
X243481125Y-99341940D01*
X243121915Y-99341940D01*
X242184585Y-98404610D01*
X241922832Y-98497245D01*
X241784531Y-98782445D01*
X241704528Y-99089145D01*
X241685896Y-99405560D01*
X223670362Y-99405560D01*
X222674797Y-98409996D01*
X222697513Y-98335111D01*
X222708357Y-98225005D01*
X242364190Y-98225005D01*
X243301520Y-99162335D01*
X244238850Y-98225005D01*
X244146215Y-97963252D01*
X243861015Y-97824951D01*
X243554315Y-97744948D01*
X243237900Y-97726316D01*
X242923930Y-97769771D01*
X242624470Y-97873643D01*
X242456825Y-97963252D01*
X242364190Y-98225005D01*
X222708357Y-98225005D01*
X222726185Y-98044000D01*
X222697513Y-97752889D01*
X222612599Y-97472966D01*
X222474706Y-97214986D01*
X222289134Y-96988866D01*
X222063014Y-96803294D01*
X222008209Y-96774000D01*
X222063014Y-96744706D01*
X222289134Y-96559134D01*
X222474706Y-96333014D01*
X222612599Y-96075034D01*
X222697513Y-95795111D01*
X222726185Y-95504000D01*
X222697513Y-95212889D01*
X222612599Y-94932966D01*
X222474706Y-94674986D01*
X222289134Y-94448866D01*
X222259313Y-94424393D01*
X222328180Y-94403502D01*
X222438494Y-94344537D01*
X222535185Y-94265185D01*
X222614537Y-94168494D01*
X222673502Y-94058180D01*
X222709812Y-93938482D01*
X222722072Y-93814000D01*
X222722072Y-93342500D01*
X238500428Y-93342500D01*
X238500428Y-94617500D01*
X238512688Y-94741982D01*
X238548998Y-94861680D01*
X238607963Y-94971994D01*
X238687315Y-95068685D01*
X238784006Y-95148037D01*
X238894320Y-95207002D01*
X239014018Y-95243312D01*
X239138500Y-95255572D01*
X240413500Y-95255572D01*
X240537982Y-95243312D01*
X240657680Y-95207002D01*
X240767994Y-95148037D01*
X240864685Y-95068685D01*
X240944037Y-94971994D01*
X241003002Y-94861680D01*
X241004546Y-94856588D01*
X242579017Y-94856588D01*
X242630886Y-95083988D01*
X242858659Y-95188631D01*
X243102470Y-95246826D01*
X243352949Y-95256338D01*
X243600472Y-95216801D01*
X243835526Y-95129735D01*
X243921114Y-95083988D01*
X243972983Y-94856588D01*
X243276000Y-94159605D01*
X242579017Y-94856588D01*
X241004546Y-94856588D01*
X241039312Y-94741982D01*
X241051572Y-94617500D01*
X241051572Y-94056949D01*
X241999662Y-94056949D01*
X242039199Y-94304472D01*
X242126265Y-94539526D01*
X242172012Y-94625114D01*
X242399412Y-94676983D01*
X243096395Y-93980000D01*
X243455605Y-93980000D01*
X244152588Y-94676983D01*
X244379988Y-94625114D01*
X244484631Y-94397341D01*
X244542826Y-94153530D01*
X244552338Y-93903051D01*
X244512801Y-93655528D01*
X244425735Y-93420474D01*
X244379988Y-93334886D01*
X244152588Y-93283017D01*
X243455605Y-93980000D01*
X243096395Y-93980000D01*
X242399412Y-93283017D01*
X242172012Y-93334886D01*
X242067369Y-93562659D01*
X242009174Y-93806470D01*
X241999662Y-94056949D01*
X241051572Y-94056949D01*
X241051572Y-93342500D01*
X241039312Y-93218018D01*
X241004547Y-93103412D01*
X242579017Y-93103412D01*
X243276000Y-93800395D01*
X243972983Y-93103412D01*
X243921114Y-92876012D01*
X243693341Y-92771369D01*
X243449530Y-92713174D01*
X243199051Y-92703662D01*
X242951528Y-92743199D01*
X242716474Y-92830265D01*
X242630886Y-92876012D01*
X242579017Y-93103412D01*
X241004547Y-93103412D01*
X241003002Y-93098320D01*
X240944037Y-92988006D01*
X240864685Y-92891315D01*
X240767994Y-92811963D01*
X240657680Y-92752998D01*
X240537982Y-92716688D01*
X240413500Y-92704428D01*
X239138500Y-92704428D01*
X239014018Y-92716688D01*
X238894320Y-92752998D01*
X238784006Y-92811963D01*
X238687315Y-92891315D01*
X238607963Y-92988006D01*
X238548998Y-93098320D01*
X238512688Y-93218018D01*
X238500428Y-93342500D01*
X222722072Y-93342500D01*
X222722072Y-92114000D01*
X222709812Y-91989518D01*
X222673502Y-91869820D01*
X222614537Y-91759506D01*
X222535185Y-91662815D01*
X222438494Y-91583463D01*
X222328180Y-91524498D01*
X222208482Y-91488188D01*
X222084000Y-91475928D01*
X220384000Y-91475928D01*
X220259518Y-91488188D01*
X220139820Y-91524498D01*
X220029506Y-91583463D01*
X219932815Y-91662815D01*
X219853463Y-91759506D01*
X219794498Y-91869820D01*
X219758188Y-91989518D01*
X219745928Y-92114000D01*
X219745928Y-93814000D01*
X219758188Y-93938482D01*
X219794498Y-94058180D01*
X219853463Y-94168494D01*
X219932815Y-94265185D01*
X220029506Y-94344537D01*
X220139820Y-94403502D01*
X220208687Y-94424393D01*
X220178866Y-94448866D01*
X219993294Y-94674986D01*
X219855401Y-94932966D01*
X219770487Y-95212889D01*
X219741815Y-95504000D01*
X215081168Y-95504000D01*
X215106185Y-95250000D01*
X215077513Y-94958889D01*
X214992599Y-94678966D01*
X214854706Y-94420986D01*
X214669134Y-94194866D01*
X214443014Y-94009294D01*
X214388209Y-93980000D01*
X214443014Y-93950706D01*
X214669134Y-93765134D01*
X214854706Y-93539014D01*
X214992599Y-93281034D01*
X215077513Y-93001111D01*
X215106185Y-92710000D01*
X215077513Y-92418889D01*
X214992599Y-92138966D01*
X214854706Y-91880986D01*
X214669134Y-91654866D01*
X214443014Y-91469294D01*
X214388209Y-91440000D01*
X214443014Y-91410706D01*
X214669134Y-91225134D01*
X214854706Y-90999014D01*
X214992599Y-90741034D01*
X215077513Y-90461111D01*
X215106185Y-90170000D01*
X215077513Y-89878889D01*
X214992599Y-89598966D01*
X214854706Y-89340986D01*
X214669134Y-89114866D01*
X214443014Y-88929294D01*
X214378477Y-88894799D01*
X214495355Y-88825178D01*
X214711588Y-88630269D01*
X214823672Y-88480000D01*
X225333928Y-88480000D01*
X225346188Y-88604482D01*
X225382498Y-88724180D01*
X225441463Y-88834494D01*
X225520815Y-88931185D01*
X225617506Y-89010537D01*
X225727820Y-89069502D01*
X225847518Y-89105812D01*
X225972000Y-89118072D01*
X226536250Y-89115000D01*
X226695000Y-88956250D01*
X226695000Y-87757000D01*
X225495750Y-87757000D01*
X225337000Y-87915750D01*
X225333928Y-88480000D01*
X214823672Y-88480000D01*
X214885641Y-88396920D01*
X215010825Y-88134099D01*
X215055476Y-87986890D01*
X214934155Y-87757000D01*
X213741000Y-87757000D01*
X213741000Y-87777000D01*
X213487000Y-87777000D01*
X213487000Y-87757000D01*
X212293845Y-87757000D01*
X212172524Y-87986890D01*
X212217175Y-88134099D01*
X212342359Y-88396920D01*
X212516412Y-88630269D01*
X212732645Y-88825178D01*
X212849523Y-88894799D01*
X212784986Y-88929294D01*
X212558866Y-89114866D01*
X212373294Y-89340986D01*
X212235401Y-89598966D01*
X212150487Y-89878889D01*
X212121815Y-90170000D01*
X173126000Y-90170000D01*
X173126000Y-87155872D01*
X175565000Y-87155872D01*
X175565000Y-87596128D01*
X175650890Y-88027925D01*
X175819369Y-88434669D01*
X176063962Y-88800729D01*
X176375271Y-89112038D01*
X176741331Y-89356631D01*
X177148075Y-89525110D01*
X177579872Y-89611000D01*
X178020128Y-89611000D01*
X178451925Y-89525110D01*
X178858669Y-89356631D01*
X179224729Y-89112038D01*
X179536038Y-88800729D01*
X179780631Y-88434669D01*
X179949110Y-88027925D01*
X180035000Y-87596128D01*
X180035000Y-87273110D01*
X212172524Y-87273110D01*
X212293845Y-87503000D01*
X213487000Y-87503000D01*
X213487000Y-86309186D01*
X213741000Y-86309186D01*
X213741000Y-87503000D01*
X214934155Y-87503000D01*
X215055476Y-87273110D01*
X215010825Y-87125901D01*
X214885641Y-86863080D01*
X214823673Y-86780000D01*
X225333928Y-86780000D01*
X225337000Y-87344250D01*
X225495750Y-87503000D01*
X226695000Y-87503000D01*
X226695000Y-86303750D01*
X226949000Y-86303750D01*
X226949000Y-87503000D01*
X226969000Y-87503000D01*
X226969000Y-87757000D01*
X226949000Y-87757000D01*
X226949000Y-88956250D01*
X227107750Y-89115000D01*
X227672000Y-89118072D01*
X227796482Y-89105812D01*
X227916180Y-89069502D01*
X228026494Y-89010537D01*
X228123185Y-88931185D01*
X228202537Y-88834494D01*
X228261502Y-88724180D01*
X228282393Y-88655313D01*
X228306866Y-88685134D01*
X228532986Y-88870706D01*
X228790966Y-89008599D01*
X229070889Y-89093513D01*
X229289050Y-89115000D01*
X229434950Y-89115000D01*
X229653111Y-89093513D01*
X229933034Y-89008599D01*
X230191014Y-88870706D01*
X230417134Y-88685134D01*
X230602706Y-88459014D01*
X230632000Y-88404209D01*
X230661294Y-88459014D01*
X230846866Y-88685134D01*
X231072986Y-88870706D01*
X231330966Y-89008599D01*
X231610889Y-89093513D01*
X231829050Y-89115000D01*
X231974950Y-89115000D01*
X232193111Y-89093513D01*
X232473034Y-89008599D01*
X232731014Y-88870706D01*
X232957134Y-88685134D01*
X233142706Y-88459014D01*
X233280599Y-88201034D01*
X233365513Y-87921111D01*
X233394185Y-87630000D01*
X233365513Y-87338889D01*
X233309996Y-87155872D01*
X246939000Y-87155872D01*
X246939000Y-87596128D01*
X247024890Y-88027925D01*
X247193369Y-88434669D01*
X247437962Y-88800729D01*
X247749271Y-89112038D01*
X248115331Y-89356631D01*
X248522075Y-89525110D01*
X248953872Y-89611000D01*
X249394128Y-89611000D01*
X249825925Y-89525110D01*
X250232669Y-89356631D01*
X250598729Y-89112038D01*
X250910038Y-88800729D01*
X251154631Y-88434669D01*
X251323110Y-88027925D01*
X251409000Y-87596128D01*
X251409000Y-87155872D01*
X251323110Y-86724075D01*
X251154631Y-86317331D01*
X250910038Y-85951271D01*
X250598729Y-85639962D01*
X250232669Y-85395369D01*
X249825925Y-85226890D01*
X249394128Y-85141000D01*
X248953872Y-85141000D01*
X248522075Y-85226890D01*
X248115331Y-85395369D01*
X247749271Y-85639962D01*
X247437962Y-85951271D01*
X247193369Y-86317331D01*
X247024890Y-86724075D01*
X246939000Y-87155872D01*
X233309996Y-87155872D01*
X233280599Y-87058966D01*
X233142706Y-86800986D01*
X232957134Y-86574866D01*
X232731014Y-86389294D01*
X232473034Y-86251401D01*
X232193111Y-86166487D01*
X231974950Y-86145000D01*
X231829050Y-86145000D01*
X231610889Y-86166487D01*
X231330966Y-86251401D01*
X231072986Y-86389294D01*
X230846866Y-86574866D01*
X230661294Y-86800986D01*
X230632000Y-86855791D01*
X230602706Y-86800986D01*
X230417134Y-86574866D01*
X230191014Y-86389294D01*
X229933034Y-86251401D01*
X229653111Y-86166487D01*
X229434950Y-86145000D01*
X229289050Y-86145000D01*
X229070889Y-86166487D01*
X228790966Y-86251401D01*
X228532986Y-86389294D01*
X228306866Y-86574866D01*
X228282393Y-86604687D01*
X228261502Y-86535820D01*
X228202537Y-86425506D01*
X228123185Y-86328815D01*
X228026494Y-86249463D01*
X227916180Y-86190498D01*
X227796482Y-86154188D01*
X227672000Y-86141928D01*
X227107750Y-86145000D01*
X226949000Y-86303750D01*
X226695000Y-86303750D01*
X226536250Y-86145000D01*
X225972000Y-86141928D01*
X225847518Y-86154188D01*
X225727820Y-86190498D01*
X225617506Y-86249463D01*
X225520815Y-86328815D01*
X225441463Y-86425506D01*
X225382498Y-86535820D01*
X225346188Y-86655518D01*
X225333928Y-86780000D01*
X214823673Y-86780000D01*
X214711588Y-86629731D01*
X214495355Y-86434822D01*
X214245252Y-86285843D01*
X213970891Y-86188519D01*
X213741000Y-86309186D01*
X213487000Y-86309186D01*
X213257109Y-86188519D01*
X212982748Y-86285843D01*
X212732645Y-86434822D01*
X212516412Y-86629731D01*
X212342359Y-86863080D01*
X212217175Y-87125901D01*
X212172524Y-87273110D01*
X180035000Y-87273110D01*
X180035000Y-87155872D01*
X179949110Y-86724075D01*
X179780631Y-86317331D01*
X179536038Y-85951271D01*
X179224729Y-85639962D01*
X178858669Y-85395369D01*
X178451925Y-85226890D01*
X178020128Y-85141000D01*
X177579872Y-85141000D01*
X177148075Y-85226890D01*
X176741331Y-85395369D01*
X176375271Y-85639962D01*
X176063962Y-85951271D01*
X175819369Y-86317331D01*
X175650890Y-86724075D01*
X175565000Y-87155872D01*
X173126000Y-87155872D01*
X173126000Y-83972000D01*
X253594001Y-83972000D01*
X253594000Y-129388000D01*
M02*
