%TF.GenerationSoftware,KiCad,Pcbnew,(5.1.4)-1*%
%TF.CreationDate,2020-11-25T14:42:45+00:00*%
%TF.ProjectId,WLED Module,574c4544-204d-46f6-9475-6c652e6b6963,rev?*%
%TF.SameCoordinates,Original*%
%TF.FileFunction,Copper,L1,Top*%
%TF.FilePolarity,Positive*%
%FSLAX46Y46*%
G04 Gerber Fmt 4.6, Leading zero omitted, Abs format (unit mm)*
G04 Created by KiCad (PCBNEW (5.1.4)-1) date 2020-11-25 14:42:45*
%MOMM*%
%LPD*%
G04 APERTURE LIST*
%ADD10C,0.050000*%
%ADD11C,5.600000*%
%ADD12C,2.700000*%
%ADD13C,0.100000*%
%ADD14C,2.780000*%
%ADD15O,1.700000X1.700000*%
%ADD16R,1.700000X1.700000*%
%ADD17C,1.150000*%
%ADD18R,1.500000X0.450000*%
%ADD19R,0.450000X1.500000*%
%ADD20R,1.525000X0.650000*%
%ADD21R,1.275000X1.275000*%
%ADD22C,1.275000*%
%ADD23C,0.500000*%
%ADD24C,0.950000*%
%ADD25R,5.000000X5.000000*%
%ADD26R,0.900000X2.000000*%
%ADD27R,2.000000X0.900000*%
%ADD28R,2.000000X3.800000*%
%ADD29R,2.000000X1.500000*%
%ADD30C,0.800000*%
%ADD31C,0.635000*%
%ADD32C,0.250000*%
%ADD33C,0.254000*%
G04 APERTURE END LIST*
D10*
X254254000Y-130048000D02*
X259334000Y-130048000D01*
X172466000Y-83312000D02*
X259334000Y-83312000D01*
X259334000Y-83312000D02*
X259334000Y-130048000D01*
X183642000Y-91440000D02*
X182880000Y-91440000D01*
X183642000Y-121920000D02*
X183642000Y-91440000D01*
X182880000Y-121920000D02*
X183642000Y-121920000D01*
X254254000Y-130048000D02*
X172720000Y-130048000D01*
X172466000Y-91440000D02*
X172466000Y-83312000D01*
X182880000Y-91440000D02*
X172466000Y-91440000D01*
X172720000Y-121920000D02*
X182880000Y-121920000D01*
X172720000Y-130048000D02*
X172720000Y-121920000D01*
D11*
X254508000Y-126238000D03*
X254508000Y-87630000D03*
X187706000Y-126238000D03*
X187706000Y-87630000D03*
D12*
X243840000Y-105514000D03*
D13*
G36*
X244964503Y-108125204D02*
G01*
X244988772Y-108128804D01*
X245012570Y-108134765D01*
X245035670Y-108143030D01*
X245057849Y-108153520D01*
X245078892Y-108166133D01*
X245098598Y-108180748D01*
X245116776Y-108197224D01*
X245133252Y-108215402D01*
X245147867Y-108235108D01*
X245160480Y-108256151D01*
X245170970Y-108278330D01*
X245179235Y-108301430D01*
X245185196Y-108325228D01*
X245188796Y-108349497D01*
X245190000Y-108374001D01*
X245190000Y-110573999D01*
X245188796Y-110598503D01*
X245185196Y-110622772D01*
X245179235Y-110646570D01*
X245170970Y-110669670D01*
X245160480Y-110691849D01*
X245147867Y-110712892D01*
X245133252Y-110732598D01*
X245116776Y-110750776D01*
X245098598Y-110767252D01*
X245078892Y-110781867D01*
X245057849Y-110794480D01*
X245035670Y-110804970D01*
X245012570Y-110813235D01*
X244988772Y-110819196D01*
X244964503Y-110822796D01*
X244939999Y-110824000D01*
X242740001Y-110824000D01*
X242715497Y-110822796D01*
X242691228Y-110819196D01*
X242667430Y-110813235D01*
X242644330Y-110804970D01*
X242622151Y-110794480D01*
X242601108Y-110781867D01*
X242581402Y-110767252D01*
X242563224Y-110750776D01*
X242546748Y-110732598D01*
X242532133Y-110712892D01*
X242519520Y-110691849D01*
X242509030Y-110669670D01*
X242500765Y-110646570D01*
X242494804Y-110622772D01*
X242491204Y-110598503D01*
X242490000Y-110573999D01*
X242490000Y-108374001D01*
X242491204Y-108349497D01*
X242494804Y-108325228D01*
X242500765Y-108301430D01*
X242509030Y-108278330D01*
X242519520Y-108256151D01*
X242532133Y-108235108D01*
X242546748Y-108215402D01*
X242563224Y-108197224D01*
X242581402Y-108180748D01*
X242601108Y-108166133D01*
X242622151Y-108153520D01*
X242644330Y-108143030D01*
X242667430Y-108134765D01*
X242691228Y-108128804D01*
X242715497Y-108125204D01*
X242740001Y-108124000D01*
X244939999Y-108124000D01*
X244964503Y-108125204D01*
X244964503Y-108125204D01*
G37*
D12*
X243840000Y-109474000D03*
D14*
X247918000Y-119732000D03*
X247918000Y-116332000D03*
X237998000Y-119732000D03*
X237998000Y-116332000D03*
D15*
X231902000Y-87630000D03*
X229362000Y-87630000D03*
D16*
X226822000Y-87630000D03*
D13*
G36*
X208874505Y-100139204D02*
G01*
X208898773Y-100142804D01*
X208922572Y-100148765D01*
X208945671Y-100157030D01*
X208967850Y-100167520D01*
X208988893Y-100180132D01*
X209008599Y-100194747D01*
X209026777Y-100211223D01*
X209043253Y-100229401D01*
X209057868Y-100249107D01*
X209070480Y-100270150D01*
X209080970Y-100292329D01*
X209089235Y-100315428D01*
X209095196Y-100339227D01*
X209098796Y-100363495D01*
X209100000Y-100387999D01*
X209100000Y-101288001D01*
X209098796Y-101312505D01*
X209095196Y-101336773D01*
X209089235Y-101360572D01*
X209080970Y-101383671D01*
X209070480Y-101405850D01*
X209057868Y-101426893D01*
X209043253Y-101446599D01*
X209026777Y-101464777D01*
X209008599Y-101481253D01*
X208988893Y-101495868D01*
X208967850Y-101508480D01*
X208945671Y-101518970D01*
X208922572Y-101527235D01*
X208898773Y-101533196D01*
X208874505Y-101536796D01*
X208850001Y-101538000D01*
X208199999Y-101538000D01*
X208175495Y-101536796D01*
X208151227Y-101533196D01*
X208127428Y-101527235D01*
X208104329Y-101518970D01*
X208082150Y-101508480D01*
X208061107Y-101495868D01*
X208041401Y-101481253D01*
X208023223Y-101464777D01*
X208006747Y-101446599D01*
X207992132Y-101426893D01*
X207979520Y-101405850D01*
X207969030Y-101383671D01*
X207960765Y-101360572D01*
X207954804Y-101336773D01*
X207951204Y-101312505D01*
X207950000Y-101288001D01*
X207950000Y-100387999D01*
X207951204Y-100363495D01*
X207954804Y-100339227D01*
X207960765Y-100315428D01*
X207969030Y-100292329D01*
X207979520Y-100270150D01*
X207992132Y-100249107D01*
X208006747Y-100229401D01*
X208023223Y-100211223D01*
X208041401Y-100194747D01*
X208061107Y-100180132D01*
X208082150Y-100167520D01*
X208104329Y-100157030D01*
X208127428Y-100148765D01*
X208151227Y-100142804D01*
X208175495Y-100139204D01*
X208199999Y-100138000D01*
X208850001Y-100138000D01*
X208874505Y-100139204D01*
X208874505Y-100139204D01*
G37*
D17*
X208525000Y-100838000D03*
D13*
G36*
X210924505Y-100139204D02*
G01*
X210948773Y-100142804D01*
X210972572Y-100148765D01*
X210995671Y-100157030D01*
X211017850Y-100167520D01*
X211038893Y-100180132D01*
X211058599Y-100194747D01*
X211076777Y-100211223D01*
X211093253Y-100229401D01*
X211107868Y-100249107D01*
X211120480Y-100270150D01*
X211130970Y-100292329D01*
X211139235Y-100315428D01*
X211145196Y-100339227D01*
X211148796Y-100363495D01*
X211150000Y-100387999D01*
X211150000Y-101288001D01*
X211148796Y-101312505D01*
X211145196Y-101336773D01*
X211139235Y-101360572D01*
X211130970Y-101383671D01*
X211120480Y-101405850D01*
X211107868Y-101426893D01*
X211093253Y-101446599D01*
X211076777Y-101464777D01*
X211058599Y-101481253D01*
X211038893Y-101495868D01*
X211017850Y-101508480D01*
X210995671Y-101518970D01*
X210972572Y-101527235D01*
X210948773Y-101533196D01*
X210924505Y-101536796D01*
X210900001Y-101538000D01*
X210249999Y-101538000D01*
X210225495Y-101536796D01*
X210201227Y-101533196D01*
X210177428Y-101527235D01*
X210154329Y-101518970D01*
X210132150Y-101508480D01*
X210111107Y-101495868D01*
X210091401Y-101481253D01*
X210073223Y-101464777D01*
X210056747Y-101446599D01*
X210042132Y-101426893D01*
X210029520Y-101405850D01*
X210019030Y-101383671D01*
X210010765Y-101360572D01*
X210004804Y-101336773D01*
X210001204Y-101312505D01*
X210000000Y-101288001D01*
X210000000Y-100387999D01*
X210001204Y-100363495D01*
X210004804Y-100339227D01*
X210010765Y-100315428D01*
X210019030Y-100292329D01*
X210029520Y-100270150D01*
X210042132Y-100249107D01*
X210056747Y-100229401D01*
X210073223Y-100211223D01*
X210091401Y-100194747D01*
X210111107Y-100180132D01*
X210132150Y-100167520D01*
X210154329Y-100157030D01*
X210177428Y-100148765D01*
X210201227Y-100142804D01*
X210225495Y-100139204D01*
X210249999Y-100138000D01*
X210900001Y-100138000D01*
X210924505Y-100139204D01*
X210924505Y-100139204D01*
G37*
D17*
X210575000Y-100838000D03*
D18*
X207458000Y-97790000D03*
X210118000Y-97140000D03*
X210118000Y-98440000D03*
D13*
G36*
X212056505Y-106369204D02*
G01*
X212080773Y-106372804D01*
X212104572Y-106378765D01*
X212127671Y-106387030D01*
X212149850Y-106397520D01*
X212170893Y-106410132D01*
X212190599Y-106424747D01*
X212208777Y-106441223D01*
X212225253Y-106459401D01*
X212239868Y-106479107D01*
X212252480Y-106500150D01*
X212262970Y-106522329D01*
X212271235Y-106545428D01*
X212277196Y-106569227D01*
X212280796Y-106593495D01*
X212282000Y-106617999D01*
X212282000Y-107268001D01*
X212280796Y-107292505D01*
X212277196Y-107316773D01*
X212271235Y-107340572D01*
X212262970Y-107363671D01*
X212252480Y-107385850D01*
X212239868Y-107406893D01*
X212225253Y-107426599D01*
X212208777Y-107444777D01*
X212190599Y-107461253D01*
X212170893Y-107475868D01*
X212149850Y-107488480D01*
X212127671Y-107498970D01*
X212104572Y-107507235D01*
X212080773Y-107513196D01*
X212056505Y-107516796D01*
X212032001Y-107518000D01*
X211131999Y-107518000D01*
X211107495Y-107516796D01*
X211083227Y-107513196D01*
X211059428Y-107507235D01*
X211036329Y-107498970D01*
X211014150Y-107488480D01*
X210993107Y-107475868D01*
X210973401Y-107461253D01*
X210955223Y-107444777D01*
X210938747Y-107426599D01*
X210924132Y-107406893D01*
X210911520Y-107385850D01*
X210901030Y-107363671D01*
X210892765Y-107340572D01*
X210886804Y-107316773D01*
X210883204Y-107292505D01*
X210882000Y-107268001D01*
X210882000Y-106617999D01*
X210883204Y-106593495D01*
X210886804Y-106569227D01*
X210892765Y-106545428D01*
X210901030Y-106522329D01*
X210911520Y-106500150D01*
X210924132Y-106479107D01*
X210938747Y-106459401D01*
X210955223Y-106441223D01*
X210973401Y-106424747D01*
X210993107Y-106410132D01*
X211014150Y-106397520D01*
X211036329Y-106387030D01*
X211059428Y-106378765D01*
X211083227Y-106372804D01*
X211107495Y-106369204D01*
X211131999Y-106368000D01*
X212032001Y-106368000D01*
X212056505Y-106369204D01*
X212056505Y-106369204D01*
G37*
D17*
X211582000Y-106943000D03*
D13*
G36*
X212056505Y-104319204D02*
G01*
X212080773Y-104322804D01*
X212104572Y-104328765D01*
X212127671Y-104337030D01*
X212149850Y-104347520D01*
X212170893Y-104360132D01*
X212190599Y-104374747D01*
X212208777Y-104391223D01*
X212225253Y-104409401D01*
X212239868Y-104429107D01*
X212252480Y-104450150D01*
X212262970Y-104472329D01*
X212271235Y-104495428D01*
X212277196Y-104519227D01*
X212280796Y-104543495D01*
X212282000Y-104567999D01*
X212282000Y-105218001D01*
X212280796Y-105242505D01*
X212277196Y-105266773D01*
X212271235Y-105290572D01*
X212262970Y-105313671D01*
X212252480Y-105335850D01*
X212239868Y-105356893D01*
X212225253Y-105376599D01*
X212208777Y-105394777D01*
X212190599Y-105411253D01*
X212170893Y-105425868D01*
X212149850Y-105438480D01*
X212127671Y-105448970D01*
X212104572Y-105457235D01*
X212080773Y-105463196D01*
X212056505Y-105466796D01*
X212032001Y-105468000D01*
X211131999Y-105468000D01*
X211107495Y-105466796D01*
X211083227Y-105463196D01*
X211059428Y-105457235D01*
X211036329Y-105448970D01*
X211014150Y-105438480D01*
X210993107Y-105425868D01*
X210973401Y-105411253D01*
X210955223Y-105394777D01*
X210938747Y-105376599D01*
X210924132Y-105356893D01*
X210911520Y-105335850D01*
X210901030Y-105313671D01*
X210892765Y-105290572D01*
X210886804Y-105266773D01*
X210883204Y-105242505D01*
X210882000Y-105218001D01*
X210882000Y-104567999D01*
X210883204Y-104543495D01*
X210886804Y-104519227D01*
X210892765Y-104495428D01*
X210901030Y-104472329D01*
X210911520Y-104450150D01*
X210924132Y-104429107D01*
X210938747Y-104409401D01*
X210955223Y-104391223D01*
X210973401Y-104374747D01*
X210993107Y-104360132D01*
X211014150Y-104347520D01*
X211036329Y-104337030D01*
X211059428Y-104328765D01*
X211083227Y-104322804D01*
X211107495Y-104319204D01*
X211131999Y-104318000D01*
X212032001Y-104318000D01*
X212056505Y-104319204D01*
X212056505Y-104319204D01*
G37*
D17*
X211582000Y-104893000D03*
D19*
X209692000Y-109668000D03*
X208392000Y-109668000D03*
X209042000Y-112328000D03*
D20*
X228010000Y-109982000D03*
X228010000Y-108712000D03*
X228010000Y-107442000D03*
X228010000Y-106172000D03*
X228010000Y-104902000D03*
X228010000Y-103632000D03*
X228010000Y-102362000D03*
X222586000Y-102362000D03*
X222586000Y-103632000D03*
X222586000Y-104902000D03*
X222586000Y-106172000D03*
X222586000Y-107442000D03*
X222586000Y-108712000D03*
X222586000Y-109982000D03*
D13*
G36*
X220438505Y-111449204D02*
G01*
X220462773Y-111452804D01*
X220486572Y-111458765D01*
X220509671Y-111467030D01*
X220531850Y-111477520D01*
X220552893Y-111490132D01*
X220572599Y-111504747D01*
X220590777Y-111521223D01*
X220607253Y-111539401D01*
X220621868Y-111559107D01*
X220634480Y-111580150D01*
X220644970Y-111602329D01*
X220653235Y-111625428D01*
X220659196Y-111649227D01*
X220662796Y-111673495D01*
X220664000Y-111697999D01*
X220664000Y-112348001D01*
X220662796Y-112372505D01*
X220659196Y-112396773D01*
X220653235Y-112420572D01*
X220644970Y-112443671D01*
X220634480Y-112465850D01*
X220621868Y-112486893D01*
X220607253Y-112506599D01*
X220590777Y-112524777D01*
X220572599Y-112541253D01*
X220552893Y-112555868D01*
X220531850Y-112568480D01*
X220509671Y-112578970D01*
X220486572Y-112587235D01*
X220462773Y-112593196D01*
X220438505Y-112596796D01*
X220414001Y-112598000D01*
X219513999Y-112598000D01*
X219489495Y-112596796D01*
X219465227Y-112593196D01*
X219441428Y-112587235D01*
X219418329Y-112578970D01*
X219396150Y-112568480D01*
X219375107Y-112555868D01*
X219355401Y-112541253D01*
X219337223Y-112524777D01*
X219320747Y-112506599D01*
X219306132Y-112486893D01*
X219293520Y-112465850D01*
X219283030Y-112443671D01*
X219274765Y-112420572D01*
X219268804Y-112396773D01*
X219265204Y-112372505D01*
X219264000Y-112348001D01*
X219264000Y-111697999D01*
X219265204Y-111673495D01*
X219268804Y-111649227D01*
X219274765Y-111625428D01*
X219283030Y-111602329D01*
X219293520Y-111580150D01*
X219306132Y-111559107D01*
X219320747Y-111539401D01*
X219337223Y-111521223D01*
X219355401Y-111504747D01*
X219375107Y-111490132D01*
X219396150Y-111477520D01*
X219418329Y-111467030D01*
X219441428Y-111458765D01*
X219465227Y-111452804D01*
X219489495Y-111449204D01*
X219513999Y-111448000D01*
X220414001Y-111448000D01*
X220438505Y-111449204D01*
X220438505Y-111449204D01*
G37*
D17*
X219964000Y-112023000D03*
D13*
G36*
X220438505Y-109399204D02*
G01*
X220462773Y-109402804D01*
X220486572Y-109408765D01*
X220509671Y-109417030D01*
X220531850Y-109427520D01*
X220552893Y-109440132D01*
X220572599Y-109454747D01*
X220590777Y-109471223D01*
X220607253Y-109489401D01*
X220621868Y-109509107D01*
X220634480Y-109530150D01*
X220644970Y-109552329D01*
X220653235Y-109575428D01*
X220659196Y-109599227D01*
X220662796Y-109623495D01*
X220664000Y-109647999D01*
X220664000Y-110298001D01*
X220662796Y-110322505D01*
X220659196Y-110346773D01*
X220653235Y-110370572D01*
X220644970Y-110393671D01*
X220634480Y-110415850D01*
X220621868Y-110436893D01*
X220607253Y-110456599D01*
X220590777Y-110474777D01*
X220572599Y-110491253D01*
X220552893Y-110505868D01*
X220531850Y-110518480D01*
X220509671Y-110528970D01*
X220486572Y-110537235D01*
X220462773Y-110543196D01*
X220438505Y-110546796D01*
X220414001Y-110548000D01*
X219513999Y-110548000D01*
X219489495Y-110546796D01*
X219465227Y-110543196D01*
X219441428Y-110537235D01*
X219418329Y-110528970D01*
X219396150Y-110518480D01*
X219375107Y-110505868D01*
X219355401Y-110491253D01*
X219337223Y-110474777D01*
X219320747Y-110456599D01*
X219306132Y-110436893D01*
X219293520Y-110415850D01*
X219283030Y-110393671D01*
X219274765Y-110370572D01*
X219268804Y-110346773D01*
X219265204Y-110322505D01*
X219264000Y-110298001D01*
X219264000Y-109647999D01*
X219265204Y-109623495D01*
X219268804Y-109599227D01*
X219274765Y-109575428D01*
X219283030Y-109552329D01*
X219293520Y-109530150D01*
X219306132Y-109509107D01*
X219320747Y-109489401D01*
X219337223Y-109471223D01*
X219355401Y-109454747D01*
X219375107Y-109440132D01*
X219396150Y-109427520D01*
X219418329Y-109417030D01*
X219441428Y-109408765D01*
X219465227Y-109402804D01*
X219489495Y-109399204D01*
X219513999Y-109398000D01*
X220414001Y-109398000D01*
X220438505Y-109399204D01*
X220438505Y-109399204D01*
G37*
D17*
X219964000Y-109973000D03*
D21*
X239776000Y-93980000D03*
D22*
X243276000Y-93980000D03*
D13*
G36*
X220304505Y-114109204D02*
G01*
X220328773Y-114112804D01*
X220352572Y-114118765D01*
X220375671Y-114127030D01*
X220397850Y-114137520D01*
X220418893Y-114150132D01*
X220438599Y-114164747D01*
X220456777Y-114181223D01*
X220473253Y-114199401D01*
X220487868Y-114219107D01*
X220500480Y-114240150D01*
X220510970Y-114262329D01*
X220519235Y-114285428D01*
X220525196Y-114309227D01*
X220528796Y-114333495D01*
X220530000Y-114357999D01*
X220530000Y-115258001D01*
X220528796Y-115282505D01*
X220525196Y-115306773D01*
X220519235Y-115330572D01*
X220510970Y-115353671D01*
X220500480Y-115375850D01*
X220487868Y-115396893D01*
X220473253Y-115416599D01*
X220456777Y-115434777D01*
X220438599Y-115451253D01*
X220418893Y-115465868D01*
X220397850Y-115478480D01*
X220375671Y-115488970D01*
X220352572Y-115497235D01*
X220328773Y-115503196D01*
X220304505Y-115506796D01*
X220280001Y-115508000D01*
X219629999Y-115508000D01*
X219605495Y-115506796D01*
X219581227Y-115503196D01*
X219557428Y-115497235D01*
X219534329Y-115488970D01*
X219512150Y-115478480D01*
X219491107Y-115465868D01*
X219471401Y-115451253D01*
X219453223Y-115434777D01*
X219436747Y-115416599D01*
X219422132Y-115396893D01*
X219409520Y-115375850D01*
X219399030Y-115353671D01*
X219390765Y-115330572D01*
X219384804Y-115306773D01*
X219381204Y-115282505D01*
X219380000Y-115258001D01*
X219380000Y-114357999D01*
X219381204Y-114333495D01*
X219384804Y-114309227D01*
X219390765Y-114285428D01*
X219399030Y-114262329D01*
X219409520Y-114240150D01*
X219422132Y-114219107D01*
X219436747Y-114199401D01*
X219453223Y-114181223D01*
X219471401Y-114164747D01*
X219491107Y-114150132D01*
X219512150Y-114137520D01*
X219534329Y-114127030D01*
X219557428Y-114118765D01*
X219581227Y-114112804D01*
X219605495Y-114109204D01*
X219629999Y-114108000D01*
X220280001Y-114108000D01*
X220304505Y-114109204D01*
X220304505Y-114109204D01*
G37*
D17*
X219955000Y-114808000D03*
D13*
G36*
X222354505Y-114109204D02*
G01*
X222378773Y-114112804D01*
X222402572Y-114118765D01*
X222425671Y-114127030D01*
X222447850Y-114137520D01*
X222468893Y-114150132D01*
X222488599Y-114164747D01*
X222506777Y-114181223D01*
X222523253Y-114199401D01*
X222537868Y-114219107D01*
X222550480Y-114240150D01*
X222560970Y-114262329D01*
X222569235Y-114285428D01*
X222575196Y-114309227D01*
X222578796Y-114333495D01*
X222580000Y-114357999D01*
X222580000Y-115258001D01*
X222578796Y-115282505D01*
X222575196Y-115306773D01*
X222569235Y-115330572D01*
X222560970Y-115353671D01*
X222550480Y-115375850D01*
X222537868Y-115396893D01*
X222523253Y-115416599D01*
X222506777Y-115434777D01*
X222488599Y-115451253D01*
X222468893Y-115465868D01*
X222447850Y-115478480D01*
X222425671Y-115488970D01*
X222402572Y-115497235D01*
X222378773Y-115503196D01*
X222354505Y-115506796D01*
X222330001Y-115508000D01*
X221679999Y-115508000D01*
X221655495Y-115506796D01*
X221631227Y-115503196D01*
X221607428Y-115497235D01*
X221584329Y-115488970D01*
X221562150Y-115478480D01*
X221541107Y-115465868D01*
X221521401Y-115451253D01*
X221503223Y-115434777D01*
X221486747Y-115416599D01*
X221472132Y-115396893D01*
X221459520Y-115375850D01*
X221449030Y-115353671D01*
X221440765Y-115330572D01*
X221434804Y-115306773D01*
X221431204Y-115282505D01*
X221430000Y-115258001D01*
X221430000Y-114357999D01*
X221431204Y-114333495D01*
X221434804Y-114309227D01*
X221440765Y-114285428D01*
X221449030Y-114262329D01*
X221459520Y-114240150D01*
X221472132Y-114219107D01*
X221486747Y-114199401D01*
X221503223Y-114181223D01*
X221521401Y-114164747D01*
X221541107Y-114150132D01*
X221562150Y-114137520D01*
X221584329Y-114127030D01*
X221607428Y-114118765D01*
X221631227Y-114112804D01*
X221655495Y-114109204D01*
X221679999Y-114108000D01*
X222330001Y-114108000D01*
X222354505Y-114109204D01*
X222354505Y-114109204D01*
G37*
D17*
X222005000Y-114808000D03*
D13*
G36*
X220068505Y-125031204D02*
G01*
X220092773Y-125034804D01*
X220116572Y-125040765D01*
X220139671Y-125049030D01*
X220161850Y-125059520D01*
X220182893Y-125072132D01*
X220202599Y-125086747D01*
X220220777Y-125103223D01*
X220237253Y-125121401D01*
X220251868Y-125141107D01*
X220264480Y-125162150D01*
X220274970Y-125184329D01*
X220283235Y-125207428D01*
X220289196Y-125231227D01*
X220292796Y-125255495D01*
X220294000Y-125279999D01*
X220294000Y-126180001D01*
X220292796Y-126204505D01*
X220289196Y-126228773D01*
X220283235Y-126252572D01*
X220274970Y-126275671D01*
X220264480Y-126297850D01*
X220251868Y-126318893D01*
X220237253Y-126338599D01*
X220220777Y-126356777D01*
X220202599Y-126373253D01*
X220182893Y-126387868D01*
X220161850Y-126400480D01*
X220139671Y-126410970D01*
X220116572Y-126419235D01*
X220092773Y-126425196D01*
X220068505Y-126428796D01*
X220044001Y-126430000D01*
X219393999Y-126430000D01*
X219369495Y-126428796D01*
X219345227Y-126425196D01*
X219321428Y-126419235D01*
X219298329Y-126410970D01*
X219276150Y-126400480D01*
X219255107Y-126387868D01*
X219235401Y-126373253D01*
X219217223Y-126356777D01*
X219200747Y-126338599D01*
X219186132Y-126318893D01*
X219173520Y-126297850D01*
X219163030Y-126275671D01*
X219154765Y-126252572D01*
X219148804Y-126228773D01*
X219145204Y-126204505D01*
X219144000Y-126180001D01*
X219144000Y-125279999D01*
X219145204Y-125255495D01*
X219148804Y-125231227D01*
X219154765Y-125207428D01*
X219163030Y-125184329D01*
X219173520Y-125162150D01*
X219186132Y-125141107D01*
X219200747Y-125121401D01*
X219217223Y-125103223D01*
X219235401Y-125086747D01*
X219255107Y-125072132D01*
X219276150Y-125059520D01*
X219298329Y-125049030D01*
X219321428Y-125040765D01*
X219345227Y-125034804D01*
X219369495Y-125031204D01*
X219393999Y-125030000D01*
X220044001Y-125030000D01*
X220068505Y-125031204D01*
X220068505Y-125031204D01*
G37*
D17*
X219719000Y-125730000D03*
D13*
G36*
X218018505Y-125031204D02*
G01*
X218042773Y-125034804D01*
X218066572Y-125040765D01*
X218089671Y-125049030D01*
X218111850Y-125059520D01*
X218132893Y-125072132D01*
X218152599Y-125086747D01*
X218170777Y-125103223D01*
X218187253Y-125121401D01*
X218201868Y-125141107D01*
X218214480Y-125162150D01*
X218224970Y-125184329D01*
X218233235Y-125207428D01*
X218239196Y-125231227D01*
X218242796Y-125255495D01*
X218244000Y-125279999D01*
X218244000Y-126180001D01*
X218242796Y-126204505D01*
X218239196Y-126228773D01*
X218233235Y-126252572D01*
X218224970Y-126275671D01*
X218214480Y-126297850D01*
X218201868Y-126318893D01*
X218187253Y-126338599D01*
X218170777Y-126356777D01*
X218152599Y-126373253D01*
X218132893Y-126387868D01*
X218111850Y-126400480D01*
X218089671Y-126410970D01*
X218066572Y-126419235D01*
X218042773Y-126425196D01*
X218018505Y-126428796D01*
X217994001Y-126430000D01*
X217343999Y-126430000D01*
X217319495Y-126428796D01*
X217295227Y-126425196D01*
X217271428Y-126419235D01*
X217248329Y-126410970D01*
X217226150Y-126400480D01*
X217205107Y-126387868D01*
X217185401Y-126373253D01*
X217167223Y-126356777D01*
X217150747Y-126338599D01*
X217136132Y-126318893D01*
X217123520Y-126297850D01*
X217113030Y-126275671D01*
X217104765Y-126252572D01*
X217098804Y-126228773D01*
X217095204Y-126204505D01*
X217094000Y-126180001D01*
X217094000Y-125279999D01*
X217095204Y-125255495D01*
X217098804Y-125231227D01*
X217104765Y-125207428D01*
X217113030Y-125184329D01*
X217123520Y-125162150D01*
X217136132Y-125141107D01*
X217150747Y-125121401D01*
X217167223Y-125103223D01*
X217185401Y-125086747D01*
X217205107Y-125072132D01*
X217226150Y-125059520D01*
X217248329Y-125049030D01*
X217271428Y-125040765D01*
X217295227Y-125034804D01*
X217319495Y-125031204D01*
X217343999Y-125030000D01*
X217994001Y-125030000D01*
X218018505Y-125031204D01*
X218018505Y-125031204D01*
G37*
D17*
X217669000Y-125730000D03*
D13*
G36*
X188318505Y-120967204D02*
G01*
X188342773Y-120970804D01*
X188366572Y-120976765D01*
X188389671Y-120985030D01*
X188411850Y-120995520D01*
X188432893Y-121008132D01*
X188452599Y-121022747D01*
X188470777Y-121039223D01*
X188487253Y-121057401D01*
X188501868Y-121077107D01*
X188514480Y-121098150D01*
X188524970Y-121120329D01*
X188533235Y-121143428D01*
X188539196Y-121167227D01*
X188542796Y-121191495D01*
X188544000Y-121215999D01*
X188544000Y-122116001D01*
X188542796Y-122140505D01*
X188539196Y-122164773D01*
X188533235Y-122188572D01*
X188524970Y-122211671D01*
X188514480Y-122233850D01*
X188501868Y-122254893D01*
X188487253Y-122274599D01*
X188470777Y-122292777D01*
X188452599Y-122309253D01*
X188432893Y-122323868D01*
X188411850Y-122336480D01*
X188389671Y-122346970D01*
X188366572Y-122355235D01*
X188342773Y-122361196D01*
X188318505Y-122364796D01*
X188294001Y-122366000D01*
X187643999Y-122366000D01*
X187619495Y-122364796D01*
X187595227Y-122361196D01*
X187571428Y-122355235D01*
X187548329Y-122346970D01*
X187526150Y-122336480D01*
X187505107Y-122323868D01*
X187485401Y-122309253D01*
X187467223Y-122292777D01*
X187450747Y-122274599D01*
X187436132Y-122254893D01*
X187423520Y-122233850D01*
X187413030Y-122211671D01*
X187404765Y-122188572D01*
X187398804Y-122164773D01*
X187395204Y-122140505D01*
X187394000Y-122116001D01*
X187394000Y-121215999D01*
X187395204Y-121191495D01*
X187398804Y-121167227D01*
X187404765Y-121143428D01*
X187413030Y-121120329D01*
X187423520Y-121098150D01*
X187436132Y-121077107D01*
X187450747Y-121057401D01*
X187467223Y-121039223D01*
X187485401Y-121022747D01*
X187505107Y-121008132D01*
X187526150Y-120995520D01*
X187548329Y-120985030D01*
X187571428Y-120976765D01*
X187595227Y-120970804D01*
X187619495Y-120967204D01*
X187643999Y-120966000D01*
X188294001Y-120966000D01*
X188318505Y-120967204D01*
X188318505Y-120967204D01*
G37*
D17*
X187969000Y-121666000D03*
D13*
G36*
X186268505Y-120967204D02*
G01*
X186292773Y-120970804D01*
X186316572Y-120976765D01*
X186339671Y-120985030D01*
X186361850Y-120995520D01*
X186382893Y-121008132D01*
X186402599Y-121022747D01*
X186420777Y-121039223D01*
X186437253Y-121057401D01*
X186451868Y-121077107D01*
X186464480Y-121098150D01*
X186474970Y-121120329D01*
X186483235Y-121143428D01*
X186489196Y-121167227D01*
X186492796Y-121191495D01*
X186494000Y-121215999D01*
X186494000Y-122116001D01*
X186492796Y-122140505D01*
X186489196Y-122164773D01*
X186483235Y-122188572D01*
X186474970Y-122211671D01*
X186464480Y-122233850D01*
X186451868Y-122254893D01*
X186437253Y-122274599D01*
X186420777Y-122292777D01*
X186402599Y-122309253D01*
X186382893Y-122323868D01*
X186361850Y-122336480D01*
X186339671Y-122346970D01*
X186316572Y-122355235D01*
X186292773Y-122361196D01*
X186268505Y-122364796D01*
X186244001Y-122366000D01*
X185593999Y-122366000D01*
X185569495Y-122364796D01*
X185545227Y-122361196D01*
X185521428Y-122355235D01*
X185498329Y-122346970D01*
X185476150Y-122336480D01*
X185455107Y-122323868D01*
X185435401Y-122309253D01*
X185417223Y-122292777D01*
X185400747Y-122274599D01*
X185386132Y-122254893D01*
X185373520Y-122233850D01*
X185363030Y-122211671D01*
X185354765Y-122188572D01*
X185348804Y-122164773D01*
X185345204Y-122140505D01*
X185344000Y-122116001D01*
X185344000Y-121215999D01*
X185345204Y-121191495D01*
X185348804Y-121167227D01*
X185354765Y-121143428D01*
X185363030Y-121120329D01*
X185373520Y-121098150D01*
X185386132Y-121077107D01*
X185400747Y-121057401D01*
X185417223Y-121039223D01*
X185435401Y-121022747D01*
X185455107Y-121008132D01*
X185476150Y-120995520D01*
X185498329Y-120985030D01*
X185521428Y-120976765D01*
X185545227Y-120970804D01*
X185569495Y-120967204D01*
X185593999Y-120966000D01*
X186244001Y-120966000D01*
X186268505Y-120967204D01*
X186268505Y-120967204D01*
G37*
D17*
X185919000Y-121666000D03*
D13*
G36*
X198583506Y-120964205D02*
G01*
X198607774Y-120967805D01*
X198631573Y-120973766D01*
X198654672Y-120982031D01*
X198676851Y-120992521D01*
X198697894Y-121005133D01*
X198717600Y-121019748D01*
X198735778Y-121036224D01*
X198752254Y-121054402D01*
X198766869Y-121074108D01*
X198779481Y-121095151D01*
X198789971Y-121117330D01*
X198798236Y-121140429D01*
X198804197Y-121164228D01*
X198807797Y-121188496D01*
X198809001Y-121213000D01*
X198809001Y-122113002D01*
X198807797Y-122137506D01*
X198804197Y-122161774D01*
X198798236Y-122185573D01*
X198789971Y-122208672D01*
X198779481Y-122230851D01*
X198766869Y-122251894D01*
X198752254Y-122271600D01*
X198735778Y-122289778D01*
X198717600Y-122306254D01*
X198697894Y-122320869D01*
X198676851Y-122333481D01*
X198654672Y-122343971D01*
X198631573Y-122352236D01*
X198607774Y-122358197D01*
X198583506Y-122361797D01*
X198559002Y-122363001D01*
X197909000Y-122363001D01*
X197884496Y-122361797D01*
X197860228Y-122358197D01*
X197836429Y-122352236D01*
X197813330Y-122343971D01*
X197791151Y-122333481D01*
X197770108Y-122320869D01*
X197750402Y-122306254D01*
X197732224Y-122289778D01*
X197715748Y-122271600D01*
X197701133Y-122251894D01*
X197688521Y-122230851D01*
X197678031Y-122208672D01*
X197669766Y-122185573D01*
X197663805Y-122161774D01*
X197660205Y-122137506D01*
X197659001Y-122113002D01*
X197659001Y-121213000D01*
X197660205Y-121188496D01*
X197663805Y-121164228D01*
X197669766Y-121140429D01*
X197678031Y-121117330D01*
X197688521Y-121095151D01*
X197701133Y-121074108D01*
X197715748Y-121054402D01*
X197732224Y-121036224D01*
X197750402Y-121019748D01*
X197770108Y-121005133D01*
X197791151Y-120992521D01*
X197813330Y-120982031D01*
X197836429Y-120973766D01*
X197860228Y-120967805D01*
X197884496Y-120964205D01*
X197909000Y-120963001D01*
X198559002Y-120963001D01*
X198583506Y-120964205D01*
X198583506Y-120964205D01*
G37*
D17*
X198234001Y-121663001D03*
D13*
G36*
X200633506Y-120964205D02*
G01*
X200657774Y-120967805D01*
X200681573Y-120973766D01*
X200704672Y-120982031D01*
X200726851Y-120992521D01*
X200747894Y-121005133D01*
X200767600Y-121019748D01*
X200785778Y-121036224D01*
X200802254Y-121054402D01*
X200816869Y-121074108D01*
X200829481Y-121095151D01*
X200839971Y-121117330D01*
X200848236Y-121140429D01*
X200854197Y-121164228D01*
X200857797Y-121188496D01*
X200859001Y-121213000D01*
X200859001Y-122113002D01*
X200857797Y-122137506D01*
X200854197Y-122161774D01*
X200848236Y-122185573D01*
X200839971Y-122208672D01*
X200829481Y-122230851D01*
X200816869Y-122251894D01*
X200802254Y-122271600D01*
X200785778Y-122289778D01*
X200767600Y-122306254D01*
X200747894Y-122320869D01*
X200726851Y-122333481D01*
X200704672Y-122343971D01*
X200681573Y-122352236D01*
X200657774Y-122358197D01*
X200633506Y-122361797D01*
X200609002Y-122363001D01*
X199959000Y-122363001D01*
X199934496Y-122361797D01*
X199910228Y-122358197D01*
X199886429Y-122352236D01*
X199863330Y-122343971D01*
X199841151Y-122333481D01*
X199820108Y-122320869D01*
X199800402Y-122306254D01*
X199782224Y-122289778D01*
X199765748Y-122271600D01*
X199751133Y-122251894D01*
X199738521Y-122230851D01*
X199728031Y-122208672D01*
X199719766Y-122185573D01*
X199713805Y-122161774D01*
X199710205Y-122137506D01*
X199709001Y-122113002D01*
X199709001Y-121213000D01*
X199710205Y-121188496D01*
X199713805Y-121164228D01*
X199719766Y-121140429D01*
X199728031Y-121117330D01*
X199738521Y-121095151D01*
X199751133Y-121074108D01*
X199765748Y-121054402D01*
X199782224Y-121036224D01*
X199800402Y-121019748D01*
X199820108Y-121005133D01*
X199841151Y-120992521D01*
X199863330Y-120982031D01*
X199886429Y-120973766D01*
X199910228Y-120967805D01*
X199934496Y-120964205D01*
X199959000Y-120963001D01*
X200609002Y-120963001D01*
X200633506Y-120964205D01*
X200633506Y-120964205D01*
G37*
D17*
X200284001Y-121663001D03*
D16*
X213614000Y-100330000D03*
D15*
X213614000Y-97790000D03*
X213614000Y-95250000D03*
X213614000Y-92710000D03*
X213614000Y-90170000D03*
X213614000Y-87630000D03*
D23*
X218440000Y-107584000D03*
D13*
G36*
X219190000Y-107084000D02*
G01*
X219190000Y-107584000D01*
X219189398Y-107584000D01*
X219189398Y-107608534D01*
X219184588Y-107657365D01*
X219175016Y-107705490D01*
X219160772Y-107752445D01*
X219141995Y-107797778D01*
X219118864Y-107841051D01*
X219091604Y-107881850D01*
X219060476Y-107919779D01*
X219025779Y-107954476D01*
X218987850Y-107985604D01*
X218947051Y-108012864D01*
X218903778Y-108035995D01*
X218858445Y-108054772D01*
X218811490Y-108069016D01*
X218763365Y-108078588D01*
X218714534Y-108083398D01*
X218690000Y-108083398D01*
X218690000Y-108084000D01*
X218190000Y-108084000D01*
X218190000Y-108083398D01*
X218165466Y-108083398D01*
X218116635Y-108078588D01*
X218068510Y-108069016D01*
X218021555Y-108054772D01*
X217976222Y-108035995D01*
X217932949Y-108012864D01*
X217892150Y-107985604D01*
X217854221Y-107954476D01*
X217819524Y-107919779D01*
X217788396Y-107881850D01*
X217761136Y-107841051D01*
X217738005Y-107797778D01*
X217719228Y-107752445D01*
X217704984Y-107705490D01*
X217695412Y-107657365D01*
X217690602Y-107608534D01*
X217690602Y-107584000D01*
X217690000Y-107584000D01*
X217690000Y-107084000D01*
X219190000Y-107084000D01*
X219190000Y-107084000D01*
G37*
D23*
X218440000Y-106284000D03*
D13*
G36*
X217690602Y-106284000D02*
G01*
X217690602Y-106259466D01*
X217695412Y-106210635D01*
X217704984Y-106162510D01*
X217719228Y-106115555D01*
X217738005Y-106070222D01*
X217761136Y-106026949D01*
X217788396Y-105986150D01*
X217819524Y-105948221D01*
X217854221Y-105913524D01*
X217892150Y-105882396D01*
X217932949Y-105855136D01*
X217976222Y-105832005D01*
X218021555Y-105813228D01*
X218068510Y-105798984D01*
X218116635Y-105789412D01*
X218165466Y-105784602D01*
X218190000Y-105784602D01*
X218190000Y-105784000D01*
X218690000Y-105784000D01*
X218690000Y-105784602D01*
X218714534Y-105784602D01*
X218763365Y-105789412D01*
X218811490Y-105798984D01*
X218858445Y-105813228D01*
X218903778Y-105832005D01*
X218947051Y-105855136D01*
X218987850Y-105882396D01*
X219025779Y-105913524D01*
X219060476Y-105948221D01*
X219091604Y-105986150D01*
X219118864Y-106026949D01*
X219141995Y-106070222D01*
X219160772Y-106115555D01*
X219175016Y-106162510D01*
X219184588Y-106210635D01*
X219189398Y-106259466D01*
X219189398Y-106284000D01*
X219190000Y-106284000D01*
X219190000Y-106784000D01*
X217690000Y-106784000D01*
X217690000Y-106284000D01*
X217690602Y-106284000D01*
X217690602Y-106284000D01*
G37*
G36*
X218700779Y-102459144D02*
G01*
X218723834Y-102462563D01*
X218746443Y-102468227D01*
X218768387Y-102476079D01*
X218789457Y-102486044D01*
X218809448Y-102498026D01*
X218828168Y-102511910D01*
X218845438Y-102527562D01*
X218861090Y-102544832D01*
X218874974Y-102563552D01*
X218886956Y-102583543D01*
X218896921Y-102604613D01*
X218904773Y-102626557D01*
X218910437Y-102649166D01*
X218913856Y-102672221D01*
X218915000Y-102695500D01*
X218915000Y-103270500D01*
X218913856Y-103293779D01*
X218910437Y-103316834D01*
X218904773Y-103339443D01*
X218896921Y-103361387D01*
X218886956Y-103382457D01*
X218874974Y-103402448D01*
X218861090Y-103421168D01*
X218845438Y-103438438D01*
X218828168Y-103454090D01*
X218809448Y-103467974D01*
X218789457Y-103479956D01*
X218768387Y-103489921D01*
X218746443Y-103497773D01*
X218723834Y-103503437D01*
X218700779Y-103506856D01*
X218677500Y-103508000D01*
X218202500Y-103508000D01*
X218179221Y-103506856D01*
X218156166Y-103503437D01*
X218133557Y-103497773D01*
X218111613Y-103489921D01*
X218090543Y-103479956D01*
X218070552Y-103467974D01*
X218051832Y-103454090D01*
X218034562Y-103438438D01*
X218018910Y-103421168D01*
X218005026Y-103402448D01*
X217993044Y-103382457D01*
X217983079Y-103361387D01*
X217975227Y-103339443D01*
X217969563Y-103316834D01*
X217966144Y-103293779D01*
X217965000Y-103270500D01*
X217965000Y-102695500D01*
X217966144Y-102672221D01*
X217969563Y-102649166D01*
X217975227Y-102626557D01*
X217983079Y-102604613D01*
X217993044Y-102583543D01*
X218005026Y-102563552D01*
X218018910Y-102544832D01*
X218034562Y-102527562D01*
X218051832Y-102511910D01*
X218070552Y-102498026D01*
X218090543Y-102486044D01*
X218111613Y-102476079D01*
X218133557Y-102468227D01*
X218156166Y-102462563D01*
X218179221Y-102459144D01*
X218202500Y-102458000D01*
X218677500Y-102458000D01*
X218700779Y-102459144D01*
X218700779Y-102459144D01*
G37*
D24*
X218440000Y-102983000D03*
D13*
G36*
X218700779Y-100709144D02*
G01*
X218723834Y-100712563D01*
X218746443Y-100718227D01*
X218768387Y-100726079D01*
X218789457Y-100736044D01*
X218809448Y-100748026D01*
X218828168Y-100761910D01*
X218845438Y-100777562D01*
X218861090Y-100794832D01*
X218874974Y-100813552D01*
X218886956Y-100833543D01*
X218896921Y-100854613D01*
X218904773Y-100876557D01*
X218910437Y-100899166D01*
X218913856Y-100922221D01*
X218915000Y-100945500D01*
X218915000Y-101520500D01*
X218913856Y-101543779D01*
X218910437Y-101566834D01*
X218904773Y-101589443D01*
X218896921Y-101611387D01*
X218886956Y-101632457D01*
X218874974Y-101652448D01*
X218861090Y-101671168D01*
X218845438Y-101688438D01*
X218828168Y-101704090D01*
X218809448Y-101717974D01*
X218789457Y-101729956D01*
X218768387Y-101739921D01*
X218746443Y-101747773D01*
X218723834Y-101753437D01*
X218700779Y-101756856D01*
X218677500Y-101758000D01*
X218202500Y-101758000D01*
X218179221Y-101756856D01*
X218156166Y-101753437D01*
X218133557Y-101747773D01*
X218111613Y-101739921D01*
X218090543Y-101729956D01*
X218070552Y-101717974D01*
X218051832Y-101704090D01*
X218034562Y-101688438D01*
X218018910Y-101671168D01*
X218005026Y-101652448D01*
X217993044Y-101632457D01*
X217983079Y-101611387D01*
X217975227Y-101589443D01*
X217969563Y-101566834D01*
X217966144Y-101543779D01*
X217965000Y-101520500D01*
X217965000Y-100945500D01*
X217966144Y-100922221D01*
X217969563Y-100899166D01*
X217975227Y-100876557D01*
X217983079Y-100854613D01*
X217993044Y-100833543D01*
X218005026Y-100813552D01*
X218018910Y-100794832D01*
X218034562Y-100777562D01*
X218051832Y-100761910D01*
X218070552Y-100748026D01*
X218090543Y-100736044D01*
X218111613Y-100726079D01*
X218133557Y-100718227D01*
X218156166Y-100712563D01*
X218179221Y-100709144D01*
X218202500Y-100708000D01*
X218677500Y-100708000D01*
X218700779Y-100709144D01*
X218700779Y-100709144D01*
G37*
D24*
X218440000Y-101233000D03*
D13*
G36*
X193833506Y-120964205D02*
G01*
X193857774Y-120967805D01*
X193881573Y-120973766D01*
X193904672Y-120982031D01*
X193926851Y-120992521D01*
X193947894Y-121005133D01*
X193967600Y-121019748D01*
X193985778Y-121036224D01*
X194002254Y-121054402D01*
X194016869Y-121074108D01*
X194029481Y-121095151D01*
X194039971Y-121117330D01*
X194048236Y-121140429D01*
X194054197Y-121164228D01*
X194057797Y-121188496D01*
X194059001Y-121213000D01*
X194059001Y-122113002D01*
X194057797Y-122137506D01*
X194054197Y-122161774D01*
X194048236Y-122185573D01*
X194039971Y-122208672D01*
X194029481Y-122230851D01*
X194016869Y-122251894D01*
X194002254Y-122271600D01*
X193985778Y-122289778D01*
X193967600Y-122306254D01*
X193947894Y-122320869D01*
X193926851Y-122333481D01*
X193904672Y-122343971D01*
X193881573Y-122352236D01*
X193857774Y-122358197D01*
X193833506Y-122361797D01*
X193809002Y-122363001D01*
X193159000Y-122363001D01*
X193134496Y-122361797D01*
X193110228Y-122358197D01*
X193086429Y-122352236D01*
X193063330Y-122343971D01*
X193041151Y-122333481D01*
X193020108Y-122320869D01*
X193000402Y-122306254D01*
X192982224Y-122289778D01*
X192965748Y-122271600D01*
X192951133Y-122251894D01*
X192938521Y-122230851D01*
X192928031Y-122208672D01*
X192919766Y-122185573D01*
X192913805Y-122161774D01*
X192910205Y-122137506D01*
X192909001Y-122113002D01*
X192909001Y-121213000D01*
X192910205Y-121188496D01*
X192913805Y-121164228D01*
X192919766Y-121140429D01*
X192928031Y-121117330D01*
X192938521Y-121095151D01*
X192951133Y-121074108D01*
X192965748Y-121054402D01*
X192982224Y-121036224D01*
X193000402Y-121019748D01*
X193020108Y-121005133D01*
X193041151Y-120992521D01*
X193063330Y-120982031D01*
X193086429Y-120973766D01*
X193110228Y-120967805D01*
X193134496Y-120964205D01*
X193159000Y-120963001D01*
X193809002Y-120963001D01*
X193833506Y-120964205D01*
X193833506Y-120964205D01*
G37*
D17*
X193484001Y-121663001D03*
D13*
G36*
X195883506Y-120964205D02*
G01*
X195907774Y-120967805D01*
X195931573Y-120973766D01*
X195954672Y-120982031D01*
X195976851Y-120992521D01*
X195997894Y-121005133D01*
X196017600Y-121019748D01*
X196035778Y-121036224D01*
X196052254Y-121054402D01*
X196066869Y-121074108D01*
X196079481Y-121095151D01*
X196089971Y-121117330D01*
X196098236Y-121140429D01*
X196104197Y-121164228D01*
X196107797Y-121188496D01*
X196109001Y-121213000D01*
X196109001Y-122113002D01*
X196107797Y-122137506D01*
X196104197Y-122161774D01*
X196098236Y-122185573D01*
X196089971Y-122208672D01*
X196079481Y-122230851D01*
X196066869Y-122251894D01*
X196052254Y-122271600D01*
X196035778Y-122289778D01*
X196017600Y-122306254D01*
X195997894Y-122320869D01*
X195976851Y-122333481D01*
X195954672Y-122343971D01*
X195931573Y-122352236D01*
X195907774Y-122358197D01*
X195883506Y-122361797D01*
X195859002Y-122363001D01*
X195209000Y-122363001D01*
X195184496Y-122361797D01*
X195160228Y-122358197D01*
X195136429Y-122352236D01*
X195113330Y-122343971D01*
X195091151Y-122333481D01*
X195070108Y-122320869D01*
X195050402Y-122306254D01*
X195032224Y-122289778D01*
X195015748Y-122271600D01*
X195001133Y-122251894D01*
X194988521Y-122230851D01*
X194978031Y-122208672D01*
X194969766Y-122185573D01*
X194963805Y-122161774D01*
X194960205Y-122137506D01*
X194959001Y-122113002D01*
X194959001Y-121213000D01*
X194960205Y-121188496D01*
X194963805Y-121164228D01*
X194969766Y-121140429D01*
X194978031Y-121117330D01*
X194988521Y-121095151D01*
X195001133Y-121074108D01*
X195015748Y-121054402D01*
X195032224Y-121036224D01*
X195050402Y-121019748D01*
X195070108Y-121005133D01*
X195091151Y-120992521D01*
X195113330Y-120982031D01*
X195136429Y-120973766D01*
X195160228Y-120967805D01*
X195184496Y-120964205D01*
X195209000Y-120963001D01*
X195859002Y-120963001D01*
X195883506Y-120964205D01*
X195883506Y-120964205D01*
G37*
D17*
X195534001Y-121663001D03*
D25*
X192285000Y-107426000D03*
D26*
X184785000Y-114926000D03*
X186055000Y-114926000D03*
X187325000Y-114926000D03*
X188595000Y-114926000D03*
X189865000Y-114926000D03*
X191135000Y-114926000D03*
X192405000Y-114926000D03*
X193675000Y-114926000D03*
X194945000Y-114926000D03*
X196215000Y-114926000D03*
X197485000Y-114926000D03*
X198755000Y-114926000D03*
X200025000Y-114926000D03*
X201295000Y-114926000D03*
D27*
X202295000Y-112141000D03*
X202295000Y-110871000D03*
X202295000Y-109601000D03*
X202295000Y-108331000D03*
X202295000Y-107061000D03*
X202295000Y-105791000D03*
X202295000Y-104521000D03*
X202295000Y-103251000D03*
X202295000Y-101981000D03*
X202295000Y-100711000D03*
D26*
X201295000Y-97926000D03*
X200025000Y-97926000D03*
X198755000Y-97926000D03*
X197485000Y-97926000D03*
X196215000Y-97926000D03*
X194945000Y-97926000D03*
X193675000Y-97926000D03*
X192405000Y-97926000D03*
X191135000Y-97926000D03*
X189865000Y-97926000D03*
X188595000Y-97926000D03*
X187325000Y-97926000D03*
X186055000Y-97926000D03*
X184785000Y-97926000D03*
D28*
X213258000Y-119888000D03*
D29*
X219558000Y-119888000D03*
X219558000Y-117588000D03*
X219558000Y-122188000D03*
D16*
X231648000Y-125730000D03*
D15*
X229108000Y-125730000D03*
D30*
X224536000Y-114808000D03*
X204724000Y-112014000D03*
X202438000Y-121666000D03*
X184785000Y-117475000D03*
X184912000Y-94996000D03*
X204688000Y-101854000D03*
X216408000Y-107696000D03*
D31*
X219558000Y-117588000D02*
X233172000Y-117588000D01*
X219955000Y-114808000D02*
X219955000Y-117588000D01*
X219955000Y-114808000D02*
X219955000Y-112023000D01*
X220545000Y-112023000D02*
X222586000Y-109982000D01*
X219964000Y-112023000D02*
X220545000Y-112023000D01*
X228010000Y-108712000D02*
X232156000Y-108712000D01*
X228010000Y-104902000D02*
X232410000Y-104902000D01*
X221836998Y-103632000D02*
X220726000Y-102521002D01*
X222586000Y-103632000D02*
X221836998Y-103632000D01*
X220726000Y-102521002D02*
X220726000Y-101092000D01*
X220726000Y-101092000D02*
X222758000Y-99060000D01*
X222758000Y-99060000D02*
X232918000Y-99060000D01*
X221225000Y-108712000D02*
X219964000Y-109973000D01*
X222586000Y-108712000D02*
X221225000Y-108712000D01*
X219558000Y-122188000D02*
X219558000Y-125730000D01*
X184785000Y-114926000D02*
X184785000Y-117475000D01*
X226568000Y-87630000D02*
X213614000Y-87630000D01*
X222005000Y-114808000D02*
X224536000Y-114808000D01*
X224827000Y-104147500D02*
X224827000Y-106680000D01*
X228010000Y-102362000D02*
X226612500Y-102362000D01*
X226612500Y-102362000D02*
X224827000Y-104147500D01*
X224827000Y-107868500D02*
X224827000Y-106680000D01*
X223983500Y-108712000D02*
X224827000Y-107868500D01*
X222586000Y-108712000D02*
X223983500Y-108712000D01*
X202295000Y-112141000D02*
X204597000Y-112141000D01*
X204597000Y-112141000D02*
X204724000Y-112014000D01*
X200284001Y-121663001D02*
X202435001Y-121663001D01*
X202435001Y-121663001D02*
X202438000Y-121666000D01*
X184785000Y-97926000D02*
X184785000Y-95123000D01*
X184785000Y-95123000D02*
X184912000Y-94996000D01*
X225566000Y-122188000D02*
X229108000Y-125730000D01*
X219558000Y-122188000D02*
X225566000Y-122188000D01*
X184785000Y-120532000D02*
X185919000Y-121666000D01*
X184785000Y-117475000D02*
X184785000Y-120532000D01*
X224536000Y-108159500D02*
X224827000Y-107868500D01*
X224536000Y-114808000D02*
X224536000Y-108159500D01*
X219558000Y-119888000D02*
X213258000Y-119888000D01*
X213258000Y-121319000D02*
X217669000Y-125730000D01*
X213258000Y-119888000D02*
X213258000Y-121319000D01*
X213614000Y-101815000D02*
X215138000Y-103339000D01*
X213614000Y-100330000D02*
X213614000Y-101815000D01*
X213258000Y-117353000D02*
X213258000Y-119888000D01*
X215138000Y-115473000D02*
X213258000Y-117353000D01*
X215138000Y-103339000D02*
X215138000Y-115473000D01*
X197551000Y-125730000D02*
X193484001Y-121663001D01*
X217669000Y-125730000D02*
X197551000Y-125730000D01*
X187971999Y-121663001D02*
X187969000Y-121666000D01*
X193484001Y-121663001D02*
X187971999Y-121663001D01*
X186055000Y-116561000D02*
X186055000Y-114926000D01*
X186055000Y-119752000D02*
X186055000Y-116561000D01*
X187969000Y-121666000D02*
X186055000Y-119752000D01*
D32*
X209042000Y-112853000D02*
X201898997Y-119996003D01*
X209042000Y-112328000D02*
X209042000Y-112853000D01*
X196958003Y-121557997D02*
X196852999Y-121663001D01*
X196958003Y-119996003D02*
X196958003Y-121557997D01*
X196852999Y-121663001D02*
X198234001Y-121663001D01*
X195534001Y-121663001D02*
X196852999Y-121663001D01*
X201898997Y-119996003D02*
X196958003Y-119996003D01*
X191630001Y-119996003D02*
X196958003Y-119996003D01*
X190100003Y-119996003D02*
X191630001Y-119996003D01*
X187325000Y-114926000D02*
X187325000Y-117221000D01*
X187325000Y-117221000D02*
X190100003Y-119996003D01*
X222586000Y-106172000D02*
X218440000Y-106172000D01*
X218440000Y-102983000D02*
X218440000Y-106284000D01*
X222586000Y-107442000D02*
X218440000Y-107442000D01*
X203545000Y-100711000D02*
X204688000Y-101854000D01*
X202295000Y-100711000D02*
X203545000Y-100711000D01*
X216408000Y-107696000D02*
X218440000Y-107696000D01*
X209593000Y-97140000D02*
X205740000Y-100993000D01*
X210118000Y-97140000D02*
X209593000Y-97140000D01*
X205740000Y-100993000D02*
X205740000Y-102616000D01*
X208017000Y-104893000D02*
X211582000Y-104893000D01*
X205740000Y-102616000D02*
X208017000Y-104893000D01*
X211724000Y-97140000D02*
X210118000Y-97140000D01*
X213614000Y-95250000D02*
X211724000Y-97140000D01*
X211198372Y-101461372D02*
X211198372Y-101470372D01*
X210575000Y-100838000D02*
X211198372Y-101461372D01*
X211198372Y-101470372D02*
X213868000Y-104140000D01*
X213868000Y-104140000D02*
X213868000Y-109474000D01*
X208392000Y-110193000D02*
X208392000Y-109668000D01*
X209451999Y-111252999D02*
X208392000Y-110193000D01*
X212089001Y-111252999D02*
X209451999Y-111252999D01*
X213868000Y-109474000D02*
X212089001Y-111252999D01*
X210575000Y-100829000D02*
X210575000Y-100838000D01*
X213614000Y-97790000D02*
X210575000Y-100829000D01*
X213614000Y-90170000D02*
X192532000Y-90170000D01*
X188595000Y-94107000D02*
X188595000Y-97926000D01*
X192532000Y-90170000D02*
X188595000Y-94107000D01*
X213614000Y-92710000D02*
X191770000Y-92710000D01*
X189865000Y-94615000D02*
X189865000Y-97926000D01*
X191770000Y-92710000D02*
X189865000Y-94615000D01*
X218440000Y-98552000D02*
X218440000Y-101233000D01*
X229362000Y-87630000D02*
X218440000Y-98552000D01*
X201431000Y-97790000D02*
X201295000Y-97926000D01*
X207458000Y-97790000D02*
X201431000Y-97790000D01*
X210118000Y-99245000D02*
X208525000Y-100838000D01*
X210118000Y-98440000D02*
X210118000Y-99245000D01*
X210167000Y-109668000D02*
X209692000Y-109668000D01*
X211582000Y-108253000D02*
X210167000Y-109668000D01*
X211582000Y-106943000D02*
X211582000Y-108253000D01*
D33*
G36*
X241173000Y-129388000D02*
G01*
X230759000Y-129388000D01*
X230759000Y-127214231D01*
X230798000Y-127218072D01*
X231362250Y-127215000D01*
X231521000Y-127056250D01*
X231521000Y-125857000D01*
X231775000Y-125857000D01*
X231775000Y-127056250D01*
X231933750Y-127215000D01*
X232498000Y-127218072D01*
X232622482Y-127205812D01*
X232742180Y-127169502D01*
X232852494Y-127110537D01*
X232949185Y-127031185D01*
X233028537Y-126934494D01*
X233087502Y-126824180D01*
X233123812Y-126704482D01*
X233136072Y-126580000D01*
X233133000Y-126015750D01*
X232974250Y-125857000D01*
X231775000Y-125857000D01*
X231521000Y-125857000D01*
X231501000Y-125857000D01*
X231501000Y-125603000D01*
X231521000Y-125603000D01*
X231521000Y-124403750D01*
X231775000Y-124403750D01*
X231775000Y-125603000D01*
X232974250Y-125603000D01*
X233133000Y-125444250D01*
X233136072Y-124880000D01*
X233123812Y-124755518D01*
X233087502Y-124635820D01*
X233028537Y-124525506D01*
X232949185Y-124428815D01*
X232852494Y-124349463D01*
X232742180Y-124290498D01*
X232622482Y-124254188D01*
X232498000Y-124241928D01*
X231933750Y-124245000D01*
X231775000Y-124403750D01*
X231521000Y-124403750D01*
X231362250Y-124245000D01*
X230798000Y-124241928D01*
X230759000Y-124245769D01*
X230759000Y-121145325D01*
X236764280Y-121145325D01*
X236907052Y-121449625D01*
X237263107Y-121629455D01*
X237647402Y-121736366D01*
X238045171Y-121766251D01*
X238441128Y-121717961D01*
X238820055Y-121593352D01*
X239088948Y-121449625D01*
X239231720Y-121145325D01*
X237998000Y-119911605D01*
X236764280Y-121145325D01*
X230759000Y-121145325D01*
X230759000Y-119779171D01*
X235963749Y-119779171D01*
X236012039Y-120175128D01*
X236136648Y-120554055D01*
X236280375Y-120822948D01*
X236584675Y-120965720D01*
X237818395Y-119732000D01*
X238177605Y-119732000D01*
X239411325Y-120965720D01*
X239715625Y-120822948D01*
X239895455Y-120466893D01*
X240002366Y-120082598D01*
X240032251Y-119684829D01*
X239983961Y-119288872D01*
X239859352Y-118909945D01*
X239715625Y-118641052D01*
X239411325Y-118498280D01*
X238177605Y-119732000D01*
X237818395Y-119732000D01*
X236584675Y-118498280D01*
X236280375Y-118641052D01*
X236100545Y-118997107D01*
X235993634Y-119381402D01*
X235963749Y-119779171D01*
X230759000Y-119779171D01*
X230759000Y-117745325D01*
X236764280Y-117745325D01*
X236898783Y-118032000D01*
X236764280Y-118318675D01*
X237998000Y-119552395D01*
X239231720Y-118318675D01*
X239097217Y-118032000D01*
X239231720Y-117745325D01*
X237998000Y-116511605D01*
X236764280Y-117745325D01*
X230759000Y-117745325D01*
X230759000Y-116379171D01*
X235963749Y-116379171D01*
X236012039Y-116775128D01*
X236136648Y-117154055D01*
X236280375Y-117422948D01*
X236584675Y-117565720D01*
X237818395Y-116332000D01*
X238177605Y-116332000D01*
X239411325Y-117565720D01*
X239715625Y-117422948D01*
X239895455Y-117066893D01*
X240002366Y-116682598D01*
X240032251Y-116284829D01*
X239983961Y-115888872D01*
X239859352Y-115509945D01*
X239715625Y-115241052D01*
X239411325Y-115098280D01*
X238177605Y-116332000D01*
X237818395Y-116332000D01*
X236584675Y-115098280D01*
X236280375Y-115241052D01*
X236100545Y-115597107D01*
X235993634Y-115981402D01*
X235963749Y-116379171D01*
X230759000Y-116379171D01*
X230759000Y-114918675D01*
X236764280Y-114918675D01*
X237998000Y-116152395D01*
X239231720Y-114918675D01*
X239088948Y-114614375D01*
X238732893Y-114434545D01*
X238348598Y-114327634D01*
X237950829Y-114297749D01*
X237554872Y-114346039D01*
X237175945Y-114470648D01*
X236907052Y-114614375D01*
X236764280Y-114918675D01*
X230759000Y-114918675D01*
X230759000Y-94617500D01*
X238500428Y-94617500D01*
X238512688Y-94741982D01*
X238548998Y-94861680D01*
X238607963Y-94971994D01*
X238687315Y-95068685D01*
X238784006Y-95148037D01*
X238894320Y-95207002D01*
X239014018Y-95243312D01*
X239138500Y-95255572D01*
X239490250Y-95252500D01*
X239649000Y-95093750D01*
X239649000Y-94107000D01*
X239903000Y-94107000D01*
X239903000Y-95093750D01*
X240061750Y-95252500D01*
X240413500Y-95255572D01*
X240537982Y-95243312D01*
X240657680Y-95207002D01*
X240767994Y-95148037D01*
X240864685Y-95068685D01*
X240944037Y-94971994D01*
X241003002Y-94861680D01*
X241039312Y-94741982D01*
X241051572Y-94617500D01*
X241048500Y-94265750D01*
X240889750Y-94107000D01*
X239903000Y-94107000D01*
X239649000Y-94107000D01*
X238662250Y-94107000D01*
X238503500Y-94265750D01*
X238500428Y-94617500D01*
X230759000Y-94617500D01*
X230759000Y-93342500D01*
X238500428Y-93342500D01*
X238503500Y-93694250D01*
X238662250Y-93853000D01*
X239649000Y-93853000D01*
X239649000Y-92866250D01*
X239903000Y-92866250D01*
X239903000Y-93853000D01*
X240889750Y-93853000D01*
X241048500Y-93694250D01*
X241051572Y-93342500D01*
X241039312Y-93218018D01*
X241003002Y-93098320D01*
X240944037Y-92988006D01*
X240864685Y-92891315D01*
X240767994Y-92811963D01*
X240657680Y-92752998D01*
X240537982Y-92716688D01*
X240413500Y-92704428D01*
X240061750Y-92707500D01*
X239903000Y-92866250D01*
X239649000Y-92866250D01*
X239490250Y-92707500D01*
X239138500Y-92704428D01*
X239014018Y-92716688D01*
X238894320Y-92752998D01*
X238784006Y-92811963D01*
X238687315Y-92891315D01*
X238607963Y-92988006D01*
X238548998Y-93098320D01*
X238512688Y-93218018D01*
X238500428Y-93342500D01*
X230759000Y-93342500D01*
X230759000Y-88569242D01*
X230901731Y-88727588D01*
X231135080Y-88901641D01*
X231397901Y-89026825D01*
X231545110Y-89071476D01*
X231775000Y-88950155D01*
X231775000Y-87757000D01*
X232029000Y-87757000D01*
X232029000Y-88950155D01*
X232258890Y-89071476D01*
X232406099Y-89026825D01*
X232668920Y-88901641D01*
X232902269Y-88727588D01*
X233097178Y-88511355D01*
X233246157Y-88261252D01*
X233343481Y-87986891D01*
X233222814Y-87757000D01*
X232029000Y-87757000D01*
X231775000Y-87757000D01*
X231755000Y-87757000D01*
X231755000Y-87503000D01*
X231775000Y-87503000D01*
X231775000Y-86309845D01*
X232029000Y-86309845D01*
X232029000Y-87503000D01*
X233222814Y-87503000D01*
X233343481Y-87273109D01*
X233246157Y-86998748D01*
X233097178Y-86748645D01*
X232902269Y-86532412D01*
X232668920Y-86358359D01*
X232406099Y-86233175D01*
X232258890Y-86188524D01*
X232029000Y-86309845D01*
X231775000Y-86309845D01*
X231545110Y-86188524D01*
X231397901Y-86233175D01*
X231135080Y-86358359D01*
X230901731Y-86532412D01*
X230759000Y-86690758D01*
X230759000Y-83972000D01*
X241173000Y-83972000D01*
X241173000Y-129388000D01*
X241173000Y-129388000D01*
G37*
X241173000Y-129388000D02*
X230759000Y-129388000D01*
X230759000Y-127214231D01*
X230798000Y-127218072D01*
X231362250Y-127215000D01*
X231521000Y-127056250D01*
X231521000Y-125857000D01*
X231775000Y-125857000D01*
X231775000Y-127056250D01*
X231933750Y-127215000D01*
X232498000Y-127218072D01*
X232622482Y-127205812D01*
X232742180Y-127169502D01*
X232852494Y-127110537D01*
X232949185Y-127031185D01*
X233028537Y-126934494D01*
X233087502Y-126824180D01*
X233123812Y-126704482D01*
X233136072Y-126580000D01*
X233133000Y-126015750D01*
X232974250Y-125857000D01*
X231775000Y-125857000D01*
X231521000Y-125857000D01*
X231501000Y-125857000D01*
X231501000Y-125603000D01*
X231521000Y-125603000D01*
X231521000Y-124403750D01*
X231775000Y-124403750D01*
X231775000Y-125603000D01*
X232974250Y-125603000D01*
X233133000Y-125444250D01*
X233136072Y-124880000D01*
X233123812Y-124755518D01*
X233087502Y-124635820D01*
X233028537Y-124525506D01*
X232949185Y-124428815D01*
X232852494Y-124349463D01*
X232742180Y-124290498D01*
X232622482Y-124254188D01*
X232498000Y-124241928D01*
X231933750Y-124245000D01*
X231775000Y-124403750D01*
X231521000Y-124403750D01*
X231362250Y-124245000D01*
X230798000Y-124241928D01*
X230759000Y-124245769D01*
X230759000Y-121145325D01*
X236764280Y-121145325D01*
X236907052Y-121449625D01*
X237263107Y-121629455D01*
X237647402Y-121736366D01*
X238045171Y-121766251D01*
X238441128Y-121717961D01*
X238820055Y-121593352D01*
X239088948Y-121449625D01*
X239231720Y-121145325D01*
X237998000Y-119911605D01*
X236764280Y-121145325D01*
X230759000Y-121145325D01*
X230759000Y-119779171D01*
X235963749Y-119779171D01*
X236012039Y-120175128D01*
X236136648Y-120554055D01*
X236280375Y-120822948D01*
X236584675Y-120965720D01*
X237818395Y-119732000D01*
X238177605Y-119732000D01*
X239411325Y-120965720D01*
X239715625Y-120822948D01*
X239895455Y-120466893D01*
X240002366Y-120082598D01*
X240032251Y-119684829D01*
X239983961Y-119288872D01*
X239859352Y-118909945D01*
X239715625Y-118641052D01*
X239411325Y-118498280D01*
X238177605Y-119732000D01*
X237818395Y-119732000D01*
X236584675Y-118498280D01*
X236280375Y-118641052D01*
X236100545Y-118997107D01*
X235993634Y-119381402D01*
X235963749Y-119779171D01*
X230759000Y-119779171D01*
X230759000Y-117745325D01*
X236764280Y-117745325D01*
X236898783Y-118032000D01*
X236764280Y-118318675D01*
X237998000Y-119552395D01*
X239231720Y-118318675D01*
X239097217Y-118032000D01*
X239231720Y-117745325D01*
X237998000Y-116511605D01*
X236764280Y-117745325D01*
X230759000Y-117745325D01*
X230759000Y-116379171D01*
X235963749Y-116379171D01*
X236012039Y-116775128D01*
X236136648Y-117154055D01*
X236280375Y-117422948D01*
X236584675Y-117565720D01*
X237818395Y-116332000D01*
X238177605Y-116332000D01*
X239411325Y-117565720D01*
X239715625Y-117422948D01*
X239895455Y-117066893D01*
X240002366Y-116682598D01*
X240032251Y-116284829D01*
X239983961Y-115888872D01*
X239859352Y-115509945D01*
X239715625Y-115241052D01*
X239411325Y-115098280D01*
X238177605Y-116332000D01*
X237818395Y-116332000D01*
X236584675Y-115098280D01*
X236280375Y-115241052D01*
X236100545Y-115597107D01*
X235993634Y-115981402D01*
X235963749Y-116379171D01*
X230759000Y-116379171D01*
X230759000Y-114918675D01*
X236764280Y-114918675D01*
X237998000Y-116152395D01*
X239231720Y-114918675D01*
X239088948Y-114614375D01*
X238732893Y-114434545D01*
X238348598Y-114327634D01*
X237950829Y-114297749D01*
X237554872Y-114346039D01*
X237175945Y-114470648D01*
X236907052Y-114614375D01*
X236764280Y-114918675D01*
X230759000Y-114918675D01*
X230759000Y-94617500D01*
X238500428Y-94617500D01*
X238512688Y-94741982D01*
X238548998Y-94861680D01*
X238607963Y-94971994D01*
X238687315Y-95068685D01*
X238784006Y-95148037D01*
X238894320Y-95207002D01*
X239014018Y-95243312D01*
X239138500Y-95255572D01*
X239490250Y-95252500D01*
X239649000Y-95093750D01*
X239649000Y-94107000D01*
X239903000Y-94107000D01*
X239903000Y-95093750D01*
X240061750Y-95252500D01*
X240413500Y-95255572D01*
X240537982Y-95243312D01*
X240657680Y-95207002D01*
X240767994Y-95148037D01*
X240864685Y-95068685D01*
X240944037Y-94971994D01*
X241003002Y-94861680D01*
X241039312Y-94741982D01*
X241051572Y-94617500D01*
X241048500Y-94265750D01*
X240889750Y-94107000D01*
X239903000Y-94107000D01*
X239649000Y-94107000D01*
X238662250Y-94107000D01*
X238503500Y-94265750D01*
X238500428Y-94617500D01*
X230759000Y-94617500D01*
X230759000Y-93342500D01*
X238500428Y-93342500D01*
X238503500Y-93694250D01*
X238662250Y-93853000D01*
X239649000Y-93853000D01*
X239649000Y-92866250D01*
X239903000Y-92866250D01*
X239903000Y-93853000D01*
X240889750Y-93853000D01*
X241048500Y-93694250D01*
X241051572Y-93342500D01*
X241039312Y-93218018D01*
X241003002Y-93098320D01*
X240944037Y-92988006D01*
X240864685Y-92891315D01*
X240767994Y-92811963D01*
X240657680Y-92752998D01*
X240537982Y-92716688D01*
X240413500Y-92704428D01*
X240061750Y-92707500D01*
X239903000Y-92866250D01*
X239649000Y-92866250D01*
X239490250Y-92707500D01*
X239138500Y-92704428D01*
X239014018Y-92716688D01*
X238894320Y-92752998D01*
X238784006Y-92811963D01*
X238687315Y-92891315D01*
X238607963Y-92988006D01*
X238548998Y-93098320D01*
X238512688Y-93218018D01*
X238500428Y-93342500D01*
X230759000Y-93342500D01*
X230759000Y-88569242D01*
X230901731Y-88727588D01*
X231135080Y-88901641D01*
X231397901Y-89026825D01*
X231545110Y-89071476D01*
X231775000Y-88950155D01*
X231775000Y-87757000D01*
X232029000Y-87757000D01*
X232029000Y-88950155D01*
X232258890Y-89071476D01*
X232406099Y-89026825D01*
X232668920Y-88901641D01*
X232902269Y-88727588D01*
X233097178Y-88511355D01*
X233246157Y-88261252D01*
X233343481Y-87986891D01*
X233222814Y-87757000D01*
X232029000Y-87757000D01*
X231775000Y-87757000D01*
X231755000Y-87757000D01*
X231755000Y-87503000D01*
X231775000Y-87503000D01*
X231775000Y-86309845D01*
X232029000Y-86309845D01*
X232029000Y-87503000D01*
X233222814Y-87503000D01*
X233343481Y-87273109D01*
X233246157Y-86998748D01*
X233097178Y-86748645D01*
X232902269Y-86532412D01*
X232668920Y-86358359D01*
X232406099Y-86233175D01*
X232258890Y-86188524D01*
X232029000Y-86309845D01*
X231775000Y-86309845D01*
X231545110Y-86188524D01*
X231397901Y-86233175D01*
X231135080Y-86358359D01*
X230901731Y-86532412D01*
X230759000Y-86690758D01*
X230759000Y-83972000D01*
X241173000Y-83972000D01*
X241173000Y-129388000D01*
G36*
X258674001Y-129388000D02*
G01*
X255879313Y-129388000D01*
X256135082Y-129282057D01*
X256697685Y-128906138D01*
X257176138Y-128427685D01*
X257552057Y-127865082D01*
X257810994Y-127239952D01*
X257943000Y-126576318D01*
X257943000Y-125899682D01*
X257810994Y-125236048D01*
X257552057Y-124610918D01*
X257176138Y-124048315D01*
X256697685Y-123569862D01*
X256135082Y-123193943D01*
X255509952Y-122935006D01*
X254846318Y-122803000D01*
X254169682Y-122803000D01*
X253506048Y-122935006D01*
X252880918Y-123193943D01*
X252318315Y-123569862D01*
X251839862Y-124048315D01*
X251463943Y-124610918D01*
X251205006Y-125236048D01*
X251073000Y-125899682D01*
X251073000Y-126576318D01*
X251205006Y-127239952D01*
X251463943Y-127865082D01*
X251839862Y-128427685D01*
X252318315Y-128906138D01*
X252880918Y-129282057D01*
X253136687Y-129388000D01*
X241935000Y-129388000D01*
X241935000Y-121145325D01*
X246684280Y-121145325D01*
X246827052Y-121449625D01*
X247183107Y-121629455D01*
X247567402Y-121736366D01*
X247965171Y-121766251D01*
X248361128Y-121717961D01*
X248740055Y-121593352D01*
X249008948Y-121449625D01*
X249151720Y-121145325D01*
X247918000Y-119911605D01*
X246684280Y-121145325D01*
X241935000Y-121145325D01*
X241935000Y-119779171D01*
X245883749Y-119779171D01*
X245932039Y-120175128D01*
X246056648Y-120554055D01*
X246200375Y-120822948D01*
X246504675Y-120965720D01*
X247738395Y-119732000D01*
X248097605Y-119732000D01*
X249331325Y-120965720D01*
X249635625Y-120822948D01*
X249815455Y-120466893D01*
X249922366Y-120082598D01*
X249952251Y-119684829D01*
X249903961Y-119288872D01*
X249779352Y-118909945D01*
X249635625Y-118641052D01*
X249331325Y-118498280D01*
X248097605Y-119732000D01*
X247738395Y-119732000D01*
X246504675Y-118498280D01*
X246200375Y-118641052D01*
X246020545Y-118997107D01*
X245913634Y-119381402D01*
X245883749Y-119779171D01*
X241935000Y-119779171D01*
X241935000Y-117745325D01*
X246684280Y-117745325D01*
X246818783Y-118032000D01*
X246684280Y-118318675D01*
X247918000Y-119552395D01*
X249151720Y-118318675D01*
X249017217Y-118032000D01*
X249151720Y-117745325D01*
X247918000Y-116511605D01*
X246684280Y-117745325D01*
X241935000Y-117745325D01*
X241935000Y-116379171D01*
X245883749Y-116379171D01*
X245932039Y-116775128D01*
X246056648Y-117154055D01*
X246200375Y-117422948D01*
X246504675Y-117565720D01*
X247738395Y-116332000D01*
X248097605Y-116332000D01*
X249331325Y-117565720D01*
X249635625Y-117422948D01*
X249815455Y-117066893D01*
X249922366Y-116682598D01*
X249952251Y-116284829D01*
X249903961Y-115888872D01*
X249779352Y-115509945D01*
X249635625Y-115241052D01*
X249331325Y-115098280D01*
X248097605Y-116332000D01*
X247738395Y-116332000D01*
X246504675Y-115098280D01*
X246200375Y-115241052D01*
X246020545Y-115597107D01*
X245913634Y-115981402D01*
X245883749Y-116379171D01*
X241935000Y-116379171D01*
X241935000Y-114918675D01*
X246684280Y-114918675D01*
X247918000Y-116152395D01*
X249151720Y-114918675D01*
X249008948Y-114614375D01*
X248652893Y-114434545D01*
X248268598Y-114327634D01*
X247870829Y-114297749D01*
X247474872Y-114346039D01*
X247095945Y-114470648D01*
X246827052Y-114614375D01*
X246684280Y-114918675D01*
X241935000Y-114918675D01*
X241935000Y-111132728D01*
X241959463Y-111178494D01*
X242038815Y-111275185D01*
X242135506Y-111354537D01*
X242245820Y-111413502D01*
X242365518Y-111449812D01*
X242490000Y-111462072D01*
X243554250Y-111459000D01*
X243713000Y-111300250D01*
X243713000Y-109601000D01*
X243967000Y-109601000D01*
X243967000Y-111300250D01*
X244125750Y-111459000D01*
X245190000Y-111462072D01*
X245314482Y-111449812D01*
X245434180Y-111413502D01*
X245544494Y-111354537D01*
X245641185Y-111275185D01*
X245720537Y-111178494D01*
X245779502Y-111068180D01*
X245815812Y-110948482D01*
X245828072Y-110824000D01*
X245825000Y-109759750D01*
X245666250Y-109601000D01*
X243967000Y-109601000D01*
X243713000Y-109601000D01*
X243693000Y-109601000D01*
X243693000Y-109347000D01*
X243713000Y-109347000D01*
X243713000Y-109327000D01*
X243967000Y-109327000D01*
X243967000Y-109347000D01*
X245666250Y-109347000D01*
X245825000Y-109188250D01*
X245828072Y-108124000D01*
X245815812Y-107999518D01*
X245779502Y-107879820D01*
X245720537Y-107769506D01*
X245641185Y-107672815D01*
X245544494Y-107593463D01*
X245498728Y-107569000D01*
X258674001Y-107569000D01*
X258674001Y-129388000D01*
X258674001Y-129388000D01*
G37*
X258674001Y-129388000D02*
X255879313Y-129388000D01*
X256135082Y-129282057D01*
X256697685Y-128906138D01*
X257176138Y-128427685D01*
X257552057Y-127865082D01*
X257810994Y-127239952D01*
X257943000Y-126576318D01*
X257943000Y-125899682D01*
X257810994Y-125236048D01*
X257552057Y-124610918D01*
X257176138Y-124048315D01*
X256697685Y-123569862D01*
X256135082Y-123193943D01*
X255509952Y-122935006D01*
X254846318Y-122803000D01*
X254169682Y-122803000D01*
X253506048Y-122935006D01*
X252880918Y-123193943D01*
X252318315Y-123569862D01*
X251839862Y-124048315D01*
X251463943Y-124610918D01*
X251205006Y-125236048D01*
X251073000Y-125899682D01*
X251073000Y-126576318D01*
X251205006Y-127239952D01*
X251463943Y-127865082D01*
X251839862Y-128427685D01*
X252318315Y-128906138D01*
X252880918Y-129282057D01*
X253136687Y-129388000D01*
X241935000Y-129388000D01*
X241935000Y-121145325D01*
X246684280Y-121145325D01*
X246827052Y-121449625D01*
X247183107Y-121629455D01*
X247567402Y-121736366D01*
X247965171Y-121766251D01*
X248361128Y-121717961D01*
X248740055Y-121593352D01*
X249008948Y-121449625D01*
X249151720Y-121145325D01*
X247918000Y-119911605D01*
X246684280Y-121145325D01*
X241935000Y-121145325D01*
X241935000Y-119779171D01*
X245883749Y-119779171D01*
X245932039Y-120175128D01*
X246056648Y-120554055D01*
X246200375Y-120822948D01*
X246504675Y-120965720D01*
X247738395Y-119732000D01*
X248097605Y-119732000D01*
X249331325Y-120965720D01*
X249635625Y-120822948D01*
X249815455Y-120466893D01*
X249922366Y-120082598D01*
X249952251Y-119684829D01*
X249903961Y-119288872D01*
X249779352Y-118909945D01*
X249635625Y-118641052D01*
X249331325Y-118498280D01*
X248097605Y-119732000D01*
X247738395Y-119732000D01*
X246504675Y-118498280D01*
X246200375Y-118641052D01*
X246020545Y-118997107D01*
X245913634Y-119381402D01*
X245883749Y-119779171D01*
X241935000Y-119779171D01*
X241935000Y-117745325D01*
X246684280Y-117745325D01*
X246818783Y-118032000D01*
X246684280Y-118318675D01*
X247918000Y-119552395D01*
X249151720Y-118318675D01*
X249017217Y-118032000D01*
X249151720Y-117745325D01*
X247918000Y-116511605D01*
X246684280Y-117745325D01*
X241935000Y-117745325D01*
X241935000Y-116379171D01*
X245883749Y-116379171D01*
X245932039Y-116775128D01*
X246056648Y-117154055D01*
X246200375Y-117422948D01*
X246504675Y-117565720D01*
X247738395Y-116332000D01*
X248097605Y-116332000D01*
X249331325Y-117565720D01*
X249635625Y-117422948D01*
X249815455Y-117066893D01*
X249922366Y-116682598D01*
X249952251Y-116284829D01*
X249903961Y-115888872D01*
X249779352Y-115509945D01*
X249635625Y-115241052D01*
X249331325Y-115098280D01*
X248097605Y-116332000D01*
X247738395Y-116332000D01*
X246504675Y-115098280D01*
X246200375Y-115241052D01*
X246020545Y-115597107D01*
X245913634Y-115981402D01*
X245883749Y-116379171D01*
X241935000Y-116379171D01*
X241935000Y-114918675D01*
X246684280Y-114918675D01*
X247918000Y-116152395D01*
X249151720Y-114918675D01*
X249008948Y-114614375D01*
X248652893Y-114434545D01*
X248268598Y-114327634D01*
X247870829Y-114297749D01*
X247474872Y-114346039D01*
X247095945Y-114470648D01*
X246827052Y-114614375D01*
X246684280Y-114918675D01*
X241935000Y-114918675D01*
X241935000Y-111132728D01*
X241959463Y-111178494D01*
X242038815Y-111275185D01*
X242135506Y-111354537D01*
X242245820Y-111413502D01*
X242365518Y-111449812D01*
X242490000Y-111462072D01*
X243554250Y-111459000D01*
X243713000Y-111300250D01*
X243713000Y-109601000D01*
X243967000Y-109601000D01*
X243967000Y-111300250D01*
X244125750Y-111459000D01*
X245190000Y-111462072D01*
X245314482Y-111449812D01*
X245434180Y-111413502D01*
X245544494Y-111354537D01*
X245641185Y-111275185D01*
X245720537Y-111178494D01*
X245779502Y-111068180D01*
X245815812Y-110948482D01*
X245828072Y-110824000D01*
X245825000Y-109759750D01*
X245666250Y-109601000D01*
X243967000Y-109601000D01*
X243713000Y-109601000D01*
X243693000Y-109601000D01*
X243693000Y-109347000D01*
X243713000Y-109347000D01*
X243713000Y-109327000D01*
X243967000Y-109327000D01*
X243967000Y-109347000D01*
X245666250Y-109347000D01*
X245825000Y-109188250D01*
X245828072Y-108124000D01*
X245815812Y-107999518D01*
X245779502Y-107879820D01*
X245720537Y-107769506D01*
X245641185Y-107672815D01*
X245544494Y-107593463D01*
X245498728Y-107569000D01*
X258674001Y-107569000D01*
X258674001Y-129388000D01*
M02*
