M48
INCH
T1C0.0157
T2C0.0335
T3C0.0394
T4C0.0511
T5C0.1260
%
G90
G05
T1
X7.275Y-4.625
X7.28Y-3.74
X7.71Y-4.86
X8.0586Y-4.01
X8.06Y-4.41
X8.52Y-4.24
X8.84Y-4.52
X8.8515Y-4.2
T2
X9.44Y-3.7
X9.5778Y-3.7
T3
X8.92Y-4.95
X9.02Y-4.95
X9.12Y-4.95
X8.41Y-3.45
X8.41Y-3.55
X8.41Y-3.65
X8.41Y-3.75
X8.41Y-3.85
X8.41Y-3.95
X8.71Y-3.66
X8.71Y-3.76
X8.71Y-3.86
X8.93Y-3.45
X9.03Y-3.45
X9.13Y-3.45
T4
X9.4607Y-4.1
X9.5788Y-3.9111
X9.689Y-4.1
T5
X7.0Y-3.44
X7.0Y-4.95
X9.81Y-4.95
X9.81Y-3.44
T0
M30
