%TF.GenerationSoftware,KiCad,Pcbnew,(5.1.4)-1*%
%TF.CreationDate,2021-02-10T09:57:32+00:00*%
%TF.ProjectId,WLED Module,574c4544-204d-46f6-9475-6c652e6b6963,rev?*%
%TF.SameCoordinates,Original*%
%TF.FileFunction,Soldermask,Bot*%
%TF.FilePolarity,Negative*%
%FSLAX46Y46*%
G04 Gerber Fmt 4.6, Leading zero omitted, Abs format (unit mm)*
G04 Created by KiCad (PCBNEW (5.1.4)-1) date 2021-02-10 09:57:32*
%MOMM*%
%LPD*%
G04 APERTURE LIST*
%ADD10C,0.050000*%
%ADD11C,0.100000*%
G04 APERTURE END LIST*
D10*
X254254000Y-130048000D02*
X259334000Y-130048000D01*
X172466000Y-83312000D02*
X259334000Y-83312000D01*
X259334000Y-83312000D02*
X259334000Y-130048000D01*
X183642000Y-91440000D02*
X182880000Y-91440000D01*
X183642000Y-121920000D02*
X183642000Y-91440000D01*
X182880000Y-121920000D02*
X183642000Y-121920000D01*
X254254000Y-130048000D02*
X172720000Y-130048000D01*
X172466000Y-91440000D02*
X172466000Y-83312000D01*
X182880000Y-91440000D02*
X172466000Y-91440000D01*
X172720000Y-121920000D02*
X182880000Y-121920000D01*
X172720000Y-130048000D02*
X172720000Y-121920000D01*
D11*
G36*
X255339606Y-123496562D02*
G01*
X255858455Y-123711476D01*
X256325407Y-124023484D01*
X256722516Y-124420593D01*
X257034524Y-124887545D01*
X257249438Y-125406394D01*
X257359000Y-125957201D01*
X257359000Y-126518799D01*
X257249438Y-127069606D01*
X257034524Y-127588455D01*
X256722516Y-128055407D01*
X256325407Y-128452516D01*
X255858455Y-128764524D01*
X255339606Y-128979438D01*
X255064202Y-129034219D01*
X254788800Y-129089000D01*
X254227200Y-129089000D01*
X253951798Y-129034219D01*
X253676394Y-128979438D01*
X253157545Y-128764524D01*
X252690593Y-128452516D01*
X252293484Y-128055407D01*
X251981476Y-127588455D01*
X251766562Y-127069606D01*
X251657000Y-126518799D01*
X251657000Y-125957201D01*
X251766562Y-125406394D01*
X251981476Y-124887545D01*
X252293484Y-124420593D01*
X252690593Y-124023484D01*
X253157545Y-123711476D01*
X253676394Y-123496562D01*
X254227200Y-123387000D01*
X254788800Y-123387000D01*
X255339606Y-123496562D01*
X255339606Y-123496562D01*
G37*
G36*
X188537606Y-123496562D02*
G01*
X189056455Y-123711476D01*
X189523407Y-124023484D01*
X189920516Y-124420593D01*
X190232524Y-124887545D01*
X190447438Y-125406394D01*
X190557000Y-125957201D01*
X190557000Y-126518799D01*
X190447438Y-127069606D01*
X190232524Y-127588455D01*
X189920516Y-128055407D01*
X189523407Y-128452516D01*
X189056455Y-128764524D01*
X188537606Y-128979438D01*
X188262202Y-129034219D01*
X187986800Y-129089000D01*
X187425200Y-129089000D01*
X187149798Y-129034219D01*
X186874394Y-128979438D01*
X186355545Y-128764524D01*
X185888593Y-128452516D01*
X185491484Y-128055407D01*
X185179476Y-127588455D01*
X184964562Y-127069606D01*
X184855000Y-126518799D01*
X184855000Y-125957201D01*
X184964562Y-125406394D01*
X185179476Y-124887545D01*
X185491484Y-124420593D01*
X185888593Y-124023484D01*
X186355545Y-123711476D01*
X186874394Y-123496562D01*
X187425200Y-123387000D01*
X187986800Y-123387000D01*
X188537606Y-123496562D01*
X188537606Y-123496562D01*
G37*
G36*
X229218443Y-124835519D02*
G01*
X229284627Y-124842037D01*
X229454466Y-124893557D01*
X229610991Y-124977222D01*
X229646729Y-125006552D01*
X229748186Y-125089814D01*
X229831448Y-125191271D01*
X229860778Y-125227009D01*
X229944443Y-125383534D01*
X229995963Y-125553373D01*
X230013359Y-125730000D01*
X229995963Y-125906627D01*
X229944443Y-126076466D01*
X229860778Y-126232991D01*
X229831448Y-126268729D01*
X229748186Y-126370186D01*
X229646729Y-126453448D01*
X229610991Y-126482778D01*
X229454466Y-126566443D01*
X229284627Y-126617963D01*
X229218442Y-126624482D01*
X229152260Y-126631000D01*
X229063740Y-126631000D01*
X228997558Y-126624482D01*
X228931373Y-126617963D01*
X228761534Y-126566443D01*
X228605009Y-126482778D01*
X228569271Y-126453448D01*
X228467814Y-126370186D01*
X228384552Y-126268729D01*
X228355222Y-126232991D01*
X228271557Y-126076466D01*
X228220037Y-125906627D01*
X228202641Y-125730000D01*
X228220037Y-125553373D01*
X228271557Y-125383534D01*
X228355222Y-125227009D01*
X228384552Y-125191271D01*
X228467814Y-125089814D01*
X228569271Y-125006552D01*
X228605009Y-124977222D01*
X228761534Y-124893557D01*
X228931373Y-124842037D01*
X228997557Y-124835519D01*
X229063740Y-124829000D01*
X229152260Y-124829000D01*
X229218443Y-124835519D01*
X229218443Y-124835519D01*
G37*
G36*
X232549000Y-126631000D02*
G01*
X230747000Y-126631000D01*
X230747000Y-124829000D01*
X232549000Y-124829000D01*
X232549000Y-126631000D01*
X232549000Y-126631000D01*
G37*
G36*
X238279125Y-118318689D02*
G01*
X238418324Y-118346377D01*
X238526949Y-118391371D01*
X238680568Y-118455002D01*
X238916583Y-118612702D01*
X239117298Y-118813417D01*
X239274998Y-119049432D01*
X239383623Y-119311677D01*
X239439000Y-119590073D01*
X239439000Y-119873927D01*
X239383623Y-120152323D01*
X239274998Y-120414568D01*
X239117298Y-120650583D01*
X238916583Y-120851298D01*
X238680568Y-121008998D01*
X238526949Y-121072629D01*
X238418324Y-121117623D01*
X238279125Y-121145312D01*
X238139927Y-121173000D01*
X237856073Y-121173000D01*
X237716875Y-121145312D01*
X237577676Y-121117623D01*
X237469051Y-121072629D01*
X237315432Y-121008998D01*
X237079417Y-120851298D01*
X236878702Y-120650583D01*
X236721002Y-120414568D01*
X236612377Y-120152323D01*
X236557000Y-119873927D01*
X236557000Y-119590073D01*
X236612377Y-119311677D01*
X236721002Y-119049432D01*
X236878702Y-118813417D01*
X237079417Y-118612702D01*
X237315432Y-118455002D01*
X237469051Y-118391371D01*
X237577676Y-118346377D01*
X237716875Y-118318689D01*
X237856073Y-118291000D01*
X238139927Y-118291000D01*
X238279125Y-118318689D01*
X238279125Y-118318689D01*
G37*
G36*
X248199125Y-118318689D02*
G01*
X248338324Y-118346377D01*
X248446949Y-118391371D01*
X248600568Y-118455002D01*
X248836583Y-118612702D01*
X249037298Y-118813417D01*
X249194998Y-119049432D01*
X249303623Y-119311677D01*
X249359000Y-119590073D01*
X249359000Y-119873927D01*
X249303623Y-120152323D01*
X249194998Y-120414568D01*
X249037298Y-120650583D01*
X248836583Y-120851298D01*
X248600568Y-121008998D01*
X248446949Y-121072629D01*
X248338324Y-121117623D01*
X248199125Y-121145312D01*
X248059927Y-121173000D01*
X247776073Y-121173000D01*
X247636875Y-121145312D01*
X247497676Y-121117623D01*
X247389051Y-121072629D01*
X247235432Y-121008998D01*
X246999417Y-120851298D01*
X246798702Y-120650583D01*
X246641002Y-120414568D01*
X246532377Y-120152323D01*
X246477000Y-119873927D01*
X246477000Y-119590073D01*
X246532377Y-119311677D01*
X246641002Y-119049432D01*
X246798702Y-118813417D01*
X246999417Y-118612702D01*
X247235432Y-118455002D01*
X247389051Y-118391371D01*
X247497676Y-118346377D01*
X247636875Y-118318689D01*
X247776073Y-118291000D01*
X248059927Y-118291000D01*
X248199125Y-118318689D01*
X248199125Y-118318689D01*
G37*
G36*
X238279125Y-114918688D02*
G01*
X238418324Y-114946377D01*
X238526949Y-114991371D01*
X238680568Y-115055002D01*
X238916583Y-115212702D01*
X239117298Y-115413417D01*
X239274998Y-115649432D01*
X239383623Y-115911677D01*
X239439000Y-116190073D01*
X239439000Y-116473927D01*
X239383623Y-116752323D01*
X239274998Y-117014568D01*
X239117298Y-117250583D01*
X238916583Y-117451298D01*
X238680568Y-117608998D01*
X238526949Y-117672629D01*
X238418324Y-117717623D01*
X238279125Y-117745311D01*
X238139927Y-117773000D01*
X237856073Y-117773000D01*
X237716875Y-117745311D01*
X237577676Y-117717623D01*
X237469051Y-117672629D01*
X237315432Y-117608998D01*
X237079417Y-117451298D01*
X236878702Y-117250583D01*
X236721002Y-117014568D01*
X236612377Y-116752323D01*
X236557000Y-116473927D01*
X236557000Y-116190073D01*
X236612377Y-115911677D01*
X236721002Y-115649432D01*
X236878702Y-115413417D01*
X237079417Y-115212702D01*
X237315432Y-115055002D01*
X237469051Y-114991371D01*
X237577676Y-114946377D01*
X237716875Y-114918688D01*
X237856073Y-114891000D01*
X238139927Y-114891000D01*
X238279125Y-114918688D01*
X238279125Y-114918688D01*
G37*
G36*
X248199125Y-114918688D02*
G01*
X248338324Y-114946377D01*
X248446949Y-114991371D01*
X248600568Y-115055002D01*
X248836583Y-115212702D01*
X249037298Y-115413417D01*
X249194998Y-115649432D01*
X249303623Y-115911677D01*
X249359000Y-116190073D01*
X249359000Y-116473927D01*
X249303623Y-116752323D01*
X249194998Y-117014568D01*
X249037298Y-117250583D01*
X248836583Y-117451298D01*
X248600568Y-117608998D01*
X248446949Y-117672629D01*
X248338324Y-117717623D01*
X248199125Y-117745311D01*
X248059927Y-117773000D01*
X247776073Y-117773000D01*
X247636875Y-117745311D01*
X247497676Y-117717623D01*
X247389051Y-117672629D01*
X247235432Y-117608998D01*
X246999417Y-117451298D01*
X246798702Y-117250583D01*
X246641002Y-117014568D01*
X246532377Y-116752323D01*
X246477000Y-116473927D01*
X246477000Y-116190073D01*
X246532377Y-115911677D01*
X246641002Y-115649432D01*
X246798702Y-115413417D01*
X246999417Y-115212702D01*
X247235432Y-115055002D01*
X247389051Y-114991371D01*
X247497676Y-114946377D01*
X247636875Y-114918688D01*
X247776073Y-114891000D01*
X248059927Y-114891000D01*
X248199125Y-114918688D01*
X248199125Y-114918688D01*
G37*
G36*
X245114031Y-108076621D02*
G01*
X245143486Y-108085556D01*
X245170623Y-108100062D01*
X245194414Y-108119586D01*
X245213938Y-108143377D01*
X245228444Y-108170514D01*
X245237379Y-108199969D01*
X245241000Y-108236734D01*
X245241000Y-110711266D01*
X245237379Y-110748031D01*
X245228444Y-110777486D01*
X245213938Y-110804623D01*
X245194414Y-110828414D01*
X245170623Y-110847938D01*
X245143486Y-110862444D01*
X245114031Y-110871379D01*
X245077266Y-110875000D01*
X242602734Y-110875000D01*
X242565969Y-110871379D01*
X242536514Y-110862444D01*
X242509377Y-110847938D01*
X242485586Y-110828414D01*
X242466062Y-110804623D01*
X242451556Y-110777486D01*
X242442621Y-110748031D01*
X242439000Y-110711266D01*
X242439000Y-108236734D01*
X242442621Y-108199969D01*
X242451556Y-108170514D01*
X242466062Y-108143377D01*
X242485586Y-108119586D01*
X242509377Y-108100062D01*
X242536514Y-108085556D01*
X242565969Y-108076621D01*
X242602734Y-108073000D01*
X245077266Y-108073000D01*
X245114031Y-108076621D01*
X245114031Y-108076621D01*
G37*
G36*
X244158433Y-104148893D02*
G01*
X244248657Y-104166839D01*
X244342344Y-104205646D01*
X244503621Y-104272449D01*
X244503622Y-104272450D01*
X244733086Y-104425772D01*
X244928228Y-104620914D01*
X245030675Y-104774237D01*
X245081551Y-104850379D01*
X245089157Y-104868742D01*
X245161260Y-105042812D01*
X245187161Y-105105344D01*
X245241000Y-105376012D01*
X245241000Y-105651988D01*
X245187161Y-105922656D01*
X245081551Y-106177621D01*
X245081550Y-106177622D01*
X244928228Y-106407086D01*
X244733086Y-106602228D01*
X244579763Y-106704675D01*
X244503621Y-106755551D01*
X244354267Y-106817415D01*
X244248657Y-106861161D01*
X244158433Y-106879107D01*
X243977988Y-106915000D01*
X243702012Y-106915000D01*
X243521567Y-106879107D01*
X243431343Y-106861161D01*
X243325733Y-106817415D01*
X243176379Y-106755551D01*
X243100237Y-106704675D01*
X242946914Y-106602228D01*
X242751772Y-106407086D01*
X242598450Y-106177622D01*
X242598449Y-106177621D01*
X242492839Y-105922656D01*
X242439000Y-105651988D01*
X242439000Y-105376012D01*
X242492839Y-105105344D01*
X242518741Y-105042812D01*
X242590843Y-104868742D01*
X242598449Y-104850379D01*
X242649325Y-104774237D01*
X242751772Y-104620914D01*
X242946914Y-104425772D01*
X243176378Y-104272450D01*
X243176379Y-104272449D01*
X243337656Y-104205646D01*
X243431343Y-104166839D01*
X243521567Y-104148893D01*
X243702012Y-104113000D01*
X243977988Y-104113000D01*
X244158433Y-104148893D01*
X244158433Y-104148893D01*
G37*
G36*
X212013512Y-103883927D02*
G01*
X212162812Y-103913624D01*
X212326784Y-103981544D01*
X212474354Y-104080147D01*
X212599853Y-104205646D01*
X212698456Y-104353216D01*
X212766376Y-104517188D01*
X212801000Y-104691259D01*
X212801000Y-104868741D01*
X212766376Y-105042812D01*
X212698456Y-105206784D01*
X212599853Y-105354354D01*
X212474354Y-105479853D01*
X212326784Y-105578456D01*
X212162812Y-105646376D01*
X212013512Y-105676073D01*
X211988742Y-105681000D01*
X211811258Y-105681000D01*
X211786488Y-105676073D01*
X211637188Y-105646376D01*
X211473216Y-105578456D01*
X211325646Y-105479853D01*
X211200147Y-105354354D01*
X211101544Y-105206784D01*
X211033624Y-105042812D01*
X210999000Y-104868741D01*
X210999000Y-104691259D01*
X211033624Y-104517188D01*
X211101544Y-104353216D01*
X211200147Y-104205646D01*
X211325646Y-104080147D01*
X211473216Y-103981544D01*
X211637188Y-103913624D01*
X211786488Y-103883927D01*
X211811258Y-103879000D01*
X211988742Y-103879000D01*
X212013512Y-103883927D01*
X212013512Y-103883927D01*
G37*
G36*
X214553512Y-103883927D02*
G01*
X214702812Y-103913624D01*
X214866784Y-103981544D01*
X215014354Y-104080147D01*
X215139853Y-104205646D01*
X215238456Y-104353216D01*
X215306376Y-104517188D01*
X215341000Y-104691259D01*
X215341000Y-104868741D01*
X215306376Y-105042812D01*
X215238456Y-105206784D01*
X215139853Y-105354354D01*
X215014354Y-105479853D01*
X214866784Y-105578456D01*
X214702812Y-105646376D01*
X214553512Y-105676073D01*
X214528742Y-105681000D01*
X214351258Y-105681000D01*
X214326488Y-105676073D01*
X214177188Y-105646376D01*
X214013216Y-105578456D01*
X213865646Y-105479853D01*
X213740147Y-105354354D01*
X213641544Y-105206784D01*
X213573624Y-105042812D01*
X213539000Y-104868741D01*
X213539000Y-104691259D01*
X213573624Y-104517188D01*
X213641544Y-104353216D01*
X213740147Y-104205646D01*
X213865646Y-104080147D01*
X214013216Y-103981544D01*
X214177188Y-103913624D01*
X214326488Y-103883927D01*
X214351258Y-103879000D01*
X214528742Y-103879000D01*
X214553512Y-103883927D01*
X214553512Y-103883927D01*
G37*
G36*
X212013512Y-101343927D02*
G01*
X212162812Y-101373624D01*
X212326784Y-101441544D01*
X212474354Y-101540147D01*
X212599853Y-101665646D01*
X212698456Y-101813216D01*
X212766376Y-101977188D01*
X212801000Y-102151259D01*
X212801000Y-102328741D01*
X212766376Y-102502812D01*
X212698456Y-102666784D01*
X212599853Y-102814354D01*
X212474354Y-102939853D01*
X212326784Y-103038456D01*
X212162812Y-103106376D01*
X212013512Y-103136073D01*
X211988742Y-103141000D01*
X211811258Y-103141000D01*
X211786488Y-103136073D01*
X211637188Y-103106376D01*
X211473216Y-103038456D01*
X211325646Y-102939853D01*
X211200147Y-102814354D01*
X211101544Y-102666784D01*
X211033624Y-102502812D01*
X210999000Y-102328741D01*
X210999000Y-102151259D01*
X211033624Y-101977188D01*
X211101544Y-101813216D01*
X211200147Y-101665646D01*
X211325646Y-101540147D01*
X211473216Y-101441544D01*
X211637188Y-101373624D01*
X211786488Y-101343927D01*
X211811258Y-101339000D01*
X211988742Y-101339000D01*
X212013512Y-101343927D01*
X212013512Y-101343927D01*
G37*
G36*
X214553512Y-101343927D02*
G01*
X214702812Y-101373624D01*
X214866784Y-101441544D01*
X215014354Y-101540147D01*
X215139853Y-101665646D01*
X215238456Y-101813216D01*
X215306376Y-101977188D01*
X215341000Y-102151259D01*
X215341000Y-102328741D01*
X215306376Y-102502812D01*
X215238456Y-102666784D01*
X215139853Y-102814354D01*
X215014354Y-102939853D01*
X214866784Y-103038456D01*
X214702812Y-103106376D01*
X214553512Y-103136073D01*
X214528742Y-103141000D01*
X214351258Y-103141000D01*
X214326488Y-103136073D01*
X214177188Y-103106376D01*
X214013216Y-103038456D01*
X213865646Y-102939853D01*
X213740147Y-102814354D01*
X213641544Y-102666784D01*
X213573624Y-102502812D01*
X213539000Y-102328741D01*
X213539000Y-102151259D01*
X213573624Y-101977188D01*
X213641544Y-101813216D01*
X213740147Y-101665646D01*
X213865646Y-101540147D01*
X214013216Y-101441544D01*
X214177188Y-101373624D01*
X214326488Y-101343927D01*
X214351258Y-101339000D01*
X214528742Y-101339000D01*
X214553512Y-101343927D01*
X214553512Y-101343927D01*
G37*
G36*
X214548796Y-98802989D02*
G01*
X214702812Y-98833624D01*
X214866784Y-98901544D01*
X215014354Y-99000147D01*
X215139853Y-99125646D01*
X215238456Y-99273216D01*
X215306376Y-99437188D01*
X215341000Y-99611259D01*
X215341000Y-99788741D01*
X215306376Y-99962812D01*
X215238456Y-100126784D01*
X215139853Y-100274354D01*
X215014354Y-100399853D01*
X214866784Y-100498456D01*
X214702812Y-100566376D01*
X214554341Y-100595908D01*
X214528742Y-100601000D01*
X214351258Y-100601000D01*
X214325659Y-100595908D01*
X214177188Y-100566376D01*
X214013216Y-100498456D01*
X213865646Y-100399853D01*
X213740147Y-100274354D01*
X213641544Y-100126784D01*
X213573624Y-99962812D01*
X213539000Y-99788741D01*
X213539000Y-99611259D01*
X213573624Y-99437188D01*
X213641544Y-99273216D01*
X213740147Y-99125646D01*
X213865646Y-99000147D01*
X214013216Y-98901544D01*
X214177188Y-98833624D01*
X214331204Y-98802989D01*
X214351258Y-98799000D01*
X214528742Y-98799000D01*
X214548796Y-98802989D01*
X214548796Y-98802989D01*
G37*
G36*
X212658600Y-98802989D02*
G01*
X212691652Y-98813015D01*
X212722103Y-98829292D01*
X212748799Y-98851201D01*
X212770708Y-98877897D01*
X212786985Y-98908348D01*
X212797011Y-98941400D01*
X212801000Y-98981903D01*
X212801000Y-100418097D01*
X212797011Y-100458600D01*
X212786985Y-100491652D01*
X212770708Y-100522103D01*
X212748799Y-100548799D01*
X212722103Y-100570708D01*
X212691652Y-100586985D01*
X212658600Y-100597011D01*
X212618097Y-100601000D01*
X211181903Y-100601000D01*
X211141400Y-100597011D01*
X211108348Y-100586985D01*
X211077897Y-100570708D01*
X211051201Y-100548799D01*
X211029292Y-100522103D01*
X211013015Y-100491652D01*
X211002989Y-100458600D01*
X210999000Y-100418097D01*
X210999000Y-98981903D01*
X211002989Y-98941400D01*
X211013015Y-98908348D01*
X211029292Y-98877897D01*
X211051201Y-98851201D01*
X211077897Y-98829292D01*
X211108348Y-98813015D01*
X211141400Y-98802989D01*
X211181903Y-98799000D01*
X212618097Y-98799000D01*
X212658600Y-98802989D01*
X212658600Y-98802989D01*
G37*
G36*
X240464500Y-94668500D02*
G01*
X239087500Y-94668500D01*
X239087500Y-93291500D01*
X240464500Y-93291500D01*
X240464500Y-94668500D01*
X240464500Y-94668500D01*
G37*
G36*
X243476825Y-93317958D02*
G01*
X243476827Y-93317959D01*
X243476828Y-93317959D01*
X243539478Y-93343910D01*
X243602130Y-93369861D01*
X243714386Y-93444868D01*
X243714893Y-93445207D01*
X243810793Y-93541107D01*
X243810795Y-93541110D01*
X243886139Y-93653870D01*
X243938042Y-93779175D01*
X243964500Y-93912187D01*
X243964500Y-94047813D01*
X243938042Y-94180825D01*
X243886139Y-94306130D01*
X243811132Y-94418386D01*
X243810793Y-94418893D01*
X243714893Y-94514793D01*
X243714890Y-94514795D01*
X243602130Y-94590139D01*
X243539478Y-94616090D01*
X243476828Y-94642041D01*
X243476827Y-94642041D01*
X243476825Y-94642042D01*
X243343813Y-94668500D01*
X243208187Y-94668500D01*
X243075175Y-94642042D01*
X243075173Y-94642041D01*
X243075172Y-94642041D01*
X243012522Y-94616090D01*
X242949870Y-94590139D01*
X242837110Y-94514795D01*
X242837107Y-94514793D01*
X242741207Y-94418893D01*
X242740868Y-94418386D01*
X242665861Y-94306130D01*
X242613958Y-94180825D01*
X242587500Y-94047813D01*
X242587500Y-93912187D01*
X242613958Y-93779175D01*
X242665861Y-93653870D01*
X242741205Y-93541110D01*
X242741207Y-93541107D01*
X242837107Y-93445207D01*
X242837614Y-93444868D01*
X242949870Y-93369861D01*
X243012523Y-93343909D01*
X243075172Y-93317959D01*
X243075173Y-93317959D01*
X243075175Y-93317958D01*
X243208187Y-93291500D01*
X243343813Y-93291500D01*
X243476825Y-93317958D01*
X243476825Y-93317958D01*
G37*
G36*
X255339606Y-84888562D02*
G01*
X255858455Y-85103476D01*
X256325407Y-85415484D01*
X256722516Y-85812593D01*
X257034524Y-86279545D01*
X257249438Y-86798394D01*
X257359000Y-87349201D01*
X257359000Y-87910799D01*
X257249438Y-88461606D01*
X257034524Y-88980455D01*
X256722516Y-89447407D01*
X256325407Y-89844516D01*
X255858455Y-90156524D01*
X255339606Y-90371438D01*
X255064202Y-90426219D01*
X254788800Y-90481000D01*
X254227200Y-90481000D01*
X253676394Y-90371438D01*
X253157545Y-90156524D01*
X252690593Y-89844516D01*
X252293484Y-89447407D01*
X251981476Y-88980455D01*
X251766562Y-88461606D01*
X251657000Y-87910799D01*
X251657000Y-87349201D01*
X251766562Y-86798394D01*
X251981476Y-86279545D01*
X252293484Y-85812593D01*
X252690593Y-85415484D01*
X253157545Y-85103476D01*
X253676394Y-84888562D01*
X254227200Y-84779000D01*
X254788800Y-84779000D01*
X255339606Y-84888562D01*
X255339606Y-84888562D01*
G37*
G36*
X188537606Y-84888562D02*
G01*
X189056455Y-85103476D01*
X189523407Y-85415484D01*
X189920516Y-85812593D01*
X190232524Y-86279545D01*
X190447438Y-86798394D01*
X190557000Y-87349201D01*
X190557000Y-87910799D01*
X190447438Y-88461606D01*
X190232524Y-88980455D01*
X189920516Y-89447407D01*
X189523407Y-89844516D01*
X189056455Y-90156524D01*
X188537606Y-90371438D01*
X188262202Y-90426219D01*
X187986800Y-90481000D01*
X187425200Y-90481000D01*
X186874394Y-90371438D01*
X186355545Y-90156524D01*
X185888593Y-89844516D01*
X185491484Y-89447407D01*
X185179476Y-88980455D01*
X184964562Y-88461606D01*
X184855000Y-87910799D01*
X184855000Y-87349201D01*
X184964562Y-86798394D01*
X185179476Y-86279545D01*
X185491484Y-85812593D01*
X185888593Y-85415484D01*
X186355545Y-85103476D01*
X186874394Y-84888562D01*
X187425200Y-84779000D01*
X187986800Y-84779000D01*
X188537606Y-84888562D01*
X188537606Y-84888562D01*
G37*
G36*
X227723000Y-88531000D02*
G01*
X225921000Y-88531000D01*
X225921000Y-86729000D01*
X227723000Y-86729000D01*
X227723000Y-88531000D01*
X227723000Y-88531000D01*
G37*
G36*
X229472442Y-86735518D02*
G01*
X229538627Y-86742037D01*
X229708466Y-86793557D01*
X229864991Y-86877222D01*
X229900729Y-86906552D01*
X230002186Y-86989814D01*
X230085448Y-87091271D01*
X230114778Y-87127009D01*
X230198443Y-87283534D01*
X230249963Y-87453373D01*
X230267359Y-87630000D01*
X230249963Y-87806627D01*
X230198443Y-87976466D01*
X230114778Y-88132991D01*
X230085448Y-88168729D01*
X230002186Y-88270186D01*
X229900729Y-88353448D01*
X229864991Y-88382778D01*
X229708466Y-88466443D01*
X229538627Y-88517963D01*
X229472442Y-88524482D01*
X229406260Y-88531000D01*
X229317740Y-88531000D01*
X229251558Y-88524482D01*
X229185373Y-88517963D01*
X229015534Y-88466443D01*
X228859009Y-88382778D01*
X228823271Y-88353448D01*
X228721814Y-88270186D01*
X228638552Y-88168729D01*
X228609222Y-88132991D01*
X228525557Y-87976466D01*
X228474037Y-87806627D01*
X228456641Y-87630000D01*
X228474037Y-87453373D01*
X228525557Y-87283534D01*
X228609222Y-87127009D01*
X228638552Y-87091271D01*
X228721814Y-86989814D01*
X228823271Y-86906552D01*
X228859009Y-86877222D01*
X229015534Y-86793557D01*
X229185373Y-86742037D01*
X229251558Y-86735518D01*
X229317740Y-86729000D01*
X229406260Y-86729000D01*
X229472442Y-86735518D01*
X229472442Y-86735518D01*
G37*
G36*
X232012442Y-86735518D02*
G01*
X232078627Y-86742037D01*
X232248466Y-86793557D01*
X232404991Y-86877222D01*
X232440729Y-86906552D01*
X232542186Y-86989814D01*
X232625448Y-87091271D01*
X232654778Y-87127009D01*
X232738443Y-87283534D01*
X232789963Y-87453373D01*
X232807359Y-87630000D01*
X232789963Y-87806627D01*
X232738443Y-87976466D01*
X232654778Y-88132991D01*
X232625448Y-88168729D01*
X232542186Y-88270186D01*
X232440729Y-88353448D01*
X232404991Y-88382778D01*
X232248466Y-88466443D01*
X232078627Y-88517963D01*
X232012442Y-88524482D01*
X231946260Y-88531000D01*
X231857740Y-88531000D01*
X231791558Y-88524482D01*
X231725373Y-88517963D01*
X231555534Y-88466443D01*
X231399009Y-88382778D01*
X231363271Y-88353448D01*
X231261814Y-88270186D01*
X231178552Y-88168729D01*
X231149222Y-88132991D01*
X231065557Y-87976466D01*
X231014037Y-87806627D01*
X230996641Y-87630000D01*
X231014037Y-87453373D01*
X231065557Y-87283534D01*
X231149222Y-87127009D01*
X231178552Y-87091271D01*
X231261814Y-86989814D01*
X231363271Y-86906552D01*
X231399009Y-86877222D01*
X231555534Y-86793557D01*
X231725373Y-86742037D01*
X231791558Y-86735518D01*
X231857740Y-86729000D01*
X231946260Y-86729000D01*
X232012442Y-86735518D01*
X232012442Y-86735518D01*
G37*
M02*
