G04 #@! TF.GenerationSoftware,KiCad,Pcbnew,(5.1.4)-1*
G04 #@! TF.CreationDate,2020-11-07T20:29:11+00:00*
G04 #@! TF.ProjectId,WLED Module,574c4544-204d-46f6-9475-6c652e6b6963,rev?*
G04 #@! TF.SameCoordinates,Original*
G04 #@! TF.FileFunction,Soldermask,Top*
G04 #@! TF.FilePolarity,Negative*
%FSLAX46Y46*%
G04 Gerber Fmt 4.6, Leading zero omitted, Abs format (unit mm)*
G04 Created by KiCad (PCBNEW (5.1.4)-1) date 2020-11-07 20:29:11*
%MOMM*%
%LPD*%
G04 APERTURE LIST*
%ADD10C,0.100000*%
G04 APERTURE END LIST*
D10*
G36*
X178175256Y-124121298D02*
G01*
X178281579Y-124142447D01*
X178582042Y-124266903D01*
X178852451Y-124447585D01*
X179082415Y-124677549D01*
X179226747Y-124893557D01*
X179263098Y-124947960D01*
X179278121Y-124984230D01*
X179387553Y-125248421D01*
X179451000Y-125567391D01*
X179451000Y-125892609D01*
X179387553Y-126211579D01*
X179366699Y-126261925D01*
X179277805Y-126476535D01*
X179263097Y-126512042D01*
X179082415Y-126782451D01*
X178852451Y-127012415D01*
X178582042Y-127193097D01*
X178281579Y-127317553D01*
X178175256Y-127338702D01*
X177962611Y-127381000D01*
X177637389Y-127381000D01*
X177424744Y-127338702D01*
X177318421Y-127317553D01*
X177017958Y-127193097D01*
X176747549Y-127012415D01*
X176517585Y-126782451D01*
X176336903Y-126512042D01*
X176322196Y-126476535D01*
X176233301Y-126261925D01*
X176212447Y-126211579D01*
X176149000Y-125892609D01*
X176149000Y-125567391D01*
X176212447Y-125248421D01*
X176321879Y-124984230D01*
X176336902Y-124947960D01*
X176373253Y-124893557D01*
X176517585Y-124677549D01*
X176747549Y-124447585D01*
X177017958Y-124266903D01*
X177318421Y-124142447D01*
X177424744Y-124121298D01*
X177637389Y-124079000D01*
X177962611Y-124079000D01*
X178175256Y-124121298D01*
X178175256Y-124121298D01*
G37*
G36*
X249549256Y-124121298D02*
G01*
X249655579Y-124142447D01*
X249956042Y-124266903D01*
X250226451Y-124447585D01*
X250456415Y-124677549D01*
X250600747Y-124893557D01*
X250637098Y-124947960D01*
X250652121Y-124984230D01*
X250761553Y-125248421D01*
X250825000Y-125567391D01*
X250825000Y-125892609D01*
X250761553Y-126211579D01*
X250740699Y-126261925D01*
X250651805Y-126476535D01*
X250637097Y-126512042D01*
X250456415Y-126782451D01*
X250226451Y-127012415D01*
X249956042Y-127193097D01*
X249655579Y-127317553D01*
X249549256Y-127338702D01*
X249336611Y-127381000D01*
X249011389Y-127381000D01*
X248798744Y-127338702D01*
X248692421Y-127317553D01*
X248391958Y-127193097D01*
X248121549Y-127012415D01*
X247891585Y-126782451D01*
X247710903Y-126512042D01*
X247696196Y-126476535D01*
X247607301Y-126261925D01*
X247586447Y-126211579D01*
X247523000Y-125892609D01*
X247523000Y-125567391D01*
X247586447Y-125248421D01*
X247695879Y-124984230D01*
X247710902Y-124947960D01*
X247747253Y-124893557D01*
X247891585Y-124677549D01*
X248121549Y-124447585D01*
X248391958Y-124266903D01*
X248692421Y-124142447D01*
X248798744Y-124121298D01*
X249011389Y-124079000D01*
X249336611Y-124079000D01*
X249549256Y-124121298D01*
X249549256Y-124121298D01*
G37*
G36*
X232549000Y-126631000D02*
G01*
X230747000Y-126631000D01*
X230747000Y-124829000D01*
X232549000Y-124829000D01*
X232549000Y-126631000D01*
X232549000Y-126631000D01*
G37*
G36*
X229218443Y-124835519D02*
G01*
X229284627Y-124842037D01*
X229454466Y-124893557D01*
X229610991Y-124977222D01*
X229619530Y-124984230D01*
X229748186Y-125089814D01*
X229827665Y-125186661D01*
X229860778Y-125227009D01*
X229944443Y-125383534D01*
X229995963Y-125553373D01*
X230013359Y-125730000D01*
X229995963Y-125906627D01*
X229944443Y-126076466D01*
X229860778Y-126232991D01*
X229837032Y-126261925D01*
X229748186Y-126370186D01*
X229669049Y-126435131D01*
X229610991Y-126482778D01*
X229454466Y-126566443D01*
X229284627Y-126617963D01*
X229218442Y-126624482D01*
X229152260Y-126631000D01*
X229063740Y-126631000D01*
X228997558Y-126624482D01*
X228931373Y-126617963D01*
X228761534Y-126566443D01*
X228605009Y-126482778D01*
X228546951Y-126435131D01*
X228467814Y-126370186D01*
X228378968Y-126261925D01*
X228355222Y-126232991D01*
X228271557Y-126076466D01*
X228220037Y-125906627D01*
X228202641Y-125730000D01*
X228220037Y-125553373D01*
X228271557Y-125383534D01*
X228355222Y-125227009D01*
X228388335Y-125186661D01*
X228467814Y-125089814D01*
X228596470Y-124984230D01*
X228605009Y-124977222D01*
X228761534Y-124893557D01*
X228931373Y-124842037D01*
X228997557Y-124835519D01*
X229063740Y-124829000D01*
X229152260Y-124829000D01*
X229218443Y-124835519D01*
X229218443Y-124835519D01*
G37*
G36*
X226678443Y-124835519D02*
G01*
X226744627Y-124842037D01*
X226914466Y-124893557D01*
X227070991Y-124977222D01*
X227079530Y-124984230D01*
X227208186Y-125089814D01*
X227287665Y-125186661D01*
X227320778Y-125227009D01*
X227404443Y-125383534D01*
X227455963Y-125553373D01*
X227473359Y-125730000D01*
X227455963Y-125906627D01*
X227404443Y-126076466D01*
X227320778Y-126232991D01*
X227297032Y-126261925D01*
X227208186Y-126370186D01*
X227129049Y-126435131D01*
X227070991Y-126482778D01*
X226914466Y-126566443D01*
X226744627Y-126617963D01*
X226678442Y-126624482D01*
X226612260Y-126631000D01*
X226523740Y-126631000D01*
X226457558Y-126624482D01*
X226391373Y-126617963D01*
X226221534Y-126566443D01*
X226065009Y-126482778D01*
X226006951Y-126435131D01*
X225927814Y-126370186D01*
X225838968Y-126261925D01*
X225815222Y-126232991D01*
X225731557Y-126076466D01*
X225680037Y-125906627D01*
X225662641Y-125730000D01*
X225680037Y-125553373D01*
X225731557Y-125383534D01*
X225815222Y-125227009D01*
X225848335Y-125186661D01*
X225927814Y-125089814D01*
X226056470Y-124984230D01*
X226065009Y-124977222D01*
X226221534Y-124893557D01*
X226391373Y-124842037D01*
X226457557Y-124835519D01*
X226523740Y-124829000D01*
X226612260Y-124829000D01*
X226678443Y-124835519D01*
X226678443Y-124835519D01*
G37*
G36*
X218132674Y-124983465D02*
G01*
X218170367Y-124994899D01*
X218205103Y-125013466D01*
X218235548Y-125038452D01*
X218260534Y-125068897D01*
X218279101Y-125103633D01*
X218290535Y-125141326D01*
X218295000Y-125186661D01*
X218295000Y-126273339D01*
X218290535Y-126318674D01*
X218279101Y-126356367D01*
X218260534Y-126391103D01*
X218235548Y-126421548D01*
X218205103Y-126446534D01*
X218170367Y-126465101D01*
X218132674Y-126476535D01*
X218087339Y-126481000D01*
X217250661Y-126481000D01*
X217205326Y-126476535D01*
X217167633Y-126465101D01*
X217132897Y-126446534D01*
X217102452Y-126421548D01*
X217077466Y-126391103D01*
X217058899Y-126356367D01*
X217047465Y-126318674D01*
X217043000Y-126273339D01*
X217043000Y-125186661D01*
X217047465Y-125141326D01*
X217058899Y-125103633D01*
X217077466Y-125068897D01*
X217102452Y-125038452D01*
X217132897Y-125013466D01*
X217167633Y-124994899D01*
X217205326Y-124983465D01*
X217250661Y-124979000D01*
X218087339Y-124979000D01*
X218132674Y-124983465D01*
X218132674Y-124983465D01*
G37*
G36*
X220182674Y-124983465D02*
G01*
X220220367Y-124994899D01*
X220255103Y-125013466D01*
X220285548Y-125038452D01*
X220310534Y-125068897D01*
X220329101Y-125103633D01*
X220340535Y-125141326D01*
X220345000Y-125186661D01*
X220345000Y-126273339D01*
X220340535Y-126318674D01*
X220329101Y-126356367D01*
X220310534Y-126391103D01*
X220285548Y-126421548D01*
X220255103Y-126446534D01*
X220220367Y-126465101D01*
X220182674Y-126476535D01*
X220137339Y-126481000D01*
X219300661Y-126481000D01*
X219255326Y-126476535D01*
X219217633Y-126465101D01*
X219182897Y-126446534D01*
X219152452Y-126421548D01*
X219127466Y-126391103D01*
X219108899Y-126356367D01*
X219097465Y-126318674D01*
X219093000Y-126273339D01*
X219093000Y-125186661D01*
X219097465Y-125141326D01*
X219108899Y-125103633D01*
X219127466Y-125068897D01*
X219152452Y-125038452D01*
X219182897Y-125013466D01*
X219217633Y-124994899D01*
X219255326Y-124983465D01*
X219300661Y-124979000D01*
X220137339Y-124979000D01*
X220182674Y-124983465D01*
X220182674Y-124983465D01*
G37*
G36*
X189393675Y-122694466D02*
G01*
X189431368Y-122705900D01*
X189466104Y-122724467D01*
X189496549Y-122749453D01*
X189521535Y-122779898D01*
X189540102Y-122814634D01*
X189551536Y-122852327D01*
X189556001Y-122897662D01*
X189556001Y-123984340D01*
X189551536Y-124029675D01*
X189540102Y-124067368D01*
X189521535Y-124102104D01*
X189496549Y-124132549D01*
X189466104Y-124157535D01*
X189431368Y-124176102D01*
X189393675Y-124187536D01*
X189348340Y-124192001D01*
X188511662Y-124192001D01*
X188466327Y-124187536D01*
X188428634Y-124176102D01*
X188393898Y-124157535D01*
X188363453Y-124132549D01*
X188338467Y-124102104D01*
X188319900Y-124067368D01*
X188308466Y-124029675D01*
X188304001Y-123984340D01*
X188304001Y-122897662D01*
X188308466Y-122852327D01*
X188319900Y-122814634D01*
X188338467Y-122779898D01*
X188363453Y-122749453D01*
X188393898Y-122724467D01*
X188428634Y-122705900D01*
X188466327Y-122694466D01*
X188511662Y-122690001D01*
X189348340Y-122690001D01*
X189393675Y-122694466D01*
X189393675Y-122694466D01*
G37*
G36*
X187343675Y-122694466D02*
G01*
X187381368Y-122705900D01*
X187416104Y-122724467D01*
X187446549Y-122749453D01*
X187471535Y-122779898D01*
X187490102Y-122814634D01*
X187501536Y-122852327D01*
X187506001Y-122897662D01*
X187506001Y-123984340D01*
X187501536Y-124029675D01*
X187490102Y-124067368D01*
X187471535Y-124102104D01*
X187446549Y-124132549D01*
X187416104Y-124157535D01*
X187381368Y-124176102D01*
X187343675Y-124187536D01*
X187298340Y-124192001D01*
X186461662Y-124192001D01*
X186416327Y-124187536D01*
X186378634Y-124176102D01*
X186343898Y-124157535D01*
X186313453Y-124132549D01*
X186288467Y-124102104D01*
X186269900Y-124067368D01*
X186258466Y-124029675D01*
X186254001Y-123984340D01*
X186254001Y-122897662D01*
X186258466Y-122852327D01*
X186269900Y-122814634D01*
X186288467Y-122779898D01*
X186313453Y-122749453D01*
X186343898Y-122724467D01*
X186378634Y-122705900D01*
X186416327Y-122694466D01*
X186461662Y-122690001D01*
X187298340Y-122690001D01*
X187343675Y-122694466D01*
X187343675Y-122694466D01*
G37*
G36*
X194143675Y-122694466D02*
G01*
X194181368Y-122705900D01*
X194216104Y-122724467D01*
X194246549Y-122749453D01*
X194271535Y-122779898D01*
X194290102Y-122814634D01*
X194301536Y-122852327D01*
X194306001Y-122897662D01*
X194306001Y-123984340D01*
X194301536Y-124029675D01*
X194290102Y-124067368D01*
X194271535Y-124102104D01*
X194246549Y-124132549D01*
X194216104Y-124157535D01*
X194181368Y-124176102D01*
X194143675Y-124187536D01*
X194098340Y-124192001D01*
X193261662Y-124192001D01*
X193216327Y-124187536D01*
X193178634Y-124176102D01*
X193143898Y-124157535D01*
X193113453Y-124132549D01*
X193088467Y-124102104D01*
X193069900Y-124067368D01*
X193058466Y-124029675D01*
X193054001Y-123984340D01*
X193054001Y-122897662D01*
X193058466Y-122852327D01*
X193069900Y-122814634D01*
X193088467Y-122779898D01*
X193113453Y-122749453D01*
X193143898Y-122724467D01*
X193178634Y-122705900D01*
X193216327Y-122694466D01*
X193261662Y-122690001D01*
X194098340Y-122690001D01*
X194143675Y-122694466D01*
X194143675Y-122694466D01*
G37*
G36*
X192093675Y-122694466D02*
G01*
X192131368Y-122705900D01*
X192166104Y-122724467D01*
X192196549Y-122749453D01*
X192221535Y-122779898D01*
X192240102Y-122814634D01*
X192251536Y-122852327D01*
X192256001Y-122897662D01*
X192256001Y-123984340D01*
X192251536Y-124029675D01*
X192240102Y-124067368D01*
X192221535Y-124102104D01*
X192196549Y-124132549D01*
X192166104Y-124157535D01*
X192131368Y-124176102D01*
X192093675Y-124187536D01*
X192048340Y-124192001D01*
X191211662Y-124192001D01*
X191166327Y-124187536D01*
X191128634Y-124176102D01*
X191093898Y-124157535D01*
X191063453Y-124132549D01*
X191038467Y-124102104D01*
X191019900Y-124067368D01*
X191008466Y-124029675D01*
X191004001Y-123984340D01*
X191004001Y-122897662D01*
X191008466Y-122852327D01*
X191019900Y-122814634D01*
X191038467Y-122779898D01*
X191063453Y-122749453D01*
X191093898Y-122724467D01*
X191128634Y-122705900D01*
X191166327Y-122694466D01*
X191211662Y-122690001D01*
X192048340Y-122690001D01*
X192093675Y-122694466D01*
X192093675Y-122694466D01*
G37*
G36*
X220609000Y-122989000D02*
G01*
X218507000Y-122989000D01*
X218507000Y-121387000D01*
X220609000Y-121387000D01*
X220609000Y-122989000D01*
X220609000Y-122989000D01*
G37*
G36*
X214309000Y-121839000D02*
G01*
X212207000Y-121839000D01*
X212207000Y-117937000D01*
X214309000Y-117937000D01*
X214309000Y-121839000D01*
X214309000Y-121839000D01*
G37*
G36*
X220609000Y-120689000D02*
G01*
X218507000Y-120689000D01*
X218507000Y-119087000D01*
X220609000Y-119087000D01*
X220609000Y-120689000D01*
X220609000Y-120689000D01*
G37*
G36*
X187416674Y-118633465D02*
G01*
X187454367Y-118644899D01*
X187489103Y-118663466D01*
X187519548Y-118688452D01*
X187544534Y-118718897D01*
X187563101Y-118753633D01*
X187574535Y-118791326D01*
X187579000Y-118836661D01*
X187579000Y-119923339D01*
X187574535Y-119968674D01*
X187563101Y-120006367D01*
X187544534Y-120041103D01*
X187519548Y-120071548D01*
X187489103Y-120096534D01*
X187454367Y-120115101D01*
X187416674Y-120126535D01*
X187371339Y-120131000D01*
X186534661Y-120131000D01*
X186489326Y-120126535D01*
X186451633Y-120115101D01*
X186416897Y-120096534D01*
X186386452Y-120071548D01*
X186361466Y-120041103D01*
X186342899Y-120006367D01*
X186331465Y-119968674D01*
X186327000Y-119923339D01*
X186327000Y-118836661D01*
X186331465Y-118791326D01*
X186342899Y-118753633D01*
X186361466Y-118718897D01*
X186386452Y-118688452D01*
X186416897Y-118663466D01*
X186451633Y-118644899D01*
X186489326Y-118633465D01*
X186534661Y-118629000D01*
X187371339Y-118629000D01*
X187416674Y-118633465D01*
X187416674Y-118633465D01*
G37*
G36*
X185366674Y-118633465D02*
G01*
X185404367Y-118644899D01*
X185439103Y-118663466D01*
X185469548Y-118688452D01*
X185494534Y-118718897D01*
X185513101Y-118753633D01*
X185524535Y-118791326D01*
X185529000Y-118836661D01*
X185529000Y-119923339D01*
X185524535Y-119968674D01*
X185513101Y-120006367D01*
X185494534Y-120041103D01*
X185469548Y-120071548D01*
X185439103Y-120096534D01*
X185404367Y-120115101D01*
X185366674Y-120126535D01*
X185321339Y-120131000D01*
X184484661Y-120131000D01*
X184439326Y-120126535D01*
X184401633Y-120115101D01*
X184366897Y-120096534D01*
X184336452Y-120071548D01*
X184311466Y-120041103D01*
X184292899Y-120006367D01*
X184281465Y-119968674D01*
X184277000Y-119923339D01*
X184277000Y-118836661D01*
X184281465Y-118791326D01*
X184292899Y-118753633D01*
X184311466Y-118718897D01*
X184336452Y-118688452D01*
X184366897Y-118663466D01*
X184401633Y-118644899D01*
X184439326Y-118633465D01*
X184484661Y-118629000D01*
X185321339Y-118629000D01*
X185366674Y-118633465D01*
X185366674Y-118633465D01*
G37*
G36*
X220609000Y-118389000D02*
G01*
X218507000Y-118389000D01*
X218507000Y-116787000D01*
X220609000Y-116787000D01*
X220609000Y-118389000D01*
X220609000Y-118389000D01*
G37*
G36*
X194176000Y-115977000D02*
G01*
X193174000Y-115977000D01*
X193174000Y-113875000D01*
X194176000Y-113875000D01*
X194176000Y-115977000D01*
X194176000Y-115977000D01*
G37*
G36*
X191636000Y-115977000D02*
G01*
X190634000Y-115977000D01*
X190634000Y-113875000D01*
X191636000Y-113875000D01*
X191636000Y-115977000D01*
X191636000Y-115977000D01*
G37*
G36*
X190366000Y-115977000D02*
G01*
X189364000Y-115977000D01*
X189364000Y-113875000D01*
X190366000Y-113875000D01*
X190366000Y-115977000D01*
X190366000Y-115977000D01*
G37*
G36*
X189096000Y-115977000D02*
G01*
X188094000Y-115977000D01*
X188094000Y-113875000D01*
X189096000Y-113875000D01*
X189096000Y-115977000D01*
X189096000Y-115977000D01*
G37*
G36*
X187826000Y-115977000D02*
G01*
X186824000Y-115977000D01*
X186824000Y-113875000D01*
X187826000Y-113875000D01*
X187826000Y-115977000D01*
X187826000Y-115977000D01*
G37*
G36*
X186556000Y-115977000D02*
G01*
X185554000Y-115977000D01*
X185554000Y-113875000D01*
X186556000Y-113875000D01*
X186556000Y-115977000D01*
X186556000Y-115977000D01*
G37*
G36*
X185286000Y-115977000D02*
G01*
X184284000Y-115977000D01*
X184284000Y-113875000D01*
X185286000Y-113875000D01*
X185286000Y-115977000D01*
X185286000Y-115977000D01*
G37*
G36*
X201796000Y-115977000D02*
G01*
X200794000Y-115977000D01*
X200794000Y-113875000D01*
X201796000Y-113875000D01*
X201796000Y-115977000D01*
X201796000Y-115977000D01*
G37*
G36*
X200526000Y-115977000D02*
G01*
X199524000Y-115977000D01*
X199524000Y-113875000D01*
X200526000Y-113875000D01*
X200526000Y-115977000D01*
X200526000Y-115977000D01*
G37*
G36*
X199256000Y-115977000D02*
G01*
X198254000Y-115977000D01*
X198254000Y-113875000D01*
X199256000Y-113875000D01*
X199256000Y-115977000D01*
X199256000Y-115977000D01*
G37*
G36*
X197986000Y-115977000D02*
G01*
X196984000Y-115977000D01*
X196984000Y-113875000D01*
X197986000Y-113875000D01*
X197986000Y-115977000D01*
X197986000Y-115977000D01*
G37*
G36*
X196716000Y-115977000D02*
G01*
X195714000Y-115977000D01*
X195714000Y-113875000D01*
X196716000Y-113875000D01*
X196716000Y-115977000D01*
X196716000Y-115977000D01*
G37*
G36*
X192906000Y-115977000D02*
G01*
X191904000Y-115977000D01*
X191904000Y-113875000D01*
X192906000Y-113875000D01*
X192906000Y-115977000D01*
X192906000Y-115977000D01*
G37*
G36*
X195446000Y-115977000D02*
G01*
X194444000Y-115977000D01*
X194444000Y-113875000D01*
X195446000Y-113875000D01*
X195446000Y-115977000D01*
X195446000Y-115977000D01*
G37*
G36*
X222468674Y-114061465D02*
G01*
X222506367Y-114072899D01*
X222541103Y-114091466D01*
X222571548Y-114116452D01*
X222596534Y-114146897D01*
X222615101Y-114181633D01*
X222626535Y-114219326D01*
X222631000Y-114264661D01*
X222631000Y-115351339D01*
X222626535Y-115396674D01*
X222615101Y-115434367D01*
X222596534Y-115469103D01*
X222571548Y-115499548D01*
X222541103Y-115524534D01*
X222506367Y-115543101D01*
X222468674Y-115554535D01*
X222423339Y-115559000D01*
X221586661Y-115559000D01*
X221541326Y-115554535D01*
X221503633Y-115543101D01*
X221468897Y-115524534D01*
X221438452Y-115499548D01*
X221413466Y-115469103D01*
X221394899Y-115434367D01*
X221383465Y-115396674D01*
X221379000Y-115351339D01*
X221379000Y-114264661D01*
X221383465Y-114219326D01*
X221394899Y-114181633D01*
X221413466Y-114146897D01*
X221438452Y-114116452D01*
X221468897Y-114091466D01*
X221503633Y-114072899D01*
X221541326Y-114061465D01*
X221586661Y-114057000D01*
X222423339Y-114057000D01*
X222468674Y-114061465D01*
X222468674Y-114061465D01*
G37*
G36*
X220418674Y-114061465D02*
G01*
X220456367Y-114072899D01*
X220491103Y-114091466D01*
X220521548Y-114116452D01*
X220546534Y-114146897D01*
X220565101Y-114181633D01*
X220576535Y-114219326D01*
X220581000Y-114264661D01*
X220581000Y-115351339D01*
X220576535Y-115396674D01*
X220565101Y-115434367D01*
X220546534Y-115469103D01*
X220521548Y-115499548D01*
X220491103Y-115524534D01*
X220456367Y-115543101D01*
X220418674Y-115554535D01*
X220373339Y-115559000D01*
X219536661Y-115559000D01*
X219491326Y-115554535D01*
X219453633Y-115543101D01*
X219418897Y-115524534D01*
X219388452Y-115499548D01*
X219363466Y-115469103D01*
X219344899Y-115434367D01*
X219333465Y-115396674D01*
X219329000Y-115351339D01*
X219329000Y-114264661D01*
X219333465Y-114219326D01*
X219344899Y-114181633D01*
X219363466Y-114146897D01*
X219388452Y-114116452D01*
X219418897Y-114091466D01*
X219453633Y-114072899D01*
X219491326Y-114061465D01*
X219536661Y-114057000D01*
X220373339Y-114057000D01*
X220418674Y-114061465D01*
X220418674Y-114061465D01*
G37*
G36*
X209318000Y-113129000D02*
G01*
X208766000Y-113129000D01*
X208766000Y-111527000D01*
X209318000Y-111527000D01*
X209318000Y-113129000D01*
X209318000Y-113129000D01*
G37*
G36*
X220552674Y-111401465D02*
G01*
X220590367Y-111412899D01*
X220625103Y-111431466D01*
X220655548Y-111456452D01*
X220680534Y-111486897D01*
X220699101Y-111521633D01*
X220710535Y-111559326D01*
X220715000Y-111604661D01*
X220715000Y-112441339D01*
X220710535Y-112486674D01*
X220699101Y-112524367D01*
X220680534Y-112559103D01*
X220655548Y-112589548D01*
X220625103Y-112614534D01*
X220590367Y-112633101D01*
X220552674Y-112644535D01*
X220507339Y-112649000D01*
X219420661Y-112649000D01*
X219375326Y-112644535D01*
X219337633Y-112633101D01*
X219302897Y-112614534D01*
X219272452Y-112589548D01*
X219247466Y-112559103D01*
X219228899Y-112524367D01*
X219217465Y-112486674D01*
X219213000Y-112441339D01*
X219213000Y-111604661D01*
X219217465Y-111559326D01*
X219228899Y-111521633D01*
X219247466Y-111486897D01*
X219272452Y-111456452D01*
X219302897Y-111431466D01*
X219337633Y-111412899D01*
X219375326Y-111401465D01*
X219420661Y-111397000D01*
X220507339Y-111397000D01*
X220552674Y-111401465D01*
X220552674Y-111401465D01*
G37*
G36*
X203346000Y-112642000D02*
G01*
X201244000Y-112642000D01*
X201244000Y-111640000D01*
X203346000Y-111640000D01*
X203346000Y-112642000D01*
X203346000Y-112642000D01*
G37*
G36*
X203346000Y-111372000D02*
G01*
X201244000Y-111372000D01*
X201244000Y-110370000D01*
X203346000Y-110370000D01*
X203346000Y-111372000D01*
X203346000Y-111372000D01*
G37*
G36*
X220552674Y-109351465D02*
G01*
X220590367Y-109362899D01*
X220625103Y-109381466D01*
X220655548Y-109406452D01*
X220680534Y-109436897D01*
X220699101Y-109471633D01*
X220710535Y-109509326D01*
X220715000Y-109554661D01*
X220715000Y-110391339D01*
X220710535Y-110436674D01*
X220699101Y-110474367D01*
X220680534Y-110509103D01*
X220655548Y-110539548D01*
X220625103Y-110564534D01*
X220590367Y-110583101D01*
X220552674Y-110594535D01*
X220507339Y-110599000D01*
X219420661Y-110599000D01*
X219375326Y-110594535D01*
X219337633Y-110583101D01*
X219302897Y-110564534D01*
X219272452Y-110539548D01*
X219247466Y-110509103D01*
X219228899Y-110474367D01*
X219217465Y-110436674D01*
X219213000Y-110391339D01*
X219213000Y-109554661D01*
X219217465Y-109509326D01*
X219228899Y-109471633D01*
X219247466Y-109436897D01*
X219272452Y-109406452D01*
X219302897Y-109381466D01*
X219337633Y-109362899D01*
X219375326Y-109351465D01*
X219420661Y-109347000D01*
X220507339Y-109347000D01*
X220552674Y-109351465D01*
X220552674Y-109351465D01*
G37*
G36*
X209968000Y-110469000D02*
G01*
X209416000Y-110469000D01*
X209416000Y-108867000D01*
X209968000Y-108867000D01*
X209968000Y-110469000D01*
X209968000Y-110469000D01*
G37*
G36*
X208668000Y-110469000D02*
G01*
X208116000Y-110469000D01*
X208116000Y-108867000D01*
X208668000Y-108867000D01*
X208668000Y-110469000D01*
X208668000Y-110469000D01*
G37*
G36*
X228823500Y-110358000D02*
G01*
X227196500Y-110358000D01*
X227196500Y-109606000D01*
X228823500Y-109606000D01*
X228823500Y-110358000D01*
X228823500Y-110358000D01*
G37*
G36*
X223399500Y-110358000D02*
G01*
X221772500Y-110358000D01*
X221772500Y-109606000D01*
X223399500Y-109606000D01*
X223399500Y-110358000D01*
X223399500Y-110358000D01*
G37*
G36*
X203346000Y-110102000D02*
G01*
X201244000Y-110102000D01*
X201244000Y-109100000D01*
X203346000Y-109100000D01*
X203346000Y-110102000D01*
X203346000Y-110102000D01*
G37*
G36*
X194836000Y-109977000D02*
G01*
X189734000Y-109977000D01*
X189734000Y-104875000D01*
X194836000Y-104875000D01*
X194836000Y-109977000D01*
X194836000Y-109977000D01*
G37*
G36*
X223399500Y-109088000D02*
G01*
X221772500Y-109088000D01*
X221772500Y-108336000D01*
X223399500Y-108336000D01*
X223399500Y-109088000D01*
X223399500Y-109088000D01*
G37*
G36*
X228823500Y-109088000D02*
G01*
X227196500Y-109088000D01*
X227196500Y-108336000D01*
X228823500Y-108336000D01*
X228823500Y-109088000D01*
X228823500Y-109088000D01*
G37*
G36*
X203346000Y-108832000D02*
G01*
X201244000Y-108832000D01*
X201244000Y-107830000D01*
X203346000Y-107830000D01*
X203346000Y-108832000D01*
X203346000Y-108832000D01*
G37*
G36*
X218702199Y-105733954D02*
G01*
X218714450Y-105734556D01*
X218732869Y-105734556D01*
X218755149Y-105736750D01*
X218839233Y-105753476D01*
X218860660Y-105759976D01*
X218939858Y-105792780D01*
X218945303Y-105795691D01*
X218945309Y-105795693D01*
X218954169Y-105800429D01*
X218954173Y-105800432D01*
X218959614Y-105803340D01*
X219030899Y-105850971D01*
X219048204Y-105865172D01*
X219108828Y-105925796D01*
X219123029Y-105943101D01*
X219170660Y-106014386D01*
X219173568Y-106019827D01*
X219173571Y-106019831D01*
X219178307Y-106028691D01*
X219178309Y-106028697D01*
X219181220Y-106034142D01*
X219214024Y-106113340D01*
X219220524Y-106134767D01*
X219237250Y-106218851D01*
X219239444Y-106241131D01*
X219239444Y-106259550D01*
X219240046Y-106271801D01*
X219241852Y-106290139D01*
X219241852Y-106777860D01*
X219240263Y-106793999D01*
X219237348Y-106803608D01*
X219232610Y-106812472D01*
X219226237Y-106820237D01*
X219213794Y-106830448D01*
X219203425Y-106837378D01*
X219186098Y-106854705D01*
X219172485Y-106875080D01*
X219163109Y-106897720D01*
X219158329Y-106921753D01*
X219158330Y-106946257D01*
X219163112Y-106970290D01*
X219172490Y-106992929D01*
X219186105Y-107013302D01*
X219203432Y-107030629D01*
X219213802Y-107037558D01*
X219226237Y-107047763D01*
X219232610Y-107055528D01*
X219237348Y-107064392D01*
X219240263Y-107074001D01*
X219241852Y-107090140D01*
X219241852Y-107577862D01*
X219240046Y-107596199D01*
X219239444Y-107608450D01*
X219239444Y-107626869D01*
X219237250Y-107649149D01*
X219220524Y-107733233D01*
X219214024Y-107754660D01*
X219181220Y-107833858D01*
X219178309Y-107839303D01*
X219178307Y-107839309D01*
X219173571Y-107848169D01*
X219173568Y-107848173D01*
X219170660Y-107853614D01*
X219123029Y-107924899D01*
X219108828Y-107942204D01*
X219048204Y-108002828D01*
X219030899Y-108017029D01*
X218959614Y-108064660D01*
X218954173Y-108067568D01*
X218954169Y-108067571D01*
X218945309Y-108072307D01*
X218945303Y-108072309D01*
X218939858Y-108075220D01*
X218860660Y-108108024D01*
X218839233Y-108114524D01*
X218755149Y-108131250D01*
X218732869Y-108133444D01*
X218714450Y-108133444D01*
X218702199Y-108134046D01*
X218683862Y-108135852D01*
X218196138Y-108135852D01*
X218177801Y-108134046D01*
X218165550Y-108133444D01*
X218147131Y-108133444D01*
X218124851Y-108131250D01*
X218040767Y-108114524D01*
X218019340Y-108108024D01*
X217940142Y-108075220D01*
X217934697Y-108072309D01*
X217934691Y-108072307D01*
X217925831Y-108067571D01*
X217925827Y-108067568D01*
X217920386Y-108064660D01*
X217849101Y-108017029D01*
X217831796Y-108002828D01*
X217771172Y-107942204D01*
X217756971Y-107924899D01*
X217709340Y-107853614D01*
X217706432Y-107848173D01*
X217706429Y-107848169D01*
X217701693Y-107839309D01*
X217701691Y-107839303D01*
X217698780Y-107833858D01*
X217665976Y-107754660D01*
X217659476Y-107733233D01*
X217642750Y-107649149D01*
X217640556Y-107626869D01*
X217640556Y-107608450D01*
X217639954Y-107596199D01*
X217638148Y-107577862D01*
X217638148Y-107090140D01*
X217639737Y-107074001D01*
X217642652Y-107064392D01*
X217647390Y-107055528D01*
X217653763Y-107047763D01*
X217666206Y-107037552D01*
X217676575Y-107030622D01*
X217693902Y-107013295D01*
X217707515Y-106992920D01*
X217716891Y-106970280D01*
X217721671Y-106946247D01*
X217721670Y-106921743D01*
X217716888Y-106897710D01*
X217707510Y-106875071D01*
X217693895Y-106854698D01*
X217676568Y-106837371D01*
X217666198Y-106830442D01*
X217653763Y-106820237D01*
X217647390Y-106812472D01*
X217642652Y-106803608D01*
X217639737Y-106793999D01*
X217638148Y-106777860D01*
X217638148Y-106290139D01*
X217639954Y-106271801D01*
X217640556Y-106259550D01*
X217640556Y-106241131D01*
X217642750Y-106218851D01*
X217659476Y-106134767D01*
X217665976Y-106113340D01*
X217698780Y-106034142D01*
X217701691Y-106028697D01*
X217701693Y-106028691D01*
X217706429Y-106019831D01*
X217706432Y-106019827D01*
X217709340Y-106014386D01*
X217756971Y-105943101D01*
X217771172Y-105925796D01*
X217831796Y-105865172D01*
X217849101Y-105850971D01*
X217920386Y-105803340D01*
X217925827Y-105800432D01*
X217925831Y-105800429D01*
X217934691Y-105795693D01*
X217934697Y-105795691D01*
X217940142Y-105792780D01*
X218019340Y-105759976D01*
X218040767Y-105753476D01*
X218124851Y-105736750D01*
X218147131Y-105734556D01*
X218165550Y-105734556D01*
X218177801Y-105733954D01*
X218196139Y-105732148D01*
X218683861Y-105732148D01*
X218702199Y-105733954D01*
X218702199Y-105733954D01*
G37*
G36*
X223399500Y-107818000D02*
G01*
X221772500Y-107818000D01*
X221772500Y-107066000D01*
X223399500Y-107066000D01*
X223399500Y-107818000D01*
X223399500Y-107818000D01*
G37*
G36*
X228823500Y-107818000D02*
G01*
X227196500Y-107818000D01*
X227196500Y-107066000D01*
X228823500Y-107066000D01*
X228823500Y-107818000D01*
X228823500Y-107818000D01*
G37*
G36*
X212170674Y-106321465D02*
G01*
X212208367Y-106332899D01*
X212243103Y-106351466D01*
X212273548Y-106376452D01*
X212298534Y-106406897D01*
X212317101Y-106441633D01*
X212328535Y-106479326D01*
X212333000Y-106524661D01*
X212333000Y-107361339D01*
X212328535Y-107406674D01*
X212317101Y-107444367D01*
X212298534Y-107479103D01*
X212273548Y-107509548D01*
X212243103Y-107534534D01*
X212208367Y-107553101D01*
X212170674Y-107564535D01*
X212125339Y-107569000D01*
X211038661Y-107569000D01*
X210993326Y-107564535D01*
X210955633Y-107553101D01*
X210920897Y-107534534D01*
X210890452Y-107509548D01*
X210865466Y-107479103D01*
X210846899Y-107444367D01*
X210835465Y-107406674D01*
X210831000Y-107361339D01*
X210831000Y-106524661D01*
X210835465Y-106479326D01*
X210846899Y-106441633D01*
X210865466Y-106406897D01*
X210890452Y-106376452D01*
X210920897Y-106351466D01*
X210955633Y-106332899D01*
X210993326Y-106321465D01*
X211038661Y-106317000D01*
X212125339Y-106317000D01*
X212170674Y-106321465D01*
X212170674Y-106321465D01*
G37*
G36*
X203346000Y-107562000D02*
G01*
X201244000Y-107562000D01*
X201244000Y-106560000D01*
X203346000Y-106560000D01*
X203346000Y-107562000D01*
X203346000Y-107562000D01*
G37*
G36*
X223399500Y-106548000D02*
G01*
X221772500Y-106548000D01*
X221772500Y-105796000D01*
X223399500Y-105796000D01*
X223399500Y-106548000D01*
X223399500Y-106548000D01*
G37*
G36*
X228823500Y-106548000D02*
G01*
X227196500Y-106548000D01*
X227196500Y-105796000D01*
X228823500Y-105796000D01*
X228823500Y-106548000D01*
X228823500Y-106548000D01*
G37*
G36*
X203346000Y-106292000D02*
G01*
X201244000Y-106292000D01*
X201244000Y-105290000D01*
X203346000Y-105290000D01*
X203346000Y-106292000D01*
X203346000Y-106292000D01*
G37*
G36*
X212170674Y-104271465D02*
G01*
X212208367Y-104282899D01*
X212243103Y-104301466D01*
X212273548Y-104326452D01*
X212298534Y-104356897D01*
X212317101Y-104391633D01*
X212328535Y-104429326D01*
X212333000Y-104474661D01*
X212333000Y-105311339D01*
X212328535Y-105356674D01*
X212317101Y-105394367D01*
X212298534Y-105429103D01*
X212273548Y-105459548D01*
X212243103Y-105484534D01*
X212208367Y-105503101D01*
X212170674Y-105514535D01*
X212125339Y-105519000D01*
X211038661Y-105519000D01*
X210993326Y-105514535D01*
X210955633Y-105503101D01*
X210920897Y-105484534D01*
X210890452Y-105459548D01*
X210865466Y-105429103D01*
X210846899Y-105394367D01*
X210835465Y-105356674D01*
X210831000Y-105311339D01*
X210831000Y-104474661D01*
X210835465Y-104429326D01*
X210846899Y-104391633D01*
X210865466Y-104356897D01*
X210890452Y-104326452D01*
X210920897Y-104301466D01*
X210955633Y-104282899D01*
X210993326Y-104271465D01*
X211038661Y-104267000D01*
X212125339Y-104267000D01*
X212170674Y-104271465D01*
X212170674Y-104271465D01*
G37*
G36*
X228823500Y-105278000D02*
G01*
X227196500Y-105278000D01*
X227196500Y-104526000D01*
X228823500Y-104526000D01*
X228823500Y-105278000D01*
X228823500Y-105278000D01*
G37*
G36*
X223399500Y-105278000D02*
G01*
X221772500Y-105278000D01*
X221772500Y-104526000D01*
X223399500Y-104526000D01*
X223399500Y-105278000D01*
X223399500Y-105278000D01*
G37*
G36*
X246414366Y-103105647D02*
G01*
X246610129Y-103186735D01*
X246610130Y-103186736D01*
X246786313Y-103304457D01*
X246936143Y-103454287D01*
X247014802Y-103572009D01*
X247053865Y-103630471D01*
X247134953Y-103826234D01*
X247176290Y-104034052D01*
X247176290Y-104245948D01*
X247134953Y-104453766D01*
X247053865Y-104649529D01*
X247053864Y-104649530D01*
X246936143Y-104825713D01*
X246786313Y-104975543D01*
X246668591Y-105054202D01*
X246610129Y-105093265D01*
X246414366Y-105174353D01*
X246206548Y-105215690D01*
X245994652Y-105215690D01*
X245786834Y-105174353D01*
X245591071Y-105093265D01*
X245532609Y-105054202D01*
X245414887Y-104975543D01*
X245265057Y-104825713D01*
X245147336Y-104649530D01*
X245147335Y-104649529D01*
X245066247Y-104453766D01*
X245024910Y-104245948D01*
X245024910Y-104034052D01*
X245066247Y-103826234D01*
X245147335Y-103630471D01*
X245186398Y-103572009D01*
X245265057Y-103454287D01*
X245414887Y-103304457D01*
X245591070Y-103186736D01*
X245591071Y-103186735D01*
X245786834Y-103105647D01*
X245994652Y-103064310D01*
X246206548Y-103064310D01*
X246414366Y-103105647D01*
X246414366Y-103105647D01*
G37*
G36*
X240615546Y-103105647D02*
G01*
X240811309Y-103186735D01*
X240811310Y-103186736D01*
X240987493Y-103304457D01*
X241137323Y-103454287D01*
X241215982Y-103572009D01*
X241255045Y-103630471D01*
X241336133Y-103826234D01*
X241377470Y-104034052D01*
X241377470Y-104245948D01*
X241336133Y-104453766D01*
X241255045Y-104649529D01*
X241255044Y-104649530D01*
X241137323Y-104825713D01*
X240987493Y-104975543D01*
X240869771Y-105054202D01*
X240811309Y-105093265D01*
X240615546Y-105174353D01*
X240407728Y-105215690D01*
X240195832Y-105215690D01*
X239988014Y-105174353D01*
X239792251Y-105093265D01*
X239733789Y-105054202D01*
X239616067Y-104975543D01*
X239466237Y-104825713D01*
X239348516Y-104649530D01*
X239348515Y-104649529D01*
X239267427Y-104453766D01*
X239226090Y-104245948D01*
X239226090Y-104034052D01*
X239267427Y-103826234D01*
X239348515Y-103630471D01*
X239387578Y-103572009D01*
X239466237Y-103454287D01*
X239616067Y-103304457D01*
X239792250Y-103186736D01*
X239792251Y-103186735D01*
X239988014Y-103105647D01*
X240195832Y-103064310D01*
X240407728Y-103064310D01*
X240615546Y-103105647D01*
X240615546Y-103105647D01*
G37*
G36*
X203346000Y-105022000D02*
G01*
X201244000Y-105022000D01*
X201244000Y-104020000D01*
X203346000Y-104020000D01*
X203346000Y-105022000D01*
X203346000Y-105022000D01*
G37*
G36*
X220745499Y-103110445D02*
G01*
X220782995Y-103121820D01*
X220817554Y-103140292D01*
X220847847Y-103165153D01*
X220872708Y-103195446D01*
X220891180Y-103230005D01*
X220902555Y-103267501D01*
X220907000Y-103312638D01*
X220907000Y-103951362D01*
X220902555Y-103996499D01*
X220891180Y-104033995D01*
X220872708Y-104068554D01*
X220847847Y-104098847D01*
X220817554Y-104123708D01*
X220782995Y-104142180D01*
X220745499Y-104153555D01*
X220700362Y-104158000D01*
X219961638Y-104158000D01*
X219916501Y-104153555D01*
X219879005Y-104142180D01*
X219844446Y-104123708D01*
X219814153Y-104098847D01*
X219789292Y-104068554D01*
X219770820Y-104033995D01*
X219759445Y-103996499D01*
X219755000Y-103951362D01*
X219755000Y-103312638D01*
X219759445Y-103267501D01*
X219770820Y-103230005D01*
X219789292Y-103195446D01*
X219814153Y-103165153D01*
X219844446Y-103140292D01*
X219879005Y-103121820D01*
X219916501Y-103110445D01*
X219961638Y-103106000D01*
X220700362Y-103106000D01*
X220745499Y-103110445D01*
X220745499Y-103110445D01*
G37*
G36*
X218995499Y-103110445D02*
G01*
X219032995Y-103121820D01*
X219067554Y-103140292D01*
X219097847Y-103165153D01*
X219122708Y-103195446D01*
X219141180Y-103230005D01*
X219152555Y-103267501D01*
X219157000Y-103312638D01*
X219157000Y-103951362D01*
X219152555Y-103996499D01*
X219141180Y-104033995D01*
X219122708Y-104068554D01*
X219097847Y-104098847D01*
X219067554Y-104123708D01*
X219032995Y-104142180D01*
X218995499Y-104153555D01*
X218950362Y-104158000D01*
X218211638Y-104158000D01*
X218166501Y-104153555D01*
X218129005Y-104142180D01*
X218094446Y-104123708D01*
X218064153Y-104098847D01*
X218039292Y-104068554D01*
X218020820Y-104033995D01*
X218009445Y-103996499D01*
X218005000Y-103951362D01*
X218005000Y-103312638D01*
X218009445Y-103267501D01*
X218020820Y-103230005D01*
X218039292Y-103195446D01*
X218064153Y-103165153D01*
X218094446Y-103140292D01*
X218129005Y-103121820D01*
X218166501Y-103110445D01*
X218211638Y-103106000D01*
X218950362Y-103106000D01*
X218995499Y-103110445D01*
X218995499Y-103110445D01*
G37*
G36*
X228823500Y-104008000D02*
G01*
X227196500Y-104008000D01*
X227196500Y-103256000D01*
X228823500Y-103256000D01*
X228823500Y-104008000D01*
X228823500Y-104008000D01*
G37*
G36*
X223399500Y-104008000D02*
G01*
X221772500Y-104008000D01*
X221772500Y-103256000D01*
X223399500Y-103256000D01*
X223399500Y-104008000D01*
X223399500Y-104008000D01*
G37*
G36*
X203346000Y-103752000D02*
G01*
X201244000Y-103752000D01*
X201244000Y-102750000D01*
X203346000Y-102750000D01*
X203346000Y-103752000D01*
X203346000Y-103752000D01*
G37*
G36*
X228823500Y-102738000D02*
G01*
X227196500Y-102738000D01*
X227196500Y-101986000D01*
X228823500Y-101986000D01*
X228823500Y-102738000D01*
X228823500Y-102738000D01*
G37*
G36*
X223399500Y-102738000D02*
G01*
X221772500Y-102738000D01*
X221772500Y-101986000D01*
X223399500Y-101986000D01*
X223399500Y-102738000D01*
X223399500Y-102738000D01*
G37*
G36*
X203346000Y-102482000D02*
G01*
X201244000Y-102482000D01*
X201244000Y-101480000D01*
X203346000Y-101480000D01*
X203346000Y-102482000D01*
X203346000Y-102482000D01*
G37*
G36*
X211038674Y-100091465D02*
G01*
X211076367Y-100102899D01*
X211111103Y-100121466D01*
X211141548Y-100146452D01*
X211166534Y-100176897D01*
X211185101Y-100211633D01*
X211196535Y-100249326D01*
X211201000Y-100294661D01*
X211201000Y-101381339D01*
X211196535Y-101426674D01*
X211185101Y-101464367D01*
X211166534Y-101499103D01*
X211141548Y-101529548D01*
X211111103Y-101554534D01*
X211076367Y-101573101D01*
X211038674Y-101584535D01*
X210993339Y-101589000D01*
X210156661Y-101589000D01*
X210111326Y-101584535D01*
X210073633Y-101573101D01*
X210038897Y-101554534D01*
X210008452Y-101529548D01*
X209983466Y-101499103D01*
X209964899Y-101464367D01*
X209953465Y-101426674D01*
X209949000Y-101381339D01*
X209949000Y-100294661D01*
X209953465Y-100249326D01*
X209964899Y-100211633D01*
X209983466Y-100176897D01*
X210008452Y-100146452D01*
X210038897Y-100121466D01*
X210073633Y-100102899D01*
X210111326Y-100091465D01*
X210156661Y-100087000D01*
X210993339Y-100087000D01*
X211038674Y-100091465D01*
X211038674Y-100091465D01*
G37*
G36*
X208988674Y-100091465D02*
G01*
X209026367Y-100102899D01*
X209061103Y-100121466D01*
X209091548Y-100146452D01*
X209116534Y-100176897D01*
X209135101Y-100211633D01*
X209146535Y-100249326D01*
X209151000Y-100294661D01*
X209151000Y-101381339D01*
X209146535Y-101426674D01*
X209135101Y-101464367D01*
X209116534Y-101499103D01*
X209091548Y-101529548D01*
X209061103Y-101554534D01*
X209026367Y-101573101D01*
X208988674Y-101584535D01*
X208943339Y-101589000D01*
X208106661Y-101589000D01*
X208061326Y-101584535D01*
X208023633Y-101573101D01*
X207988897Y-101554534D01*
X207958452Y-101529548D01*
X207933466Y-101499103D01*
X207914899Y-101464367D01*
X207903465Y-101426674D01*
X207899000Y-101381339D01*
X207899000Y-100294661D01*
X207903465Y-100249326D01*
X207914899Y-100211633D01*
X207933466Y-100176897D01*
X207958452Y-100146452D01*
X207988897Y-100121466D01*
X208023633Y-100102899D01*
X208061326Y-100091465D01*
X208106661Y-100087000D01*
X208943339Y-100087000D01*
X208988674Y-100091465D01*
X208988674Y-100091465D01*
G37*
G36*
X214515000Y-101231000D02*
G01*
X212713000Y-101231000D01*
X212713000Y-99429000D01*
X214515000Y-99429000D01*
X214515000Y-101231000D01*
X214515000Y-101231000D01*
G37*
G36*
X203346000Y-101212000D02*
G01*
X201244000Y-101212000D01*
X201244000Y-100210000D01*
X203346000Y-100210000D01*
X203346000Y-101212000D01*
X203346000Y-101212000D01*
G37*
G36*
X243615286Y-98307587D02*
G01*
X243811049Y-98388675D01*
X243811050Y-98388676D01*
X243987233Y-98506397D01*
X244137063Y-98656227D01*
X244215722Y-98773949D01*
X244254785Y-98832411D01*
X244335873Y-99028174D01*
X244377210Y-99235992D01*
X244377210Y-99447888D01*
X244335873Y-99655706D01*
X244254785Y-99851469D01*
X244254784Y-99851470D01*
X244137063Y-100027653D01*
X243987233Y-100177483D01*
X243879712Y-100249326D01*
X243811049Y-100295205D01*
X243615286Y-100376293D01*
X243407468Y-100417630D01*
X243195572Y-100417630D01*
X242987754Y-100376293D01*
X242791991Y-100295205D01*
X242723328Y-100249326D01*
X242615807Y-100177483D01*
X242465977Y-100027653D01*
X242348256Y-99851470D01*
X242348255Y-99851469D01*
X242267167Y-99655706D01*
X242225830Y-99447888D01*
X242225830Y-99235992D01*
X242267167Y-99028174D01*
X242348255Y-98832411D01*
X242387318Y-98773949D01*
X242465977Y-98656227D01*
X242615807Y-98506397D01*
X242791990Y-98388676D01*
X242791991Y-98388675D01*
X242987754Y-98307587D01*
X243195572Y-98266250D01*
X243407468Y-98266250D01*
X243615286Y-98307587D01*
X243615286Y-98307587D01*
G37*
G36*
X199256000Y-98977000D02*
G01*
X198254000Y-98977000D01*
X198254000Y-96875000D01*
X199256000Y-96875000D01*
X199256000Y-98977000D01*
X199256000Y-98977000D01*
G37*
G36*
X185286000Y-98977000D02*
G01*
X184284000Y-98977000D01*
X184284000Y-96875000D01*
X185286000Y-96875000D01*
X185286000Y-98977000D01*
X185286000Y-98977000D01*
G37*
G36*
X186556000Y-98977000D02*
G01*
X185554000Y-98977000D01*
X185554000Y-96875000D01*
X186556000Y-96875000D01*
X186556000Y-98977000D01*
X186556000Y-98977000D01*
G37*
G36*
X187826000Y-98977000D02*
G01*
X186824000Y-98977000D01*
X186824000Y-96875000D01*
X187826000Y-96875000D01*
X187826000Y-98977000D01*
X187826000Y-98977000D01*
G37*
G36*
X189096000Y-98977000D02*
G01*
X188094000Y-98977000D01*
X188094000Y-96875000D01*
X189096000Y-96875000D01*
X189096000Y-98977000D01*
X189096000Y-98977000D01*
G37*
G36*
X190366000Y-98977000D02*
G01*
X189364000Y-98977000D01*
X189364000Y-96875000D01*
X190366000Y-96875000D01*
X190366000Y-98977000D01*
X190366000Y-98977000D01*
G37*
G36*
X191636000Y-98977000D02*
G01*
X190634000Y-98977000D01*
X190634000Y-96875000D01*
X191636000Y-96875000D01*
X191636000Y-98977000D01*
X191636000Y-98977000D01*
G37*
G36*
X200526000Y-98977000D02*
G01*
X199524000Y-98977000D01*
X199524000Y-96875000D01*
X200526000Y-96875000D01*
X200526000Y-98977000D01*
X200526000Y-98977000D01*
G37*
G36*
X197986000Y-98977000D02*
G01*
X196984000Y-98977000D01*
X196984000Y-96875000D01*
X197986000Y-96875000D01*
X197986000Y-98977000D01*
X197986000Y-98977000D01*
G37*
G36*
X196716000Y-98977000D02*
G01*
X195714000Y-98977000D01*
X195714000Y-96875000D01*
X196716000Y-96875000D01*
X196716000Y-98977000D01*
X196716000Y-98977000D01*
G37*
G36*
X195446000Y-98977000D02*
G01*
X194444000Y-98977000D01*
X194444000Y-96875000D01*
X195446000Y-96875000D01*
X195446000Y-98977000D01*
X195446000Y-98977000D01*
G37*
G36*
X201796000Y-98977000D02*
G01*
X200794000Y-98977000D01*
X200794000Y-96875000D01*
X201796000Y-96875000D01*
X201796000Y-98977000D01*
X201796000Y-98977000D01*
G37*
G36*
X194176000Y-98977000D02*
G01*
X193174000Y-98977000D01*
X193174000Y-96875000D01*
X194176000Y-96875000D01*
X194176000Y-98977000D01*
X194176000Y-98977000D01*
G37*
G36*
X192906000Y-98977000D02*
G01*
X191904000Y-98977000D01*
X191904000Y-96875000D01*
X192906000Y-96875000D01*
X192906000Y-98977000D01*
X192906000Y-98977000D01*
G37*
G36*
X221344443Y-97149519D02*
G01*
X221410627Y-97156037D01*
X221580466Y-97207557D01*
X221736991Y-97291222D01*
X221772729Y-97320552D01*
X221874186Y-97403814D01*
X221957448Y-97505271D01*
X221986778Y-97541009D01*
X222070443Y-97697534D01*
X222121963Y-97867373D01*
X222139359Y-98044000D01*
X222121963Y-98220627D01*
X222070443Y-98390466D01*
X221986778Y-98546991D01*
X221957448Y-98582729D01*
X221874186Y-98684186D01*
X221772729Y-98767448D01*
X221736991Y-98796778D01*
X221580466Y-98880443D01*
X221410627Y-98931963D01*
X221344443Y-98938481D01*
X221278260Y-98945000D01*
X221189740Y-98945000D01*
X221123558Y-98938482D01*
X221057373Y-98931963D01*
X220887534Y-98880443D01*
X220731009Y-98796778D01*
X220695271Y-98767448D01*
X220593814Y-98684186D01*
X220510552Y-98582729D01*
X220481222Y-98546991D01*
X220397557Y-98390466D01*
X220346037Y-98220627D01*
X220328641Y-98044000D01*
X220346037Y-97867373D01*
X220397557Y-97697534D01*
X220481222Y-97541009D01*
X220510552Y-97505271D01*
X220593814Y-97403814D01*
X220695271Y-97320552D01*
X220731009Y-97291222D01*
X220887534Y-97207557D01*
X221057373Y-97156037D01*
X221123558Y-97149518D01*
X221189740Y-97143000D01*
X221278260Y-97143000D01*
X221344443Y-97149519D01*
X221344443Y-97149519D01*
G37*
G36*
X210919000Y-98716000D02*
G01*
X209317000Y-98716000D01*
X209317000Y-98164000D01*
X210919000Y-98164000D01*
X210919000Y-98716000D01*
X210919000Y-98716000D01*
G37*
G36*
X213724442Y-96895518D02*
G01*
X213790627Y-96902037D01*
X213960466Y-96953557D01*
X214116991Y-97037222D01*
X214152729Y-97066552D01*
X214254186Y-97149814D01*
X214337448Y-97251271D01*
X214366778Y-97287009D01*
X214450443Y-97443534D01*
X214501963Y-97613373D01*
X214519359Y-97790000D01*
X214501963Y-97966627D01*
X214450443Y-98136466D01*
X214366778Y-98292991D01*
X214354799Y-98307587D01*
X214254186Y-98430186D01*
X214161321Y-98506397D01*
X214116991Y-98542778D01*
X213960466Y-98626443D01*
X213790627Y-98677963D01*
X213727453Y-98684185D01*
X213658260Y-98691000D01*
X213569740Y-98691000D01*
X213500547Y-98684185D01*
X213437373Y-98677963D01*
X213267534Y-98626443D01*
X213111009Y-98542778D01*
X213066679Y-98506397D01*
X212973814Y-98430186D01*
X212873201Y-98307587D01*
X212861222Y-98292991D01*
X212777557Y-98136466D01*
X212726037Y-97966627D01*
X212708641Y-97790000D01*
X212726037Y-97613373D01*
X212777557Y-97443534D01*
X212861222Y-97287009D01*
X212890552Y-97251271D01*
X212973814Y-97149814D01*
X213075271Y-97066552D01*
X213111009Y-97037222D01*
X213267534Y-96953557D01*
X213437373Y-96902037D01*
X213503558Y-96895518D01*
X213569740Y-96889000D01*
X213658260Y-96889000D01*
X213724442Y-96895518D01*
X213724442Y-96895518D01*
G37*
G36*
X208259000Y-98066000D02*
G01*
X206657000Y-98066000D01*
X206657000Y-97514000D01*
X208259000Y-97514000D01*
X208259000Y-98066000D01*
X208259000Y-98066000D01*
G37*
G36*
X210919000Y-97416000D02*
G01*
X209317000Y-97416000D01*
X209317000Y-96864000D01*
X210919000Y-96864000D01*
X210919000Y-97416000D01*
X210919000Y-97416000D01*
G37*
G36*
X221344442Y-94609518D02*
G01*
X221410627Y-94616037D01*
X221580466Y-94667557D01*
X221736991Y-94751222D01*
X221772729Y-94780552D01*
X221874186Y-94863814D01*
X221957448Y-94965271D01*
X221986778Y-95001009D01*
X222070443Y-95157534D01*
X222121963Y-95327373D01*
X222139359Y-95504000D01*
X222121963Y-95680627D01*
X222070443Y-95850466D01*
X221986778Y-96006991D01*
X221957448Y-96042729D01*
X221874186Y-96144186D01*
X221772729Y-96227448D01*
X221736991Y-96256778D01*
X221580466Y-96340443D01*
X221410627Y-96391963D01*
X221344442Y-96398482D01*
X221278260Y-96405000D01*
X221189740Y-96405000D01*
X221123558Y-96398482D01*
X221057373Y-96391963D01*
X220887534Y-96340443D01*
X220731009Y-96256778D01*
X220695271Y-96227448D01*
X220593814Y-96144186D01*
X220510552Y-96042729D01*
X220481222Y-96006991D01*
X220397557Y-95850466D01*
X220346037Y-95680627D01*
X220328641Y-95504000D01*
X220346037Y-95327373D01*
X220397557Y-95157534D01*
X220481222Y-95001009D01*
X220510552Y-94965271D01*
X220593814Y-94863814D01*
X220695271Y-94780552D01*
X220731009Y-94751222D01*
X220887534Y-94667557D01*
X221057373Y-94616037D01*
X221123558Y-94609518D01*
X221189740Y-94603000D01*
X221278260Y-94603000D01*
X221344442Y-94609518D01*
X221344442Y-94609518D01*
G37*
G36*
X213724442Y-94355518D02*
G01*
X213790627Y-94362037D01*
X213960466Y-94413557D01*
X214116991Y-94497222D01*
X214152729Y-94526552D01*
X214254186Y-94609814D01*
X214337448Y-94711271D01*
X214366778Y-94747009D01*
X214450443Y-94903534D01*
X214501963Y-95073373D01*
X214519359Y-95250000D01*
X214501963Y-95426627D01*
X214450443Y-95596466D01*
X214366778Y-95752991D01*
X214337448Y-95788729D01*
X214254186Y-95890186D01*
X214152729Y-95973448D01*
X214116991Y-96002778D01*
X213960466Y-96086443D01*
X213790627Y-96137963D01*
X213727453Y-96144185D01*
X213658260Y-96151000D01*
X213569740Y-96151000D01*
X213500547Y-96144185D01*
X213437373Y-96137963D01*
X213267534Y-96086443D01*
X213111009Y-96002778D01*
X213075271Y-95973448D01*
X212973814Y-95890186D01*
X212890552Y-95788729D01*
X212861222Y-95752991D01*
X212777557Y-95596466D01*
X212726037Y-95426627D01*
X212708641Y-95250000D01*
X212726037Y-95073373D01*
X212777557Y-94903534D01*
X212861222Y-94747009D01*
X212890552Y-94711271D01*
X212973814Y-94609814D01*
X213075271Y-94526552D01*
X213111009Y-94497222D01*
X213267534Y-94413557D01*
X213437373Y-94362037D01*
X213503557Y-94355519D01*
X213569740Y-94349000D01*
X213658260Y-94349000D01*
X213724442Y-94355518D01*
X213724442Y-94355518D01*
G37*
G36*
X243476825Y-93317958D02*
G01*
X243476827Y-93317959D01*
X243476828Y-93317959D01*
X243539478Y-93343910D01*
X243602130Y-93369861D01*
X243714386Y-93444868D01*
X243714893Y-93445207D01*
X243810793Y-93541107D01*
X243810795Y-93541110D01*
X243886139Y-93653870D01*
X243938042Y-93779175D01*
X243964500Y-93912187D01*
X243964500Y-94047813D01*
X243938042Y-94180825D01*
X243886139Y-94306130D01*
X243848783Y-94362037D01*
X243810793Y-94418893D01*
X243714893Y-94514793D01*
X243714890Y-94514795D01*
X243602130Y-94590139D01*
X243554630Y-94609814D01*
X243476828Y-94642041D01*
X243476827Y-94642041D01*
X243476825Y-94642042D01*
X243343813Y-94668500D01*
X243208187Y-94668500D01*
X243075175Y-94642042D01*
X243075173Y-94642041D01*
X243075172Y-94642041D01*
X242997370Y-94609814D01*
X242949870Y-94590139D01*
X242837110Y-94514795D01*
X242837107Y-94514793D01*
X242741207Y-94418893D01*
X242703217Y-94362037D01*
X242665861Y-94306130D01*
X242613958Y-94180825D01*
X242587500Y-94047813D01*
X242587500Y-93912187D01*
X242613958Y-93779175D01*
X242665861Y-93653870D01*
X242741205Y-93541110D01*
X242741207Y-93541107D01*
X242837107Y-93445207D01*
X242837614Y-93444868D01*
X242949870Y-93369861D01*
X243012523Y-93343909D01*
X243075172Y-93317959D01*
X243075173Y-93317959D01*
X243075175Y-93317958D01*
X243208187Y-93291500D01*
X243343813Y-93291500D01*
X243476825Y-93317958D01*
X243476825Y-93317958D01*
G37*
G36*
X240464500Y-94668500D02*
G01*
X239087500Y-94668500D01*
X239087500Y-93291500D01*
X240464500Y-93291500D01*
X240464500Y-94668500D01*
X240464500Y-94668500D01*
G37*
G36*
X222135000Y-93865000D02*
G01*
X220333000Y-93865000D01*
X220333000Y-92063000D01*
X222135000Y-92063000D01*
X222135000Y-93865000D01*
X222135000Y-93865000D01*
G37*
G36*
X213724442Y-91815518D02*
G01*
X213790627Y-91822037D01*
X213960466Y-91873557D01*
X214116991Y-91957222D01*
X214152729Y-91986552D01*
X214254186Y-92069814D01*
X214337448Y-92171271D01*
X214366778Y-92207009D01*
X214450443Y-92363534D01*
X214501963Y-92533373D01*
X214519359Y-92710000D01*
X214501963Y-92886627D01*
X214450443Y-93056466D01*
X214366778Y-93212991D01*
X214337448Y-93248729D01*
X214254186Y-93350186D01*
X214152729Y-93433448D01*
X214116991Y-93462778D01*
X213960466Y-93546443D01*
X213790627Y-93597963D01*
X213724442Y-93604482D01*
X213658260Y-93611000D01*
X213569740Y-93611000D01*
X213503557Y-93604481D01*
X213437373Y-93597963D01*
X213267534Y-93546443D01*
X213111009Y-93462778D01*
X213075271Y-93433448D01*
X212973814Y-93350186D01*
X212890552Y-93248729D01*
X212861222Y-93212991D01*
X212777557Y-93056466D01*
X212726037Y-92886627D01*
X212708641Y-92710000D01*
X212726037Y-92533373D01*
X212777557Y-92363534D01*
X212861222Y-92207009D01*
X212890552Y-92171271D01*
X212973814Y-92069814D01*
X213075271Y-91986552D01*
X213111009Y-91957222D01*
X213267534Y-91873557D01*
X213437373Y-91822037D01*
X213503558Y-91815518D01*
X213569740Y-91809000D01*
X213658260Y-91809000D01*
X213724442Y-91815518D01*
X213724442Y-91815518D01*
G37*
G36*
X213724443Y-89275519D02*
G01*
X213790627Y-89282037D01*
X213960466Y-89333557D01*
X214116991Y-89417222D01*
X214152729Y-89446552D01*
X214254186Y-89529814D01*
X214337448Y-89631271D01*
X214366778Y-89667009D01*
X214450443Y-89823534D01*
X214501963Y-89993373D01*
X214519359Y-90170000D01*
X214501963Y-90346627D01*
X214450443Y-90516466D01*
X214366778Y-90672991D01*
X214337448Y-90708729D01*
X214254186Y-90810186D01*
X214152729Y-90893448D01*
X214116991Y-90922778D01*
X213960466Y-91006443D01*
X213790627Y-91057963D01*
X213724442Y-91064482D01*
X213658260Y-91071000D01*
X213569740Y-91071000D01*
X213503558Y-91064482D01*
X213437373Y-91057963D01*
X213267534Y-91006443D01*
X213111009Y-90922778D01*
X213075271Y-90893448D01*
X212973814Y-90810186D01*
X212890552Y-90708729D01*
X212861222Y-90672991D01*
X212777557Y-90516466D01*
X212726037Y-90346627D01*
X212708641Y-90170000D01*
X212726037Y-89993373D01*
X212777557Y-89823534D01*
X212861222Y-89667009D01*
X212890552Y-89631271D01*
X212973814Y-89529814D01*
X213075271Y-89446552D01*
X213111009Y-89417222D01*
X213267534Y-89333557D01*
X213437373Y-89282037D01*
X213503557Y-89275519D01*
X213569740Y-89269000D01*
X213658260Y-89269000D01*
X213724443Y-89275519D01*
X213724443Y-89275519D01*
G37*
G36*
X178175256Y-85767298D02*
G01*
X178281579Y-85788447D01*
X178582042Y-85912903D01*
X178852451Y-86093585D01*
X179082415Y-86323549D01*
X179263097Y-86593958D01*
X179387553Y-86894421D01*
X179451000Y-87213391D01*
X179451000Y-87538609D01*
X179387553Y-87857579D01*
X179299550Y-88070037D01*
X179273474Y-88132991D01*
X179263097Y-88158042D01*
X179082415Y-88428451D01*
X178852451Y-88658415D01*
X178582042Y-88839097D01*
X178281579Y-88963553D01*
X178175256Y-88984702D01*
X177962611Y-89027000D01*
X177637389Y-89027000D01*
X177424744Y-88984702D01*
X177318421Y-88963553D01*
X177017958Y-88839097D01*
X176747549Y-88658415D01*
X176517585Y-88428451D01*
X176336903Y-88158042D01*
X176326527Y-88132991D01*
X176300450Y-88070037D01*
X176212447Y-87857579D01*
X176149000Y-87538609D01*
X176149000Y-87213391D01*
X176212447Y-86894421D01*
X176336903Y-86593958D01*
X176517585Y-86323549D01*
X176747549Y-86093585D01*
X177017958Y-85912903D01*
X177318421Y-85788447D01*
X177424744Y-85767298D01*
X177637389Y-85725000D01*
X177962611Y-85725000D01*
X178175256Y-85767298D01*
X178175256Y-85767298D01*
G37*
G36*
X249549256Y-85767298D02*
G01*
X249655579Y-85788447D01*
X249956042Y-85912903D01*
X250226451Y-86093585D01*
X250456415Y-86323549D01*
X250637097Y-86593958D01*
X250761553Y-86894421D01*
X250825000Y-87213391D01*
X250825000Y-87538609D01*
X250761553Y-87857579D01*
X250673550Y-88070037D01*
X250647474Y-88132991D01*
X250637097Y-88158042D01*
X250456415Y-88428451D01*
X250226451Y-88658415D01*
X249956042Y-88839097D01*
X249655579Y-88963553D01*
X249549256Y-88984702D01*
X249336611Y-89027000D01*
X249011389Y-89027000D01*
X248798744Y-88984702D01*
X248692421Y-88963553D01*
X248391958Y-88839097D01*
X248121549Y-88658415D01*
X247891585Y-88428451D01*
X247710903Y-88158042D01*
X247700527Y-88132991D01*
X247674450Y-88070037D01*
X247586447Y-87857579D01*
X247523000Y-87538609D01*
X247523000Y-87213391D01*
X247586447Y-86894421D01*
X247710903Y-86593958D01*
X247891585Y-86323549D01*
X248121549Y-86093585D01*
X248391958Y-85912903D01*
X248692421Y-85788447D01*
X248798744Y-85767298D01*
X249011389Y-85725000D01*
X249336611Y-85725000D01*
X249549256Y-85767298D01*
X249549256Y-85767298D01*
G37*
G36*
X229472442Y-86735518D02*
G01*
X229538627Y-86742037D01*
X229708466Y-86793557D01*
X229864991Y-86877222D01*
X229885948Y-86894421D01*
X230002186Y-86989814D01*
X230085448Y-87091271D01*
X230114778Y-87127009D01*
X230114779Y-87127011D01*
X230160951Y-87213391D01*
X230198443Y-87283534D01*
X230249963Y-87453373D01*
X230267359Y-87630000D01*
X230249963Y-87806627D01*
X230198443Y-87976466D01*
X230114778Y-88132991D01*
X230094219Y-88158042D01*
X230002186Y-88270186D01*
X229900729Y-88353448D01*
X229864991Y-88382778D01*
X229708466Y-88466443D01*
X229538627Y-88517963D01*
X229472442Y-88524482D01*
X229406260Y-88531000D01*
X229317740Y-88531000D01*
X229251558Y-88524482D01*
X229185373Y-88517963D01*
X229015534Y-88466443D01*
X228859009Y-88382778D01*
X228823271Y-88353448D01*
X228721814Y-88270186D01*
X228629781Y-88158042D01*
X228609222Y-88132991D01*
X228525557Y-87976466D01*
X228474037Y-87806627D01*
X228456641Y-87630000D01*
X228474037Y-87453373D01*
X228525557Y-87283534D01*
X228563050Y-87213391D01*
X228609221Y-87127011D01*
X228609222Y-87127009D01*
X228638552Y-87091271D01*
X228721814Y-86989814D01*
X228838052Y-86894421D01*
X228859009Y-86877222D01*
X229015534Y-86793557D01*
X229185373Y-86742037D01*
X229251558Y-86735518D01*
X229317740Y-86729000D01*
X229406260Y-86729000D01*
X229472442Y-86735518D01*
X229472442Y-86735518D01*
G37*
G36*
X232012442Y-86735518D02*
G01*
X232078627Y-86742037D01*
X232248466Y-86793557D01*
X232404991Y-86877222D01*
X232425948Y-86894421D01*
X232542186Y-86989814D01*
X232625448Y-87091271D01*
X232654778Y-87127009D01*
X232654779Y-87127011D01*
X232700951Y-87213391D01*
X232738443Y-87283534D01*
X232789963Y-87453373D01*
X232807359Y-87630000D01*
X232789963Y-87806627D01*
X232738443Y-87976466D01*
X232654778Y-88132991D01*
X232634219Y-88158042D01*
X232542186Y-88270186D01*
X232440729Y-88353448D01*
X232404991Y-88382778D01*
X232248466Y-88466443D01*
X232078627Y-88517963D01*
X232012442Y-88524482D01*
X231946260Y-88531000D01*
X231857740Y-88531000D01*
X231791558Y-88524482D01*
X231725373Y-88517963D01*
X231555534Y-88466443D01*
X231399009Y-88382778D01*
X231363271Y-88353448D01*
X231261814Y-88270186D01*
X231169781Y-88158042D01*
X231149222Y-88132991D01*
X231065557Y-87976466D01*
X231014037Y-87806627D01*
X230996641Y-87630000D01*
X231014037Y-87453373D01*
X231065557Y-87283534D01*
X231103050Y-87213391D01*
X231149221Y-87127011D01*
X231149222Y-87127009D01*
X231178552Y-87091271D01*
X231261814Y-86989814D01*
X231378052Y-86894421D01*
X231399009Y-86877222D01*
X231555534Y-86793557D01*
X231725373Y-86742037D01*
X231791558Y-86735518D01*
X231857740Y-86729000D01*
X231946260Y-86729000D01*
X232012442Y-86735518D01*
X232012442Y-86735518D01*
G37*
G36*
X227723000Y-88531000D02*
G01*
X225921000Y-88531000D01*
X225921000Y-86729000D01*
X227723000Y-86729000D01*
X227723000Y-88531000D01*
X227723000Y-88531000D01*
G37*
G36*
X213724442Y-86735518D02*
G01*
X213790627Y-86742037D01*
X213960466Y-86793557D01*
X214116991Y-86877222D01*
X214137948Y-86894421D01*
X214254186Y-86989814D01*
X214337448Y-87091271D01*
X214366778Y-87127009D01*
X214366779Y-87127011D01*
X214412951Y-87213391D01*
X214450443Y-87283534D01*
X214501963Y-87453373D01*
X214519359Y-87630000D01*
X214501963Y-87806627D01*
X214450443Y-87976466D01*
X214366778Y-88132991D01*
X214346219Y-88158042D01*
X214254186Y-88270186D01*
X214152729Y-88353448D01*
X214116991Y-88382778D01*
X213960466Y-88466443D01*
X213790627Y-88517963D01*
X213724442Y-88524482D01*
X213658260Y-88531000D01*
X213569740Y-88531000D01*
X213503558Y-88524482D01*
X213437373Y-88517963D01*
X213267534Y-88466443D01*
X213111009Y-88382778D01*
X213075271Y-88353448D01*
X212973814Y-88270186D01*
X212881781Y-88158042D01*
X212861222Y-88132991D01*
X212777557Y-87976466D01*
X212726037Y-87806627D01*
X212708641Y-87630000D01*
X212726037Y-87453373D01*
X212777557Y-87283534D01*
X212815050Y-87213391D01*
X212861221Y-87127011D01*
X212861222Y-87127009D01*
X212890552Y-87091271D01*
X212973814Y-86989814D01*
X213090052Y-86894421D01*
X213111009Y-86877222D01*
X213267534Y-86793557D01*
X213437373Y-86742037D01*
X213503558Y-86735518D01*
X213569740Y-86729000D01*
X213658260Y-86729000D01*
X213724442Y-86735518D01*
X213724442Y-86735518D01*
G37*
M02*
