M48
INCH
T1C0.0157
T2C0.0335
T3C0.0394
T4C0.0669
T5C0.0701
T6C0.1260
%
G90
G05
T1
X7.275Y-4.625
X7.28Y-3.74
X7.4154Y-4.2677
X7.4252Y-3.9547
X7.4311Y-4.7185
X7.4764Y-4.0728
X7.5669Y-3.5984
X7.7874Y-3.7126
X8.06Y-4.41
X8.0689Y-3.6201
X8.4744Y-4.8504
X8.5571Y-3.937
X8.7657Y-4.9094
T2
X9.44Y-3.7
X9.5778Y-3.7
T3
X8.93Y-3.45
X9.03Y-3.45
X9.13Y-3.45
X8.3425Y-3.9252
X8.3425Y-4.0252
X8.3425Y-4.1252
X8.4425Y-3.9252
X8.4425Y-4.0252
X8.4425Y-4.1252
X9.02Y-4.95
X9.12Y-4.95
T4
X9.6Y-4.1541
X9.6Y-4.31
T5
X9.37Y-4.58
X9.37Y-4.7139
X9.7606Y-4.58
X9.7606Y-4.7139
T6
X7.39Y-4.97
X7.39Y-3.45
X10.02Y-3.45
X10.02Y-4.97
T0
M30
